%TF.GenerationSoftware,Flux,Flux PCB Export,1*%
%TF.CreationDate,2026-08-29T18:55:27+00:00*%
%TF.ProjectId,input,696e7075-742e-46b6-9963-61645f706362,rev?*%
%TF.SameCoordinates,Original*%
%TF.FileFunction,Profile,NP*%
%FSLAX46Y46*%
G04 Gerber Fmt 4.6, Leading zero omitted, Abs format (unit mm)*
G04 Filename: oscilloscope*
G04 Build it with Flux! Visit our site at: https://www.flux.ai (Flux) date 2026-08-29 18:55:27*
%MOMM*%
%LPD*%
G01*
G04 APERTURE LIST*
%TA.AperFunction,Profile*%
%ADD10C,0.050000*%
%TD*%
G04 APERTURE END LIST*
D10*
X41224168Y-110621500D02*
X41199624Y-110621349D01*
X41199624Y-110621349D02*
X41175085Y-110620898D01*
X41175085Y-110620898D02*
X41150553Y-110620145D01*
X41150553Y-110620145D02*
X41126032Y-110619091D01*
X41126032Y-110619091D02*
X41101526Y-110617736D01*
X41101526Y-110617736D02*
X41077038Y-110616081D01*
X41077038Y-110616081D02*
X41052573Y-110614125D01*
X41052573Y-110614125D02*
X41028133Y-110611869D01*
X41028133Y-110611869D02*
X41003723Y-110609314D01*
X41003723Y-110609314D02*
X40979346Y-110606459D01*
X40979346Y-110606459D02*
X40955006Y-110603305D01*
X40955006Y-110603305D02*
X40930707Y-110599853D01*
X40930707Y-110599853D02*
X40906451Y-110596103D01*
X40906451Y-110596103D02*
X40882244Y-110592055D01*
X40882244Y-110592055D02*
X40858088Y-110587711D01*
X40858088Y-110587711D02*
X40833987Y-110583071D01*
X40833987Y-110583071D02*
X40809945Y-110578135D01*
X40809945Y-110578135D02*
X40785965Y-110572904D01*
X40785965Y-110572904D02*
X40762051Y-110567380D01*
X40762051Y-110567380D02*
X40738207Y-110561563D01*
X40738207Y-110561563D02*
X40714436Y-110555453D01*
X40714436Y-110555453D02*
X40690742Y-110549052D01*
X40690742Y-110549052D02*
X40667128Y-110542361D01*
X40667128Y-110542361D02*
X40643598Y-110535381D01*
X40643598Y-110535381D02*
X40620156Y-110528112D01*
X40620156Y-110528112D02*
X40596804Y-110520556D01*
X40596804Y-110520556D02*
X40573547Y-110512715D01*
X40573547Y-110512715D02*
X40550388Y-110504588D01*
X40550388Y-110504588D02*
X40527330Y-110496178D01*
X40527330Y-110496178D02*
X40504377Y-110487486D01*
X40504377Y-110487486D02*
X40481533Y-110478512D01*
X40481533Y-110478512D02*
X40458801Y-110469259D01*
X40458801Y-110469259D02*
X40436183Y-110459728D01*
X40436183Y-110459728D02*
X40413685Y-110449920D01*
X40413685Y-110449920D02*
X40391308Y-110439836D01*
X40391308Y-110439836D02*
X40369057Y-110429479D01*
X40369057Y-110429479D02*
X40346935Y-110418849D01*
X40346935Y-110418849D02*
X40324945Y-110407949D01*
X40324945Y-110407949D02*
X40303090Y-110396779D01*
X40303090Y-110396779D02*
X40281374Y-110385343D01*
X40281374Y-110385343D02*
X40259800Y-110373640D01*
X40259800Y-110373640D02*
X40238371Y-110361674D01*
X40238371Y-110361674D02*
X40217091Y-110349446D01*
X40217091Y-110349446D02*
X40195962Y-110336957D01*
X40195962Y-110336957D02*
X40174988Y-110324210D01*
X40174988Y-110324210D02*
X40154172Y-110311207D01*
X40154172Y-110311207D02*
X40133518Y-110297949D01*
X40133518Y-110297949D02*
X40113027Y-110284439D01*
X40113027Y-110284439D02*
X40092704Y-110270679D01*
X40092704Y-110270679D02*
X40072551Y-110256670D01*
X40072551Y-110256670D02*
X40052572Y-110242414D01*
X40052572Y-110242414D02*
X40032769Y-110227915D01*
X40032769Y-110227915D02*
X40013145Y-110213174D01*
X40013145Y-110213174D02*
X39993704Y-110198193D01*
X39993704Y-110198193D02*
X39974449Y-110182974D01*
X39974449Y-110182974D02*
X39955381Y-110167521D01*
X39955381Y-110167521D02*
X39936504Y-110151835D01*
X39936504Y-110151835D02*
X39917822Y-110135918D01*
X39917822Y-110135918D02*
X39899336Y-110119773D01*
X39899336Y-110119773D02*
X39881050Y-110103402D01*
X39881050Y-110103402D02*
X39862966Y-110086809D01*
X39862966Y-110086809D02*
X39845086Y-110069994D01*
X39845086Y-110069994D02*
X39827415Y-110052962D01*
X39827415Y-110052962D02*
X39809954Y-110035714D01*
X39809954Y-110035714D02*
X39792706Y-110018252D01*
X39792706Y-110018252D02*
X39775673Y-110000581D01*
X39775673Y-110000581D02*
X39758859Y-109982702D01*
X39758859Y-109982702D02*
X39742265Y-109964618D01*
X39742265Y-109964618D02*
X39725895Y-109946332D01*
X39725895Y-109946332D02*
X39709750Y-109927846D01*
X39709750Y-109927846D02*
X39693833Y-109909163D01*
X39693833Y-109909163D02*
X39678147Y-109890287D01*
X39678147Y-109890287D02*
X39662693Y-109871219D01*
X39662693Y-109871219D02*
X39647475Y-109851963D01*
X39647475Y-109851963D02*
X39632494Y-109832522D01*
X39632494Y-109832522D02*
X39617752Y-109812899D01*
X39617752Y-109812899D02*
X39603253Y-109793096D01*
X39603253Y-109793096D02*
X39588998Y-109773116D01*
X39588998Y-109773116D02*
X39574989Y-109752964D01*
X39574989Y-109752964D02*
X39561228Y-109732640D01*
X39561228Y-109732640D02*
X39547718Y-109712150D01*
X39547718Y-109712150D02*
X39534460Y-109691495D01*
X39534460Y-109691495D02*
X39521457Y-109670679D01*
X39521457Y-109670679D02*
X39508710Y-109649705D01*
X39508710Y-109649705D02*
X39496222Y-109628577D01*
X39496222Y-109628577D02*
X39483994Y-109607296D01*
X39483994Y-109607296D02*
X39472027Y-109585868D01*
X39472027Y-109585868D02*
X39460325Y-109564293D01*
X39460325Y-109564293D02*
X39448888Y-109542577D01*
X39448888Y-109542577D02*
X39437719Y-109520723D01*
X39437719Y-109520723D02*
X39426819Y-109498732D01*
X39426819Y-109498732D02*
X39416189Y-109476610D01*
X39416189Y-109476610D02*
X39405832Y-109454359D01*
X39405832Y-109454359D02*
X39395748Y-109431983D01*
X39395748Y-109431983D02*
X39385940Y-109409484D01*
X39385940Y-109409484D02*
X39376408Y-109386867D01*
X39376408Y-109386867D02*
X39367155Y-109364134D01*
X39367155Y-109364134D02*
X39358182Y-109341290D01*
X39358182Y-109341290D02*
X39349490Y-109318337D01*
X39349490Y-109318337D02*
X39341079Y-109295280D01*
X39341079Y-109295280D02*
X39332953Y-109272121D01*
X39332953Y-109272121D02*
X39325111Y-109248863D01*
X39325111Y-109248863D02*
X39317555Y-109225512D01*
X39317555Y-109225512D02*
X39310287Y-109202069D01*
X39310287Y-109202069D02*
X39303307Y-109178539D01*
X39303307Y-109178539D02*
X39296615Y-109154926D01*
X39296615Y-109154926D02*
X39290215Y-109131231D01*
X39290215Y-109131231D02*
X39284105Y-109107460D01*
X39284105Y-109107460D02*
X39278288Y-109083616D01*
X39278288Y-109083616D02*
X39272763Y-109059702D01*
X39272763Y-109059702D02*
X39267533Y-109035723D01*
X39267533Y-109035723D02*
X39262597Y-109011681D01*
X39262597Y-109011681D02*
X39257957Y-108987580D01*
X39257957Y-108987580D02*
X39253612Y-108963424D01*
X39253612Y-108963424D02*
X39249565Y-108939216D01*
X39249565Y-108939216D02*
X39245815Y-108914961D01*
X39245815Y-108914961D02*
X39242362Y-108890661D01*
X39242362Y-108890661D02*
X39239208Y-108866321D01*
X39239208Y-108866321D02*
X39236354Y-108841944D01*
X39236354Y-108841944D02*
X39233798Y-108817534D01*
X39233798Y-108817534D02*
X39231542Y-108793095D01*
X39231542Y-108793095D02*
X39229587Y-108768629D01*
X39229587Y-108768629D02*
X39227931Y-108744141D01*
X39227931Y-108744141D02*
X39226577Y-108719635D01*
X39226577Y-108719635D02*
X39225523Y-108695114D01*
X39225523Y-108695114D02*
X39224770Y-108670582D01*
X39224770Y-108670582D02*
X39224318Y-108646043D01*
X39224318Y-108646043D02*
X39224168Y-108621500D01*
X39224168Y-108621500D02*
X39224168Y-12621500D01*
X39224168Y-12621500D02*
X39224318Y-12596957D01*
X39224318Y-12596957D02*
X39224770Y-12572418D01*
X39224770Y-12572418D02*
X39225523Y-12547886D01*
X39225523Y-12547886D02*
X39226577Y-12523365D01*
X39226577Y-12523365D02*
X39227931Y-12498859D01*
X39227931Y-12498859D02*
X39229587Y-12474371D01*
X39229587Y-12474371D02*
X39231542Y-12449905D01*
X39231542Y-12449905D02*
X39233798Y-12425466D01*
X39233798Y-12425466D02*
X39236354Y-12401056D01*
X39236354Y-12401056D02*
X39239208Y-12376679D01*
X39239208Y-12376679D02*
X39242362Y-12352339D01*
X39242362Y-12352339D02*
X39245815Y-12328039D01*
X39245815Y-12328039D02*
X39249565Y-12303784D01*
X39249565Y-12303784D02*
X39253612Y-12279576D01*
X39253612Y-12279576D02*
X39257957Y-12255420D01*
X39257957Y-12255420D02*
X39262597Y-12231319D01*
X39262597Y-12231319D02*
X39267533Y-12207277D01*
X39267533Y-12207277D02*
X39272763Y-12183298D01*
X39272763Y-12183298D02*
X39278288Y-12159384D01*
X39278288Y-12159384D02*
X39284105Y-12135540D01*
X39284105Y-12135540D02*
X39290215Y-12111769D01*
X39290215Y-12111769D02*
X39296615Y-12088074D01*
X39296615Y-12088074D02*
X39303307Y-12064461D01*
X39303307Y-12064461D02*
X39310287Y-12040931D01*
X39310287Y-12040931D02*
X39317555Y-12017488D01*
X39317555Y-12017488D02*
X39325111Y-11994137D01*
X39325111Y-11994137D02*
X39332953Y-11970879D01*
X39332953Y-11970879D02*
X39341079Y-11947720D01*
X39341079Y-11947720D02*
X39349490Y-11924663D01*
X39349490Y-11924663D02*
X39358182Y-11901710D01*
X39358182Y-11901710D02*
X39367155Y-11878866D01*
X39367155Y-11878866D02*
X39376408Y-11856133D01*
X39376408Y-11856133D02*
X39385940Y-11833516D01*
X39385940Y-11833516D02*
X39395748Y-11811017D01*
X39395748Y-11811017D02*
X39405832Y-11788641D01*
X39405832Y-11788641D02*
X39416189Y-11766390D01*
X39416189Y-11766390D02*
X39426819Y-11744268D01*
X39426819Y-11744268D02*
X39437719Y-11722277D01*
X39437719Y-11722277D02*
X39448888Y-11700423D01*
X39448888Y-11700423D02*
X39460325Y-11678707D01*
X39460325Y-11678707D02*
X39472027Y-11657132D01*
X39472027Y-11657132D02*
X39483994Y-11635704D01*
X39483994Y-11635704D02*
X39496222Y-11614423D01*
X39496222Y-11614423D02*
X39508710Y-11593295D01*
X39508710Y-11593295D02*
X39521457Y-11572321D01*
X39521457Y-11572321D02*
X39534460Y-11551505D01*
X39534460Y-11551505D02*
X39547718Y-11530850D01*
X39547718Y-11530850D02*
X39561228Y-11510360D01*
X39561228Y-11510360D02*
X39574989Y-11490036D01*
X39574989Y-11490036D02*
X39588998Y-11469884D01*
X39588998Y-11469884D02*
X39603253Y-11449904D01*
X39603253Y-11449904D02*
X39617752Y-11430101D01*
X39617752Y-11430101D02*
X39632494Y-11410478D01*
X39632494Y-11410478D02*
X39647475Y-11391037D01*
X39647475Y-11391037D02*
X39662693Y-11371781D01*
X39662693Y-11371781D02*
X39678147Y-11352713D01*
X39678147Y-11352713D02*
X39693833Y-11333837D01*
X39693833Y-11333837D02*
X39709750Y-11315154D01*
X39709750Y-11315154D02*
X39725895Y-11296668D01*
X39725895Y-11296668D02*
X39742265Y-11278382D01*
X39742265Y-11278382D02*
X39758859Y-11260298D01*
X39758859Y-11260298D02*
X39775673Y-11242419D01*
X39775673Y-11242419D02*
X39792706Y-11224748D01*
X39792706Y-11224748D02*
X39809954Y-11207286D01*
X39809954Y-11207286D02*
X39827415Y-11190038D01*
X39827415Y-11190038D02*
X39845086Y-11173006D01*
X39845086Y-11173006D02*
X39862966Y-11156191D01*
X39862966Y-11156191D02*
X39881050Y-11139598D01*
X39881050Y-11139598D02*
X39899336Y-11123227D01*
X39899336Y-11123227D02*
X39917822Y-11107082D01*
X39917822Y-11107082D02*
X39936504Y-11091165D01*
X39936504Y-11091165D02*
X39955381Y-11075479D01*
X39955381Y-11075479D02*
X39974449Y-11060026D01*
X39974449Y-11060026D02*
X39993704Y-11044807D01*
X39993704Y-11044807D02*
X40013145Y-11029826D01*
X40013145Y-11029826D02*
X40032769Y-11015085D01*
X40032769Y-11015085D02*
X40052572Y-11000586D01*
X40052572Y-11000586D02*
X40072551Y-10986330D01*
X40072551Y-10986330D02*
X40092704Y-10972321D01*
X40092704Y-10972321D02*
X40113027Y-10958561D01*
X40113027Y-10958561D02*
X40133518Y-10945051D01*
X40133518Y-10945051D02*
X40154172Y-10931793D01*
X40154172Y-10931793D02*
X40174988Y-10918790D01*
X40174988Y-10918790D02*
X40195962Y-10906043D01*
X40195962Y-10906043D02*
X40217091Y-10893554D01*
X40217091Y-10893554D02*
X40238371Y-10881326D01*
X40238371Y-10881326D02*
X40259800Y-10869360D01*
X40259800Y-10869360D02*
X40281374Y-10857657D01*
X40281374Y-10857657D02*
X40303090Y-10846221D01*
X40303090Y-10846221D02*
X40324945Y-10835051D01*
X40324945Y-10835051D02*
X40346935Y-10824151D01*
X40346935Y-10824151D02*
X40369057Y-10813521D01*
X40369057Y-10813521D02*
X40391308Y-10803164D01*
X40391308Y-10803164D02*
X40413685Y-10793080D01*
X40413685Y-10793080D02*
X40436183Y-10783272D01*
X40436183Y-10783272D02*
X40458801Y-10773741D01*
X40458801Y-10773741D02*
X40481533Y-10764488D01*
X40481533Y-10764488D02*
X40504377Y-10755514D01*
X40504377Y-10755514D02*
X40527330Y-10746822D01*
X40527330Y-10746822D02*
X40550388Y-10738412D01*
X40550388Y-10738412D02*
X40573547Y-10730285D01*
X40573547Y-10730285D02*
X40596804Y-10722444D01*
X40596804Y-10722444D02*
X40620156Y-10714888D01*
X40620156Y-10714888D02*
X40643598Y-10707619D01*
X40643598Y-10707619D02*
X40667128Y-10700639D01*
X40667128Y-10700639D02*
X40690742Y-10693948D01*
X40690742Y-10693948D02*
X40714436Y-10687547D01*
X40714436Y-10687547D02*
X40738207Y-10681437D01*
X40738207Y-10681437D02*
X40762051Y-10675620D01*
X40762051Y-10675620D02*
X40785965Y-10670096D01*
X40785965Y-10670096D02*
X40809945Y-10664865D01*
X40809945Y-10664865D02*
X40833987Y-10659929D01*
X40833987Y-10659929D02*
X40858088Y-10655289D01*
X40858088Y-10655289D02*
X40882244Y-10650945D01*
X40882244Y-10650945D02*
X40906451Y-10646897D01*
X40906451Y-10646897D02*
X40930707Y-10643147D01*
X40930707Y-10643147D02*
X40955006Y-10639695D01*
X40955006Y-10639695D02*
X40979346Y-10636541D01*
X40979346Y-10636541D02*
X41003723Y-10633686D01*
X41003723Y-10633686D02*
X41028133Y-10631131D01*
X41028133Y-10631131D02*
X41052573Y-10628875D01*
X41052573Y-10628875D02*
X41077038Y-10626919D01*
X41077038Y-10626919D02*
X41101526Y-10625264D01*
X41101526Y-10625264D02*
X41126032Y-10623909D01*
X41126032Y-10623909D02*
X41150553Y-10622855D01*
X41150553Y-10622855D02*
X41175085Y-10622102D01*
X41175085Y-10622102D02*
X41199624Y-10621651D01*
X41199624Y-10621651D02*
X41224168Y-10621500D01*
X41224168Y-10621500D02*
X137224168Y-10621500D01*
X137224168Y-10621500D02*
X137248711Y-10621651D01*
X137248711Y-10621651D02*
X137273250Y-10622102D01*
X137273250Y-10622102D02*
X137297782Y-10622855D01*
X137297782Y-10622855D02*
X137322303Y-10623909D01*
X137322303Y-10623909D02*
X137346809Y-10625264D01*
X137346809Y-10625264D02*
X137371297Y-10626919D01*
X137371297Y-10626919D02*
X137395762Y-10628875D01*
X137395762Y-10628875D02*
X137420202Y-10631131D01*
X137420202Y-10631131D02*
X137444612Y-10633686D01*
X137444612Y-10633686D02*
X137468989Y-10636541D01*
X137468989Y-10636541D02*
X137493329Y-10639695D01*
X137493329Y-10639695D02*
X137517628Y-10643147D01*
X137517628Y-10643147D02*
X137541884Y-10646897D01*
X137541884Y-10646897D02*
X137566091Y-10650945D01*
X137566091Y-10650945D02*
X137590247Y-10655289D01*
X137590247Y-10655289D02*
X137614348Y-10659929D01*
X137614348Y-10659929D02*
X137638390Y-10664865D01*
X137638390Y-10664865D02*
X137662370Y-10670096D01*
X137662370Y-10670096D02*
X137686284Y-10675620D01*
X137686284Y-10675620D02*
X137710128Y-10681437D01*
X137710128Y-10681437D02*
X137733899Y-10687547D01*
X137733899Y-10687547D02*
X137757593Y-10693948D01*
X137757593Y-10693948D02*
X137781207Y-10700639D01*
X137781207Y-10700639D02*
X137804737Y-10707619D01*
X137804737Y-10707619D02*
X137828179Y-10714888D01*
X137828179Y-10714888D02*
X137851531Y-10722444D01*
X137851531Y-10722444D02*
X137874788Y-10730285D01*
X137874788Y-10730285D02*
X137897947Y-10738412D01*
X137897947Y-10738412D02*
X137921005Y-10746822D01*
X137921005Y-10746822D02*
X137943958Y-10755514D01*
X137943958Y-10755514D02*
X137966802Y-10764488D01*
X137966802Y-10764488D02*
X137989534Y-10773741D01*
X137989534Y-10773741D02*
X138012152Y-10783272D01*
X138012152Y-10783272D02*
X138034650Y-10793080D01*
X138034650Y-10793080D02*
X138057027Y-10803164D01*
X138057027Y-10803164D02*
X138079278Y-10813521D01*
X138079278Y-10813521D02*
X138101400Y-10824151D01*
X138101400Y-10824151D02*
X138123390Y-10835051D01*
X138123390Y-10835051D02*
X138145245Y-10846221D01*
X138145245Y-10846221D02*
X138166961Y-10857657D01*
X138166961Y-10857657D02*
X138188535Y-10869360D01*
X138188535Y-10869360D02*
X138209964Y-10881326D01*
X138209964Y-10881326D02*
X138231244Y-10893554D01*
X138231244Y-10893554D02*
X138252373Y-10906043D01*
X138252373Y-10906043D02*
X138273347Y-10918790D01*
X138273347Y-10918790D02*
X138294163Y-10931793D01*
X138294163Y-10931793D02*
X138314818Y-10945051D01*
X138314818Y-10945051D02*
X138335308Y-10958561D01*
X138335308Y-10958561D02*
X138355631Y-10972321D01*
X138355631Y-10972321D02*
X138375784Y-10986330D01*
X138375784Y-10986330D02*
X138395763Y-11000586D01*
X138395763Y-11000586D02*
X138415566Y-11015085D01*
X138415566Y-11015085D02*
X138435190Y-11029826D01*
X138435190Y-11029826D02*
X138454631Y-11044807D01*
X138454631Y-11044807D02*
X138473887Y-11060026D01*
X138473887Y-11060026D02*
X138492954Y-11075479D01*
X138492954Y-11075479D02*
X138511831Y-11091165D01*
X138511831Y-11091165D02*
X138530513Y-11107082D01*
X138530513Y-11107082D02*
X138548999Y-11123227D01*
X138548999Y-11123227D02*
X138567285Y-11139598D01*
X138567285Y-11139598D02*
X138585370Y-11156191D01*
X138585370Y-11156191D02*
X138603249Y-11173006D01*
X138603249Y-11173006D02*
X138620920Y-11190038D01*
X138620920Y-11190038D02*
X138638381Y-11207286D01*
X138638381Y-11207286D02*
X138655629Y-11224748D01*
X138655629Y-11224748D02*
X138672662Y-11242419D01*
X138672662Y-11242419D02*
X138689476Y-11260298D01*
X138689476Y-11260298D02*
X138706070Y-11278382D01*
X138706070Y-11278382D02*
X138722440Y-11296668D01*
X138722440Y-11296668D02*
X138738585Y-11315154D01*
X138738585Y-11315154D02*
X138754502Y-11333837D01*
X138754502Y-11333837D02*
X138770188Y-11352713D01*
X138770188Y-11352713D02*
X138785642Y-11371781D01*
X138785642Y-11371781D02*
X138800860Y-11391037D01*
X138800860Y-11391037D02*
X138815841Y-11410478D01*
X138815841Y-11410478D02*
X138830583Y-11430101D01*
X138830583Y-11430101D02*
X138845082Y-11449904D01*
X138845082Y-11449904D02*
X138859337Y-11469884D01*
X138859337Y-11469884D02*
X138873346Y-11490036D01*
X138873346Y-11490036D02*
X138887107Y-11510360D01*
X138887107Y-11510360D02*
X138900617Y-11530850D01*
X138900617Y-11530850D02*
X138913875Y-11551505D01*
X138913875Y-11551505D02*
X138926878Y-11572321D01*
X138926878Y-11572321D02*
X138939625Y-11593295D01*
X138939625Y-11593295D02*
X138952113Y-11614423D01*
X138952113Y-11614423D02*
X138964342Y-11635704D01*
X138964342Y-11635704D02*
X138976308Y-11657132D01*
X138976308Y-11657132D02*
X138988010Y-11678707D01*
X138988010Y-11678707D02*
X138999447Y-11700423D01*
X138999447Y-11700423D02*
X139010616Y-11722277D01*
X139010616Y-11722277D02*
X139021516Y-11744268D01*
X139021516Y-11744268D02*
X139032146Y-11766390D01*
X139032146Y-11766390D02*
X139042504Y-11788641D01*
X139042504Y-11788641D02*
X139052587Y-11811017D01*
X139052587Y-11811017D02*
X139062395Y-11833516D01*
X139062395Y-11833516D02*
X139071927Y-11856133D01*
X139071927Y-11856133D02*
X139081180Y-11878866D01*
X139081180Y-11878866D02*
X139090153Y-11901710D01*
X139090153Y-11901710D02*
X139098846Y-11924663D01*
X139098846Y-11924663D02*
X139107256Y-11947720D01*
X139107256Y-11947720D02*
X139115382Y-11970879D01*
X139115382Y-11970879D02*
X139123224Y-11994137D01*
X139123224Y-11994137D02*
X139130780Y-12017488D01*
X139130780Y-12017488D02*
X139138048Y-12040931D01*
X139138048Y-12040931D02*
X139145029Y-12064461D01*
X139145029Y-12064461D02*
X139151720Y-12088074D01*
X139151720Y-12088074D02*
X139158120Y-12111769D01*
X139158120Y-12111769D02*
X139164230Y-12135540D01*
X139164230Y-12135540D02*
X139170047Y-12159384D01*
X139170047Y-12159384D02*
X139175572Y-12183298D01*
X139175572Y-12183298D02*
X139180802Y-12207277D01*
X139180802Y-12207277D02*
X139185738Y-12231319D01*
X139185738Y-12231319D02*
X139190379Y-12255420D01*
X139190379Y-12255420D02*
X139194723Y-12279576D01*
X139194723Y-12279576D02*
X139198770Y-12303784D01*
X139198770Y-12303784D02*
X139202521Y-12328039D01*
X139202521Y-12328039D02*
X139205973Y-12352339D01*
X139205973Y-12352339D02*
X139209127Y-12376679D01*
X139209127Y-12376679D02*
X139211981Y-12401056D01*
X139211981Y-12401056D02*
X139214537Y-12425466D01*
X139214537Y-12425466D02*
X139216793Y-12449905D01*
X139216793Y-12449905D02*
X139218748Y-12474371D01*
X139218748Y-12474371D02*
X139220404Y-12498859D01*
X139220404Y-12498859D02*
X139221758Y-12523365D01*
X139221758Y-12523365D02*
X139222812Y-12547886D01*
X139222812Y-12547886D02*
X139223565Y-12572418D01*
X139223565Y-12572418D02*
X139224017Y-12596957D01*
X139224017Y-12596957D02*
X139224168Y-12621500D01*
X139224168Y-12621500D02*
X139224168Y-108621500D01*
X139224168Y-108621500D02*
X139224017Y-108646043D01*
X139224017Y-108646043D02*
X139223565Y-108670582D01*
X139223565Y-108670582D02*
X139222812Y-108695114D01*
X139222812Y-108695114D02*
X139221758Y-108719635D01*
X139221758Y-108719635D02*
X139220404Y-108744141D01*
X139220404Y-108744141D02*
X139218748Y-108768629D01*
X139218748Y-108768629D02*
X139216793Y-108793095D01*
X139216793Y-108793095D02*
X139214537Y-108817534D01*
X139214537Y-108817534D02*
X139211981Y-108841944D01*
X139211981Y-108841944D02*
X139209127Y-108866321D01*
X139209127Y-108866321D02*
X139205973Y-108890661D01*
X139205973Y-108890661D02*
X139202521Y-108914961D01*
X139202521Y-108914961D02*
X139198770Y-108939216D01*
X139198770Y-108939216D02*
X139194723Y-108963424D01*
X139194723Y-108963424D02*
X139190379Y-108987580D01*
X139190379Y-108987580D02*
X139185738Y-109011681D01*
X139185738Y-109011681D02*
X139180802Y-109035723D01*
X139180802Y-109035723D02*
X139175572Y-109059702D01*
X139175572Y-109059702D02*
X139170047Y-109083616D01*
X139170047Y-109083616D02*
X139164230Y-109107460D01*
X139164230Y-109107460D02*
X139158120Y-109131231D01*
X139158120Y-109131231D02*
X139151720Y-109154926D01*
X139151720Y-109154926D02*
X139145029Y-109178539D01*
X139145029Y-109178539D02*
X139138048Y-109202069D01*
X139138048Y-109202069D02*
X139130780Y-109225512D01*
X139130780Y-109225512D02*
X139123224Y-109248863D01*
X139123224Y-109248863D02*
X139115382Y-109272121D01*
X139115382Y-109272121D02*
X139107256Y-109295280D01*
X139107256Y-109295280D02*
X139098846Y-109318337D01*
X139098846Y-109318337D02*
X139090153Y-109341290D01*
X139090153Y-109341290D02*
X139081180Y-109364134D01*
X139081180Y-109364134D02*
X139071927Y-109386867D01*
X139071927Y-109386867D02*
X139062395Y-109409484D01*
X139062395Y-109409484D02*
X139052587Y-109431983D01*
X139052587Y-109431983D02*
X139042504Y-109454359D01*
X139042504Y-109454359D02*
X139032146Y-109476610D01*
X139032146Y-109476610D02*
X139021516Y-109498732D01*
X139021516Y-109498732D02*
X139010616Y-109520723D01*
X139010616Y-109520723D02*
X138999447Y-109542577D01*
X138999447Y-109542577D02*
X138988010Y-109564293D01*
X138988010Y-109564293D02*
X138976308Y-109585868D01*
X138976308Y-109585868D02*
X138964342Y-109607296D01*
X138964342Y-109607296D02*
X138952113Y-109628577D01*
X138952113Y-109628577D02*
X138939625Y-109649705D01*
X138939625Y-109649705D02*
X138926878Y-109670679D01*
X138926878Y-109670679D02*
X138913875Y-109691495D01*
X138913875Y-109691495D02*
X138900617Y-109712150D01*
X138900617Y-109712150D02*
X138887107Y-109732640D01*
X138887107Y-109732640D02*
X138873346Y-109752964D01*
X138873346Y-109752964D02*
X138859337Y-109773116D01*
X138859337Y-109773116D02*
X138845082Y-109793096D01*
X138845082Y-109793096D02*
X138830583Y-109812899D01*
X138830583Y-109812899D02*
X138815841Y-109832522D01*
X138815841Y-109832522D02*
X138800860Y-109851963D01*
X138800860Y-109851963D02*
X138785642Y-109871219D01*
X138785642Y-109871219D02*
X138770188Y-109890287D01*
X138770188Y-109890287D02*
X138754502Y-109909163D01*
X138754502Y-109909163D02*
X138738585Y-109927846D01*
X138738585Y-109927846D02*
X138722440Y-109946332D01*
X138722440Y-109946332D02*
X138706070Y-109964618D01*
X138706070Y-109964618D02*
X138689476Y-109982702D01*
X138689476Y-109982702D02*
X138672662Y-110000581D01*
X138672662Y-110000581D02*
X138655629Y-110018252D01*
X138655629Y-110018252D02*
X138638381Y-110035714D01*
X138638381Y-110035714D02*
X138620920Y-110052962D01*
X138620920Y-110052962D02*
X138603249Y-110069994D01*
X138603249Y-110069994D02*
X138585370Y-110086809D01*
X138585370Y-110086809D02*
X138567285Y-110103402D01*
X138567285Y-110103402D02*
X138548999Y-110119773D01*
X138548999Y-110119773D02*
X138530513Y-110135918D01*
X138530513Y-110135918D02*
X138511831Y-110151835D01*
X138511831Y-110151835D02*
X138492954Y-110167521D01*
X138492954Y-110167521D02*
X138473887Y-110182974D01*
X138473887Y-110182974D02*
X138454631Y-110198193D01*
X138454631Y-110198193D02*
X138435190Y-110213174D01*
X138435190Y-110213174D02*
X138415566Y-110227915D01*
X138415566Y-110227915D02*
X138395763Y-110242414D01*
X138395763Y-110242414D02*
X138375784Y-110256670D01*
X138375784Y-110256670D02*
X138355631Y-110270679D01*
X138355631Y-110270679D02*
X138335308Y-110284439D01*
X138335308Y-110284439D02*
X138314818Y-110297949D01*
X138314818Y-110297949D02*
X138294163Y-110311207D01*
X138294163Y-110311207D02*
X138273347Y-110324210D01*
X138273347Y-110324210D02*
X138252373Y-110336957D01*
X138252373Y-110336957D02*
X138231244Y-110349446D01*
X138231244Y-110349446D02*
X138209964Y-110361674D01*
X138209964Y-110361674D02*
X138188535Y-110373640D01*
X138188535Y-110373640D02*
X138166961Y-110385343D01*
X138166961Y-110385343D02*
X138145245Y-110396779D01*
X138145245Y-110396779D02*
X138123390Y-110407949D01*
X138123390Y-110407949D02*
X138101400Y-110418849D01*
X138101400Y-110418849D02*
X138079278Y-110429479D01*
X138079278Y-110429479D02*
X138057027Y-110439836D01*
X138057027Y-110439836D02*
X138034650Y-110449920D01*
X138034650Y-110449920D02*
X138012152Y-110459728D01*
X138012152Y-110459728D02*
X137989534Y-110469259D01*
X137989534Y-110469259D02*
X137966802Y-110478512D01*
X137966802Y-110478512D02*
X137943958Y-110487486D01*
X137943958Y-110487486D02*
X137921005Y-110496178D01*
X137921005Y-110496178D02*
X137897947Y-110504588D01*
X137897947Y-110504588D02*
X137874788Y-110512715D01*
X137874788Y-110512715D02*
X137851531Y-110520556D01*
X137851531Y-110520556D02*
X137828179Y-110528112D01*
X137828179Y-110528112D02*
X137804737Y-110535381D01*
X137804737Y-110535381D02*
X137781207Y-110542361D01*
X137781207Y-110542361D02*
X137757593Y-110549052D01*
X137757593Y-110549052D02*
X137733899Y-110555453D01*
X137733899Y-110555453D02*
X137710128Y-110561563D01*
X137710128Y-110561563D02*
X137686284Y-110567380D01*
X137686284Y-110567380D02*
X137662370Y-110572904D01*
X137662370Y-110572904D02*
X137638390Y-110578135D01*
X137638390Y-110578135D02*
X137614348Y-110583071D01*
X137614348Y-110583071D02*
X137590247Y-110587711D01*
X137590247Y-110587711D02*
X137566091Y-110592055D01*
X137566091Y-110592055D02*
X137541884Y-110596103D01*
X137541884Y-110596103D02*
X137517628Y-110599853D01*
X137517628Y-110599853D02*
X137493329Y-110603305D01*
X137493329Y-110603305D02*
X137468989Y-110606459D01*
X137468989Y-110606459D02*
X137444612Y-110609314D01*
X137444612Y-110609314D02*
X137420202Y-110611869D01*
X137420202Y-110611869D02*
X137395762Y-110614125D01*
X137395762Y-110614125D02*
X137371297Y-110616081D01*
X137371297Y-110616081D02*
X137346809Y-110617736D01*
X137346809Y-110617736D02*
X137322303Y-110619091D01*
X137322303Y-110619091D02*
X137297782Y-110620145D01*
X137297782Y-110620145D02*
X137273250Y-110620898D01*
X137273250Y-110620898D02*
X137248711Y-110621349D01*
X137248711Y-110621349D02*
X137224168Y-110621500D01*
X137224168Y-110621500D02*
X41224168Y-110621500D01*
M02*
