M48
; DRILL file Flux date 2026-08-29T18:55:36
; FORMAT={-:-/ absolute / metric / decimal}
; #@! TF.CreationDate,2026-08-29T18:55:36+00:00
; #@! TF.GenerationSoftware,Flux,Flux PCB Export,1
; #@! TF.FileFunction,MixedPlating,1,4
FMAT,2
METRIC
; #@! TA.AperFunction,Plated,PTH,ViaDrill
T1C0.300
; #@! TA.AperFunction,Plated,PTH,ComponentDrill
T2C0.300
; #@! TA.AperFunction,Plated,PTH,ComponentDrill
T3C0.600
; #@! TA.AperFunction,Plated,PTH,ComponentDrill
T4C1.000
; #@! TA.AperFunction,Plated,PTH,ComponentDrill
T5C1.020
; #@! TA.AperFunction,Plated,PTH,ComponentDrill
T6C1.040
; #@! TA.AperFunction,Plated,PTH,ComponentDrill
T7C1.900
%
G90
G05
T1
X54.224Y-20.621
X54.224Y-35.621
X54.224Y-50.621
X54.224Y-65.621
X54.224Y-80.621
X54.224Y-95.621
X64.327Y-95.243
X69.224Y-20.621
X69.224Y-35.621
X69.224Y-50.621
X69.224Y-65.621
X69.224Y-80.621
X69.615Y-47.688
X72.204Y-72.727
X73.959Y-70.346
X77.861Y-28.305
X79.533Y-20.671
X80.45Y-97.122
X83.858Y-46.912
X84.224Y-20.621
X84.224Y-50.621
X84.224Y-65.621
X84.224Y-80.621
X84.224Y-95.621
X85.783Y-25.706
X86.012Y-74.72
X87.374Y-75.393
X88.567Y-46.942
X89.092Y-30.008
X90.243Y-47.163
X90.266Y-40.709
X91.757Y-76.145
X92.259Y-68.782
X93.095Y-18.907
X93.115Y-48.572
X93.747Y-72.27
X95.449Y-94.856
X97.469Y-64.522
X97.469Y-67.863
X98.039Y-61.982
X98.178Y-31.971
X98.847Y-71.607
X99.224Y-20.621
X99.224Y-50.621
X99.224Y-65.621
X99.224Y-80.621
X99.224Y-95.621
X99.835Y-67.632
X100.416Y-40.026
X101.022Y-14.509
X101.049Y-55.489
X101.473Y-75.358
X102.822Y-67.632
X103.569Y-102.637
X104.432Y-71.981
X104.47Y-14.692
X104.5Y-65.843
X104.679Y-68.037
X106.254Y-51.485
X106.424Y-57.7
X107.004Y-61.121
X107.737Y-25.221
X108.715Y-69.516
X108.715Y-82.606
X109.619Y-60.814
X110.782Y-60.227
X110.913Y-62.371
X111.12Y-68.994
X111.862Y-55.167
X111.938Y-63.451
X112.049Y-52.7
X112.404Y-95.88
X112.45Y-45.363
X112.677Y-63.878
X112.813Y-67.932
X113.475Y-63.884
X114.224Y-20.621
X114.224Y-35.621
X114.224Y-80.621
X114.41Y-57.36
X114.451Y-63.883
X114.961Y-56.313
X115.053Y-55.481
X115.092Y-48.519
X115.459Y-97.136
X115.843Y-56.62
X115.843Y-57.36
X116.24Y-68.779
X116.243Y-72.105
X116.399Y-97.046
X116.463Y-63.883
X116.536Y-58.131
X117.488Y-54.781
X117.546Y-57.888
X117.546Y-62.497
X118.274Y-51.452
X118.828Y-61.182
X119.179Y-59.38
X120.184Y-46.794
X120.226Y-54.843
X120.307Y-67.054
X120.429Y-57.656
X120.548Y-51.892
X120.548Y-55.724
X121.224Y-77.759
X121.517Y-61.718
X121.688Y-83.286
X121.924Y-43.697
X121.924Y-49.415
X122.384Y-94.078
X123.915Y-58.681
X124.018Y-61.198
X124.22Y-55.818
X124.599Y-53.848
X124.871Y-45.121
X125.375Y-103.146
X126.684Y-79.33
X126.92Y-61.328
X127.116Y-105.481
X127.208Y-53.229
X127.339Y-91.794
X127.372Y-58.018
X127.424Y-59.621
X128.59Y-69.136
X129.224Y-20.621
X129.224Y-35.621
X129.224Y-65.621
X129.224Y-80.621
X129.224Y-95.621
X129.719Y-86.89
X129.731Y-102.617
X129.864Y-52.437
X130.299Y-57.95
X131.328Y-58.573
X131.462Y-107.313
X131.551Y-64.138
X132.213Y-72.654
X132.222Y-81.702
X132.349Y-86.956
X132.863Y-90.948
X133.121Y-74.716
X133.253Y-53.778
X133.263Y-86.956
X133.471Y-60.871
X133.496Y-58.154
X134.244Y-51.631
X135.55Y-65.067
X135.591Y-56.421
T2
X110.424Y-62.822
X125.224Y-58.867
X126.856Y-58.534
X126.856Y-60.002
X127.808Y-61.451
T5
X64.624Y-45.621
X64.624Y-75.621
T6
X65.094Y-13.076
X67.634Y-13.076
X70.174Y-13.076
X72.714Y-13.076
X75.254Y-13.076
X77.794Y-13.076
X80.334Y-13.076
X82.874Y-13.076
X85.414Y-13.076
X87.954Y-13.076
X90.494Y-13.076
X93.034Y-13.076
X95.574Y-13.076
X98.114Y-13.076
X100.654Y-13.076
X103.194Y-13.076
X105.734Y-13.076
X108.274Y-13.076
X110.814Y-13.076
X113.354Y-13.076
T7
X56.824Y-41.821
X56.824Y-71.821
X56.824Y-49.421
X56.824Y-79.421
T3
X132.674Y-55.302G85X133.474Y-55.302
G05
X132.674Y-63.942G85X133.474Y-63.942
G05
X136.574Y-63.942G85X137.374Y-63.942
G05
X136.674Y-55.301G85X137.474Y-55.301
G05
T4
X99.824Y-48.621G85X100.624Y-48.621
G05
M30
