%TF.GenerationSoftware,Flux,Flux PCB Export,1*%
%TF.CreationDate,2026-08-29T18:55:35+00:00*%
%TF.ProjectId,input,696e7075-742e-46b6-9963-61645f706362,rev?*%
%TF.SameCoordinates,Original*%
%TF.FileFunction,Copper,L3,Inr*%
%TF.FilePolarity,Positive*%
%FSLAX46Y46*%
G04 Gerber Fmt 4.6, Leading zero omitted, Abs format (unit mm)*
G04 Filename: oscilloscope*
G04 Build it with Flux! Visit our site at: https://www.flux.ai (Flux) date 2026-08-29 18:55:35*
%MOMM*%
%LPD*%
G01*
G04 APERTURE LIST*
%TA.AperFunction,ComponentPad*%
%ADD10C,0.300000*%
%TD*%
%TA.AperFunction,ComponentPad*%
%ADD11R,2.600000X1.600000*%
%TD*%
%TA.AperFunction,ComponentPad*%
%ADD12C,1.550000*%
%TD*%
%TA.AperFunction,ComponentPad*%
%ADD13C,2.800000*%
%TD*%
%TA.AperFunction,ComponentPad*%
%ADD14C,1.560000*%
%TD*%
%TA.AperFunction,ComponentPad*%
%ADD15R,1.560000X1.560000*%
%TD*%
%TA.AperFunction,ComponentPad*%
%ADD16O,1.800000X1.000000*%
%TD*%
%TA.AperFunction,ViaPad*%
%ADD17C,0.600000*%
%TD*%
G04 APERTURE END LIST*
D10*
%TO.N,USB_DP*%
%TO.C,*%
X125224168Y-58867100D03*
X127808068Y-61451000D03*
%TO.N,USB_CONN_DP*%
X126856068Y-60001900D03*
X126856068Y-58534000D03*
%TO.N,VCP_TARGET_TX_TO_PROBE_RX*%
X110424168Y-62821500D03*
%TD*%
D11*
%TO.N,GND*%
%TO.C,TP_GND*%
X100224168Y-48621500D03*
%TD*%
D12*
%TO.N,AGND*%
%TO.C,J3*%
X64624168Y-75621448D03*
D13*
%TO.N,CH2_IN*%
X56824160Y-71821464D03*
%TO.N,AGND*%
X56824176Y-79421464D03*
%TD*%
D14*
%TO.N,3V3*%
%TO.C,J4*%
X113354168Y-13076500D03*
%TO.N,LCD_SCK*%
X108274168Y-13076500D03*
%TO.N,3V3*%
X80334168Y-13076500D03*
X98114168Y-13076500D03*
X110814168Y-13076500D03*
%TO.N,GND*%
X77794168Y-13076500D03*
%TO.N,LCD_DC*%
X82874168Y-13076500D03*
%TO.N,LCD_MOSI*%
X105734168Y-13076500D03*
%TO.N,LCD_LEDA*%
X75254168Y-13076500D03*
%TO.N,3V3*%
X93034168Y-13076500D03*
X95574168Y-13076500D03*
D15*
%TO.N,N/C*%
X65094168Y-13076500D03*
D14*
%TO.N,LCD_RST*%
X85414168Y-13076500D03*
%TO.N,LCD_MOSI*%
X100654168Y-13076500D03*
%TO.N,LCD_CS*%
X87954168Y-13076500D03*
%TO.N,LCD_MOSI*%
X103194168Y-13076500D03*
%TO.N,N/C*%
X72714168Y-13076500D03*
%TO.N,3V3*%
X90494168Y-13076500D03*
%TO.N,N/C*%
X67634168Y-13076500D03*
X70174168Y-13076500D03*
%TD*%
D12*
%TO.N,AGND*%
%TO.C,J2*%
X64624168Y-45621448D03*
D13*
%TO.N,CH1_IN*%
X56824160Y-41821464D03*
%TO.N,AGND*%
X56824176Y-49421464D03*
%TD*%
D16*
%TO.N,USB_SHIELD*%
%TO.C,J1*%
X133074200Y-63941529D03*
X137074136Y-55301500D03*
X133074136Y-55301529D03*
X136974200Y-63941501D03*
%TD*%
D17*
%TO.N,LCD_MOSI*%
X114450568Y-63883000D03*
%TO.N,USB_DP*%
X124220368Y-55817700D03*
X120547968Y-55724100D03*
%TO.N,LCD_BL_PWM*%
X118827868Y-61181900D03*
X85782768Y-25706300D03*
%TO.N,VBUS_PROT*%
X79532668Y-20671500D03*
X124870668Y-45121500D03*
X77860768Y-28305200D03*
X129864168Y-52437100D03*
%TO.N,LED_TRIGGER_DRV*%
X125374768Y-103145900D03*
X115052868Y-55481000D03*
%TO.N,LCD_DC*%
X91756768Y-76145000D03*
%TO.N,BTN_SELECT*%
X114409868Y-57360000D03*
X95449168Y-94856000D03*
%TO.N,LED_RUN_DRV*%
X114961168Y-56313000D03*
X116399168Y-97045700D03*
X107003968Y-61121500D03*
%TO.N,USB_CC1*%
X133252668Y-53777600D03*
X133470668Y-60871500D03*
%TO.N,USB_CONN_DP*%
X127371868Y-58018200D03*
X131327868Y-58573100D03*
%TO.N,VDDA*%
X97469168Y-67863100D03*
X88566568Y-46942000D03*
X109619168Y-60814000D03*
X98038968Y-61981700D03*
X97469168Y-64522300D03*
%TO.N,3V3*%
X117545768Y-62496600D03*
X117545768Y-57887800D03*
X106254168Y-51485000D03*
%TO.N,NRST*%
X120547768Y-51892400D03*
X121224168Y-77759200D03*
X110782168Y-60227300D03*
X112049168Y-52700000D03*
X129718968Y-86889900D03*
%TO.N,VCP_PROBE_TX_TO_TARGET_RX*%
X111937668Y-63451200D03*
X132862768Y-90948000D03*
X132349068Y-86955700D03*
%TO.N,SWDIO*%
X121517468Y-61717900D03*
X119179468Y-59379900D03*
%TO.N,BTN_MODE*%
X80449768Y-97122100D03*
X115843368Y-56619700D03*
%TO.N,LCD_SCK*%
X113474968Y-63883800D03*
%TO.N,SWCLK*%
X126684168Y-79330000D03*
X120429068Y-57655600D03*
X124017968Y-61197900D03*
%TO.N,GND*%
X127424168Y-59621500D03*
X135591368Y-56421500D03*
%TO.N,LED_USB_DRV*%
X133120768Y-74716200D03*
X116536068Y-58131500D03*
%TO.N,LCD_CS*%
X112677068Y-63878000D03*
%TO.N,USB_CC2*%
X131550568Y-64138100D03*
X133495768Y-58154000D03*
%TO.N,BTN_RUN_STOP*%
X64327368Y-95243300D03*
X115843368Y-57360000D03*
%TO.N,LDO_EN*%
X121924168Y-43696500D03*
X121924168Y-49414600D03*
%TO.N,USB_DM*%
X130298668Y-57950000D03*
X126920368Y-61328200D03*
%TO.N,AGND*%
X87374168Y-75393400D03*
X93114968Y-48571500D03*
X73958668Y-70346500D03*
X104678568Y-68036900D03*
%TO.N,LCD_RST*%
X116463468Y-63883000D03*
%TO.N,VCP_TARGET_TX_TO_PROBE_RX*%
X133263368Y-86955700D03*
X110912668Y-62371500D03*
%TO.N,GND*%
X128589868Y-69135800D03*
X132212768Y-72654400D03*
X129224168Y-65621500D03*
X69224168Y-20621500D03*
X54224168Y-20621500D03*
X54224168Y-35621500D03*
X69224168Y-35621500D03*
X54224168Y-50621500D03*
X69224168Y-65621500D03*
X54224168Y-65621500D03*
X54224168Y-80621500D03*
X69224168Y-80621500D03*
X84224168Y-80621500D03*
X54224168Y-95621500D03*
X129224168Y-20621500D03*
X129224168Y-35621500D03*
X69224168Y-50621500D03*
X84224168Y-95621500D03*
X103569268Y-102636800D03*
X107736668Y-25221000D03*
X99224168Y-95621500D03*
X84224168Y-65621500D03*
X84224168Y-50621500D03*
X114224168Y-20621500D03*
X114224168Y-35621500D03*
X114224168Y-80621500D03*
X100416268Y-40026400D03*
X90266068Y-40708700D03*
X89092168Y-30008000D03*
X120306568Y-67054200D03*
X99224168Y-20621500D03*
X99224168Y-80621500D03*
X92259468Y-68781800D03*
X84224168Y-20621500D03*
X72204068Y-72726700D03*
X101048668Y-55488600D03*
X99224168Y-50621500D03*
X122384468Y-94077700D03*
X129731168Y-102616500D03*
X129224168Y-95621500D03*
X129224168Y-80621500D03*
X69614768Y-47688400D03*
X121687568Y-83285800D03*
X108714668Y-82606500D03*
X124599168Y-53848500D03*
X93747468Y-72269800D03*
X132222068Y-81701900D03*
X104431868Y-71981400D03*
X99224168Y-65621500D03*
X98177568Y-31971100D03*
X93094768Y-18906900D03*
X112450268Y-45362600D03*
X108714668Y-69516500D03*
X127338968Y-91794300D03*
X116239668Y-68779000D03*
X112403968Y-95879700D03*
X115092168Y-48519300D03*
X98847168Y-71607000D03*
X104470468Y-14691700D03*
X101473168Y-75358500D03*
X86011868Y-74719700D03*
X116242568Y-72105300D03*
X117488268Y-54780600D03*
X118274268Y-51451700D03*
X123914968Y-58680800D03*
X131461868Y-107312600D03*
X99834668Y-67632000D03*
X90243368Y-47162700D03*
X120226468Y-54842900D03*
X120183968Y-46794300D03*
X127115968Y-105480700D03*
X101021568Y-14508600D03*
X104499568Y-65843300D03*
X127208368Y-53229200D03*
X112812868Y-67931700D03*
X111119668Y-68994000D03*
X102821668Y-67632000D03*
X83857568Y-46911600D03*
X106424268Y-57700300D03*
X111862168Y-55167000D03*
X115458768Y-97136000D03*
X134244268Y-51630800D03*
X135549868Y-65067400D03*
%TD*%
%TA.AperFunction,Conductor*%
%TO.N,GND*%
G36*
X137222168Y-109626500D02*
G01*
X137216168Y-109621500D01*
X41232168Y-109621500D01*
X41226168Y-109626500D01*
X41120168Y-109615500D01*
X41090168Y-109613500D01*
X41086168Y-109612500D01*
X41085168Y-109612500D01*
X41018168Y-109599500D01*
X41016168Y-109599500D01*
X41002168Y-109595500D01*
X40998168Y-109598500D01*
X40886168Y-109563500D01*
X40879168Y-109560500D01*
X40797168Y-109524500D01*
X40796168Y-109524500D01*
X40773168Y-109513500D01*
X40767168Y-109511500D01*
X40727168Y-109489500D01*
X40725168Y-109487500D01*
X40675168Y-109457500D01*
X40674168Y-109455500D01*
X40650168Y-109440500D01*
X40651168Y-109439500D01*
X40641168Y-109433500D01*
X40635168Y-109429500D01*
X40619168Y-109417500D01*
X40597168Y-109400500D01*
X40595168Y-109399500D01*
X40569168Y-109377500D01*
X40565168Y-109374500D01*
X40548168Y-109358500D01*
X40547168Y-109357500D01*
X40509168Y-109320500D01*
X40508168Y-109319500D01*
X40491168Y-109303500D01*
X40488168Y-109299500D01*
X40470168Y-109279500D01*
X40468168Y-109276500D01*
X40443168Y-109246500D01*
X40442168Y-109244500D01*
X40435168Y-109235500D01*
X40425168Y-109223500D01*
X40417168Y-109212500D01*
X40404168Y-109193500D01*
X40390168Y-109172500D01*
X40386168Y-109169500D01*
X40356168Y-109117500D01*
X40337168Y-109084500D01*
X40334168Y-109078500D01*
X40286168Y-108978500D01*
X40288168Y-108974500D01*
X40285168Y-108967500D01*
X40283168Y-108961500D01*
X40271168Y-108926500D01*
X40270168Y-108922500D01*
X40255168Y-108867500D01*
X40254168Y-108863500D01*
X40245168Y-108822500D01*
X40245168Y-108820500D01*
X40234168Y-108760500D01*
X40233168Y-108755500D01*
X40230168Y-108726500D01*
X40230168Y-108724500D01*
X40227168Y-108688500D01*
X40226168Y-108687500D01*
X40225168Y-108669500D01*
X40225168Y-108665500D01*
X40224168Y-108606500D01*
X40224168Y-103090500D01*
X124981168Y-103090500D01*
X124981168Y-103201500D01*
X125006168Y-103296500D01*
X125062168Y-103390500D01*
X125130168Y-103458500D01*
X125136168Y-103462500D01*
X125222168Y-103513500D01*
X125324168Y-103540500D01*
X125425168Y-103540500D01*
X125527168Y-103513500D01*
X125619168Y-103458500D01*
X125691168Y-103387500D01*
X125692168Y-103385500D01*
X125740168Y-103302500D01*
X125742168Y-103297500D01*
X125769168Y-103196500D01*
X125769168Y-103095500D01*
X125741168Y-102992500D01*
X125692168Y-102907500D01*
X125690168Y-102904500D01*
X125615168Y-102829500D01*
X125523168Y-102777500D01*
X125429168Y-102752500D01*
X125320168Y-102752500D01*
X125225168Y-102777500D01*
X125221168Y-102779500D01*
X125135168Y-102828500D01*
X125133168Y-102829500D01*
X125062168Y-102901500D01*
X125007168Y-102994500D01*
X125005168Y-102999500D01*
X124981168Y-103090500D01*
X40224168Y-103090500D01*
X40224168Y-97071500D01*
X80055168Y-97071500D01*
X80055168Y-97172500D01*
X80082168Y-97274500D01*
X80137168Y-97366500D01*
X80209168Y-97439500D01*
X80211168Y-97440500D01*
X80293168Y-97487500D01*
X80298168Y-97489500D01*
X80399168Y-97516500D01*
X80500168Y-97516500D01*
X80604168Y-97488500D01*
X80603168Y-97488500D01*
X80688168Y-97439500D01*
X80691168Y-97437500D01*
X80766168Y-97362500D01*
X80815168Y-97277500D01*
X80818168Y-97271500D01*
X80843168Y-97176500D01*
X80843168Y-97067500D01*
X80823431Y-96992500D01*
X116006168Y-96992500D01*
X116006168Y-97098500D01*
X116031168Y-97195500D01*
X116083168Y-97286500D01*
X116158168Y-97361500D01*
X116245168Y-97411500D01*
X116349168Y-97440500D01*
X116449168Y-97440500D01*
X116553168Y-97411500D01*
X116640168Y-97361500D01*
X116715168Y-97286500D01*
X116765168Y-97198500D01*
X116793168Y-97094500D01*
X116793168Y-96997500D01*
X116765168Y-96892500D01*
X116763168Y-96887500D01*
X116719168Y-96811500D01*
X116715168Y-96805500D01*
X116641168Y-96729500D01*
X116552168Y-96678500D01*
X116551168Y-96678500D01*
X116452168Y-96652500D01*
X116346168Y-96652500D01*
X116247168Y-96678500D01*
X116157168Y-96729500D01*
X116083168Y-96805500D01*
X116079168Y-96811500D01*
X116032168Y-96891500D01*
X116032168Y-96892500D01*
X116006168Y-96992500D01*
X80823431Y-96992500D01*
X80818168Y-96972500D01*
X80816168Y-96968500D01*
X80767168Y-96881500D01*
X80694168Y-96809500D01*
X80601168Y-96754500D01*
X80597168Y-96752500D01*
X80505168Y-96728500D01*
X80394168Y-96728500D01*
X80299168Y-96753500D01*
X80205168Y-96809500D01*
X80136168Y-96878500D01*
X80134168Y-96882500D01*
X80082168Y-96969500D01*
X80055168Y-97071500D01*
X40224168Y-97071500D01*
X40224168Y-95195500D01*
X63933168Y-95195500D01*
X63933168Y-95292500D01*
X63962168Y-95400500D01*
X63963168Y-95402500D01*
X64009168Y-95481500D01*
X64089168Y-95561500D01*
X64169168Y-95607500D01*
X64174168Y-95609500D01*
X64279168Y-95637500D01*
X64375168Y-95637500D01*
X64481168Y-95609500D01*
X64483168Y-95608500D01*
X64567168Y-95560500D01*
X64569168Y-95559500D01*
X64641168Y-95485500D01*
X64643168Y-95483500D01*
X64693168Y-95397500D01*
X64694168Y-95395500D01*
X64721168Y-95294500D01*
X64721168Y-95193500D01*
X64693168Y-95089500D01*
X64643168Y-95002500D01*
X64568168Y-94927500D01*
X64481168Y-94877500D01*
X64482168Y-94877500D01*
X64377168Y-94849500D01*
X64276168Y-94849500D01*
X64176168Y-94876500D01*
X64087168Y-94927500D01*
X64085168Y-94929500D01*
X64011168Y-95001500D01*
X64010168Y-95003500D01*
X63962168Y-95087500D01*
X63961168Y-95090500D01*
X63933168Y-95195500D01*
X40224168Y-95195500D01*
X40224168Y-94801500D01*
X95056168Y-94801500D01*
X95056168Y-94910500D01*
X95082168Y-95007500D01*
X95083168Y-95008500D01*
X95132168Y-95096500D01*
X95133168Y-95097500D01*
X95201168Y-95166500D01*
X95210168Y-95173500D01*
X95296168Y-95222500D01*
X95401168Y-95250500D01*
X95497168Y-95250500D01*
X95603168Y-95222500D01*
X95602168Y-95222500D01*
X95688168Y-95173500D01*
X95697168Y-95166500D01*
X95765168Y-95097500D01*
X95766168Y-95096500D01*
X95814168Y-95011500D01*
X95843168Y-94905500D01*
X95843168Y-94806500D01*
X95815168Y-94702500D01*
X95767168Y-94616500D01*
X95765168Y-94614500D01*
X95697168Y-94545500D01*
X95689168Y-94539500D01*
X95599168Y-94487500D01*
X95502168Y-94462500D01*
X95396168Y-94462500D01*
X95299168Y-94487500D01*
X95209168Y-94539500D01*
X95201168Y-94545500D01*
X95133168Y-94614500D01*
X95132168Y-94615500D01*
X95081168Y-94706500D01*
X95080168Y-94710500D01*
X95056168Y-94801500D01*
X40224168Y-94801500D01*
X40224168Y-90892500D01*
X132469168Y-90892500D01*
X132469168Y-91003500D01*
X132493168Y-91095500D01*
X132495168Y-91099500D01*
X132550168Y-91192500D01*
X132621168Y-91264500D01*
X132623168Y-91265500D01*
X132706168Y-91313500D01*
X132711168Y-91315500D01*
X132812168Y-91342500D01*
X132913168Y-91342500D01*
X133017168Y-91314500D01*
X133016168Y-91314500D01*
X133103168Y-91264500D01*
X133179168Y-91188500D01*
X133229168Y-91101500D01*
X133257168Y-90998500D01*
X133257168Y-90897500D01*
X133229168Y-90794500D01*
X133180168Y-90709500D01*
X133178168Y-90706500D01*
X133103168Y-90631500D01*
X133011168Y-90579500D01*
X132917168Y-90554500D01*
X132808168Y-90554500D01*
X132713168Y-90579500D01*
X132709168Y-90581500D01*
X132623168Y-90630500D01*
X132621168Y-90631500D01*
X132550168Y-90703500D01*
X132495168Y-90796500D01*
X132493168Y-90801500D01*
X132469168Y-90892500D01*
X40224168Y-90892500D01*
X40224168Y-86839500D01*
X129325168Y-86839500D01*
X129325168Y-86940500D01*
X129353168Y-87045500D01*
X129401168Y-87128500D01*
X129404168Y-87131500D01*
X129475168Y-87203500D01*
X129566168Y-87256500D01*
X129671168Y-87284500D01*
X129769168Y-87284500D01*
X129871168Y-87257500D01*
X129961168Y-87203500D01*
X130035168Y-87131500D01*
X130036168Y-87129500D01*
X130084168Y-87046500D01*
X130086168Y-87041500D01*
X130113168Y-86940500D01*
X130113168Y-86904500D01*
X131955168Y-86904500D01*
X131955168Y-87005500D01*
X131983168Y-87109500D01*
X132033168Y-87196500D01*
X132108168Y-87271500D01*
X132195168Y-87321500D01*
X132299168Y-87350500D01*
X132399168Y-87350500D01*
X132503168Y-87321500D01*
X132590168Y-87271500D01*
X132662168Y-87199500D01*
X132666168Y-87194500D01*
X132720168Y-87101500D01*
X132894168Y-87103500D01*
X132949168Y-87199500D01*
X132950168Y-87200500D01*
X133021168Y-87269500D01*
X133026168Y-87273500D01*
X133109168Y-87321500D01*
X133109168Y-87322500D01*
X133213168Y-87350500D01*
X133313168Y-87350500D01*
X133417168Y-87321500D01*
X133504168Y-87271500D01*
X133579168Y-87196500D01*
X133629168Y-87109500D01*
X133658168Y-87005500D01*
X133658168Y-86905500D01*
X133630168Y-86801500D01*
X133629168Y-86801500D01*
X133583168Y-86721500D01*
X133577168Y-86713500D01*
X133506168Y-86640500D01*
X133505168Y-86639500D01*
X133416168Y-86588500D01*
X133415168Y-86588500D01*
X133316168Y-86562500D01*
X133210168Y-86562500D01*
X133110168Y-86588500D01*
X133023168Y-86639500D01*
X132948168Y-86714500D01*
X132946168Y-86717500D01*
X132892168Y-86809500D01*
X132720168Y-86809500D01*
X132669168Y-86721500D01*
X132663168Y-86713500D01*
X132592168Y-86640500D01*
X132591168Y-86639500D01*
X132502168Y-86588500D01*
X132501168Y-86588500D01*
X132402168Y-86562500D01*
X132296168Y-86562500D01*
X132197168Y-86588500D01*
X132107168Y-86639500D01*
X132106168Y-86640500D01*
X132035168Y-86713500D01*
X132033168Y-86715500D01*
X131982168Y-86804500D01*
X131955168Y-86904500D01*
X130113168Y-86904500D01*
X130113168Y-86839500D01*
X130085168Y-86736500D01*
X130035168Y-86649500D01*
X129958168Y-86572500D01*
X129873168Y-86522500D01*
X129872168Y-86522500D01*
X129772168Y-86496500D01*
X129666168Y-86496500D01*
X129569168Y-86521500D01*
X129479168Y-86573500D01*
X129471168Y-86579500D01*
X129405168Y-86646500D01*
X129403168Y-86648500D01*
X129353168Y-86736500D01*
X129325168Y-86839500D01*
X40224168Y-86839500D01*
X40224168Y-79227500D01*
X55339168Y-79227500D01*
X55339168Y-79615500D01*
X55442168Y-79996500D01*
X55637168Y-80333500D01*
X55912168Y-80608500D01*
X56249168Y-80803500D01*
X56630168Y-80906500D01*
X57018168Y-80906500D01*
X57400168Y-80803500D01*
X57399168Y-80803500D01*
X57736168Y-80608500D01*
X58011168Y-80333500D01*
X58206168Y-79995500D01*
X58308168Y-79614500D01*
X58308168Y-79275500D01*
X126291168Y-79275500D01*
X126291168Y-79384500D01*
X126316168Y-79478500D01*
X126316168Y-79479500D01*
X126367168Y-79570500D01*
X126368168Y-79571500D01*
X126436168Y-79640500D01*
X126445168Y-79647500D01*
X126531168Y-79696500D01*
X126636168Y-79724500D01*
X126732168Y-79724500D01*
X126838168Y-79696500D01*
X126837168Y-79696500D01*
X126923168Y-79647500D01*
X126932168Y-79640500D01*
X127000168Y-79571500D01*
X127002168Y-79569500D01*
X127049168Y-79485500D01*
X127078168Y-79379500D01*
X127078168Y-79280500D01*
X127049168Y-79175500D01*
X127002168Y-79090500D01*
X127000168Y-79088500D01*
X126932168Y-79019500D01*
X126924168Y-79013500D01*
X126834168Y-78961500D01*
X126737168Y-78936500D01*
X126631168Y-78936500D01*
X126534168Y-78961500D01*
X126444168Y-79013500D01*
X126436168Y-79019500D01*
X126368168Y-79088500D01*
X126367168Y-79089500D01*
X126316168Y-79180500D01*
X126315168Y-79184500D01*
X126291168Y-79275500D01*
X58308168Y-79275500D01*
X58308168Y-79228500D01*
X58206168Y-78847500D01*
X58011168Y-78509500D01*
X57736168Y-78234500D01*
X57398168Y-78039500D01*
X57399168Y-78039500D01*
X57017168Y-77937500D01*
X56631168Y-77937500D01*
X56250168Y-78039500D01*
X55912168Y-78234500D01*
X55637168Y-78509500D01*
X55442168Y-78846500D01*
X55339168Y-79227500D01*
X40224168Y-79227500D01*
X40224168Y-77706500D01*
X120831168Y-77706500D01*
X120831168Y-77812500D01*
X120857168Y-77912500D01*
X120857168Y-77913500D01*
X120906168Y-77996500D01*
X120910168Y-78001500D01*
X120982168Y-78075500D01*
X120984168Y-78076500D01*
X121068168Y-78124500D01*
X121070168Y-78125500D01*
X121176168Y-78153500D01*
X121272168Y-78153500D01*
X121378168Y-78125500D01*
X121380168Y-78124500D01*
X121464168Y-78076500D01*
X121466168Y-78075500D01*
X121538168Y-78001500D01*
X121542168Y-77996500D01*
X121588168Y-77917500D01*
X121590168Y-77912500D01*
X121618168Y-77808500D01*
X121618168Y-77711500D01*
X121590168Y-77606500D01*
X121540168Y-77518500D01*
X121465168Y-77443500D01*
X121378168Y-77393500D01*
X121379168Y-77393500D01*
X121274168Y-77365500D01*
X121174168Y-77365500D01*
X121070168Y-77393500D01*
X120983168Y-77443500D01*
X120908168Y-77518500D01*
X120856168Y-77609500D01*
X120831168Y-77706500D01*
X40224168Y-77706500D01*
X40224168Y-75510500D01*
X63759168Y-75510500D01*
X63759168Y-75734500D01*
X63819168Y-75956500D01*
X63820168Y-75959500D01*
X63931168Y-76151500D01*
X64094168Y-76314500D01*
X64286168Y-76425500D01*
X64289168Y-76426500D01*
X64513168Y-76486500D01*
X64735168Y-76486500D01*
X64959168Y-76426500D01*
X64962168Y-76425500D01*
X65154168Y-76314500D01*
X65317168Y-76151500D01*
X65352778Y-76089500D01*
X91363168Y-76089500D01*
X91363168Y-76200500D01*
X91387168Y-76292500D01*
X91389168Y-76296500D01*
X91444168Y-76389500D01*
X91515168Y-76461500D01*
X91517168Y-76462500D01*
X91600168Y-76510500D01*
X91605168Y-76512500D01*
X91706168Y-76539500D01*
X91807168Y-76539500D01*
X91911168Y-76511500D01*
X91910168Y-76511500D01*
X91997168Y-76461500D01*
X92073168Y-76385500D01*
X92123168Y-76298500D01*
X92151168Y-76195500D01*
X92151168Y-76094500D01*
X92123168Y-75991500D01*
X92074168Y-75906500D01*
X92072168Y-75903500D01*
X91997168Y-75828500D01*
X91905168Y-75776500D01*
X91811168Y-75751500D01*
X91702168Y-75751500D01*
X91607168Y-75776500D01*
X91603168Y-75778500D01*
X91517168Y-75827500D01*
X91515168Y-75828500D01*
X91443168Y-75902500D01*
X91389168Y-75993500D01*
X91387168Y-75998500D01*
X91363168Y-76089500D01*
X65352778Y-76089500D01*
X65429168Y-75956500D01*
X65488168Y-75736500D01*
X65488168Y-75506500D01*
X65444990Y-75345500D01*
X86980168Y-75345500D01*
X86980168Y-75442500D01*
X87008168Y-75546500D01*
X87058168Y-75634500D01*
X87133168Y-75709500D01*
X87221168Y-75759500D01*
X87326168Y-75787500D01*
X87422168Y-75787500D01*
X87528168Y-75759500D01*
X87527168Y-75759500D01*
X87615168Y-75709500D01*
X87690168Y-75634500D01*
X87742168Y-75543500D01*
X87767168Y-75446500D01*
X87767168Y-75340500D01*
X87742168Y-75243500D01*
X87690168Y-75152500D01*
X87616168Y-75078500D01*
X87528168Y-75027500D01*
X87424168Y-74999500D01*
X87324168Y-74999500D01*
X87220168Y-75027500D01*
X87132168Y-75078500D01*
X87058168Y-75152500D01*
X87008168Y-75240500D01*
X86980168Y-75345500D01*
X65444990Y-75345500D01*
X65429168Y-75286500D01*
X65317168Y-75091500D01*
X65154168Y-74928500D01*
X64959168Y-74816500D01*
X64739168Y-74757500D01*
X64509168Y-74757500D01*
X64289168Y-74816500D01*
X64094168Y-74928500D01*
X63931168Y-75091500D01*
X63820168Y-75283500D01*
X63819168Y-75286500D01*
X63759168Y-75510500D01*
X40224168Y-75510500D01*
X40224168Y-74663500D01*
X132727168Y-74663500D01*
X132727168Y-74770500D01*
X132751168Y-74864500D01*
X132753168Y-74868500D01*
X132807168Y-74958500D01*
X132879168Y-75032500D01*
X132881168Y-75033500D01*
X132964168Y-75081500D01*
X132969168Y-75083500D01*
X133070168Y-75110500D01*
X133171168Y-75110500D01*
X133275168Y-75082500D01*
X133274168Y-75082500D01*
X133361168Y-75032500D01*
X133439168Y-74954500D01*
X133485168Y-74875500D01*
X133487168Y-74869500D01*
X133515168Y-74765500D01*
X133515168Y-74668500D01*
X133487168Y-74563500D01*
X133438168Y-74477500D01*
X133431168Y-74468500D01*
X133364168Y-74402500D01*
X133362168Y-74400500D01*
X133274168Y-74350500D01*
X133275168Y-74350500D01*
X133171168Y-74322500D01*
X133070168Y-74322500D01*
X132965168Y-74350500D01*
X132882168Y-74398500D01*
X132879168Y-74401500D01*
X132807168Y-74472500D01*
X132752168Y-74566500D01*
X132727168Y-74663500D01*
X40224168Y-74663500D01*
X40224168Y-71627500D01*
X55339168Y-71627500D01*
X55339168Y-72015500D01*
X55442168Y-72396500D01*
X55637168Y-72733500D01*
X55912168Y-73008500D01*
X56249168Y-73203500D01*
X56630168Y-73306500D01*
X57018168Y-73306500D01*
X57400168Y-73203500D01*
X57399168Y-73203500D01*
X57736168Y-73008500D01*
X58011168Y-72733500D01*
X58206168Y-72395500D01*
X58308168Y-72014500D01*
X58308168Y-71628500D01*
X58206168Y-71247500D01*
X58011168Y-70909500D01*
X57736168Y-70634500D01*
X57398168Y-70439500D01*
X57399168Y-70439500D01*
X57017168Y-70337500D01*
X56631168Y-70337500D01*
X56250168Y-70439500D01*
X55912168Y-70634500D01*
X55637168Y-70909500D01*
X55442168Y-71246500D01*
X55339168Y-71627500D01*
X40224168Y-71627500D01*
X40224168Y-70298500D01*
X73564168Y-70298500D01*
X73564168Y-70395500D01*
X73592168Y-70499500D01*
X73641168Y-70585500D01*
X73648168Y-70594500D01*
X73717168Y-70662500D01*
X73719168Y-70664500D01*
X73804168Y-70711500D01*
X73909168Y-70740500D01*
X74008168Y-70740500D01*
X74113168Y-70711500D01*
X74198168Y-70664500D01*
X74200168Y-70662500D01*
X74269168Y-70594500D01*
X74276168Y-70585500D01*
X74327168Y-70496500D01*
X74352168Y-70399500D01*
X74352168Y-70294500D01*
X74327168Y-70196500D01*
X74276168Y-70107500D01*
X74269168Y-70098500D01*
X74200168Y-70030500D01*
X74199168Y-70029500D01*
X74108168Y-69978500D01*
X74107168Y-69978500D01*
X74013168Y-69953500D01*
X73904168Y-69953500D01*
X73810168Y-69978500D01*
X73718168Y-70029500D01*
X73717168Y-70030500D01*
X73648168Y-70098500D01*
X73641168Y-70107500D01*
X73592168Y-70193500D01*
X73564168Y-70298500D01*
X40224168Y-70298500D01*
X40224168Y-67808500D01*
X97076168Y-67808500D01*
X97076168Y-67917500D01*
X97101168Y-68011500D01*
X97101168Y-68012500D01*
X97152168Y-68103500D01*
X97153168Y-68104500D01*
X97221168Y-68173500D01*
X97230168Y-68180500D01*
X97316168Y-68229500D01*
X97421168Y-68257500D01*
X97517168Y-68257500D01*
X97623168Y-68229500D01*
X97622168Y-68229500D01*
X97708168Y-68180500D01*
X97717168Y-68173500D01*
X97785168Y-68104500D01*
X97787168Y-68102500D01*
X97834168Y-68018500D01*
X97844017Y-67982500D01*
X104285168Y-67982500D01*
X104285168Y-68093500D01*
X104310168Y-68187500D01*
X104313168Y-68193500D01*
X104361168Y-68276500D01*
X104362168Y-68278500D01*
X104434168Y-68349500D01*
X104526168Y-68404500D01*
X104628168Y-68431500D01*
X104729168Y-68431500D01*
X104831168Y-68404500D01*
X104917168Y-68353500D01*
X104923168Y-68349500D01*
X104991168Y-68281500D01*
X104996168Y-68274500D01*
X105046168Y-68189500D01*
X105073168Y-68087500D01*
X105073168Y-67986500D01*
X105046168Y-67884500D01*
X104991168Y-67792500D01*
X104920168Y-67720500D01*
X104832168Y-67670500D01*
X104828168Y-67668500D01*
X104733168Y-67643500D01*
X104624168Y-67643500D01*
X104530168Y-67668500D01*
X104438168Y-67720500D01*
X104363168Y-67795500D01*
X104310168Y-67888500D01*
X104285168Y-67982500D01*
X97844017Y-67982500D01*
X97863168Y-67912500D01*
X97863168Y-67812500D01*
X97836168Y-67712500D01*
X97835168Y-67708500D01*
X97785168Y-67623500D01*
X97781168Y-67617500D01*
X97713168Y-67549500D01*
X97619168Y-67494500D01*
X97522168Y-67469500D01*
X97416168Y-67469500D01*
X97319168Y-67494500D01*
X97225168Y-67549500D01*
X97157168Y-67617500D01*
X97153168Y-67623500D01*
X97101168Y-67714500D01*
X97076168Y-67808500D01*
X40224168Y-67808500D01*
X40224168Y-64469500D01*
X97076168Y-64469500D01*
X97076168Y-64575500D01*
X97102168Y-64675500D01*
X97104168Y-64679500D01*
X97151168Y-64759500D01*
X97155168Y-64764500D01*
X97227168Y-64838500D01*
X97229168Y-64839500D01*
X97313168Y-64887500D01*
X97315168Y-64888500D01*
X97421168Y-64916500D01*
X97517168Y-64916500D01*
X97623168Y-64888500D01*
X97625168Y-64887500D01*
X97709168Y-64839500D01*
X97711168Y-64838500D01*
X97783168Y-64764500D01*
X97787168Y-64759500D01*
X97833168Y-64681500D01*
X97834168Y-64679500D01*
X97863168Y-64571500D01*
X97863168Y-64474500D01*
X97836168Y-64372500D01*
X97835168Y-64369500D01*
X97785168Y-64281500D01*
X97711168Y-64207500D01*
X97623168Y-64156500D01*
X97624168Y-64156500D01*
X97519168Y-64128500D01*
X97419168Y-64128500D01*
X97315168Y-64156500D01*
X97227168Y-64207500D01*
X97153168Y-64281500D01*
X97101168Y-64372500D01*
X97076168Y-64469500D01*
X40224168Y-64469500D01*
X40224168Y-63398500D01*
X111544168Y-63398500D01*
X111544168Y-63505500D01*
X111570168Y-63604500D01*
X111570168Y-63605500D01*
X111619168Y-63689500D01*
X111697168Y-63767500D01*
X111784168Y-63817500D01*
X111887168Y-63845500D01*
X111988168Y-63845500D01*
X112157168Y-63800500D01*
X112264168Y-63862500D01*
X112311168Y-64032500D01*
X112363168Y-64121500D01*
X112429168Y-64188500D01*
X112438168Y-64195500D01*
X112524168Y-64244500D01*
X112629168Y-64272500D01*
X112725168Y-64272500D01*
X112830168Y-64244500D01*
X112916168Y-64195500D01*
X112925168Y-64188500D01*
X113011168Y-64101500D01*
X113136168Y-64101500D01*
X113234168Y-64199500D01*
X113236168Y-64200500D01*
X113321168Y-64249500D01*
X113425168Y-64278500D01*
X113525168Y-64278500D01*
X113629168Y-64250500D01*
X113629168Y-64249500D01*
X113712168Y-64201500D01*
X113715168Y-64199500D01*
X113788168Y-64128500D01*
X113792168Y-64123500D01*
X113876168Y-63976500D01*
X114050168Y-63976500D01*
X114134168Y-64123500D01*
X114210168Y-64199500D01*
X114212168Y-64200500D01*
X114297168Y-64249500D01*
X114400168Y-64277500D01*
X114501168Y-64277500D01*
X114602168Y-64250500D01*
X114607168Y-64248500D01*
X114689168Y-64201500D01*
X114691168Y-64200500D01*
X114763168Y-64127500D01*
X114818168Y-64035500D01*
X114845168Y-63933500D01*
X114845168Y-63833500D01*
X114843857Y-63828500D01*
X116070168Y-63828500D01*
X116070168Y-63938500D01*
X116095168Y-64032500D01*
X116098168Y-64038500D01*
X116147168Y-64123500D01*
X116225168Y-64201500D01*
X116305168Y-64247500D01*
X116310168Y-64249500D01*
X116415168Y-64277500D01*
X116511168Y-64277500D01*
X116617168Y-64249500D01*
X116616168Y-64249500D01*
X116702168Y-64200500D01*
X116711168Y-64193500D01*
X116776168Y-64127500D01*
X116777168Y-64126500D01*
X116801788Y-64084500D01*
X131157168Y-64084500D01*
X131157168Y-64194500D01*
X131182168Y-64287500D01*
X131235168Y-64379500D01*
X131310168Y-64454500D01*
X131397168Y-64504500D01*
X131500168Y-64532500D01*
X131601168Y-64532500D01*
X131702168Y-64505500D01*
X131707168Y-64503500D01*
X131790168Y-64455500D01*
X131792168Y-64454500D01*
X131863168Y-64382500D01*
X131916168Y-64293500D01*
X131942168Y-64213500D01*
X132135168Y-64193500D01*
X132201168Y-64305500D01*
X132312168Y-64416500D01*
X132444168Y-64492500D01*
X132598168Y-64534500D01*
X133550168Y-64534500D01*
X133705168Y-64492500D01*
X133704168Y-64492500D01*
X133836168Y-64416500D01*
X133948168Y-64304500D01*
X134025168Y-64171500D01*
X134067168Y-64017500D01*
X134067168Y-63865500D01*
X134025168Y-63711500D01*
X133949168Y-63579500D01*
X133836168Y-63466500D01*
X133703168Y-63390500D01*
X133704168Y-63390500D01*
X133550168Y-63349500D01*
X132598168Y-63349500D01*
X132445168Y-63390500D01*
X132312168Y-63466500D01*
X132199168Y-63579500D01*
X132123168Y-63712500D01*
X132075168Y-63892500D01*
X131907168Y-63937500D01*
X131794168Y-63824500D01*
X131701168Y-63769500D01*
X131606168Y-63744500D01*
X131495168Y-63744500D01*
X131403168Y-63768500D01*
X131399168Y-63770500D01*
X131306168Y-63825500D01*
X131234168Y-63896500D01*
X131233168Y-63898500D01*
X131184168Y-63984500D01*
X131182168Y-63988500D01*
X131157168Y-64084500D01*
X116801788Y-64084500D01*
X116828168Y-64039500D01*
X116832168Y-64030500D01*
X116858168Y-63938500D01*
X116858168Y-63828500D01*
X116832168Y-63735500D01*
X116829168Y-63728500D01*
X116779168Y-63641500D01*
X116777168Y-63639500D01*
X116713168Y-63573500D01*
X116705168Y-63567500D01*
X116613168Y-63514500D01*
X116516168Y-63489500D01*
X116410168Y-63489500D01*
X116310168Y-63515500D01*
X116224168Y-63565500D01*
X116148168Y-63641500D01*
X116146168Y-63644500D01*
X116094168Y-63735500D01*
X116070168Y-63828500D01*
X114843857Y-63828500D01*
X114818168Y-63730500D01*
X114763168Y-63638500D01*
X114693168Y-63567500D01*
X114690168Y-63565500D01*
X114604168Y-63516500D01*
X114600168Y-63514500D01*
X114505168Y-63489500D01*
X114396168Y-63489500D01*
X114301168Y-63514500D01*
X114209168Y-63567500D01*
X114135168Y-63641500D01*
X114133168Y-63644500D01*
X114050168Y-63788500D01*
X113878168Y-63790500D01*
X113794168Y-63647500D01*
X113792168Y-63644500D01*
X113715168Y-63567500D01*
X113629168Y-63516500D01*
X113628168Y-63516500D01*
X113528168Y-63490500D01*
X113422168Y-63490500D01*
X113323168Y-63516500D01*
X113320168Y-63517500D01*
X113233168Y-63567500D01*
X113231168Y-63569500D01*
X113142168Y-63660500D01*
X113015168Y-63660500D01*
X112925168Y-63566500D01*
X112917168Y-63561500D01*
X112827168Y-63509500D01*
X112730168Y-63484500D01*
X112625168Y-63484500D01*
X112456168Y-63528500D01*
X112349168Y-63465500D01*
X112304168Y-63298500D01*
X112255168Y-63212500D01*
X112248168Y-63203500D01*
X112181168Y-63137500D01*
X112179168Y-63135500D01*
X112091168Y-63085500D01*
X112092168Y-63085500D01*
X111988168Y-63057500D01*
X111887168Y-63057500D01*
X111784168Y-63085500D01*
X111696168Y-63135500D01*
X111694168Y-63137500D01*
X111627168Y-63203500D01*
X111620168Y-63212500D01*
X111569168Y-63301500D01*
X111544168Y-63398500D01*
X40224168Y-63398500D01*
X40224168Y-62785500D01*
X110179168Y-62785500D01*
X110179168Y-62858500D01*
X110194168Y-62916500D01*
X110195168Y-62917500D01*
X110225168Y-62967500D01*
X110230168Y-62974500D01*
X110271168Y-63014500D01*
X110272168Y-63016500D01*
X110329168Y-63050500D01*
X110393168Y-63067500D01*
X110455168Y-63067500D01*
X110519168Y-63050500D01*
X110576168Y-63016500D01*
X110619168Y-62973500D01*
X110652168Y-62916500D01*
X110683168Y-62808500D01*
X110790168Y-62746500D01*
X110861168Y-62765500D01*
X110962168Y-62765500D01*
X111067168Y-62736500D01*
X111152168Y-62689500D01*
X111154168Y-62687500D01*
X111223168Y-62619500D01*
X111230168Y-62610500D01*
X111278168Y-62526500D01*
X111279168Y-62525500D01*
X111301244Y-62443500D01*
X117152168Y-62443500D01*
X117152168Y-62549500D01*
X117177168Y-62646500D01*
X117232168Y-62740500D01*
X117304168Y-62811500D01*
X117307168Y-62813500D01*
X117394168Y-62863500D01*
X117495168Y-62891500D01*
X117600168Y-62891500D01*
X117693168Y-62865500D01*
X117700168Y-62862500D01*
X117785168Y-62813500D01*
X117789168Y-62810500D01*
X117855168Y-62746500D01*
X117863168Y-62735500D01*
X117912168Y-62649500D01*
X117940168Y-62545500D01*
X117940168Y-62449500D01*
X117912168Y-62343500D01*
X117863168Y-62257500D01*
X117856168Y-62248500D01*
X117787168Y-62180500D01*
X117786168Y-62179500D01*
X117695168Y-62128500D01*
X117694168Y-62128500D01*
X117600168Y-62103500D01*
X117491168Y-62103500D01*
X117396168Y-62128500D01*
X117303168Y-62182500D01*
X117299168Y-62185500D01*
X117232168Y-62252500D01*
X117177168Y-62346500D01*
X117152168Y-62443500D01*
X111301244Y-62443500D01*
X111307168Y-62421500D01*
X111307168Y-62324500D01*
X111279168Y-62218500D01*
X111230168Y-62132500D01*
X111223168Y-62123500D01*
X111154168Y-62055500D01*
X111153168Y-62054500D01*
X111062168Y-62003500D01*
X111061168Y-62003500D01*
X110967168Y-61978500D01*
X110858168Y-61978500D01*
X110764168Y-62003500D01*
X110672168Y-62054500D01*
X110671168Y-62055500D01*
X110602168Y-62123500D01*
X110595168Y-62132500D01*
X110544168Y-62221500D01*
X110519168Y-62319500D01*
X110519168Y-62482500D01*
X110448168Y-62566500D01*
X110388168Y-62576500D01*
X110329168Y-62591500D01*
X110328168Y-62592500D01*
X110278168Y-62622500D01*
X110271168Y-62628500D01*
X110231168Y-62668500D01*
X110225168Y-62675500D01*
X110194168Y-62726500D01*
X110179168Y-62785500D01*
X40224168Y-62785500D01*
X40224168Y-61930500D01*
X97645168Y-61930500D01*
X97645168Y-62031500D01*
X97673168Y-62135500D01*
X97723168Y-62222500D01*
X97798168Y-62297500D01*
X97885168Y-62347500D01*
X97989168Y-62376500D01*
X98089168Y-62376500D01*
X98193168Y-62348500D01*
X98193168Y-62347500D01*
X98276168Y-62299500D01*
X98279168Y-62297500D01*
X98353168Y-62225500D01*
X98356168Y-62221500D01*
X98404168Y-62137500D01*
X98405168Y-62135500D01*
X98433168Y-62030500D01*
X98433168Y-61933500D01*
X98406168Y-61830500D01*
X98403168Y-61823500D01*
X98357168Y-61743500D01*
X98279168Y-61665500D01*
X98275795Y-61663500D01*
X121124168Y-61663500D01*
X121124168Y-61772500D01*
X121149168Y-61867500D01*
X121152168Y-61874500D01*
X121200168Y-61957500D01*
X121201168Y-61959500D01*
X121275168Y-62031500D01*
X121365168Y-62085500D01*
X121467168Y-62112500D01*
X121565168Y-62112500D01*
X121670168Y-62084500D01*
X121761168Y-62031500D01*
X121832168Y-61959500D01*
X121833168Y-61958500D01*
X121882168Y-61873500D01*
X121884168Y-61869500D01*
X121912168Y-61768500D01*
X121912168Y-61665500D01*
X121886168Y-61570500D01*
X121883168Y-61563500D01*
X121833168Y-61476500D01*
X121831168Y-61474500D01*
X121765168Y-61407500D01*
X121757168Y-61401500D01*
X121667168Y-61349500D01*
X121570168Y-61324500D01*
X121464168Y-61324500D01*
X121364168Y-61350500D01*
X121277168Y-61401500D01*
X121202168Y-61476500D01*
X121200168Y-61479500D01*
X121149168Y-61569500D01*
X121124168Y-61663500D01*
X98275795Y-61663500D01*
X98193168Y-61614500D01*
X98192168Y-61614500D01*
X98092168Y-61588500D01*
X97986168Y-61588500D01*
X97887168Y-61614500D01*
X97797168Y-61665500D01*
X97795168Y-61667500D01*
X97724168Y-61740500D01*
X97672168Y-61830500D01*
X97645168Y-61930500D01*
X40224168Y-61930500D01*
X40224168Y-61071500D01*
X106610168Y-61071500D01*
X106610168Y-61171500D01*
X106638168Y-61276500D01*
X106639168Y-61277500D01*
X106689168Y-61363500D01*
X106762168Y-61436500D01*
X106765168Y-61438500D01*
X106851168Y-61487500D01*
X106956168Y-61515500D01*
X107052168Y-61515500D01*
X107157168Y-61487500D01*
X107162168Y-61485500D01*
X107241168Y-61439500D01*
X107246168Y-61435500D01*
X107320168Y-61363500D01*
X107369168Y-61277500D01*
X107398168Y-61170500D01*
X107398168Y-61073500D01*
X107369168Y-60966500D01*
X107321168Y-60881500D01*
X107321168Y-60880500D01*
X107247168Y-60808500D01*
X107241168Y-60803500D01*
X107166637Y-60759500D01*
X109226168Y-60759500D01*
X109226168Y-60870500D01*
X109251168Y-60963500D01*
X109253168Y-60966500D01*
X109302168Y-61054500D01*
X109304168Y-61056500D01*
X109371168Y-61124500D01*
X109380168Y-61131500D01*
X109466168Y-61180500D01*
X109571168Y-61208500D01*
X109667168Y-61208500D01*
X109773168Y-61180500D01*
X109772168Y-61180500D01*
X109858168Y-61131500D01*
X118434168Y-61131500D01*
X118434168Y-61233500D01*
X118463168Y-61339500D01*
X118511168Y-61421500D01*
X118513168Y-61423500D01*
X118584168Y-61495500D01*
X118675168Y-61548500D01*
X118780168Y-61576500D01*
X118878168Y-61576500D01*
X118980168Y-61549500D01*
X119070168Y-61495500D01*
X119144168Y-61423500D01*
X119145168Y-61421500D01*
X119192168Y-61339500D01*
X119195168Y-61333500D01*
X119222168Y-61233500D01*
X119222168Y-61147500D01*
X123624168Y-61147500D01*
X123624168Y-61250500D01*
X123652168Y-61353500D01*
X123653168Y-61355500D01*
X123702168Y-61438500D01*
X123704168Y-61440500D01*
X123774168Y-61511500D01*
X123865168Y-61564500D01*
X123970168Y-61592500D01*
X124068168Y-61592500D01*
X124170168Y-61565500D01*
X124260168Y-61511500D01*
X124333168Y-61440500D01*
X124335168Y-61438500D01*
X124382168Y-61355500D01*
X124385168Y-61349500D01*
X124404804Y-61277500D01*
X126527168Y-61277500D01*
X126527168Y-61382500D01*
X126553168Y-61482500D01*
X126555168Y-61485500D01*
X126602168Y-61566500D01*
X126682168Y-61646500D01*
X126762168Y-61692500D01*
X126767168Y-61694500D01*
X126872168Y-61722500D01*
X126968168Y-61722500D01*
X127074168Y-61694500D01*
X127076168Y-61693500D01*
X127160168Y-61645500D01*
X127162168Y-61644500D01*
X127234168Y-61570500D01*
X127237168Y-61566500D01*
X127287168Y-61482500D01*
X127321168Y-61414500D01*
X127547168Y-61414500D01*
X127580168Y-61547500D01*
X127611168Y-61601500D01*
X127656168Y-61645500D01*
X127663168Y-61650500D01*
X127710168Y-61678500D01*
X127778168Y-61696500D01*
X127836168Y-61696500D01*
X127905168Y-61677500D01*
X127957168Y-61649500D01*
X128004168Y-61602500D01*
X128037168Y-61541500D01*
X128054168Y-61486500D01*
X128054168Y-61417500D01*
X128038168Y-61361500D01*
X128004168Y-61299500D01*
X127957168Y-61252500D01*
X127958168Y-61252500D01*
X127903168Y-61223500D01*
X127901168Y-61222500D01*
X127840168Y-61206500D01*
X127773168Y-61206500D01*
X127717168Y-61220500D01*
X127655168Y-61256500D01*
X127611168Y-61300500D01*
X127547168Y-61414500D01*
X127321168Y-61414500D01*
X127335168Y-61386500D01*
X127315168Y-61278500D01*
X127287168Y-61176500D01*
X127237168Y-61089500D01*
X127236168Y-61087500D01*
X127162168Y-61013500D01*
X127074168Y-60962500D01*
X126970168Y-60934500D01*
X126869168Y-60934500D01*
X126769168Y-60961500D01*
X126679168Y-61013500D01*
X126678168Y-61014500D01*
X126603168Y-61087500D01*
X126602168Y-61089500D01*
X126553168Y-61176500D01*
X126551168Y-61181500D01*
X126527168Y-61277500D01*
X124404804Y-61277500D01*
X124412168Y-61250500D01*
X124412168Y-61147500D01*
X124384168Y-61044500D01*
X124334168Y-60957500D01*
X124257168Y-60880500D01*
X124172168Y-60830500D01*
X124171168Y-60830500D01*
X124128860Y-60819500D01*
X133077168Y-60819500D01*
X133077168Y-60924500D01*
X133102168Y-61021500D01*
X133153168Y-61110500D01*
X133161168Y-61121500D01*
X133229168Y-61187500D01*
X133231168Y-61189500D01*
X133316168Y-61236500D01*
X133421168Y-61265500D01*
X133520168Y-61265500D01*
X133625168Y-61236500D01*
X133710168Y-61189500D01*
X133712168Y-61187500D01*
X133780168Y-61121500D01*
X133788168Y-61110500D01*
X133837168Y-61024500D01*
X133865168Y-60921500D01*
X133865168Y-60824500D01*
X133837168Y-60718500D01*
X133788168Y-60632500D01*
X133781168Y-60623500D01*
X133712168Y-60555500D01*
X133710168Y-60553500D01*
X133625168Y-60506500D01*
X133520168Y-60477500D01*
X133421168Y-60477500D01*
X133316168Y-60506500D01*
X133231168Y-60553500D01*
X133229168Y-60555500D01*
X133160168Y-60623500D01*
X133153168Y-60632500D01*
X133102168Y-60721500D01*
X133077168Y-60819500D01*
X124128860Y-60819500D01*
X124071168Y-60804500D01*
X123965168Y-60804500D01*
X123868168Y-60829500D01*
X123778168Y-60881500D01*
X123768168Y-60888500D01*
X123702168Y-60956500D01*
X123701168Y-60958500D01*
X123652168Y-61044500D01*
X123624168Y-61147500D01*
X119222168Y-61147500D01*
X119222168Y-61131500D01*
X119195168Y-61031500D01*
X119195168Y-61030500D01*
X119144168Y-60941500D01*
X119067168Y-60864500D01*
X118982168Y-60814500D01*
X118981168Y-60814500D01*
X118881168Y-60788500D01*
X118775168Y-60788500D01*
X118678168Y-60813500D01*
X118588168Y-60865500D01*
X118578168Y-60872500D01*
X118514168Y-60938500D01*
X118512168Y-60940500D01*
X118461168Y-61030500D01*
X118461168Y-61031500D01*
X118434168Y-61131500D01*
X109858168Y-61131500D01*
X109867168Y-61124500D01*
X109934168Y-61056500D01*
X109936168Y-61054500D01*
X109984168Y-60969500D01*
X110013168Y-60864500D01*
X110013168Y-60764500D01*
X109984168Y-60659500D01*
X109937168Y-60574500D01*
X109935168Y-60572500D01*
X109867168Y-60503500D01*
X109859168Y-60497500D01*
X109772168Y-60447500D01*
X109773168Y-60447500D01*
X109668168Y-60419500D01*
X109570168Y-60419500D01*
X109466168Y-60447500D01*
X109379168Y-60497500D01*
X109371168Y-60503500D01*
X109303168Y-60572500D01*
X109302168Y-60573500D01*
X109250168Y-60667500D01*
X109250168Y-60668500D01*
X109226168Y-60759500D01*
X107166637Y-60759500D01*
X107158168Y-60754500D01*
X107157168Y-60754500D01*
X107057168Y-60728500D01*
X106951168Y-60728500D01*
X106854168Y-60753500D01*
X106763168Y-60805500D01*
X106688168Y-60880500D01*
X106637168Y-60969500D01*
X106610168Y-61071500D01*
X40224168Y-61071500D01*
X40224168Y-60174500D01*
X110389168Y-60174500D01*
X110389168Y-60280500D01*
X110415168Y-60380500D01*
X110415168Y-60381500D01*
X110464168Y-60464500D01*
X110468168Y-60469500D01*
X110540168Y-60543500D01*
X110543168Y-60545500D01*
X110630168Y-60594500D01*
X110729168Y-60620500D01*
X110835168Y-60620500D01*
X110934168Y-60594500D01*
X110935168Y-60594500D01*
X111021168Y-60545500D01*
X111024168Y-60543500D01*
X111096168Y-60469500D01*
X111100168Y-60464500D01*
X111146168Y-60385500D01*
X111148168Y-60380500D01*
X111176168Y-60275500D01*
X111176168Y-60178500D01*
X111148168Y-60074500D01*
X111098168Y-59986500D01*
X111079168Y-59967500D01*
X126611168Y-59967500D01*
X126611168Y-60036500D01*
X126625168Y-60092500D01*
X126627168Y-60095500D01*
X126661168Y-60153500D01*
X126705168Y-60196500D01*
X126709168Y-60199500D01*
X126759168Y-60230500D01*
X126825168Y-60246500D01*
X126890168Y-60246500D01*
X126949168Y-60231500D01*
X126952168Y-60230500D01*
X126999168Y-60202500D01*
X127006168Y-60196500D01*
X127049168Y-60156500D01*
X127055168Y-60148500D01*
X127082168Y-60100500D01*
X127102168Y-60034500D01*
X127102168Y-59968500D01*
X127086168Y-59912500D01*
X127052168Y-59850500D01*
X127005168Y-59803500D01*
X126953168Y-59775500D01*
X126884168Y-59756500D01*
X126826168Y-59756500D01*
X126758168Y-59774500D01*
X126710168Y-59803500D01*
X126704168Y-59807500D01*
X126659168Y-59851500D01*
X126626168Y-59909500D01*
X126611168Y-59967500D01*
X111079168Y-59967500D01*
X111023168Y-59911500D01*
X110936168Y-59861500D01*
X110832168Y-59832500D01*
X110732168Y-59832500D01*
X110628168Y-59861500D01*
X110541168Y-59911500D01*
X110466168Y-59986500D01*
X110414168Y-60077500D01*
X110389168Y-60174500D01*
X40224168Y-60174500D01*
X40224168Y-59325500D01*
X118786168Y-59325500D01*
X118786168Y-59434500D01*
X118811168Y-59529500D01*
X118814168Y-59536500D01*
X118862168Y-59619500D01*
X118863168Y-59621500D01*
X118937168Y-59693500D01*
X119027168Y-59747500D01*
X119032168Y-59749500D01*
X119125168Y-59773500D01*
X119232168Y-59773500D01*
X119329168Y-59748500D01*
X119423168Y-59693500D01*
X119494168Y-59621500D01*
X119495168Y-59620500D01*
X119544168Y-59535500D01*
X119546168Y-59530500D01*
X119574168Y-59430500D01*
X119574168Y-59325500D01*
X119548168Y-59232500D01*
X119545168Y-59225500D01*
X119495168Y-59138500D01*
X119493168Y-59136500D01*
X119427168Y-59069500D01*
X119419168Y-59063500D01*
X119332168Y-59013500D01*
X119228168Y-58985500D01*
X119130168Y-58985500D01*
X119026168Y-59013500D01*
X119021168Y-59015500D01*
X118940168Y-59062500D01*
X118863168Y-59139500D01*
X118811168Y-59231500D01*
X118786168Y-59325500D01*
X40224168Y-59325500D01*
X40224168Y-58832500D01*
X124979168Y-58832500D01*
X124979168Y-58901500D01*
X124994168Y-58959500D01*
X125028168Y-59018500D01*
X125074168Y-59064500D01*
X125129168Y-59095500D01*
X125132168Y-59096500D01*
X125190168Y-59111500D01*
X125258168Y-59111500D01*
X125316168Y-59096500D01*
X125319168Y-59095500D01*
X125375168Y-59064500D01*
X125374168Y-59064500D01*
X125420168Y-59018500D01*
X125451168Y-58965500D01*
X125452168Y-58964500D01*
X125470168Y-58898500D01*
X125470168Y-58838500D01*
X125453168Y-58773500D01*
X125419168Y-58715500D01*
X125377168Y-58674500D01*
X125375168Y-58672500D01*
X125318168Y-58638500D01*
X125255168Y-58621500D01*
X125193168Y-58621500D01*
X125130168Y-58638500D01*
X125073168Y-58672500D01*
X125071168Y-58674500D01*
X125029168Y-58715500D01*
X124995168Y-58773500D01*
X124993168Y-58778500D01*
X124979168Y-58832500D01*
X40224168Y-58832500D01*
X40224168Y-57309500D01*
X114016168Y-57309500D01*
X114016168Y-57410500D01*
X114044168Y-57514500D01*
X114045168Y-57516500D01*
X114094168Y-57601500D01*
X114096168Y-57603500D01*
X114162168Y-57670500D01*
X114171168Y-57677500D01*
X114260168Y-57728500D01*
X114357168Y-57753500D01*
X114463168Y-57753500D01*
X114563168Y-57727500D01*
X114564168Y-57727500D01*
X114648168Y-57678500D01*
X114726168Y-57600500D01*
X114775168Y-57515500D01*
X114776168Y-57514500D01*
X114804168Y-57410500D01*
X114804168Y-57309500D01*
X114776168Y-57206500D01*
X114726168Y-57119500D01*
X114649168Y-57042500D01*
X114568168Y-56995500D01*
X114563168Y-56993500D01*
X114459168Y-56965500D01*
X114361168Y-56965500D01*
X114257168Y-56993500D01*
X114170168Y-57043500D01*
X114162168Y-57049500D01*
X114096168Y-57116500D01*
X114094168Y-57118500D01*
X114044168Y-57206500D01*
X114016168Y-57309500D01*
X40224168Y-57309500D01*
X40224168Y-56258500D01*
X114568168Y-56258500D01*
X114568168Y-56367500D01*
X114593168Y-56461500D01*
X114593168Y-56462500D01*
X114644168Y-56553500D01*
X114645168Y-56554500D01*
X114713168Y-56623500D01*
X114722168Y-56630500D01*
X114811168Y-56681500D01*
X114908168Y-56706500D01*
X115014168Y-56706500D01*
X115111168Y-56681500D01*
X115200168Y-56630500D01*
X115210168Y-56623500D01*
X115266168Y-56566500D01*
X115434168Y-56612500D01*
X115476168Y-56771500D01*
X115476168Y-56772500D01*
X115526168Y-56859500D01*
X115528168Y-56862500D01*
X115594168Y-56928500D01*
X115594168Y-57052500D01*
X115527168Y-57119500D01*
X115474168Y-57212500D01*
X115474168Y-57213500D01*
X115450168Y-57305500D01*
X115450168Y-57414500D01*
X115475168Y-57509500D01*
X115476168Y-57511500D01*
X115527168Y-57600500D01*
X115605168Y-57678500D01*
X115690168Y-57727500D01*
X115790168Y-57753500D01*
X115896168Y-57753500D01*
X115991168Y-57728500D01*
X116080168Y-57669500D01*
X116253168Y-57832500D01*
X116170168Y-57977500D01*
X116142168Y-58081500D01*
X116142168Y-58181500D01*
X116170168Y-58286500D01*
X116221168Y-58373500D01*
X116294168Y-58446500D01*
X116297168Y-58448500D01*
X116386168Y-58499500D01*
X116483168Y-58524500D01*
X116589168Y-58524500D01*
X116686168Y-58499500D01*
X126611168Y-58499500D01*
X126611168Y-58568500D01*
X126626168Y-58626500D01*
X126659168Y-58684500D01*
X126703168Y-58728500D01*
X126765168Y-58764500D01*
X126821168Y-58778500D01*
X126888168Y-58778500D01*
X126947168Y-58763500D01*
X126949168Y-58762500D01*
X127005168Y-58732500D01*
X127052168Y-58685500D01*
X127086168Y-58623500D01*
X127102168Y-58567500D01*
X127102168Y-58523500D01*
X130934168Y-58523500D01*
X130934168Y-58623500D01*
X130962168Y-58726500D01*
X131012168Y-58814500D01*
X131014168Y-58816500D01*
X131080168Y-58883500D01*
X131089168Y-58890500D01*
X131178168Y-58941500D01*
X131275168Y-58966500D01*
X131381168Y-58966500D01*
X131481168Y-58940500D01*
X131482168Y-58940500D01*
X131566168Y-58891500D01*
X131644168Y-58813500D01*
X131694168Y-58726500D01*
X131722168Y-58623500D01*
X131722168Y-58523500D01*
X131696168Y-58425500D01*
X131693168Y-58416500D01*
X131645168Y-58332500D01*
X131570168Y-58259500D01*
X131480168Y-58205500D01*
X131378168Y-58178500D01*
X131279168Y-58178500D01*
X131175168Y-58206500D01*
X131084168Y-58259500D01*
X131011168Y-58333500D01*
X131010168Y-58334500D01*
X130962168Y-58417500D01*
X130934168Y-58523500D01*
X127102168Y-58523500D01*
X127102168Y-58474500D01*
X127219168Y-58384500D01*
X127321168Y-58411500D01*
X127425168Y-58411500D01*
X127525168Y-58385500D01*
X127526168Y-58385500D01*
X127610168Y-58336500D01*
X127690168Y-58256500D01*
X127736168Y-58176500D01*
X127737168Y-58174500D01*
X127766168Y-58066500D01*
X127766168Y-57969500D01*
X127746653Y-57896500D01*
X129905168Y-57896500D01*
X129905168Y-58004500D01*
X129930168Y-58099500D01*
X129933168Y-58105500D01*
X129983168Y-58191500D01*
X130057168Y-58265500D01*
X130060168Y-58267500D01*
X130150168Y-58318500D01*
X130244168Y-58343500D01*
X130353168Y-58343500D01*
X130447168Y-58318500D01*
X130537168Y-58267500D01*
X130540168Y-58265500D01*
X130614168Y-58191500D01*
X130664168Y-58105500D01*
X130665168Y-58104500D01*
X130666514Y-58099500D01*
X133102168Y-58099500D01*
X133102168Y-58210500D01*
X133127168Y-58303500D01*
X133128168Y-58305500D01*
X133183168Y-58398500D01*
X133255168Y-58471500D01*
X133257168Y-58472500D01*
X133342168Y-58520500D01*
X133346168Y-58522500D01*
X133441168Y-58547500D01*
X133550168Y-58547500D01*
X133644168Y-58522500D01*
X133734168Y-58471500D01*
X133737168Y-58469500D01*
X133812168Y-58394500D01*
X133862168Y-58308500D01*
X133890168Y-58204500D01*
X133890168Y-58103500D01*
X133862168Y-58000500D01*
X133813168Y-57915500D01*
X133811168Y-57912500D01*
X133736168Y-57837500D01*
X133649168Y-57787500D01*
X133650168Y-57787500D01*
X133546168Y-57759500D01*
X133445168Y-57759500D01*
X133344168Y-57786500D01*
X133339168Y-57788500D01*
X133256168Y-57836500D01*
X133254168Y-57837500D01*
X133183168Y-57909500D01*
X133128168Y-58002500D01*
X133126168Y-58007500D01*
X133102168Y-58099500D01*
X130666514Y-58099500D01*
X130693168Y-58000500D01*
X130693168Y-57899500D01*
X130666168Y-57799500D01*
X130666168Y-57798500D01*
X130617168Y-57712500D01*
X130614168Y-57708500D01*
X130539168Y-57633500D01*
X130452168Y-57583500D01*
X130453168Y-57583500D01*
X130349168Y-57555500D01*
X130248168Y-57555500D01*
X130145168Y-57583500D01*
X130058168Y-57633500D01*
X129982168Y-57709500D01*
X129930168Y-57801500D01*
X129905168Y-57896500D01*
X127746653Y-57896500D01*
X127739168Y-57868500D01*
X127737168Y-57862500D01*
X127689168Y-57778500D01*
X127688168Y-57776500D01*
X127614168Y-57704500D01*
X127609168Y-57700500D01*
X127526168Y-57652500D01*
X127526168Y-57651500D01*
X127422168Y-57623500D01*
X127322168Y-57623500D01*
X127218168Y-57652500D01*
X127130168Y-57703500D01*
X127056168Y-57777500D01*
X127006168Y-57864500D01*
X127005168Y-57867500D01*
X126978168Y-57969500D01*
X126978168Y-58071500D01*
X127005168Y-58172500D01*
X126914168Y-58288500D01*
X126826168Y-58288500D01*
X126758168Y-58306500D01*
X126710168Y-58335500D01*
X126704168Y-58339500D01*
X126659168Y-58383500D01*
X126626168Y-58441500D01*
X126611168Y-58499500D01*
X116686168Y-58499500D01*
X116775168Y-58448500D01*
X116778168Y-58446500D01*
X116851168Y-58373500D01*
X116901168Y-58286500D01*
X116902168Y-58285500D01*
X116930168Y-58181500D01*
X116930168Y-58056500D01*
X117151168Y-57995500D01*
X117229168Y-58127500D01*
X117230168Y-58129500D01*
X117304168Y-58202500D01*
X117307168Y-58205500D01*
X117390168Y-58253500D01*
X117495168Y-58281500D01*
X117596168Y-58281500D01*
X117700168Y-58253500D01*
X117699168Y-58253500D01*
X117785168Y-58204500D01*
X117789168Y-58201500D01*
X117856168Y-58135500D01*
X117863168Y-58126500D01*
X117912168Y-58040500D01*
X117940168Y-57936500D01*
X117940168Y-57838500D01*
X117912168Y-57734500D01*
X117911168Y-57731500D01*
X117865168Y-57651500D01*
X117863168Y-57648500D01*
X117821168Y-57606500D01*
X120035168Y-57606500D01*
X120035168Y-57707500D01*
X120063168Y-57810500D01*
X120064168Y-57811500D01*
X120113168Y-57896500D01*
X120188168Y-57971500D01*
X120275168Y-58021500D01*
X120379168Y-58049500D01*
X120479168Y-58049500D01*
X120584168Y-58021500D01*
X120583168Y-58021500D01*
X120670168Y-57971500D01*
X120745168Y-57896500D01*
X120794168Y-57811500D01*
X120823168Y-57703500D01*
X120823168Y-57606500D01*
X120795168Y-57502500D01*
X120745168Y-57414500D01*
X120670168Y-57339500D01*
X120582168Y-57289500D01*
X120583168Y-57289500D01*
X120478168Y-57261500D01*
X120380168Y-57261500D01*
X120276168Y-57289500D01*
X120188168Y-57339500D01*
X120113168Y-57414500D01*
X120063168Y-57501500D01*
X120035168Y-57606500D01*
X117821168Y-57606500D01*
X117786168Y-57571500D01*
X117699168Y-57521500D01*
X117596168Y-57493500D01*
X117495168Y-57493500D01*
X117394168Y-57520500D01*
X117389168Y-57522500D01*
X117306168Y-57570500D01*
X117302168Y-57573500D01*
X117231168Y-57646500D01*
X117176168Y-57738500D01*
X117176168Y-57740500D01*
X117152168Y-57833500D01*
X117152168Y-57965500D01*
X116930168Y-58025500D01*
X116852168Y-57890500D01*
X116778168Y-57816500D01*
X116689168Y-57765500D01*
X116585168Y-57737500D01*
X116487168Y-57737500D01*
X116386168Y-57764500D01*
X116299168Y-57822500D01*
X116126168Y-57659500D01*
X116208168Y-57517500D01*
X116212168Y-57507500D01*
X116238168Y-57414500D01*
X116238168Y-57305500D01*
X116212168Y-57212500D01*
X116209168Y-57205500D01*
X116159168Y-57118500D01*
X116092168Y-57051500D01*
X116092168Y-56927500D01*
X116159168Y-56860500D01*
X116209168Y-56773500D01*
X116238168Y-56669500D01*
X116238168Y-56569500D01*
X116211168Y-56468500D01*
X116163168Y-56385500D01*
X116158168Y-56378500D01*
X116085168Y-56303500D01*
X116083168Y-56302500D01*
X115999168Y-56254500D01*
X115997168Y-56253500D01*
X115892168Y-56225500D01*
X115794168Y-56225500D01*
X115690168Y-56253500D01*
X115685168Y-56255500D01*
X115605168Y-56301500D01*
X115539168Y-56367500D01*
X115372168Y-56323500D01*
X115326168Y-56158500D01*
X115280168Y-56075500D01*
X115277168Y-56071500D01*
X115196168Y-55987500D01*
X115215168Y-55842500D01*
X115295168Y-55795500D01*
X115369168Y-55721500D01*
X115396179Y-55674500D01*
X120154168Y-55674500D01*
X120154168Y-55776500D01*
X120182168Y-55878500D01*
X120183168Y-55880500D01*
X120232168Y-55965500D01*
X120234168Y-55967500D01*
X120300168Y-56034500D01*
X120309168Y-56041500D01*
X120398168Y-56092500D01*
X120495168Y-56117500D01*
X120601168Y-56117500D01*
X120701168Y-56091500D01*
X120702168Y-56091500D01*
X120786168Y-56042500D01*
X120864168Y-55964500D01*
X120913168Y-55879500D01*
X120914168Y-55878500D01*
X120942168Y-55776500D01*
X120942168Y-55765500D01*
X123827168Y-55765500D01*
X123827168Y-55870500D01*
X123853168Y-55970500D01*
X123903168Y-56057500D01*
X123906168Y-56061500D01*
X123978168Y-56131500D01*
X123980168Y-56133500D01*
X124069168Y-56184500D01*
X124169168Y-56211500D01*
X124270168Y-56211500D01*
X124375168Y-56183500D01*
X124374168Y-56183500D01*
X124461168Y-56133500D01*
X124536168Y-56058500D01*
X124585168Y-55973500D01*
X124586168Y-55972500D01*
X124615168Y-55867500D01*
X124615168Y-55767500D01*
X124587168Y-55663500D01*
X124586168Y-55663500D01*
X124540168Y-55583500D01*
X124537168Y-55578500D01*
X124462168Y-55501500D01*
X124460168Y-55500500D01*
X124376168Y-55452500D01*
X124374168Y-55451500D01*
X124269168Y-55423500D01*
X124171168Y-55423500D01*
X124067168Y-55451500D01*
X124062168Y-55453500D01*
X123982168Y-55499500D01*
X123903168Y-55578500D01*
X123902168Y-55580500D01*
X123853168Y-55663500D01*
X123853168Y-55664500D01*
X123827168Y-55765500D01*
X120942168Y-55765500D01*
X120942168Y-55674500D01*
X120916168Y-55576500D01*
X120913168Y-55568500D01*
X120865168Y-55484500D01*
X120864168Y-55482500D01*
X120790168Y-55410500D01*
X120700168Y-55356500D01*
X120598168Y-55329500D01*
X120499168Y-55329500D01*
X120395168Y-55357500D01*
X120304168Y-55410500D01*
X120233168Y-55482500D01*
X120230168Y-55485500D01*
X120182168Y-55568500D01*
X120181168Y-55571500D01*
X120154168Y-55674500D01*
X115396179Y-55674500D01*
X115419168Y-55634500D01*
X115447168Y-55531500D01*
X115447168Y-55430500D01*
X115420168Y-55330500D01*
X115420168Y-55329500D01*
X115369168Y-55240500D01*
X115354168Y-55225500D01*
X132082168Y-55225500D01*
X132082168Y-55377500D01*
X132123168Y-55530500D01*
X132199168Y-55663500D01*
X132312168Y-55776500D01*
X132314168Y-55777500D01*
X132445168Y-55852500D01*
X132598168Y-55893500D01*
X133550168Y-55893500D01*
X133704168Y-55852500D01*
X133703168Y-55852500D01*
X133834168Y-55777500D01*
X133836168Y-55776500D01*
X133949168Y-55663500D01*
X134025168Y-55531500D01*
X134067168Y-55377500D01*
X134067168Y-55225500D01*
X134025168Y-55071500D01*
X133949168Y-54939500D01*
X133836168Y-54826500D01*
X133704168Y-54750500D01*
X133705168Y-54750500D01*
X133550168Y-54708500D01*
X132598168Y-54708500D01*
X132444168Y-54750500D01*
X132312168Y-54826500D01*
X132199168Y-54939500D01*
X132123168Y-55072500D01*
X132082168Y-55225500D01*
X115354168Y-55225500D01*
X115292168Y-55163500D01*
X115211168Y-55116500D01*
X115206168Y-55114500D01*
X115102168Y-55086500D01*
X115004168Y-55086500D01*
X114900168Y-55114500D01*
X114813168Y-55164500D01*
X114805168Y-55170500D01*
X114739168Y-55237500D01*
X114737168Y-55239500D01*
X114686168Y-55329500D01*
X114686168Y-55330500D01*
X114659168Y-55430500D01*
X114659168Y-55531500D01*
X114687168Y-55634500D01*
X114737168Y-55722500D01*
X114739168Y-55724500D01*
X114819168Y-55806500D01*
X114798168Y-55953500D01*
X114721168Y-55996500D01*
X114711168Y-56003500D01*
X114645168Y-56071500D01*
X114642168Y-56075500D01*
X114593168Y-56164500D01*
X114592168Y-56167500D01*
X114568168Y-56258500D01*
X40224168Y-56258500D01*
X40224168Y-53724500D01*
X132859168Y-53724500D01*
X132859168Y-53830500D01*
X132884168Y-53927500D01*
X132935168Y-54016500D01*
X132942168Y-54025500D01*
X133009168Y-54091500D01*
X133011168Y-54093500D01*
X133099168Y-54143500D01*
X133202168Y-54171500D01*
X133303168Y-54171500D01*
X133407168Y-54143500D01*
X133406168Y-54143500D01*
X133494168Y-54093500D01*
X133496168Y-54091500D01*
X133563168Y-54025500D01*
X133570168Y-54016500D01*
X133619168Y-53930500D01*
X133647168Y-53825500D01*
X133647168Y-53728500D01*
X133619168Y-53624500D01*
X133570168Y-53538500D01*
X133563168Y-53529500D01*
X133494168Y-53461500D01*
X133492168Y-53459500D01*
X133407168Y-53412500D01*
X133302168Y-53383500D01*
X133203168Y-53383500D01*
X133098168Y-53412500D01*
X133013168Y-53459500D01*
X133011168Y-53461500D01*
X132942168Y-53529500D01*
X132935168Y-53538500D01*
X132884168Y-53627500D01*
X132859168Y-53724500D01*
X40224168Y-53724500D01*
X40224168Y-52645500D01*
X111656168Y-52645500D01*
X111656168Y-52754500D01*
X111681168Y-52848500D01*
X111681168Y-52849500D01*
X111732168Y-52940500D01*
X111733168Y-52941500D01*
X111801168Y-53010500D01*
X111810168Y-53017500D01*
X111899168Y-53068500D01*
X111996168Y-53093500D01*
X112102168Y-53093500D01*
X112199168Y-53068500D01*
X112288168Y-53017500D01*
X112297168Y-53010500D01*
X112365168Y-52941500D01*
X112367168Y-52939500D01*
X112414168Y-52855500D01*
X112443168Y-52749500D01*
X112443168Y-52650500D01*
X112414168Y-52545500D01*
X112367168Y-52460500D01*
X112365168Y-52458500D01*
X112299168Y-52390500D01*
X112289168Y-52383500D01*
X112287428Y-52382500D01*
X129471168Y-52382500D01*
X129471168Y-52491500D01*
X129496168Y-52585500D01*
X129496168Y-52586500D01*
X129547168Y-52677500D01*
X129548168Y-52678500D01*
X129616168Y-52747500D01*
X129625168Y-52754500D01*
X129714168Y-52805500D01*
X129811168Y-52830500D01*
X129917168Y-52830500D01*
X130014168Y-52805500D01*
X130103168Y-52754500D01*
X130112168Y-52747500D01*
X130180168Y-52678500D01*
X130182168Y-52676500D01*
X130229168Y-52592500D01*
X130258168Y-52486500D01*
X130258168Y-52386500D01*
X130230168Y-52282500D01*
X130180168Y-52197500D01*
X130176168Y-52191500D01*
X130108168Y-52123500D01*
X130017168Y-52070500D01*
X129913168Y-52042500D01*
X129815168Y-52042500D01*
X129711168Y-52070500D01*
X129620168Y-52123500D01*
X129552168Y-52191500D01*
X129548168Y-52197500D01*
X129496168Y-52288500D01*
X129471168Y-52382500D01*
X112287428Y-52382500D01*
X112202168Y-52333500D01*
X112203168Y-52333500D01*
X112098168Y-52305500D01*
X112000168Y-52305500D01*
X111896168Y-52333500D01*
X111809168Y-52383500D01*
X111799168Y-52390500D01*
X111733168Y-52458500D01*
X111732168Y-52459500D01*
X111681168Y-52550500D01*
X111680168Y-52554500D01*
X111656168Y-52645500D01*
X40224168Y-52645500D01*
X40224168Y-51430500D01*
X105861168Y-51430500D01*
X105861168Y-51539500D01*
X105887168Y-51636500D01*
X105937168Y-51725500D01*
X106006168Y-51795500D01*
X106015168Y-51802500D01*
X106104168Y-51853500D01*
X106201168Y-51878500D01*
X106307168Y-51878500D01*
X106404168Y-51853500D01*
X106428599Y-51839500D01*
X120154168Y-51839500D01*
X120154168Y-51945500D01*
X120179168Y-52042500D01*
X120234168Y-52136500D01*
X120302168Y-52204500D01*
X120308168Y-52208500D01*
X120399168Y-52260500D01*
X120493168Y-52285500D01*
X120602168Y-52285500D01*
X120696168Y-52260500D01*
X120697168Y-52260500D01*
X120788168Y-52209500D01*
X120789168Y-52208500D01*
X120858168Y-52140500D01*
X120865168Y-52131500D01*
X120914168Y-52045500D01*
X120942168Y-51940500D01*
X120942168Y-51843500D01*
X120914168Y-51739500D01*
X120865168Y-51653500D01*
X120858168Y-51644500D01*
X120791168Y-51578500D01*
X120789168Y-51576500D01*
X120702168Y-51526500D01*
X120696168Y-51523500D01*
X120602168Y-51497500D01*
X120497168Y-51497500D01*
X120397168Y-51525500D01*
X120395168Y-51526500D01*
X120307168Y-51576500D01*
X120306168Y-51577500D01*
X120234168Y-51648500D01*
X120179168Y-51742500D01*
X120154168Y-51839500D01*
X106428599Y-51839500D01*
X106493168Y-51802500D01*
X106502168Y-51795500D01*
X106571168Y-51725500D01*
X106619168Y-51640500D01*
X106648168Y-51534500D01*
X106648168Y-51435500D01*
X106619168Y-51330500D01*
X106572168Y-51245500D01*
X106570168Y-51243500D01*
X106502168Y-51174500D01*
X106494168Y-51168500D01*
X106407168Y-51118500D01*
X106408168Y-51118500D01*
X106303168Y-51090500D01*
X106205168Y-51090500D01*
X106101168Y-51118500D01*
X106014168Y-51168500D01*
X106006168Y-51174500D01*
X105938168Y-51243500D01*
X105937168Y-51244500D01*
X105886168Y-51335500D01*
X105885168Y-51339500D01*
X105861168Y-51430500D01*
X40224168Y-51430500D01*
X40224168Y-49227500D01*
X55339168Y-49227500D01*
X55339168Y-49615500D01*
X55442168Y-49996500D01*
X55637168Y-50333500D01*
X55912168Y-50608500D01*
X56250168Y-50803500D01*
X56631168Y-50905500D01*
X57017168Y-50905500D01*
X57399168Y-50803500D01*
X57398168Y-50803500D01*
X57736168Y-50608500D01*
X58011168Y-50333500D01*
X58206168Y-49995500D01*
X58308168Y-49614500D01*
X58308168Y-49361500D01*
X121531168Y-49361500D01*
X121531168Y-49467500D01*
X121556168Y-49564500D01*
X121608168Y-49655500D01*
X121683168Y-49730500D01*
X121770168Y-49780500D01*
X121874168Y-49808500D01*
X121974168Y-49808500D01*
X122079168Y-49780500D01*
X122078168Y-49780500D01*
X122165168Y-49730500D01*
X122240168Y-49655500D01*
X122290168Y-49567500D01*
X122318168Y-49462500D01*
X122318168Y-49365500D01*
X122291168Y-49264500D01*
X122290168Y-49261500D01*
X122240168Y-49173500D01*
X122165168Y-49098500D01*
X122077168Y-49048500D01*
X122078168Y-49048500D01*
X121973168Y-49020500D01*
X121875168Y-49020500D01*
X121771168Y-49048500D01*
X121683168Y-49098500D01*
X121608168Y-49173500D01*
X121555168Y-49265500D01*
X121555168Y-49267500D01*
X121531168Y-49361500D01*
X58308168Y-49361500D01*
X58308168Y-49228500D01*
X58206168Y-48847500D01*
X58018500Y-48521500D01*
X92721168Y-48521500D01*
X92721168Y-48621500D01*
X92749168Y-48725500D01*
X92799168Y-48812500D01*
X92874168Y-48887500D01*
X92965168Y-48939500D01*
X93062168Y-48964500D01*
X93168168Y-48964500D01*
X93268168Y-48938500D01*
X93269168Y-48938500D01*
X93352168Y-48889500D01*
X93357168Y-48885500D01*
X93431168Y-48813500D01*
X93432168Y-48811500D01*
X93480168Y-48727500D01*
X93481168Y-48725500D01*
X93509168Y-48619500D01*
X93509168Y-48558500D01*
X99328168Y-48558500D01*
X99328168Y-48684500D01*
X99363168Y-48813500D01*
X99428168Y-48926500D01*
X99519168Y-49017500D01*
X99632168Y-49082500D01*
X99761168Y-49117500D01*
X100687168Y-49117500D01*
X100817168Y-49082500D01*
X100816168Y-49082500D01*
X100929168Y-49017500D01*
X101020168Y-48926500D01*
X101085168Y-48813500D01*
X101120168Y-48684500D01*
X101120168Y-48558500D01*
X101085168Y-48429500D01*
X101020168Y-48316500D01*
X100929168Y-48225500D01*
X100816168Y-48160500D01*
X100817168Y-48160500D01*
X100687168Y-48125500D01*
X99761168Y-48125500D01*
X99632168Y-48160500D01*
X99519168Y-48225500D01*
X99428168Y-48316500D01*
X99363168Y-48429500D01*
X99328168Y-48558500D01*
X93509168Y-48558500D01*
X93509168Y-48522500D01*
X93482168Y-48421500D01*
X93480168Y-48415500D01*
X93432168Y-48331500D01*
X93431168Y-48329500D01*
X93357168Y-48257500D01*
X93352168Y-48253500D01*
X93273168Y-48207500D01*
X93268168Y-48205500D01*
X93164168Y-48177500D01*
X93066168Y-48177500D01*
X92962168Y-48205500D01*
X92874168Y-48255500D01*
X92799168Y-48330500D01*
X92749168Y-48417500D01*
X92721168Y-48521500D01*
X58018500Y-48521500D01*
X58012168Y-48510500D01*
X57736168Y-48234500D01*
X57399168Y-48039500D01*
X57400168Y-48039500D01*
X57018168Y-47936500D01*
X56630168Y-47936500D01*
X56249168Y-48039500D01*
X55912168Y-48234500D01*
X55636168Y-48510500D01*
X55442168Y-48846500D01*
X55339168Y-49227500D01*
X40224168Y-49227500D01*
X40224168Y-46891500D01*
X88172168Y-46891500D01*
X88172168Y-46992500D01*
X88200168Y-47095500D01*
X88250168Y-47182500D01*
X88326168Y-47258500D01*
X88418168Y-47310500D01*
X88512168Y-47335500D01*
X88621168Y-47335500D01*
X88716168Y-47310500D01*
X88720168Y-47308500D01*
X88806168Y-47259500D01*
X88808168Y-47258500D01*
X88879168Y-47186500D01*
X88934168Y-47093500D01*
X88936168Y-47089500D01*
X88960168Y-46997500D01*
X88960168Y-46886500D01*
X88936168Y-46795500D01*
X88934168Y-46790500D01*
X88879168Y-46697500D01*
X88808168Y-46625500D01*
X88806168Y-46624500D01*
X88723168Y-46576500D01*
X88718168Y-46574500D01*
X88617168Y-46547500D01*
X88516168Y-46547500D01*
X88413168Y-46575500D01*
X88326168Y-46625500D01*
X88251168Y-46700500D01*
X88249168Y-46703500D01*
X88200168Y-46788500D01*
X88172168Y-46891500D01*
X40224168Y-46891500D01*
X40224168Y-45510500D01*
X63759168Y-45510500D01*
X63759168Y-45732500D01*
X63819168Y-45956500D01*
X63820168Y-45959500D01*
X63931168Y-46151500D01*
X64094168Y-46314500D01*
X64289168Y-46426500D01*
X64509168Y-46485500D01*
X64739168Y-46485500D01*
X64960168Y-46426500D01*
X64959168Y-46426500D01*
X65154168Y-46314500D01*
X65317168Y-46151500D01*
X65429168Y-45956500D01*
X65488168Y-45736500D01*
X65488168Y-45506500D01*
X65429168Y-45286500D01*
X65317168Y-45091500D01*
X65294168Y-45068500D01*
X124477168Y-45068500D01*
X124477168Y-45174500D01*
X124502168Y-45271500D01*
X124553168Y-45360500D01*
X124560168Y-45369500D01*
X124629168Y-45437500D01*
X124630168Y-45438500D01*
X124722168Y-45489500D01*
X124816168Y-45514500D01*
X124925168Y-45514500D01*
X125019168Y-45489500D01*
X125020168Y-45489500D01*
X125111168Y-45438500D01*
X125112168Y-45437500D01*
X125181168Y-45369500D01*
X125188168Y-45360500D01*
X125237168Y-45275500D01*
X125265168Y-45169500D01*
X125265168Y-45072500D01*
X125237168Y-44968500D01*
X125188168Y-44882500D01*
X125181168Y-44873500D01*
X125112168Y-44805500D01*
X125111168Y-44804500D01*
X125026168Y-44756500D01*
X124920168Y-44727500D01*
X124821168Y-44727500D01*
X124716168Y-44756500D01*
X124630168Y-44804500D01*
X124629168Y-44805500D01*
X124560168Y-44873500D01*
X124553168Y-44882500D01*
X124502168Y-44971500D01*
X124477168Y-45068500D01*
X65294168Y-45068500D01*
X65154168Y-44928500D01*
X64962168Y-44817500D01*
X64959168Y-44816500D01*
X64735168Y-44756500D01*
X64513168Y-44756500D01*
X64289168Y-44816500D01*
X64286168Y-44817500D01*
X64094168Y-44928500D01*
X63931168Y-45091500D01*
X63819168Y-45285500D01*
X63819168Y-45286500D01*
X63759168Y-45510500D01*
X40224168Y-45510500D01*
X40224168Y-43643500D01*
X121531168Y-43643500D01*
X121531168Y-43749500D01*
X121556168Y-43846500D01*
X121608168Y-43937500D01*
X121683168Y-44012500D01*
X121774168Y-44064500D01*
X121871168Y-44089500D01*
X121977168Y-44089500D01*
X122074168Y-44064500D01*
X122165168Y-44012500D01*
X122240168Y-43937500D01*
X122290168Y-43849500D01*
X122318168Y-43744500D01*
X122318168Y-43647500D01*
X122290168Y-43543500D01*
X122240168Y-43455500D01*
X122165168Y-43380500D01*
X122077168Y-43330500D01*
X122078168Y-43330500D01*
X121973168Y-43302500D01*
X121875168Y-43302500D01*
X121771168Y-43330500D01*
X121683168Y-43380500D01*
X121608168Y-43455500D01*
X121556168Y-43546500D01*
X121531168Y-43643500D01*
X40224168Y-43643500D01*
X40224168Y-41627500D01*
X55339168Y-41627500D01*
X55339168Y-42015500D01*
X55442168Y-42396500D01*
X55637168Y-42733500D01*
X55912168Y-43008500D01*
X56250168Y-43203500D01*
X56631168Y-43305500D01*
X57017168Y-43305500D01*
X57399168Y-43203500D01*
X57398168Y-43203500D01*
X57736168Y-43008500D01*
X58011168Y-42733500D01*
X58206168Y-42395500D01*
X58308168Y-42014500D01*
X58308168Y-41628500D01*
X58206168Y-41247500D01*
X58011168Y-40909500D01*
X57736168Y-40634500D01*
X57399168Y-40439500D01*
X57400168Y-40439500D01*
X57018168Y-40336500D01*
X56630168Y-40336500D01*
X56249168Y-40439500D01*
X55912168Y-40634500D01*
X55637168Y-40909500D01*
X55442168Y-41246500D01*
X55339168Y-41627500D01*
X40224168Y-41627500D01*
X40224168Y-28256500D01*
X77466168Y-28256500D01*
X77466168Y-28355500D01*
X77493168Y-28457500D01*
X77547168Y-28547500D01*
X77619168Y-28621500D01*
X77621168Y-28622500D01*
X77707168Y-28671500D01*
X77711168Y-28673500D01*
X77806168Y-28698500D01*
X77915168Y-28698500D01*
X78009168Y-28673500D01*
X78101168Y-28621500D01*
X78179168Y-28543500D01*
X78228168Y-28459500D01*
X78228168Y-28458500D01*
X78254168Y-28358500D01*
X78254168Y-28252500D01*
X78229168Y-28155500D01*
X78178168Y-28066500D01*
X78171168Y-28057500D01*
X78104168Y-27991500D01*
X78102168Y-27989500D01*
X78015168Y-27939500D01*
X78009168Y-27936500D01*
X77915168Y-27910500D01*
X77810168Y-27910500D01*
X77710168Y-27938500D01*
X77708168Y-27939500D01*
X77620168Y-27989500D01*
X77619168Y-27990500D01*
X77547168Y-28061500D01*
X77494168Y-28152500D01*
X77466168Y-28256500D01*
X40224168Y-28256500D01*
X40224168Y-25657500D01*
X85388168Y-25657500D01*
X85388168Y-25756500D01*
X85415168Y-25858500D01*
X85469168Y-25948500D01*
X85541168Y-26022500D01*
X85543168Y-26023500D01*
X85629168Y-26072500D01*
X85633168Y-26074500D01*
X85728168Y-26099500D01*
X85837168Y-26099500D01*
X85931168Y-26074500D01*
X86023168Y-26022500D01*
X86101168Y-25944500D01*
X86150168Y-25860500D01*
X86150168Y-25859500D01*
X86176168Y-25759500D01*
X86176168Y-25653500D01*
X86151168Y-25556500D01*
X86100168Y-25467500D01*
X86093168Y-25458500D01*
X86026168Y-25392500D01*
X86024168Y-25390500D01*
X85937168Y-25340500D01*
X85931168Y-25337500D01*
X85837168Y-25311500D01*
X85732168Y-25311500D01*
X85632168Y-25339500D01*
X85630168Y-25340500D01*
X85542168Y-25390500D01*
X85541168Y-25391500D01*
X85469168Y-25462500D01*
X85416168Y-25553500D01*
X85388168Y-25657500D01*
X40224168Y-25657500D01*
X40224168Y-20622500D01*
X79138168Y-20622500D01*
X79138168Y-20719500D01*
X79166168Y-20824500D01*
X79215168Y-20910500D01*
X79222168Y-20919500D01*
X79291168Y-20987500D01*
X79292168Y-20988500D01*
X79384168Y-21039500D01*
X79478168Y-21064500D01*
X79587168Y-21064500D01*
X79681168Y-21039500D01*
X79682168Y-21039500D01*
X79773168Y-20988500D01*
X79774168Y-20987500D01*
X79843168Y-20919500D01*
X79850168Y-20910500D01*
X79901168Y-20821500D01*
X79926168Y-20724500D01*
X79926168Y-20618500D01*
X79901168Y-20521500D01*
X79850168Y-20432500D01*
X79843168Y-20423500D01*
X79774168Y-20355500D01*
X79772168Y-20353500D01*
X79687168Y-20306500D01*
X79582168Y-20277500D01*
X79483168Y-20277500D01*
X79378168Y-20306500D01*
X79293168Y-20353500D01*
X79291168Y-20355500D01*
X79222168Y-20423500D01*
X79215168Y-20432500D01*
X79166168Y-20518500D01*
X79138168Y-20622500D01*
X40224168Y-20622500D01*
X40224168Y-12618500D01*
X40225168Y-12586500D01*
X40225168Y-12560500D01*
X40231168Y-12503500D01*
X40232168Y-12495500D01*
X40244168Y-12421500D01*
X40245168Y-12420500D01*
X40250168Y-12396500D01*
X40251168Y-12390500D01*
X40254168Y-12379500D01*
X40270168Y-12324500D01*
X40278168Y-12296500D01*
X40279168Y-12293500D01*
X40284168Y-12279500D01*
X40286168Y-12273500D01*
X40318543Y-12199500D01*
X64217168Y-12199500D01*
X64217168Y-13952500D01*
X65970168Y-13952500D01*
X65970168Y-12964500D01*
X66764168Y-12964500D01*
X66764168Y-13188500D01*
X66824168Y-13412500D01*
X66825168Y-13415500D01*
X66937168Y-13609500D01*
X67101168Y-13773500D01*
X67298168Y-13886500D01*
X67518168Y-13945500D01*
X67750168Y-13945500D01*
X67971168Y-13886500D01*
X67970168Y-13886500D01*
X68167168Y-13773500D01*
X68331168Y-13609500D01*
X68444168Y-13412500D01*
X68503168Y-13192500D01*
X68503168Y-12964500D01*
X69304168Y-12964500D01*
X69304168Y-13188500D01*
X69364168Y-13412500D01*
X69365168Y-13415500D01*
X69477168Y-13609500D01*
X69641168Y-13773500D01*
X69838168Y-13886500D01*
X70058168Y-13945500D01*
X70290168Y-13945500D01*
X70511168Y-13886500D01*
X70510168Y-13886500D01*
X70707168Y-13773500D01*
X70871168Y-13609500D01*
X70984168Y-13412500D01*
X71043168Y-13192500D01*
X71043168Y-12964500D01*
X71844168Y-12964500D01*
X71844168Y-13188500D01*
X71904168Y-13412500D01*
X71905168Y-13415500D01*
X72017168Y-13609500D01*
X72181168Y-13773500D01*
X72378168Y-13886500D01*
X72598168Y-13945500D01*
X72830168Y-13945500D01*
X73051168Y-13886500D01*
X73050168Y-13886500D01*
X73247168Y-13773500D01*
X73411168Y-13609500D01*
X73524168Y-13412500D01*
X73583168Y-13192500D01*
X73583168Y-12964500D01*
X74384168Y-12964500D01*
X74384168Y-13188500D01*
X74444168Y-13412500D01*
X74445168Y-13415500D01*
X74557168Y-13609500D01*
X74721168Y-13773500D01*
X74918168Y-13886500D01*
X75138168Y-13945500D01*
X75370168Y-13945500D01*
X75591168Y-13886500D01*
X75590168Y-13886500D01*
X75787168Y-13773500D01*
X75951168Y-13609500D01*
X76064168Y-13412500D01*
X76123168Y-13192500D01*
X76123168Y-13011500D01*
X77278168Y-13011500D01*
X77278168Y-13141500D01*
X77315168Y-13277500D01*
X77316168Y-13280500D01*
X77380168Y-13391500D01*
X77382168Y-13394500D01*
X77476168Y-13488500D01*
X77479168Y-13490500D01*
X77590168Y-13554500D01*
X77593168Y-13555500D01*
X77729168Y-13592500D01*
X77859168Y-13592500D01*
X77995168Y-13555500D01*
X77998168Y-13554500D01*
X78109168Y-13490500D01*
X78112168Y-13488500D01*
X78206168Y-13394500D01*
X78208168Y-13391500D01*
X78272168Y-13280500D01*
X78273168Y-13277500D01*
X78310168Y-13141500D01*
X78310168Y-13011500D01*
X78297381Y-12964500D01*
X79464168Y-12964500D01*
X79464168Y-13188500D01*
X79524168Y-13412500D01*
X79525168Y-13415500D01*
X79637168Y-13609500D01*
X79801168Y-13773500D01*
X79998168Y-13886500D01*
X80218168Y-13945500D01*
X80450168Y-13945500D01*
X80671168Y-13886500D01*
X80670168Y-13886500D01*
X80867168Y-13773500D01*
X81031168Y-13609500D01*
X81144168Y-13412500D01*
X81203168Y-13192500D01*
X81203168Y-12964500D01*
X82004168Y-12964500D01*
X82004168Y-13188500D01*
X82064168Y-13412500D01*
X82065168Y-13415500D01*
X82177168Y-13609500D01*
X82341168Y-13773500D01*
X82538168Y-13886500D01*
X82758168Y-13945500D01*
X82990168Y-13945500D01*
X83211168Y-13886500D01*
X83210168Y-13886500D01*
X83407168Y-13773500D01*
X83571168Y-13609500D01*
X83684168Y-13412500D01*
X83743168Y-13192500D01*
X83743168Y-12964500D01*
X84544168Y-12964500D01*
X84544168Y-13188500D01*
X84604168Y-13412500D01*
X84605168Y-13415500D01*
X84717168Y-13609500D01*
X84881168Y-13773500D01*
X85078168Y-13886500D01*
X85298168Y-13945500D01*
X85530168Y-13945500D01*
X85751168Y-13886500D01*
X85750168Y-13886500D01*
X85947168Y-13773500D01*
X86111168Y-13609500D01*
X86224168Y-13412500D01*
X86283168Y-13192500D01*
X86283168Y-12964500D01*
X87084168Y-12964500D01*
X87084168Y-13188500D01*
X87144168Y-13412500D01*
X87145168Y-13415500D01*
X87257168Y-13609500D01*
X87421168Y-13773500D01*
X87618168Y-13886500D01*
X87838168Y-13945500D01*
X88070168Y-13945500D01*
X88291168Y-13886500D01*
X88290168Y-13886500D01*
X88487168Y-13773500D01*
X88651168Y-13609500D01*
X88764168Y-13412500D01*
X88823168Y-13192500D01*
X88823168Y-12960500D01*
X89625168Y-12960500D01*
X89625168Y-13192500D01*
X89684168Y-13412500D01*
X89797168Y-13609500D01*
X89961168Y-13773500D01*
X90158168Y-13886500D01*
X90378168Y-13945500D01*
X90610168Y-13945500D01*
X90831168Y-13886500D01*
X90830168Y-13886500D01*
X91027168Y-13773500D01*
X91191168Y-13609500D01*
X91303168Y-13415500D01*
X91304168Y-13412500D01*
X91364168Y-13188500D01*
X91364168Y-12964500D01*
X91363096Y-12960500D01*
X92165168Y-12960500D01*
X92165168Y-13192500D01*
X92224168Y-13412500D01*
X92337168Y-13609500D01*
X92501168Y-13773500D01*
X92698168Y-13886500D01*
X92918168Y-13945500D01*
X93150168Y-13945500D01*
X93371168Y-13886500D01*
X93370168Y-13886500D01*
X93567168Y-13773500D01*
X93731168Y-13609500D01*
X93843168Y-13415500D01*
X93844168Y-13412500D01*
X93904168Y-13188500D01*
X93904168Y-12964500D01*
X93903096Y-12960500D01*
X94705168Y-12960500D01*
X94705168Y-13192500D01*
X94764168Y-13412500D01*
X94877168Y-13609500D01*
X95041168Y-13773500D01*
X95238168Y-13886500D01*
X95458168Y-13945500D01*
X95690168Y-13945500D01*
X95911168Y-13886500D01*
X95910168Y-13886500D01*
X96107168Y-13773500D01*
X96271168Y-13609500D01*
X96383168Y-13415500D01*
X96384168Y-13412500D01*
X96444168Y-13188500D01*
X96444168Y-12964500D01*
X96443096Y-12960500D01*
X97245168Y-12960500D01*
X97245168Y-13192500D01*
X97304168Y-13412500D01*
X97417168Y-13609500D01*
X97581168Y-13773500D01*
X97778168Y-13886500D01*
X97998168Y-13945500D01*
X98230168Y-13945500D01*
X98451168Y-13886500D01*
X98450168Y-13886500D01*
X98647168Y-13773500D01*
X98811168Y-13609500D01*
X98923168Y-13415500D01*
X98924168Y-13412500D01*
X98984168Y-13188500D01*
X98984168Y-12964500D01*
X98983096Y-12960500D01*
X99785168Y-12960500D01*
X99785168Y-13192500D01*
X99844168Y-13412500D01*
X99957168Y-13609500D01*
X100121168Y-13773500D01*
X100318168Y-13886500D01*
X100538168Y-13945500D01*
X100770168Y-13945500D01*
X100991168Y-13886500D01*
X100990168Y-13886500D01*
X101187168Y-13773500D01*
X101351168Y-13609500D01*
X101463168Y-13415500D01*
X101464168Y-13412500D01*
X101524168Y-13188500D01*
X101524168Y-12964500D01*
X101523096Y-12960500D01*
X102325168Y-12960500D01*
X102325168Y-13192500D01*
X102384168Y-13412500D01*
X102497168Y-13609500D01*
X102661168Y-13773500D01*
X102858168Y-13886500D01*
X103078168Y-13945500D01*
X103310168Y-13945500D01*
X103531168Y-13886500D01*
X103530168Y-13886500D01*
X103727168Y-13773500D01*
X103891168Y-13609500D01*
X104003168Y-13415500D01*
X104004168Y-13412500D01*
X104064168Y-13188500D01*
X104064168Y-12964500D01*
X104063096Y-12960500D01*
X104865168Y-12960500D01*
X104865168Y-13192500D01*
X104924168Y-13412500D01*
X105037168Y-13609500D01*
X105201168Y-13773500D01*
X105398168Y-13886500D01*
X105618168Y-13945500D01*
X105850168Y-13945500D01*
X106071168Y-13886500D01*
X106070168Y-13886500D01*
X106267168Y-13773500D01*
X106431168Y-13609500D01*
X106543168Y-13415500D01*
X106544168Y-13412500D01*
X106604168Y-13188500D01*
X106604168Y-12964500D01*
X106603096Y-12960500D01*
X107405168Y-12960500D01*
X107405168Y-13192500D01*
X107464168Y-13412500D01*
X107577168Y-13609500D01*
X107741168Y-13773500D01*
X107938168Y-13886500D01*
X108158168Y-13945500D01*
X108390168Y-13945500D01*
X108611168Y-13886500D01*
X108610168Y-13886500D01*
X108807168Y-13773500D01*
X108971168Y-13609500D01*
X109083168Y-13415500D01*
X109084168Y-13412500D01*
X109144168Y-13188500D01*
X109144168Y-12964500D01*
X109143096Y-12960500D01*
X109945168Y-12960500D01*
X109945168Y-13192500D01*
X110004168Y-13412500D01*
X110117168Y-13609500D01*
X110281168Y-13773500D01*
X110478168Y-13886500D01*
X110698168Y-13945500D01*
X110930168Y-13945500D01*
X111151168Y-13886500D01*
X111150168Y-13886500D01*
X111347168Y-13773500D01*
X111511168Y-13609500D01*
X111623168Y-13415500D01*
X111624168Y-13412500D01*
X111684168Y-13188500D01*
X111684168Y-12964500D01*
X111683096Y-12960500D01*
X112485168Y-12960500D01*
X112485168Y-13192500D01*
X112544168Y-13412500D01*
X112657168Y-13609500D01*
X112821168Y-13773500D01*
X113018168Y-13886500D01*
X113238168Y-13945500D01*
X113470168Y-13945500D01*
X113691168Y-13886500D01*
X113690168Y-13886500D01*
X113887168Y-13773500D01*
X114051168Y-13609500D01*
X114163168Y-13415500D01*
X114164168Y-13412500D01*
X114224168Y-13188500D01*
X114224168Y-12964500D01*
X114164168Y-12740500D01*
X114163168Y-12737500D01*
X114051168Y-12543500D01*
X113887168Y-12379500D01*
X113693168Y-12267500D01*
X113690168Y-12266500D01*
X113466168Y-12206500D01*
X113242168Y-12206500D01*
X113018168Y-12266500D01*
X113015168Y-12267500D01*
X112821168Y-12379500D01*
X112657168Y-12543500D01*
X112544168Y-12740500D01*
X112485168Y-12960500D01*
X111683096Y-12960500D01*
X111624168Y-12740500D01*
X111623168Y-12737500D01*
X111511168Y-12543500D01*
X111347168Y-12379500D01*
X111153168Y-12267500D01*
X111150168Y-12266500D01*
X110926168Y-12206500D01*
X110702168Y-12206500D01*
X110478168Y-12266500D01*
X110475168Y-12267500D01*
X110281168Y-12379500D01*
X110117168Y-12543500D01*
X110004168Y-12740500D01*
X109945168Y-12960500D01*
X109143096Y-12960500D01*
X109084168Y-12740500D01*
X109083168Y-12737500D01*
X108971168Y-12543500D01*
X108807168Y-12379500D01*
X108613168Y-12267500D01*
X108610168Y-12266500D01*
X108386168Y-12206500D01*
X108162168Y-12206500D01*
X107938168Y-12266500D01*
X107935168Y-12267500D01*
X107741168Y-12379500D01*
X107577168Y-12543500D01*
X107464168Y-12740500D01*
X107405168Y-12960500D01*
X106603096Y-12960500D01*
X106544168Y-12740500D01*
X106543168Y-12737500D01*
X106431168Y-12543500D01*
X106267168Y-12379500D01*
X106073168Y-12267500D01*
X106070168Y-12266500D01*
X105846168Y-12206500D01*
X105622168Y-12206500D01*
X105398168Y-12266500D01*
X105395168Y-12267500D01*
X105201168Y-12379500D01*
X105037168Y-12543500D01*
X104924168Y-12740500D01*
X104865168Y-12960500D01*
X104063096Y-12960500D01*
X104004168Y-12740500D01*
X104003168Y-12737500D01*
X103891168Y-12543500D01*
X103727168Y-12379500D01*
X103533168Y-12267500D01*
X103530168Y-12266500D01*
X103306168Y-12206500D01*
X103082168Y-12206500D01*
X102858168Y-12266500D01*
X102855168Y-12267500D01*
X102661168Y-12379500D01*
X102497168Y-12543500D01*
X102384168Y-12740500D01*
X102325168Y-12960500D01*
X101523096Y-12960500D01*
X101464168Y-12740500D01*
X101463168Y-12737500D01*
X101351168Y-12543500D01*
X101187168Y-12379500D01*
X100993168Y-12267500D01*
X100990168Y-12266500D01*
X100766168Y-12206500D01*
X100542168Y-12206500D01*
X100318168Y-12266500D01*
X100315168Y-12267500D01*
X100121168Y-12379500D01*
X99957168Y-12543500D01*
X99844168Y-12740500D01*
X99785168Y-12960500D01*
X98983096Y-12960500D01*
X98924168Y-12740500D01*
X98923168Y-12737500D01*
X98811168Y-12543500D01*
X98647168Y-12379500D01*
X98453168Y-12267500D01*
X98450168Y-12266500D01*
X98226168Y-12206500D01*
X98002168Y-12206500D01*
X97778168Y-12266500D01*
X97775168Y-12267500D01*
X97581168Y-12379500D01*
X97417168Y-12543500D01*
X97304168Y-12740500D01*
X97245168Y-12960500D01*
X96443096Y-12960500D01*
X96384168Y-12740500D01*
X96383168Y-12737500D01*
X96271168Y-12543500D01*
X96107168Y-12379500D01*
X95913168Y-12267500D01*
X95910168Y-12266500D01*
X95686168Y-12206500D01*
X95462168Y-12206500D01*
X95238168Y-12266500D01*
X95235168Y-12267500D01*
X95041168Y-12379500D01*
X94877168Y-12543500D01*
X94764168Y-12740500D01*
X94705168Y-12960500D01*
X93903096Y-12960500D01*
X93844168Y-12740500D01*
X93843168Y-12737500D01*
X93731168Y-12543500D01*
X93567168Y-12379500D01*
X93373168Y-12267500D01*
X93370168Y-12266500D01*
X93146168Y-12206500D01*
X92922168Y-12206500D01*
X92698168Y-12266500D01*
X92695168Y-12267500D01*
X92501168Y-12379500D01*
X92337168Y-12543500D01*
X92224168Y-12740500D01*
X92165168Y-12960500D01*
X91363096Y-12960500D01*
X91304168Y-12740500D01*
X91303168Y-12737500D01*
X91191168Y-12543500D01*
X91027168Y-12379500D01*
X90833168Y-12267500D01*
X90830168Y-12266500D01*
X90606168Y-12206500D01*
X90382168Y-12206500D01*
X90158168Y-12266500D01*
X90155168Y-12267500D01*
X89961168Y-12379500D01*
X89797168Y-12543500D01*
X89684168Y-12740500D01*
X89625168Y-12960500D01*
X88823168Y-12960500D01*
X88764168Y-12740500D01*
X88651168Y-12543500D01*
X88487168Y-12379500D01*
X88293168Y-12267500D01*
X88290168Y-12266500D01*
X88066168Y-12206500D01*
X87842168Y-12206500D01*
X87618168Y-12266500D01*
X87615168Y-12267500D01*
X87421168Y-12379500D01*
X87257168Y-12543500D01*
X87145168Y-12737500D01*
X87144168Y-12740500D01*
X87084168Y-12964500D01*
X86283168Y-12964500D01*
X86283168Y-12960500D01*
X86224168Y-12740500D01*
X86111168Y-12543500D01*
X85947168Y-12379500D01*
X85753168Y-12267500D01*
X85750168Y-12266500D01*
X85526168Y-12206500D01*
X85302168Y-12206500D01*
X85078168Y-12266500D01*
X85075168Y-12267500D01*
X84881168Y-12379500D01*
X84717168Y-12543500D01*
X84605168Y-12737500D01*
X84604168Y-12740500D01*
X84544168Y-12964500D01*
X83743168Y-12964500D01*
X83743168Y-12960500D01*
X83684168Y-12740500D01*
X83571168Y-12543500D01*
X83407168Y-12379500D01*
X83213168Y-12267500D01*
X83210168Y-12266500D01*
X82986168Y-12206500D01*
X82762168Y-12206500D01*
X82538168Y-12266500D01*
X82535168Y-12267500D01*
X82341168Y-12379500D01*
X82177168Y-12543500D01*
X82065168Y-12737500D01*
X82064168Y-12740500D01*
X82004168Y-12964500D01*
X81203168Y-12964500D01*
X81203168Y-12960500D01*
X81144168Y-12740500D01*
X81031168Y-12543500D01*
X80867168Y-12379500D01*
X80673168Y-12267500D01*
X80670168Y-12266500D01*
X80446168Y-12206500D01*
X80222168Y-12206500D01*
X79998168Y-12266500D01*
X79995168Y-12267500D01*
X79801168Y-12379500D01*
X79637168Y-12543500D01*
X79525168Y-12737500D01*
X79524168Y-12740500D01*
X79464168Y-12964500D01*
X78297381Y-12964500D01*
X78273168Y-12875500D01*
X78272168Y-12872500D01*
X78208168Y-12761500D01*
X78206168Y-12758500D01*
X78112168Y-12664500D01*
X78109168Y-12662500D01*
X77998168Y-12598500D01*
X77995168Y-12597500D01*
X77859168Y-12560500D01*
X77729168Y-12560500D01*
X77593168Y-12597500D01*
X77590168Y-12598500D01*
X77479168Y-12662500D01*
X77476168Y-12664500D01*
X77382168Y-12758500D01*
X77380168Y-12761500D01*
X77316168Y-12872500D01*
X77315168Y-12875500D01*
X77278168Y-13011500D01*
X76123168Y-13011500D01*
X76123168Y-12960500D01*
X76064168Y-12740500D01*
X75951168Y-12543500D01*
X75787168Y-12379500D01*
X75593168Y-12267500D01*
X75590168Y-12266500D01*
X75366168Y-12206500D01*
X75142168Y-12206500D01*
X74918168Y-12266500D01*
X74915168Y-12267500D01*
X74721168Y-12379500D01*
X74557168Y-12543500D01*
X74445168Y-12737500D01*
X74444168Y-12740500D01*
X74384168Y-12964500D01*
X73583168Y-12964500D01*
X73583168Y-12960500D01*
X73524168Y-12740500D01*
X73411168Y-12543500D01*
X73247168Y-12379500D01*
X73053168Y-12267500D01*
X73050168Y-12266500D01*
X72826168Y-12206500D01*
X72602168Y-12206500D01*
X72378168Y-12266500D01*
X72375168Y-12267500D01*
X72181168Y-12379500D01*
X72017168Y-12543500D01*
X71905168Y-12737500D01*
X71904168Y-12740500D01*
X71844168Y-12964500D01*
X71043168Y-12964500D01*
X71043168Y-12960500D01*
X70984168Y-12740500D01*
X70871168Y-12543500D01*
X70707168Y-12379500D01*
X70513168Y-12267500D01*
X70510168Y-12266500D01*
X70286168Y-12206500D01*
X70062168Y-12206500D01*
X69838168Y-12266500D01*
X69835168Y-12267500D01*
X69641168Y-12379500D01*
X69477168Y-12543500D01*
X69365168Y-12737500D01*
X69364168Y-12740500D01*
X69304168Y-12964500D01*
X68503168Y-12964500D01*
X68503168Y-12960500D01*
X68444168Y-12740500D01*
X68331168Y-12543500D01*
X68167168Y-12379500D01*
X67973168Y-12267500D01*
X67970168Y-12266500D01*
X67746168Y-12206500D01*
X67522168Y-12206500D01*
X67298168Y-12266500D01*
X67295168Y-12267500D01*
X67101168Y-12379500D01*
X66937168Y-12543500D01*
X66825168Y-12737500D01*
X66824168Y-12740500D01*
X66764168Y-12964500D01*
X65970168Y-12964500D01*
X65970168Y-12199500D01*
X64217168Y-12199500D01*
X40318543Y-12199500D01*
X40321168Y-12193500D01*
X40322168Y-12191500D01*
X40331168Y-12172500D01*
X40332168Y-12169500D01*
X40346168Y-12143500D01*
X40348168Y-12139500D01*
X40371168Y-12101500D01*
X40372168Y-12099500D01*
X40398168Y-12059500D01*
X40399168Y-12057500D01*
X40406168Y-12046500D01*
X40427168Y-12017500D01*
X40427168Y-12016500D01*
X40441168Y-11998500D01*
X40443168Y-11997500D01*
X40466168Y-11968500D01*
X40470168Y-11964500D01*
X40486168Y-11946500D01*
X40507168Y-11924500D01*
X40540168Y-11891500D01*
X40565168Y-11868500D01*
X40567168Y-11867500D01*
X40590168Y-11847500D01*
X40619168Y-11825500D01*
X40623168Y-11818500D01*
X40703168Y-11768500D01*
X40722168Y-11756500D01*
X40725168Y-11755500D01*
X40762168Y-11734500D01*
X40767168Y-11731500D01*
X40867168Y-11683500D01*
X40871168Y-11685500D01*
X40879168Y-11682500D01*
X40886168Y-11679500D01*
X40998168Y-11644500D01*
X41002168Y-11647500D01*
X41016168Y-11643500D01*
X41018168Y-11643500D01*
X41085168Y-11630500D01*
X41086168Y-11630500D01*
X41090168Y-11629500D01*
X41120168Y-11627500D01*
X41226168Y-11616500D01*
X41232168Y-11621500D01*
X137216168Y-11621500D01*
X137222168Y-11616500D01*
X137328168Y-11627500D01*
X137358168Y-11629500D01*
X137362168Y-11630500D01*
X137363168Y-11630500D01*
X137430168Y-11643500D01*
X137432168Y-11643500D01*
X137446168Y-11647500D01*
X137450168Y-11644500D01*
X137562168Y-11679500D01*
X137569168Y-11682500D01*
X137577168Y-11685500D01*
X137579168Y-11684500D01*
X137667168Y-11724500D01*
X137673168Y-11727500D01*
X137723168Y-11755500D01*
X137726168Y-11757500D01*
X137745168Y-11768500D01*
X137825168Y-11818500D01*
X137829168Y-11825500D01*
X137858168Y-11847500D01*
X137881168Y-11867500D01*
X137883168Y-11868500D01*
X137908168Y-11891500D01*
X137941168Y-11924500D01*
X137962168Y-11946500D01*
X137978168Y-11964500D01*
X137982168Y-11968500D01*
X138005168Y-11997500D01*
X138007168Y-11998500D01*
X138021168Y-12016500D01*
X138021168Y-12017500D01*
X138042168Y-12046500D01*
X138045168Y-12051500D01*
X138076168Y-12099500D01*
X138077168Y-12101500D01*
X138100168Y-12139500D01*
X138102168Y-12143500D01*
X138116168Y-12169500D01*
X138117168Y-12172500D01*
X138126168Y-12191500D01*
X138127168Y-12193500D01*
X138162168Y-12273500D01*
X138164168Y-12279500D01*
X138169168Y-12293500D01*
X138170168Y-12296500D01*
X138178168Y-12324500D01*
X138194168Y-12379500D01*
X138197168Y-12390500D01*
X138198168Y-12396500D01*
X138203168Y-12420500D01*
X138204168Y-12421500D01*
X138216168Y-12495500D01*
X138217168Y-12503500D01*
X138218168Y-12517500D01*
X138223168Y-12560500D01*
X138223168Y-12582500D01*
X138224168Y-12637500D01*
X138224168Y-54975500D01*
X137993168Y-55029500D01*
X137947168Y-54937500D01*
X137836168Y-54826500D01*
X137704168Y-54750500D01*
X137705168Y-54750500D01*
X137550168Y-54708500D01*
X136598168Y-54708500D01*
X136444168Y-54750500D01*
X136312168Y-54826500D01*
X136199168Y-54939500D01*
X136123168Y-55072500D01*
X136082168Y-55225500D01*
X136082168Y-55377500D01*
X136123168Y-55530500D01*
X136199168Y-55663500D01*
X136312168Y-55776500D01*
X136314168Y-55777500D01*
X136445168Y-55852500D01*
X136598168Y-55893500D01*
X137550168Y-55893500D01*
X137704168Y-55852500D01*
X137703168Y-55852500D01*
X137834168Y-55777500D01*
X137836168Y-55776500D01*
X137947168Y-55665500D01*
X137993168Y-55573500D01*
X138224168Y-55627500D01*
X138224168Y-63817500D01*
X137964168Y-63852500D01*
X137925168Y-63711500D01*
X137849168Y-63579500D01*
X137736168Y-63466500D01*
X137603168Y-63390500D01*
X137604168Y-63390500D01*
X137450168Y-63349500D01*
X136498168Y-63349500D01*
X136345168Y-63390500D01*
X136212168Y-63466500D01*
X136099168Y-63579500D01*
X136023168Y-63712500D01*
X135982168Y-63865500D01*
X135982168Y-64017500D01*
X136023168Y-64170500D01*
X136100168Y-64304500D01*
X136212168Y-64416500D01*
X136344168Y-64492500D01*
X136498168Y-64534500D01*
X137450168Y-64534500D01*
X137605168Y-64492500D01*
X137604168Y-64492500D01*
X137736168Y-64416500D01*
X137848168Y-64304500D01*
X137925168Y-64171500D01*
X137964168Y-64030500D01*
X138224168Y-64065500D01*
X138224168Y-108623500D01*
X138223168Y-108675500D01*
X138222168Y-108683500D01*
X138221168Y-108695500D01*
X138220168Y-108695500D01*
X138218168Y-108724500D01*
X138218168Y-108726500D01*
X138214168Y-108758500D01*
X138213168Y-108768500D01*
X138211168Y-108776500D01*
X138202168Y-108825500D01*
X138202168Y-108829500D01*
X138194168Y-108864500D01*
X138193168Y-108868500D01*
X138176168Y-108928500D01*
X138175168Y-108932500D01*
X138165168Y-108961500D01*
X138163168Y-108967500D01*
X138160168Y-108974500D01*
X138162168Y-108978500D01*
X138114168Y-109078500D01*
X138112168Y-109083500D01*
X138074168Y-109150500D01*
X138071168Y-109152500D01*
X138066168Y-109160500D01*
X138064168Y-109163500D01*
X138044168Y-109192500D01*
X138043168Y-109194500D01*
X138030168Y-109212500D01*
X138029168Y-109214500D01*
X138022168Y-109224500D01*
X138021168Y-109225500D01*
X137991168Y-109263500D01*
X137990168Y-109263500D01*
X137981168Y-109276500D01*
X137977168Y-109279500D01*
X137954168Y-109305500D01*
X137921168Y-109338500D01*
X137898168Y-109360500D01*
X137897168Y-109361500D01*
X137882168Y-109375500D01*
X137879168Y-109378500D01*
X137849168Y-109402500D01*
X137847168Y-109403500D01*
X137806168Y-109434500D01*
X137798168Y-109440500D01*
X137773168Y-109456500D01*
X137772168Y-109458500D01*
X137720168Y-109489500D01*
X137719168Y-109490500D01*
X137681168Y-109511500D01*
X137676168Y-109513500D01*
X137652168Y-109524500D01*
X137651168Y-109524500D01*
X137569168Y-109560500D01*
X137562168Y-109563500D01*
X137450168Y-109598500D01*
X137446168Y-109595500D01*
X137432168Y-109599500D01*
X137430168Y-109599500D01*
X137363168Y-109612500D01*
X137362168Y-109612500D01*
X137358168Y-109613500D01*
X137328168Y-109615500D01*
X137222168Y-109626500D01*
G37*
%TD.AperFunction*%
%TD*%
M02*
