%TF.GenerationSoftware,Flux,Flux PCB Export,1*%
%TF.CreationDate,2026-08-29T18:55:32+00:00*%
%TF.ProjectId,input,696e7075-742e-46b6-9963-61645f706362,rev?*%
%TF.SameCoordinates,Original*%
%TF.FileFunction,Soldermask,Top*%
%TF.FilePolarity,Negative*%
%FSLAX46Y46*%
G04 Gerber Fmt 4.6, Leading zero omitted, Abs format (unit mm)*
G04 Filename: oscilloscope*
G04 Build it with Flux! Visit our site at: https://www.flux.ai (Flux) date 2026-08-29 18:55:32*
%MOMM*%
%LPD*%
G01*
G04 APERTURE LIST*
G04 Aperture macros list*
%AMRoundRect*
0 Rectangle with rounded corners*
0 $1 Rounding radius*
0 $2 $3 $4 $5 $6 $7 $8 $9 X,Y pos of 4 corners*
0 Add a 4 corners polygon primitive as box body*
4,1,4,$2,$3,$4,$5,$6,$7,$8,$9,$2,$3,0*
0 Add four circle primitives for the rounded corners*
1,1,$1+$1,$2,$3*
1,1,$1+$1,$4,$5*
1,1,$1+$1,$6,$7*
1,1,$1+$1,$8,$9*
0 Add four rect primitives between the rounded corners*
20,1,$1+$1,$2,$3,$4,$5,0*
20,1,$1+$1,$4,$5,$6,$7,0*
20,1,$1+$1,$6,$7,$8,$9,0*
20,1,$1+$1,$8,$9,$2,$3,0*%
G04 Aperture macros list end*
%ADD10C,0.000000*%
%ADD11R,0.950000X0.950000*%
%ADD12RoundRect,0.131300X0.743700X-0.431200X0.743700X0.431200X-0.743700X0.431200X-0.743700X-0.431200X0*%
%ADD13RoundRect,0.071200X-0.328800X-0.403800X0.328800X-0.403800X0.328800X0.403800X-0.328800X0.403800X0*%
%ADD14RoundRect,0.071200X-0.378800X-0.403800X0.378800X-0.403800X0.378800X0.403800X-0.378800X0.403800X0*%
%ADD15R,1.130000X1.380000*%
%ADD16R,0.800000X0.800000*%
%ADD17R,0.740000X2.790000*%
%ADD18R,1.000000X0.800000*%
%ADD19R,1.000000X1.000000*%
%ADD20RoundRect,0.131300X-0.431200X-0.743700X0.431200X-0.743700X0.431200X0.743700X-0.431200X0.743700X0*%
%ADD21R,1.500000X2.000000*%
%ADD22RoundRect,0.108700X-0.391300X-0.616300X0.391300X-0.616300X0.391300X0.616300X-0.391300X0.616300X0*%
%ADD23RoundRect,0.071200X0.403800X-0.378800X0.403800X0.378800X-0.403800X0.378800X-0.403800X-0.378800X0*%
%ADD24R,0.450000X1.400000*%
%ADD25R,1.060000X0.650000*%
%ADD26R,1.250000X0.700000*%
%ADD27R,0.280000X0.750000*%
%ADD28R,0.750000X0.280000*%
%ADD29R,3.450000X3.450000*%
%ADD30R,2.600000X1.600000*%
%ADD31R,2.500000X1.800000*%
%ADD32RoundRect,0.198800X-0.413700X-1.126200X0.413700X-1.126200X0.413700X1.126200X-0.413700X1.126200X0*%
%ADD33C,1.550000*%
%ADD34C,2.800000*%
%ADD35R,1.330000X1.500000*%
%ADD36C,1.560000*%
%ADD37R,1.560000X1.560000*%
%ADD38O,2.940000X1.760000*%
%ADD39R,1.500000X0.570000*%
%ADD40O,1.800000X1.000000*%
%ADD41R,1.150000X0.300000*%
%ADD42R,1.150000X0.600000*%
%ADD43R,1.070000X0.600000*%
G04 APERTURE END LIST*
D10*
%TO.C,*%
G36*
X77630299Y-71446537D02*
G01*
X77632626Y-71446651D01*
X77634948Y-71446841D01*
X77637263Y-71447108D01*
X77639567Y-71447449D01*
X77641860Y-71447867D01*
X77644137Y-71448358D01*
X77646397Y-71448925D01*
X77648637Y-71449564D01*
X77650856Y-71450277D01*
X77653049Y-71451062D01*
X77655216Y-71451918D01*
X77657354Y-71452845D01*
X77659460Y-71453841D01*
X77661533Y-71454906D01*
X77663569Y-71456037D01*
X77665568Y-71457235D01*
X77667526Y-71458498D01*
X77669442Y-71459824D01*
X77671313Y-71461212D01*
X77673138Y-71462660D01*
X77674915Y-71464167D01*
X77676641Y-71465732D01*
X77678315Y-71467352D01*
X77679936Y-71469027D01*
X77681500Y-71470753D01*
X77683008Y-71472530D01*
X77684456Y-71474354D01*
X77685844Y-71476226D01*
X77687170Y-71478142D01*
X77688433Y-71480100D01*
X77689630Y-71482098D01*
X77690762Y-71484135D01*
X77691827Y-71486207D01*
X77692823Y-71488314D01*
X77693750Y-71490451D01*
X77694606Y-71492618D01*
X77695391Y-71494812D01*
X77696104Y-71497030D01*
X77696743Y-71499270D01*
X77697309Y-71501530D01*
X77697801Y-71503808D01*
X77698218Y-71506100D01*
X77698560Y-71508405D01*
X77698827Y-71510719D01*
X77699017Y-71513042D01*
X77699131Y-71515369D01*
X77699169Y-71517698D01*
X77699172Y-72275298D01*
X77699134Y-72277628D01*
X77699020Y-72279955D01*
X77698829Y-72282277D01*
X77698563Y-72284592D01*
X77698221Y-72286896D01*
X77697804Y-72289189D01*
X77697312Y-72291466D01*
X77696746Y-72293726D01*
X77696106Y-72295967D01*
X77695394Y-72298185D01*
X77694609Y-72300378D01*
X77693753Y-72302545D01*
X77692826Y-72304683D01*
X77691830Y-72306789D01*
X77690765Y-72308862D01*
X77689633Y-72310898D01*
X77688436Y-72312897D01*
X77687173Y-72314855D01*
X77685847Y-72316771D01*
X77684459Y-72318642D01*
X77683011Y-72320467D01*
X77681503Y-72322244D01*
X77679939Y-72323970D01*
X77678318Y-72325644D01*
X77676644Y-72327265D01*
X77674918Y-72328829D01*
X77673141Y-72330337D01*
X77671316Y-72331785D01*
X77669445Y-72333173D01*
X77667529Y-72334499D01*
X77665571Y-72335762D01*
X77663572Y-72336959D01*
X77661536Y-72338091D01*
X77659463Y-72339156D01*
X77657357Y-72340152D01*
X77655220Y-72341079D01*
X77653053Y-72341935D01*
X77650859Y-72342720D01*
X77648641Y-72343433D01*
X77646400Y-72344072D01*
X77644140Y-72344638D01*
X77641863Y-72345130D01*
X77639571Y-72345547D01*
X77637266Y-72345889D01*
X77634951Y-72346156D01*
X77632629Y-72346346D01*
X77630302Y-72346460D01*
X77627972Y-72346499D01*
X76820372Y-72346501D01*
X76818043Y-72346463D01*
X76815716Y-72346349D01*
X76813394Y-72346159D01*
X76811079Y-72345892D01*
X76808774Y-72345551D01*
X76806482Y-72345133D01*
X76804205Y-72344642D01*
X76801945Y-72344075D01*
X76799704Y-72343436D01*
X76797486Y-72342723D01*
X76795292Y-72341938D01*
X76793125Y-72341082D01*
X76790988Y-72340155D01*
X76788882Y-72339159D01*
X76786809Y-72338094D01*
X76784772Y-72336963D01*
X76782774Y-72335765D01*
X76780816Y-72334502D01*
X76778900Y-72333176D01*
X76777029Y-72331788D01*
X76775204Y-72330340D01*
X76773427Y-72328833D01*
X76771701Y-72327268D01*
X76770026Y-72325648D01*
X76768406Y-72323973D01*
X76766841Y-72322247D01*
X76765334Y-72320470D01*
X76763886Y-72318646D01*
X76762498Y-72316774D01*
X76761172Y-72314858D01*
X76759909Y-72312900D01*
X76758711Y-72310902D01*
X76757580Y-72308865D01*
X76756515Y-72306793D01*
X76755519Y-72304686D01*
X76754592Y-72302549D01*
X76753736Y-72300382D01*
X76752951Y-72298188D01*
X76752238Y-72295970D01*
X76751598Y-72293730D01*
X76751032Y-72291470D01*
X76750540Y-72289192D01*
X76750123Y-72286900D01*
X76749781Y-72284595D01*
X76749515Y-72282281D01*
X76749325Y-72279958D01*
X76749210Y-72277631D01*
X76749172Y-72275302D01*
X76749169Y-71517702D01*
X76749208Y-71515372D01*
X76749322Y-71513045D01*
X76749512Y-71510723D01*
X76749779Y-71508408D01*
X76750120Y-71506104D01*
X76750537Y-71503811D01*
X76751029Y-71501534D01*
X76751595Y-71499274D01*
X76752235Y-71497033D01*
X76752948Y-71494815D01*
X76753733Y-71492622D01*
X76754589Y-71490455D01*
X76755516Y-71488317D01*
X76756512Y-71486211D01*
X76757577Y-71484138D01*
X76758708Y-71482102D01*
X76759906Y-71480103D01*
X76761169Y-71478145D01*
X76762495Y-71476229D01*
X76763883Y-71474358D01*
X76765331Y-71472533D01*
X76766838Y-71470756D01*
X76768403Y-71469030D01*
X76770023Y-71467356D01*
X76771697Y-71465735D01*
X76773424Y-71464171D01*
X76775200Y-71462663D01*
X76777025Y-71461215D01*
X76778897Y-71459827D01*
X76780813Y-71458501D01*
X76782771Y-71457238D01*
X76784769Y-71456041D01*
X76786806Y-71454909D01*
X76788878Y-71453844D01*
X76790984Y-71452848D01*
X76793122Y-71451921D01*
X76795289Y-71451065D01*
X76797483Y-71450280D01*
X76799701Y-71449567D01*
X76801941Y-71448928D01*
X76804201Y-71448362D01*
X76806479Y-71447870D01*
X76808771Y-71447453D01*
X76811076Y-71447111D01*
X76813390Y-71446844D01*
X76815712Y-71446654D01*
X76818040Y-71446540D01*
X76820369Y-71446501D01*
X77627969Y-71446499D01*
X77630299Y-71446537D01*
G37*
G36*
X77630293Y-69896537D02*
G01*
X77632620Y-69896651D01*
X77634942Y-69896841D01*
X77637257Y-69897108D01*
X77639562Y-69897449D01*
X77641854Y-69897867D01*
X77644131Y-69898358D01*
X77646391Y-69898925D01*
X77648632Y-69899564D01*
X77650850Y-69900277D01*
X77653044Y-69901062D01*
X77655211Y-69901918D01*
X77657348Y-69902845D01*
X77659454Y-69903841D01*
X77661527Y-69904906D01*
X77663564Y-69906037D01*
X77665562Y-69907235D01*
X77667520Y-69908498D01*
X77669436Y-69909824D01*
X77671307Y-69911212D01*
X77673132Y-69912660D01*
X77674909Y-69914167D01*
X77676635Y-69915732D01*
X77678310Y-69917352D01*
X77679930Y-69919027D01*
X77681495Y-69920753D01*
X77683002Y-69922530D01*
X77684450Y-69924354D01*
X77685838Y-69926226D01*
X77687164Y-69928142D01*
X77688427Y-69930100D01*
X77689625Y-69932098D01*
X77690756Y-69934135D01*
X77691821Y-69936207D01*
X77692817Y-69938314D01*
X77693744Y-69940451D01*
X77694600Y-69942618D01*
X77695385Y-69944812D01*
X77696098Y-69947030D01*
X77696738Y-69949270D01*
X77697304Y-69951530D01*
X77697796Y-69953808D01*
X77698213Y-69956100D01*
X77698555Y-69958405D01*
X77698821Y-69960719D01*
X77699011Y-69963042D01*
X77699126Y-69965369D01*
X77699164Y-69967698D01*
X77699167Y-70725298D01*
X77699128Y-70727628D01*
X77699014Y-70729955D01*
X77698824Y-70732277D01*
X77698557Y-70734592D01*
X77698216Y-70736896D01*
X77697799Y-70739189D01*
X77697307Y-70741466D01*
X77696741Y-70743726D01*
X77696101Y-70745967D01*
X77695388Y-70748185D01*
X77694603Y-70750378D01*
X77693747Y-70752545D01*
X77692820Y-70754683D01*
X77691824Y-70756789D01*
X77690759Y-70758862D01*
X77689628Y-70760898D01*
X77688430Y-70762897D01*
X77687167Y-70764855D01*
X77685841Y-70766771D01*
X77684453Y-70768642D01*
X77683005Y-70770467D01*
X77681498Y-70772244D01*
X77679933Y-70773970D01*
X77678313Y-70775644D01*
X77676639Y-70777265D01*
X77674912Y-70778829D01*
X77673136Y-70780337D01*
X77671311Y-70781785D01*
X77669439Y-70783173D01*
X77667523Y-70784499D01*
X77665565Y-70785762D01*
X77663567Y-70786959D01*
X77661530Y-70788091D01*
X77659458Y-70789156D01*
X77657352Y-70790152D01*
X77655214Y-70791079D01*
X77653047Y-70791935D01*
X77650853Y-70792720D01*
X77648635Y-70793433D01*
X77646395Y-70794072D01*
X77644135Y-70794638D01*
X77641857Y-70795130D01*
X77639565Y-70795547D01*
X77637260Y-70795889D01*
X77634946Y-70796156D01*
X77632624Y-70796346D01*
X77630296Y-70796460D01*
X77627967Y-70796499D01*
X76820367Y-70796501D01*
X76818037Y-70796463D01*
X76815710Y-70796349D01*
X76813388Y-70796159D01*
X76811073Y-70795892D01*
X76808769Y-70795551D01*
X76806476Y-70795133D01*
X76804199Y-70794642D01*
X76801939Y-70794075D01*
X76799699Y-70793436D01*
X76797480Y-70792723D01*
X76795287Y-70791938D01*
X76793120Y-70791082D01*
X76790982Y-70790155D01*
X76788876Y-70789159D01*
X76786803Y-70788094D01*
X76784767Y-70786963D01*
X76782768Y-70785765D01*
X76780810Y-70784502D01*
X76778894Y-70783176D01*
X76777023Y-70781788D01*
X76775198Y-70780340D01*
X76773421Y-70778833D01*
X76771695Y-70777268D01*
X76770021Y-70775648D01*
X76768400Y-70773973D01*
X76766836Y-70772247D01*
X76765328Y-70770470D01*
X76763880Y-70768646D01*
X76762492Y-70766774D01*
X76761166Y-70764858D01*
X76759903Y-70762900D01*
X76758706Y-70760902D01*
X76757574Y-70758865D01*
X76756509Y-70756793D01*
X76755513Y-70754686D01*
X76754586Y-70752549D01*
X76753730Y-70750382D01*
X76752945Y-70748188D01*
X76752232Y-70745970D01*
X76751593Y-70743730D01*
X76751027Y-70741470D01*
X76750535Y-70739192D01*
X76750118Y-70736900D01*
X76749776Y-70734595D01*
X76749509Y-70732281D01*
X76749319Y-70729958D01*
X76749205Y-70727631D01*
X76749167Y-70725302D01*
X76749164Y-69967702D01*
X76749202Y-69965372D01*
X76749316Y-69963045D01*
X76749507Y-69960723D01*
X76749773Y-69958408D01*
X76750115Y-69956104D01*
X76750532Y-69953811D01*
X76751024Y-69951534D01*
X76751590Y-69949274D01*
X76752230Y-69947033D01*
X76752942Y-69944815D01*
X76753727Y-69942622D01*
X76754583Y-69940455D01*
X76755510Y-69938317D01*
X76756506Y-69936211D01*
X76757571Y-69934138D01*
X76758703Y-69932102D01*
X76759900Y-69930103D01*
X76761163Y-69928145D01*
X76762489Y-69926229D01*
X76763877Y-69924358D01*
X76765325Y-69922533D01*
X76766833Y-69920756D01*
X76768397Y-69919030D01*
X76770018Y-69917356D01*
X76771692Y-69915735D01*
X76773418Y-69914171D01*
X76775195Y-69912663D01*
X76777020Y-69911215D01*
X76778891Y-69909827D01*
X76780807Y-69908501D01*
X76782765Y-69907238D01*
X76784764Y-69906041D01*
X76786800Y-69904909D01*
X76788873Y-69903844D01*
X76790979Y-69902848D01*
X76793116Y-69901921D01*
X76795283Y-69901065D01*
X76797477Y-69900280D01*
X76799695Y-69899567D01*
X76801936Y-69898928D01*
X76804196Y-69898362D01*
X76806473Y-69897870D01*
X76808765Y-69897453D01*
X76811070Y-69897111D01*
X76813385Y-69896844D01*
X76815707Y-69896654D01*
X76818034Y-69896540D01*
X76820364Y-69896501D01*
X77627964Y-69896499D01*
X77630293Y-69896537D01*
G37*
G36*
X75630299Y-50446537D02*
G01*
X75632626Y-50446651D01*
X75634948Y-50446841D01*
X75637263Y-50447108D01*
X75639567Y-50447449D01*
X75641860Y-50447867D01*
X75644137Y-50448358D01*
X75646397Y-50448925D01*
X75648637Y-50449564D01*
X75650856Y-50450277D01*
X75653049Y-50451062D01*
X75655216Y-50451918D01*
X75657354Y-50452845D01*
X75659460Y-50453841D01*
X75661533Y-50454906D01*
X75663569Y-50456037D01*
X75665568Y-50457235D01*
X75667526Y-50458498D01*
X75669442Y-50459824D01*
X75671313Y-50461212D01*
X75673138Y-50462660D01*
X75674915Y-50464167D01*
X75676641Y-50465732D01*
X75678315Y-50467352D01*
X75679936Y-50469027D01*
X75681500Y-50470753D01*
X75683008Y-50472530D01*
X75684456Y-50474354D01*
X75685844Y-50476226D01*
X75687170Y-50478142D01*
X75688433Y-50480100D01*
X75689630Y-50482098D01*
X75690762Y-50484135D01*
X75691827Y-50486207D01*
X75692823Y-50488314D01*
X75693750Y-50490451D01*
X75694606Y-50492618D01*
X75695391Y-50494812D01*
X75696104Y-50497030D01*
X75696743Y-50499270D01*
X75697309Y-50501530D01*
X75697801Y-50503808D01*
X75698218Y-50506100D01*
X75698560Y-50508405D01*
X75698827Y-50510719D01*
X75699017Y-50513042D01*
X75699131Y-50515369D01*
X75699169Y-50517698D01*
X75699172Y-51275298D01*
X75699134Y-51277628D01*
X75699020Y-51279955D01*
X75698829Y-51282277D01*
X75698563Y-51284592D01*
X75698221Y-51286896D01*
X75697804Y-51289189D01*
X75697312Y-51291466D01*
X75696746Y-51293726D01*
X75696106Y-51295967D01*
X75695394Y-51298185D01*
X75694609Y-51300378D01*
X75693753Y-51302545D01*
X75692826Y-51304683D01*
X75691830Y-51306789D01*
X75690765Y-51308862D01*
X75689633Y-51310898D01*
X75688436Y-51312897D01*
X75687173Y-51314855D01*
X75685847Y-51316771D01*
X75684459Y-51318642D01*
X75683011Y-51320467D01*
X75681503Y-51322244D01*
X75679939Y-51323970D01*
X75678318Y-51325644D01*
X75676644Y-51327265D01*
X75674918Y-51328829D01*
X75673141Y-51330337D01*
X75671316Y-51331785D01*
X75669445Y-51333173D01*
X75667529Y-51334499D01*
X75665571Y-51335762D01*
X75663572Y-51336959D01*
X75661536Y-51338091D01*
X75659463Y-51339156D01*
X75657357Y-51340152D01*
X75655220Y-51341079D01*
X75653053Y-51341935D01*
X75650859Y-51342720D01*
X75648641Y-51343433D01*
X75646400Y-51344072D01*
X75644140Y-51344638D01*
X75641863Y-51345130D01*
X75639571Y-51345547D01*
X75637266Y-51345889D01*
X75634951Y-51346156D01*
X75632629Y-51346346D01*
X75630302Y-51346460D01*
X75627972Y-51346499D01*
X74820372Y-51346501D01*
X74818043Y-51346463D01*
X74815716Y-51346349D01*
X74813394Y-51346159D01*
X74811079Y-51345892D01*
X74808774Y-51345551D01*
X74806482Y-51345133D01*
X74804205Y-51344642D01*
X74801945Y-51344075D01*
X74799704Y-51343436D01*
X74797486Y-51342723D01*
X74795292Y-51341938D01*
X74793125Y-51341082D01*
X74790988Y-51340155D01*
X74788882Y-51339159D01*
X74786809Y-51338094D01*
X74784772Y-51336963D01*
X74782774Y-51335765D01*
X74780816Y-51334502D01*
X74778900Y-51333176D01*
X74777029Y-51331788D01*
X74775204Y-51330340D01*
X74773427Y-51328833D01*
X74771701Y-51327268D01*
X74770026Y-51325648D01*
X74768406Y-51323973D01*
X74766841Y-51322247D01*
X74765334Y-51320470D01*
X74763886Y-51318646D01*
X74762498Y-51316774D01*
X74761172Y-51314858D01*
X74759909Y-51312900D01*
X74758711Y-51310902D01*
X74757580Y-51308865D01*
X74756515Y-51306793D01*
X74755519Y-51304686D01*
X74754592Y-51302549D01*
X74753736Y-51300382D01*
X74752951Y-51298188D01*
X74752238Y-51295970D01*
X74751598Y-51293730D01*
X74751032Y-51291470D01*
X74750540Y-51289192D01*
X74750123Y-51286900D01*
X74749781Y-51284595D01*
X74749515Y-51282281D01*
X74749325Y-51279958D01*
X74749210Y-51277631D01*
X74749172Y-51275302D01*
X74749169Y-50517702D01*
X74749208Y-50515372D01*
X74749322Y-50513045D01*
X74749512Y-50510723D01*
X74749779Y-50508408D01*
X74750120Y-50506104D01*
X74750537Y-50503811D01*
X74751029Y-50501534D01*
X74751595Y-50499274D01*
X74752235Y-50497033D01*
X74752948Y-50494815D01*
X74753733Y-50492622D01*
X74754589Y-50490455D01*
X74755516Y-50488317D01*
X74756512Y-50486211D01*
X74757577Y-50484138D01*
X74758708Y-50482102D01*
X74759906Y-50480103D01*
X74761169Y-50478145D01*
X74762495Y-50476229D01*
X74763883Y-50474358D01*
X74765331Y-50472533D01*
X74766838Y-50470756D01*
X74768403Y-50469030D01*
X74770023Y-50467356D01*
X74771697Y-50465735D01*
X74773424Y-50464171D01*
X74775200Y-50462663D01*
X74777025Y-50461215D01*
X74778897Y-50459827D01*
X74780813Y-50458501D01*
X74782771Y-50457238D01*
X74784769Y-50456041D01*
X74786806Y-50454909D01*
X74788878Y-50453844D01*
X74790984Y-50452848D01*
X74793122Y-50451921D01*
X74795289Y-50451065D01*
X74797483Y-50450280D01*
X74799701Y-50449567D01*
X74801941Y-50448928D01*
X74804201Y-50448362D01*
X74806479Y-50447870D01*
X74808771Y-50447453D01*
X74811076Y-50447111D01*
X74813390Y-50446844D01*
X74815712Y-50446654D01*
X74818040Y-50446540D01*
X74820369Y-50446501D01*
X75627969Y-50446499D01*
X75630299Y-50446537D01*
G37*
G36*
X75630293Y-48896537D02*
G01*
X75632620Y-48896651D01*
X75634942Y-48896841D01*
X75637257Y-48897108D01*
X75639562Y-48897449D01*
X75641854Y-48897867D01*
X75644131Y-48898358D01*
X75646391Y-48898925D01*
X75648632Y-48899564D01*
X75650850Y-48900277D01*
X75653044Y-48901062D01*
X75655211Y-48901918D01*
X75657348Y-48902845D01*
X75659454Y-48903841D01*
X75661527Y-48904906D01*
X75663564Y-48906037D01*
X75665562Y-48907235D01*
X75667520Y-48908498D01*
X75669436Y-48909824D01*
X75671307Y-48911212D01*
X75673132Y-48912660D01*
X75674909Y-48914167D01*
X75676635Y-48915732D01*
X75678310Y-48917352D01*
X75679930Y-48919027D01*
X75681495Y-48920753D01*
X75683002Y-48922530D01*
X75684450Y-48924354D01*
X75685838Y-48926226D01*
X75687164Y-48928142D01*
X75688427Y-48930100D01*
X75689625Y-48932098D01*
X75690756Y-48934135D01*
X75691821Y-48936207D01*
X75692817Y-48938314D01*
X75693744Y-48940451D01*
X75694600Y-48942618D01*
X75695385Y-48944812D01*
X75696098Y-48947030D01*
X75696738Y-48949270D01*
X75697304Y-48951530D01*
X75697796Y-48953808D01*
X75698213Y-48956100D01*
X75698555Y-48958405D01*
X75698821Y-48960719D01*
X75699011Y-48963042D01*
X75699126Y-48965369D01*
X75699164Y-48967698D01*
X75699167Y-49725298D01*
X75699128Y-49727628D01*
X75699014Y-49729955D01*
X75698824Y-49732277D01*
X75698557Y-49734592D01*
X75698216Y-49736896D01*
X75697799Y-49739189D01*
X75697307Y-49741466D01*
X75696741Y-49743726D01*
X75696101Y-49745967D01*
X75695388Y-49748185D01*
X75694603Y-49750378D01*
X75693747Y-49752545D01*
X75692820Y-49754683D01*
X75691824Y-49756789D01*
X75690759Y-49758862D01*
X75689628Y-49760898D01*
X75688430Y-49762897D01*
X75687167Y-49764855D01*
X75685841Y-49766771D01*
X75684453Y-49768642D01*
X75683005Y-49770467D01*
X75681498Y-49772244D01*
X75679933Y-49773970D01*
X75678313Y-49775644D01*
X75676639Y-49777265D01*
X75674912Y-49778829D01*
X75673136Y-49780337D01*
X75671311Y-49781785D01*
X75669439Y-49783173D01*
X75667523Y-49784499D01*
X75665565Y-49785762D01*
X75663567Y-49786959D01*
X75661530Y-49788091D01*
X75659458Y-49789156D01*
X75657352Y-49790152D01*
X75655214Y-49791079D01*
X75653047Y-49791935D01*
X75650853Y-49792720D01*
X75648635Y-49793433D01*
X75646395Y-49794072D01*
X75644135Y-49794638D01*
X75641857Y-49795130D01*
X75639565Y-49795547D01*
X75637260Y-49795889D01*
X75634946Y-49796156D01*
X75632624Y-49796346D01*
X75630296Y-49796460D01*
X75627967Y-49796499D01*
X74820367Y-49796501D01*
X74818037Y-49796463D01*
X74815710Y-49796349D01*
X74813388Y-49796159D01*
X74811073Y-49795892D01*
X74808769Y-49795551D01*
X74806476Y-49795133D01*
X74804199Y-49794642D01*
X74801939Y-49794075D01*
X74799699Y-49793436D01*
X74797480Y-49792723D01*
X74795287Y-49791938D01*
X74793120Y-49791082D01*
X74790982Y-49790155D01*
X74788876Y-49789159D01*
X74786803Y-49788094D01*
X74784767Y-49786963D01*
X74782768Y-49785765D01*
X74780810Y-49784502D01*
X74778894Y-49783176D01*
X74777023Y-49781788D01*
X74775198Y-49780340D01*
X74773421Y-49778833D01*
X74771695Y-49777268D01*
X74770021Y-49775648D01*
X74768400Y-49773973D01*
X74766836Y-49772247D01*
X74765328Y-49770470D01*
X74763880Y-49768646D01*
X74762492Y-49766774D01*
X74761166Y-49764858D01*
X74759903Y-49762900D01*
X74758706Y-49760902D01*
X74757574Y-49758865D01*
X74756509Y-49756793D01*
X74755513Y-49754686D01*
X74754586Y-49752549D01*
X74753730Y-49750382D01*
X74752945Y-49748188D01*
X74752232Y-49745970D01*
X74751593Y-49743730D01*
X74751027Y-49741470D01*
X74750535Y-49739192D01*
X74750118Y-49736900D01*
X74749776Y-49734595D01*
X74749509Y-49732281D01*
X74749319Y-49729958D01*
X74749205Y-49727631D01*
X74749167Y-49725302D01*
X74749164Y-48967702D01*
X74749202Y-48965372D01*
X74749316Y-48963045D01*
X74749507Y-48960723D01*
X74749773Y-48958408D01*
X74750115Y-48956104D01*
X74750532Y-48953811D01*
X74751024Y-48951534D01*
X74751590Y-48949274D01*
X74752230Y-48947033D01*
X74752942Y-48944815D01*
X74753727Y-48942622D01*
X74754583Y-48940455D01*
X74755510Y-48938317D01*
X74756506Y-48936211D01*
X74757571Y-48934138D01*
X74758703Y-48932102D01*
X74759900Y-48930103D01*
X74761163Y-48928145D01*
X74762489Y-48926229D01*
X74763877Y-48924358D01*
X74765325Y-48922533D01*
X74766833Y-48920756D01*
X74768397Y-48919030D01*
X74770018Y-48917356D01*
X74771692Y-48915735D01*
X74773418Y-48914171D01*
X74775195Y-48912663D01*
X74777020Y-48911215D01*
X74778891Y-48909827D01*
X74780807Y-48908501D01*
X74782765Y-48907238D01*
X74784764Y-48906041D01*
X74786800Y-48904909D01*
X74788873Y-48903844D01*
X74790979Y-48902848D01*
X74793116Y-48901921D01*
X74795283Y-48901065D01*
X74797477Y-48900280D01*
X74799695Y-48899567D01*
X74801936Y-48898928D01*
X74804196Y-48898362D01*
X74806473Y-48897870D01*
X74808765Y-48897453D01*
X74811070Y-48897111D01*
X74813385Y-48896844D01*
X74815707Y-48896654D01*
X74818034Y-48896540D01*
X74820364Y-48896501D01*
X75627964Y-48896499D01*
X75630293Y-48896537D01*
G37*
G36*
X77630299Y-50446537D02*
G01*
X77632626Y-50446651D01*
X77634948Y-50446841D01*
X77637263Y-50447108D01*
X77639567Y-50447449D01*
X77641860Y-50447867D01*
X77644137Y-50448358D01*
X77646397Y-50448925D01*
X77648637Y-50449564D01*
X77650856Y-50450277D01*
X77653049Y-50451062D01*
X77655216Y-50451918D01*
X77657354Y-50452845D01*
X77659460Y-50453841D01*
X77661533Y-50454906D01*
X77663569Y-50456037D01*
X77665568Y-50457235D01*
X77667526Y-50458498D01*
X77669442Y-50459824D01*
X77671313Y-50461212D01*
X77673138Y-50462660D01*
X77674915Y-50464167D01*
X77676641Y-50465732D01*
X77678315Y-50467352D01*
X77679936Y-50469027D01*
X77681500Y-50470753D01*
X77683008Y-50472530D01*
X77684456Y-50474354D01*
X77685844Y-50476226D01*
X77687170Y-50478142D01*
X77688433Y-50480100D01*
X77689630Y-50482098D01*
X77690762Y-50484135D01*
X77691827Y-50486207D01*
X77692823Y-50488314D01*
X77693750Y-50490451D01*
X77694606Y-50492618D01*
X77695391Y-50494812D01*
X77696104Y-50497030D01*
X77696743Y-50499270D01*
X77697309Y-50501530D01*
X77697801Y-50503808D01*
X77698218Y-50506100D01*
X77698560Y-50508405D01*
X77698827Y-50510719D01*
X77699017Y-50513042D01*
X77699131Y-50515369D01*
X77699169Y-50517698D01*
X77699172Y-51275298D01*
X77699134Y-51277628D01*
X77699020Y-51279955D01*
X77698829Y-51282277D01*
X77698563Y-51284592D01*
X77698221Y-51286896D01*
X77697804Y-51289189D01*
X77697312Y-51291466D01*
X77696746Y-51293726D01*
X77696106Y-51295967D01*
X77695394Y-51298185D01*
X77694609Y-51300378D01*
X77693753Y-51302545D01*
X77692826Y-51304683D01*
X77691830Y-51306789D01*
X77690765Y-51308862D01*
X77689633Y-51310898D01*
X77688436Y-51312897D01*
X77687173Y-51314855D01*
X77685847Y-51316771D01*
X77684459Y-51318642D01*
X77683011Y-51320467D01*
X77681503Y-51322244D01*
X77679939Y-51323970D01*
X77678318Y-51325644D01*
X77676644Y-51327265D01*
X77674918Y-51328829D01*
X77673141Y-51330337D01*
X77671316Y-51331785D01*
X77669445Y-51333173D01*
X77667529Y-51334499D01*
X77665571Y-51335762D01*
X77663572Y-51336959D01*
X77661536Y-51338091D01*
X77659463Y-51339156D01*
X77657357Y-51340152D01*
X77655220Y-51341079D01*
X77653053Y-51341935D01*
X77650859Y-51342720D01*
X77648641Y-51343433D01*
X77646400Y-51344072D01*
X77644140Y-51344638D01*
X77641863Y-51345130D01*
X77639571Y-51345547D01*
X77637266Y-51345889D01*
X77634951Y-51346156D01*
X77632629Y-51346346D01*
X77630302Y-51346460D01*
X77627972Y-51346499D01*
X76820372Y-51346501D01*
X76818043Y-51346463D01*
X76815716Y-51346349D01*
X76813394Y-51346159D01*
X76811079Y-51345892D01*
X76808774Y-51345551D01*
X76806482Y-51345133D01*
X76804205Y-51344642D01*
X76801945Y-51344075D01*
X76799704Y-51343436D01*
X76797486Y-51342723D01*
X76795292Y-51341938D01*
X76793125Y-51341082D01*
X76790988Y-51340155D01*
X76788882Y-51339159D01*
X76786809Y-51338094D01*
X76784772Y-51336963D01*
X76782774Y-51335765D01*
X76780816Y-51334502D01*
X76778900Y-51333176D01*
X76777029Y-51331788D01*
X76775204Y-51330340D01*
X76773427Y-51328833D01*
X76771701Y-51327268D01*
X76770026Y-51325648D01*
X76768406Y-51323973D01*
X76766841Y-51322247D01*
X76765334Y-51320470D01*
X76763886Y-51318646D01*
X76762498Y-51316774D01*
X76761172Y-51314858D01*
X76759909Y-51312900D01*
X76758711Y-51310902D01*
X76757580Y-51308865D01*
X76756515Y-51306793D01*
X76755519Y-51304686D01*
X76754592Y-51302549D01*
X76753736Y-51300382D01*
X76752951Y-51298188D01*
X76752238Y-51295970D01*
X76751598Y-51293730D01*
X76751032Y-51291470D01*
X76750540Y-51289192D01*
X76750123Y-51286900D01*
X76749781Y-51284595D01*
X76749515Y-51282281D01*
X76749325Y-51279958D01*
X76749210Y-51277631D01*
X76749172Y-51275302D01*
X76749169Y-50517702D01*
X76749208Y-50515372D01*
X76749322Y-50513045D01*
X76749512Y-50510723D01*
X76749779Y-50508408D01*
X76750120Y-50506104D01*
X76750537Y-50503811D01*
X76751029Y-50501534D01*
X76751595Y-50499274D01*
X76752235Y-50497033D01*
X76752948Y-50494815D01*
X76753733Y-50492622D01*
X76754589Y-50490455D01*
X76755516Y-50488317D01*
X76756512Y-50486211D01*
X76757577Y-50484138D01*
X76758708Y-50482102D01*
X76759906Y-50480103D01*
X76761169Y-50478145D01*
X76762495Y-50476229D01*
X76763883Y-50474358D01*
X76765331Y-50472533D01*
X76766838Y-50470756D01*
X76768403Y-50469030D01*
X76770023Y-50467356D01*
X76771697Y-50465735D01*
X76773424Y-50464171D01*
X76775200Y-50462663D01*
X76777025Y-50461215D01*
X76778897Y-50459827D01*
X76780813Y-50458501D01*
X76782771Y-50457238D01*
X76784769Y-50456041D01*
X76786806Y-50454909D01*
X76788878Y-50453844D01*
X76790984Y-50452848D01*
X76793122Y-50451921D01*
X76795289Y-50451065D01*
X76797483Y-50450280D01*
X76799701Y-50449567D01*
X76801941Y-50448928D01*
X76804201Y-50448362D01*
X76806479Y-50447870D01*
X76808771Y-50447453D01*
X76811076Y-50447111D01*
X76813390Y-50446844D01*
X76815712Y-50446654D01*
X76818040Y-50446540D01*
X76820369Y-50446501D01*
X77627969Y-50446499D01*
X77630299Y-50446537D01*
G37*
G36*
X77630293Y-48896537D02*
G01*
X77632620Y-48896651D01*
X77634942Y-48896841D01*
X77637257Y-48897108D01*
X77639562Y-48897449D01*
X77641854Y-48897867D01*
X77644131Y-48898358D01*
X77646391Y-48898925D01*
X77648632Y-48899564D01*
X77650850Y-48900277D01*
X77653044Y-48901062D01*
X77655211Y-48901918D01*
X77657348Y-48902845D01*
X77659454Y-48903841D01*
X77661527Y-48904906D01*
X77663564Y-48906037D01*
X77665562Y-48907235D01*
X77667520Y-48908498D01*
X77669436Y-48909824D01*
X77671307Y-48911212D01*
X77673132Y-48912660D01*
X77674909Y-48914167D01*
X77676635Y-48915732D01*
X77678310Y-48917352D01*
X77679930Y-48919027D01*
X77681495Y-48920753D01*
X77683002Y-48922530D01*
X77684450Y-48924354D01*
X77685838Y-48926226D01*
X77687164Y-48928142D01*
X77688427Y-48930100D01*
X77689625Y-48932098D01*
X77690756Y-48934135D01*
X77691821Y-48936207D01*
X77692817Y-48938314D01*
X77693744Y-48940451D01*
X77694600Y-48942618D01*
X77695385Y-48944812D01*
X77696098Y-48947030D01*
X77696738Y-48949270D01*
X77697304Y-48951530D01*
X77697796Y-48953808D01*
X77698213Y-48956100D01*
X77698555Y-48958405D01*
X77698821Y-48960719D01*
X77699011Y-48963042D01*
X77699126Y-48965369D01*
X77699164Y-48967698D01*
X77699167Y-49725298D01*
X77699128Y-49727628D01*
X77699014Y-49729955D01*
X77698824Y-49732277D01*
X77698557Y-49734592D01*
X77698216Y-49736896D01*
X77697799Y-49739189D01*
X77697307Y-49741466D01*
X77696741Y-49743726D01*
X77696101Y-49745967D01*
X77695388Y-49748185D01*
X77694603Y-49750378D01*
X77693747Y-49752545D01*
X77692820Y-49754683D01*
X77691824Y-49756789D01*
X77690759Y-49758862D01*
X77689628Y-49760898D01*
X77688430Y-49762897D01*
X77687167Y-49764855D01*
X77685841Y-49766771D01*
X77684453Y-49768642D01*
X77683005Y-49770467D01*
X77681498Y-49772244D01*
X77679933Y-49773970D01*
X77678313Y-49775644D01*
X77676639Y-49777265D01*
X77674912Y-49778829D01*
X77673136Y-49780337D01*
X77671311Y-49781785D01*
X77669439Y-49783173D01*
X77667523Y-49784499D01*
X77665565Y-49785762D01*
X77663567Y-49786959D01*
X77661530Y-49788091D01*
X77659458Y-49789156D01*
X77657352Y-49790152D01*
X77655214Y-49791079D01*
X77653047Y-49791935D01*
X77650853Y-49792720D01*
X77648635Y-49793433D01*
X77646395Y-49794072D01*
X77644135Y-49794638D01*
X77641857Y-49795130D01*
X77639565Y-49795547D01*
X77637260Y-49795889D01*
X77634946Y-49796156D01*
X77632624Y-49796346D01*
X77630296Y-49796460D01*
X77627967Y-49796499D01*
X76820367Y-49796501D01*
X76818037Y-49796463D01*
X76815710Y-49796349D01*
X76813388Y-49796159D01*
X76811073Y-49795892D01*
X76808769Y-49795551D01*
X76806476Y-49795133D01*
X76804199Y-49794642D01*
X76801939Y-49794075D01*
X76799699Y-49793436D01*
X76797480Y-49792723D01*
X76795287Y-49791938D01*
X76793120Y-49791082D01*
X76790982Y-49790155D01*
X76788876Y-49789159D01*
X76786803Y-49788094D01*
X76784767Y-49786963D01*
X76782768Y-49785765D01*
X76780810Y-49784502D01*
X76778894Y-49783176D01*
X76777023Y-49781788D01*
X76775198Y-49780340D01*
X76773421Y-49778833D01*
X76771695Y-49777268D01*
X76770021Y-49775648D01*
X76768400Y-49773973D01*
X76766836Y-49772247D01*
X76765328Y-49770470D01*
X76763880Y-49768646D01*
X76762492Y-49766774D01*
X76761166Y-49764858D01*
X76759903Y-49762900D01*
X76758706Y-49760902D01*
X76757574Y-49758865D01*
X76756509Y-49756793D01*
X76755513Y-49754686D01*
X76754586Y-49752549D01*
X76753730Y-49750382D01*
X76752945Y-49748188D01*
X76752232Y-49745970D01*
X76751593Y-49743730D01*
X76751027Y-49741470D01*
X76750535Y-49739192D01*
X76750118Y-49736900D01*
X76749776Y-49734595D01*
X76749509Y-49732281D01*
X76749319Y-49729958D01*
X76749205Y-49727631D01*
X76749167Y-49725302D01*
X76749164Y-48967702D01*
X76749202Y-48965372D01*
X76749316Y-48963045D01*
X76749507Y-48960723D01*
X76749773Y-48958408D01*
X76750115Y-48956104D01*
X76750532Y-48953811D01*
X76751024Y-48951534D01*
X76751590Y-48949274D01*
X76752230Y-48947033D01*
X76752942Y-48944815D01*
X76753727Y-48942622D01*
X76754583Y-48940455D01*
X76755510Y-48938317D01*
X76756506Y-48936211D01*
X76757571Y-48934138D01*
X76758703Y-48932102D01*
X76759900Y-48930103D01*
X76761163Y-48928145D01*
X76762489Y-48926229D01*
X76763877Y-48924358D01*
X76765325Y-48922533D01*
X76766833Y-48920756D01*
X76768397Y-48919030D01*
X76770018Y-48917356D01*
X76771692Y-48915735D01*
X76773418Y-48914171D01*
X76775195Y-48912663D01*
X76777020Y-48911215D01*
X76778891Y-48909827D01*
X76780807Y-48908501D01*
X76782765Y-48907238D01*
X76784764Y-48906041D01*
X76786800Y-48904909D01*
X76788873Y-48903844D01*
X76790979Y-48902848D01*
X76793116Y-48901921D01*
X76795283Y-48901065D01*
X76797477Y-48900280D01*
X76799695Y-48899567D01*
X76801936Y-48898928D01*
X76804196Y-48898362D01*
X76806473Y-48897870D01*
X76808765Y-48897453D01*
X76811070Y-48897111D01*
X76813385Y-48896844D01*
X76815707Y-48896654D01*
X76818034Y-48896540D01*
X76820364Y-48896501D01*
X77627964Y-48896499D01*
X77630293Y-48896537D01*
G37*
G36*
X75630299Y-71446537D02*
G01*
X75632626Y-71446651D01*
X75634948Y-71446841D01*
X75637263Y-71447108D01*
X75639567Y-71447449D01*
X75641860Y-71447867D01*
X75644137Y-71448358D01*
X75646397Y-71448925D01*
X75648637Y-71449564D01*
X75650856Y-71450277D01*
X75653049Y-71451062D01*
X75655216Y-71451918D01*
X75657354Y-71452845D01*
X75659460Y-71453841D01*
X75661533Y-71454906D01*
X75663569Y-71456037D01*
X75665568Y-71457235D01*
X75667526Y-71458498D01*
X75669442Y-71459824D01*
X75671313Y-71461212D01*
X75673138Y-71462660D01*
X75674915Y-71464167D01*
X75676641Y-71465732D01*
X75678315Y-71467352D01*
X75679936Y-71469027D01*
X75681500Y-71470753D01*
X75683008Y-71472530D01*
X75684456Y-71474354D01*
X75685844Y-71476226D01*
X75687170Y-71478142D01*
X75688433Y-71480100D01*
X75689630Y-71482098D01*
X75690762Y-71484135D01*
X75691827Y-71486207D01*
X75692823Y-71488314D01*
X75693750Y-71490451D01*
X75694606Y-71492618D01*
X75695391Y-71494812D01*
X75696104Y-71497030D01*
X75696743Y-71499270D01*
X75697309Y-71501530D01*
X75697801Y-71503808D01*
X75698218Y-71506100D01*
X75698560Y-71508405D01*
X75698827Y-71510719D01*
X75699017Y-71513042D01*
X75699131Y-71515369D01*
X75699169Y-71517698D01*
X75699172Y-72275298D01*
X75699134Y-72277628D01*
X75699020Y-72279955D01*
X75698829Y-72282277D01*
X75698563Y-72284592D01*
X75698221Y-72286896D01*
X75697804Y-72289189D01*
X75697312Y-72291466D01*
X75696746Y-72293726D01*
X75696106Y-72295967D01*
X75695394Y-72298185D01*
X75694609Y-72300378D01*
X75693753Y-72302545D01*
X75692826Y-72304683D01*
X75691830Y-72306789D01*
X75690765Y-72308862D01*
X75689633Y-72310898D01*
X75688436Y-72312897D01*
X75687173Y-72314855D01*
X75685847Y-72316771D01*
X75684459Y-72318642D01*
X75683011Y-72320467D01*
X75681503Y-72322244D01*
X75679939Y-72323970D01*
X75678318Y-72325644D01*
X75676644Y-72327265D01*
X75674918Y-72328829D01*
X75673141Y-72330337D01*
X75671316Y-72331785D01*
X75669445Y-72333173D01*
X75667529Y-72334499D01*
X75665571Y-72335762D01*
X75663572Y-72336959D01*
X75661536Y-72338091D01*
X75659463Y-72339156D01*
X75657357Y-72340152D01*
X75655220Y-72341079D01*
X75653053Y-72341935D01*
X75650859Y-72342720D01*
X75648641Y-72343433D01*
X75646400Y-72344072D01*
X75644140Y-72344638D01*
X75641863Y-72345130D01*
X75639571Y-72345547D01*
X75637266Y-72345889D01*
X75634951Y-72346156D01*
X75632629Y-72346346D01*
X75630302Y-72346460D01*
X75627972Y-72346499D01*
X74820372Y-72346501D01*
X74818043Y-72346463D01*
X74815716Y-72346349D01*
X74813394Y-72346159D01*
X74811079Y-72345892D01*
X74808774Y-72345551D01*
X74806482Y-72345133D01*
X74804205Y-72344642D01*
X74801945Y-72344075D01*
X74799704Y-72343436D01*
X74797486Y-72342723D01*
X74795292Y-72341938D01*
X74793125Y-72341082D01*
X74790988Y-72340155D01*
X74788882Y-72339159D01*
X74786809Y-72338094D01*
X74784772Y-72336963D01*
X74782774Y-72335765D01*
X74780816Y-72334502D01*
X74778900Y-72333176D01*
X74777029Y-72331788D01*
X74775204Y-72330340D01*
X74773427Y-72328833D01*
X74771701Y-72327268D01*
X74770026Y-72325648D01*
X74768406Y-72323973D01*
X74766841Y-72322247D01*
X74765334Y-72320470D01*
X74763886Y-72318646D01*
X74762498Y-72316774D01*
X74761172Y-72314858D01*
X74759909Y-72312900D01*
X74758711Y-72310902D01*
X74757580Y-72308865D01*
X74756515Y-72306793D01*
X74755519Y-72304686D01*
X74754592Y-72302549D01*
X74753736Y-72300382D01*
X74752951Y-72298188D01*
X74752238Y-72295970D01*
X74751598Y-72293730D01*
X74751032Y-72291470D01*
X74750540Y-72289192D01*
X74750123Y-72286900D01*
X74749781Y-72284595D01*
X74749515Y-72282281D01*
X74749325Y-72279958D01*
X74749210Y-72277631D01*
X74749172Y-72275302D01*
X74749169Y-71517702D01*
X74749208Y-71515372D01*
X74749322Y-71513045D01*
X74749512Y-71510723D01*
X74749779Y-71508408D01*
X74750120Y-71506104D01*
X74750537Y-71503811D01*
X74751029Y-71501534D01*
X74751595Y-71499274D01*
X74752235Y-71497033D01*
X74752948Y-71494815D01*
X74753733Y-71492622D01*
X74754589Y-71490455D01*
X74755516Y-71488317D01*
X74756512Y-71486211D01*
X74757577Y-71484138D01*
X74758708Y-71482102D01*
X74759906Y-71480103D01*
X74761169Y-71478145D01*
X74762495Y-71476229D01*
X74763883Y-71474358D01*
X74765331Y-71472533D01*
X74766838Y-71470756D01*
X74768403Y-71469030D01*
X74770023Y-71467356D01*
X74771697Y-71465735D01*
X74773424Y-71464171D01*
X74775200Y-71462663D01*
X74777025Y-71461215D01*
X74778897Y-71459827D01*
X74780813Y-71458501D01*
X74782771Y-71457238D01*
X74784769Y-71456041D01*
X74786806Y-71454909D01*
X74788878Y-71453844D01*
X74790984Y-71452848D01*
X74793122Y-71451921D01*
X74795289Y-71451065D01*
X74797483Y-71450280D01*
X74799701Y-71449567D01*
X74801941Y-71448928D01*
X74804201Y-71448362D01*
X74806479Y-71447870D01*
X74808771Y-71447453D01*
X74811076Y-71447111D01*
X74813390Y-71446844D01*
X74815712Y-71446654D01*
X74818040Y-71446540D01*
X74820369Y-71446501D01*
X75627969Y-71446499D01*
X75630299Y-71446537D01*
G37*
G36*
X75630293Y-69896537D02*
G01*
X75632620Y-69896651D01*
X75634942Y-69896841D01*
X75637257Y-69897108D01*
X75639562Y-69897449D01*
X75641854Y-69897867D01*
X75644131Y-69898358D01*
X75646391Y-69898925D01*
X75648632Y-69899564D01*
X75650850Y-69900277D01*
X75653044Y-69901062D01*
X75655211Y-69901918D01*
X75657348Y-69902845D01*
X75659454Y-69903841D01*
X75661527Y-69904906D01*
X75663564Y-69906037D01*
X75665562Y-69907235D01*
X75667520Y-69908498D01*
X75669436Y-69909824D01*
X75671307Y-69911212D01*
X75673132Y-69912660D01*
X75674909Y-69914167D01*
X75676635Y-69915732D01*
X75678310Y-69917352D01*
X75679930Y-69919027D01*
X75681495Y-69920753D01*
X75683002Y-69922530D01*
X75684450Y-69924354D01*
X75685838Y-69926226D01*
X75687164Y-69928142D01*
X75688427Y-69930100D01*
X75689625Y-69932098D01*
X75690756Y-69934135D01*
X75691821Y-69936207D01*
X75692817Y-69938314D01*
X75693744Y-69940451D01*
X75694600Y-69942618D01*
X75695385Y-69944812D01*
X75696098Y-69947030D01*
X75696738Y-69949270D01*
X75697304Y-69951530D01*
X75697796Y-69953808D01*
X75698213Y-69956100D01*
X75698555Y-69958405D01*
X75698821Y-69960719D01*
X75699011Y-69963042D01*
X75699126Y-69965369D01*
X75699164Y-69967698D01*
X75699167Y-70725298D01*
X75699128Y-70727628D01*
X75699014Y-70729955D01*
X75698824Y-70732277D01*
X75698557Y-70734592D01*
X75698216Y-70736896D01*
X75697799Y-70739189D01*
X75697307Y-70741466D01*
X75696741Y-70743726D01*
X75696101Y-70745967D01*
X75695388Y-70748185D01*
X75694603Y-70750378D01*
X75693747Y-70752545D01*
X75692820Y-70754683D01*
X75691824Y-70756789D01*
X75690759Y-70758862D01*
X75689628Y-70760898D01*
X75688430Y-70762897D01*
X75687167Y-70764855D01*
X75685841Y-70766771D01*
X75684453Y-70768642D01*
X75683005Y-70770467D01*
X75681498Y-70772244D01*
X75679933Y-70773970D01*
X75678313Y-70775644D01*
X75676639Y-70777265D01*
X75674912Y-70778829D01*
X75673136Y-70780337D01*
X75671311Y-70781785D01*
X75669439Y-70783173D01*
X75667523Y-70784499D01*
X75665565Y-70785762D01*
X75663567Y-70786959D01*
X75661530Y-70788091D01*
X75659458Y-70789156D01*
X75657352Y-70790152D01*
X75655214Y-70791079D01*
X75653047Y-70791935D01*
X75650853Y-70792720D01*
X75648635Y-70793433D01*
X75646395Y-70794072D01*
X75644135Y-70794638D01*
X75641857Y-70795130D01*
X75639565Y-70795547D01*
X75637260Y-70795889D01*
X75634946Y-70796156D01*
X75632624Y-70796346D01*
X75630296Y-70796460D01*
X75627967Y-70796499D01*
X74820367Y-70796501D01*
X74818037Y-70796463D01*
X74815710Y-70796349D01*
X74813388Y-70796159D01*
X74811073Y-70795892D01*
X74808769Y-70795551D01*
X74806476Y-70795133D01*
X74804199Y-70794642D01*
X74801939Y-70794075D01*
X74799699Y-70793436D01*
X74797480Y-70792723D01*
X74795287Y-70791938D01*
X74793120Y-70791082D01*
X74790982Y-70790155D01*
X74788876Y-70789159D01*
X74786803Y-70788094D01*
X74784767Y-70786963D01*
X74782768Y-70785765D01*
X74780810Y-70784502D01*
X74778894Y-70783176D01*
X74777023Y-70781788D01*
X74775198Y-70780340D01*
X74773421Y-70778833D01*
X74771695Y-70777268D01*
X74770021Y-70775648D01*
X74768400Y-70773973D01*
X74766836Y-70772247D01*
X74765328Y-70770470D01*
X74763880Y-70768646D01*
X74762492Y-70766774D01*
X74761166Y-70764858D01*
X74759903Y-70762900D01*
X74758706Y-70760902D01*
X74757574Y-70758865D01*
X74756509Y-70756793D01*
X74755513Y-70754686D01*
X74754586Y-70752549D01*
X74753730Y-70750382D01*
X74752945Y-70748188D01*
X74752232Y-70745970D01*
X74751593Y-70743730D01*
X74751027Y-70741470D01*
X74750535Y-70739192D01*
X74750118Y-70736900D01*
X74749776Y-70734595D01*
X74749509Y-70732281D01*
X74749319Y-70729958D01*
X74749205Y-70727631D01*
X74749167Y-70725302D01*
X74749164Y-69967702D01*
X74749202Y-69965372D01*
X74749316Y-69963045D01*
X74749507Y-69960723D01*
X74749773Y-69958408D01*
X74750115Y-69956104D01*
X74750532Y-69953811D01*
X74751024Y-69951534D01*
X74751590Y-69949274D01*
X74752230Y-69947033D01*
X74752942Y-69944815D01*
X74753727Y-69942622D01*
X74754583Y-69940455D01*
X74755510Y-69938317D01*
X74756506Y-69936211D01*
X74757571Y-69934138D01*
X74758703Y-69932102D01*
X74759900Y-69930103D01*
X74761163Y-69928145D01*
X74762489Y-69926229D01*
X74763877Y-69924358D01*
X74765325Y-69922533D01*
X74766833Y-69920756D01*
X74768397Y-69919030D01*
X74770018Y-69917356D01*
X74771692Y-69915735D01*
X74773418Y-69914171D01*
X74775195Y-69912663D01*
X74777020Y-69911215D01*
X74778891Y-69909827D01*
X74780807Y-69908501D01*
X74782765Y-69907238D01*
X74784764Y-69906041D01*
X74786800Y-69904909D01*
X74788873Y-69903844D01*
X74790979Y-69902848D01*
X74793116Y-69901921D01*
X74795283Y-69901065D01*
X74797477Y-69900280D01*
X74799695Y-69899567D01*
X74801936Y-69898928D01*
X74804196Y-69898362D01*
X74806473Y-69897870D01*
X74808765Y-69897453D01*
X74811070Y-69897111D01*
X74813385Y-69896844D01*
X74815707Y-69896654D01*
X74818034Y-69896540D01*
X74820364Y-69896501D01*
X75627964Y-69896499D01*
X75630293Y-69896537D01*
G37*
%TD*%
D11*
%TO.C,LED2*%
X117974168Y-107821500D03*
X116474168Y-107821500D03*
%TD*%
D12*
%TO.C,R10*%
X81724157Y-48659000D03*
X81724179Y-51584000D03*
%TD*%
D13*
%TO.C,R11*%
X90049168Y-51621500D03*
X88399168Y-51621500D03*
%TD*%
D14*
%TO.C,C25*%
X107449168Y-62621500D03*
X108999168Y-62621500D03*
%TD*%
%TO.C,C4*%
X117949168Y-63821500D03*
X119499168Y-63821500D03*
%TD*%
D15*
%TO.C,FB1*%
X108194168Y-52621500D03*
X106254168Y-52621500D03*
%TD*%
D16*
%TO.C,LED1*%
X109974168Y-107821500D03*
X108474168Y-107821500D03*
%TD*%
D17*
%TO.C,J5*%
X133034168Y-85086500D03*
X130494168Y-89156500D03*
X125414168Y-89156500D03*
X129224168Y-89156500D03*
X130494168Y-85086500D03*
X129224168Y-85086500D03*
X126684168Y-89156500D03*
X133034168Y-89156500D03*
X126684168Y-85086500D03*
X131764168Y-89156500D03*
X125414168Y-85086500D03*
X131764168Y-85086500D03*
X127954168Y-85086500D03*
X127954168Y-89156500D03*
%TD*%
D18*
%TO.C,D3*%
X85074168Y-47621500D03*
X87374168Y-48571500D03*
X87374168Y-46671500D03*
%TD*%
D19*
%TO.C,TP_3V3*%
X119724168Y-52621500D03*
%TD*%
D13*
%TO.C,R33*%
X103549168Y-52621500D03*
X101899168Y-52621500D03*
%TD*%
D19*
%TO.C,TP_CH1_DIV*%
X84024168Y-45121500D03*
%TD*%
D13*
%TO.C,R5*%
X112049168Y-53621500D03*
X110399168Y-53621500D03*
%TD*%
D14*
%TO.C,C26*%
X79949168Y-16121500D03*
X81499168Y-16121500D03*
%TD*%
D19*
%TO.C,TP_USB_DM*%
X125224168Y-62421500D03*
%TD*%
D14*
%TO.C,C11*%
X95449168Y-66621500D03*
X96999168Y-66621500D03*
%TD*%
D19*
%TO.C,TP_CH1_IN*%
X66224168Y-45621500D03*
%TD*%
%TO.C,TP_VBUS_RAW*%
X132224168Y-50621500D03*
%TD*%
D20*
%TO.C,R13*%
X71186668Y-75621500D03*
X68261668Y-75621500D03*
%TD*%
D13*
%TO.C,R20*%
X79049168Y-25121500D03*
X77399168Y-25121500D03*
%TD*%
D21*
%TO.C,SW1*%
X61224188Y-106221500D03*
X61224148Y-100821500D03*
%TD*%
D19*
%TO.C,TP_BL_K*%
X75224168Y-23121500D03*
%TD*%
D13*
%TO.C,R27*%
X91049168Y-96121500D03*
X89399168Y-96121500D03*
%TD*%
%TO.C,R4*%
X121049168Y-42821500D03*
X119399168Y-42821500D03*
%TD*%
D20*
%TO.C,R9*%
X81186668Y-45621500D03*
X78261668Y-45621500D03*
%TD*%
%TO.C,R7*%
X71186668Y-45621500D03*
X68261668Y-45621500D03*
%TD*%
D14*
%TO.C,C13*%
X73949168Y-43121500D03*
X75499168Y-43121500D03*
%TD*%
%TO.C,C7*%
X112649168Y-65021500D03*
X114199168Y-65021500D03*
%TD*%
D12*
%TO.C,R16*%
X81724157Y-69659000D03*
X81724179Y-72584000D03*
%TD*%
D14*
%TO.C,C10*%
X113249168Y-53621500D03*
X114799168Y-53621500D03*
%TD*%
%TO.C,C8*%
X109949168Y-66121500D03*
X111499168Y-66121500D03*
%TD*%
D22*
%TO.C,C2*%
X114774168Y-51121500D03*
X116674168Y-51121500D03*
%TD*%
D19*
%TO.C,TP_USB_DP*%
X125224168Y-56821500D03*
%TD*%
D13*
%TO.C,R26*%
X78049168Y-96121500D03*
X76399168Y-96121500D03*
%TD*%
%TO.C,R25*%
X75049168Y-96121500D03*
X73399168Y-96121500D03*
%TD*%
D23*
%TO.C,C22*%
X79224174Y-71896500D03*
X79224162Y-70346500D03*
%TD*%
D16*
%TO.C,LED4*%
X132424168Y-107821500D03*
X134024168Y-107821500D03*
%TD*%
D24*
%TO.C,U3*%
X96549172Y-62821499D03*
X97199164Y-58421498D03*
X96549164Y-58421499D03*
X95249164Y-58421502D03*
X95899172Y-62821501D03*
X95249172Y-62821502D03*
X97199172Y-62821498D03*
X95899164Y-58421501D03*
%TD*%
D14*
%TO.C,C3*%
X109449168Y-57021500D03*
X110999168Y-57021500D03*
%TD*%
%TO.C,C20*%
X73949168Y-78121500D03*
X75499168Y-78121500D03*
%TD*%
%TO.C,C29*%
X79449168Y-96121500D03*
X80999168Y-96121500D03*
%TD*%
%TO.C,C6*%
X109949168Y-64321500D03*
X111499168Y-64321500D03*
%TD*%
D25*
%TO.C,D1*%
X128124168Y-60571500D03*
X130324168Y-59621500D03*
X128124168Y-59621500D03*
X130324168Y-58671500D03*
X128124168Y-58671500D03*
X130324168Y-60571500D03*
%TD*%
D13*
%TO.C,R28*%
X94049168Y-96121500D03*
X92399168Y-96121500D03*
%TD*%
D26*
%TO.C,Q2*%
X81224168Y-25121500D03*
X83224168Y-26071500D03*
X83224168Y-24171500D03*
%TD*%
D11*
%TO.C,LED3*%
X125974168Y-107821500D03*
X124474168Y-107821500D03*
%TD*%
D13*
%TO.C,R23*%
X59049168Y-96121500D03*
X57399168Y-96121500D03*
%TD*%
D19*
%TO.C,TP_CH2_DIV*%
X84024168Y-76121500D03*
%TD*%
D27*
%TO.C,U1*%
X114474168Y-63111500D03*
D28*
X116714168Y-61871500D03*
X116714168Y-59871500D03*
X116714168Y-58871500D03*
X116714168Y-60871500D03*
X111734168Y-59871500D03*
D27*
X115974168Y-58131500D03*
X115474168Y-63111500D03*
X115974168Y-63111500D03*
D29*
X114224168Y-60621500D03*
D28*
X111734168Y-61371500D03*
X116714168Y-60371500D03*
D27*
X114974168Y-63111500D03*
D28*
X116714168Y-61371500D03*
D27*
X113474168Y-58131500D03*
D28*
X111734168Y-60371500D03*
X111734168Y-58871500D03*
X116714168Y-62371500D03*
X111734168Y-62371500D03*
X111734168Y-60871500D03*
X116714168Y-59371500D03*
D27*
X112974168Y-58131500D03*
X112974168Y-63111500D03*
X114474168Y-58131500D03*
D28*
X111734168Y-61871500D03*
D27*
X113974168Y-58131500D03*
D28*
X111734168Y-59371500D03*
D27*
X113974168Y-63111500D03*
X113474168Y-63111500D03*
X112474168Y-58131500D03*
X112474168Y-63111500D03*
X114974168Y-58131500D03*
X115474168Y-58131500D03*
%TD*%
D13*
%TO.C,R3*%
X137049168Y-53621500D03*
X135399168Y-53621500D03*
%TD*%
%TO.C,R2*%
X134049168Y-65121500D03*
X132399168Y-65121500D03*
%TD*%
D30*
%TO.C,TP_GND*%
X100224168Y-48621500D03*
%TD*%
D31*
%TO.C,D2*%
X127224168Y-45121500D03*
X123224168Y-45121500D03*
%TD*%
D14*
%TO.C,C21*%
X78949168Y-78121500D03*
X80499168Y-78121500D03*
%TD*%
D19*
%TO.C,TP_NRST*%
X121224168Y-69621500D03*
%TD*%
D13*
%TO.C,R31*%
X126049168Y-104121500D03*
X124399168Y-104121500D03*
%TD*%
D20*
%TO.C,R15*%
X81186668Y-75621500D03*
X78261668Y-75621500D03*
%TD*%
%TO.C,R8*%
X76186668Y-45621500D03*
X73261668Y-45621500D03*
%TD*%
D32*
%TO.C,R19*%
X76536668Y-17621500D03*
X71911668Y-17621500D03*
%TD*%
D13*
%TO.C,R18*%
X102049168Y-62821500D03*
X100399168Y-62821500D03*
%TD*%
%TO.C,R32*%
X134049168Y-104121500D03*
X132399168Y-104121500D03*
%TD*%
D33*
%TO.C,J3*%
X64624168Y-75621448D03*
D34*
X56824160Y-71821464D03*
X56824176Y-79421464D03*
%TD*%
D14*
%TO.C,C30*%
X95449168Y-96121500D03*
X96999168Y-96121500D03*
%TD*%
D20*
%TO.C,R14*%
X76186668Y-75621500D03*
X73261668Y-75621500D03*
%TD*%
D22*
%TO.C,C1*%
X114774168Y-45121500D03*
X116674168Y-45121500D03*
%TD*%
D35*
%TO.C,F1*%
X127584168Y-51121500D03*
X129864168Y-51121500D03*
%TD*%
D36*
%TO.C,J4*%
X113354168Y-13076500D03*
X108274168Y-13076500D03*
X80334168Y-13076500D03*
X98114168Y-13076500D03*
X110814168Y-13076500D03*
X77794168Y-13076500D03*
X82874168Y-13076500D03*
X105734168Y-13076500D03*
X75254168Y-13076500D03*
X93034168Y-13076500D03*
X95574168Y-13076500D03*
D37*
X65094168Y-13076500D03*
D36*
X85414168Y-13076500D03*
X100654168Y-13076500D03*
X87954168Y-13076500D03*
X103194168Y-13076500D03*
X72714168Y-13076500D03*
X90494168Y-13076500D03*
X67634168Y-13076500D03*
X70174168Y-13076500D03*
%TD*%
D19*
%TO.C,TP_VDDA*%
X104224168Y-49621500D03*
%TD*%
D22*
%TO.C,C5*%
X117074168Y-56621500D03*
X118974168Y-56621500D03*
%TD*%
D14*
%TO.C,C19*%
X68949168Y-78121500D03*
X70499168Y-78121500D03*
%TD*%
D21*
%TO.C,SW3*%
X93224188Y-106221500D03*
X93224148Y-100821500D03*
%TD*%
D13*
%TO.C,R1*%
X134049168Y-54121500D03*
X132399168Y-54121500D03*
%TD*%
D33*
%TO.C,J2*%
X64624168Y-45621448D03*
D34*
X56824160Y-41821464D03*
X56824176Y-49421464D03*
%TD*%
D21*
%TO.C,SW2*%
X77224188Y-106221500D03*
X77224148Y-100821500D03*
%TD*%
D13*
%TO.C,R22*%
X83049168Y-28121500D03*
X81399168Y-28121500D03*
%TD*%
%TO.C,R17*%
X90049168Y-69621500D03*
X88399168Y-69621500D03*
%TD*%
D38*
%TO.C,U2*%
X119154168Y-48621500D03*
D39*
X121924168Y-47121500D03*
X118524168Y-47121500D03*
X118524168Y-50121500D03*
X121924168Y-50121500D03*
%TD*%
D40*
%TO.C,J1*%
X133074200Y-63941529D03*
X137074136Y-55301500D03*
D41*
X132499170Y-59871534D03*
X132499174Y-60371534D03*
D40*
X133074136Y-55301529D03*
D41*
X132499166Y-59371534D03*
D42*
X132499144Y-56421534D03*
D41*
X132499155Y-57871534D03*
D42*
X132499150Y-57221534D03*
X132499186Y-62021534D03*
X132499192Y-62821534D03*
D41*
X132499162Y-58871534D03*
X132499181Y-61371534D03*
X132499159Y-58371534D03*
D40*
X136974200Y-63941501D03*
D41*
X132499177Y-60871534D03*
%TD*%
D13*
%TO.C,R29*%
X110049168Y-104121500D03*
X108399168Y-104121500D03*
%TD*%
D14*
%TO.C,C14*%
X78949168Y-43121500D03*
X80499168Y-43121500D03*
%TD*%
D13*
%TO.C,R21*%
X86549168Y-25121500D03*
X84899168Y-25121500D03*
%TD*%
D43*
%TO.C,Q1*%
X77984168Y-21621500D03*
X80464168Y-22571500D03*
X80464168Y-20671500D03*
%TD*%
D19*
%TO.C,TP_CH1_ADC*%
X105224168Y-56621500D03*
%TD*%
%TO.C,TP_CH2_ADC*%
X105224168Y-64621500D03*
%TD*%
D14*
%TO.C,C12*%
X68949168Y-43121500D03*
X70499168Y-43121500D03*
%TD*%
D13*
%TO.C,R12*%
X102049168Y-58421500D03*
X100399168Y-58421500D03*
%TD*%
D19*
%TO.C,TP_CH2_IN*%
X66224168Y-75621500D03*
%TD*%
%TO.C,TP_VBUS_PROT*%
X127724168Y-40621500D03*
%TD*%
D14*
%TO.C,C18*%
X107449168Y-58621500D03*
X108999168Y-58621500D03*
%TD*%
D13*
%TO.C,R6*%
X117549168Y-53621500D03*
X115899168Y-53621500D03*
%TD*%
D14*
%TO.C,C27*%
X108449168Y-16121500D03*
X109999168Y-16121500D03*
%TD*%
D13*
%TO.C,R30*%
X118049168Y-104121500D03*
X116399168Y-104121500D03*
%TD*%
D14*
%TO.C,C9*%
X112649168Y-66821500D03*
X114199168Y-66821500D03*
%TD*%
D18*
%TO.C,D4*%
X85074168Y-73621500D03*
X87374168Y-74571500D03*
X87374168Y-72671500D03*
%TD*%
D14*
%TO.C,C28*%
X63449168Y-96121500D03*
X64999168Y-96121500D03*
%TD*%
D23*
%TO.C,C15*%
X79224174Y-50896500D03*
X79224162Y-49346500D03*
%TD*%
D13*
%TO.C,R24*%
X62049168Y-96121500D03*
X60399168Y-96121500D03*
%TD*%
M02*
