  0
SECTION
  2
HEADER
  9
$ACADVER
  1
AC1018
  9
$HANDSEED
  5
FFFFFFFF
  9
$ANGBASE
  50
0.0
  9
$ANGDIR
  70
1
  9
$MEASUREMENT
  70
0
  9
$INSUNITS
  70
1
  0
ENDSEC
  0
SECTION
  2
TABLES
  0
TABLE
  2
APPID
  5
1
330
0
100
AcDbSymbolTable
 70
1
  0
APPID
  5
2
330
1
100
AcDbSymbolTableRecord
100
AcDbRegAppTableRecord
  2
ACAD
 70
0
  0
ENDTAB
  0
TABLE
  2
LTYPE
  5
3
330
0
100
AcDbSymbolTable
 70
6
  0
LTYPE
  5
4
330
3
100
AcDbSymbolTableRecord
100
AcDbLinetypeTableRecord
  2
ByBlock
 70
0
  3

 72
65
 73
0
 40
0
  0
LTYPE
  5
5
330
3
100
AcDbSymbolTableRecord
100
AcDbLinetypeTableRecord
  2
ByLayer
 70
0
  3

 72
65
 73
0
 40
0
  0
LTYPE
  5
6
330
3
100
AcDbSymbolTableRecord
100
AcDbLinetypeTableRecord
  2
CONTINUOUS
 70
0
  3
Solid line
 72
65
 73
0
 40
0
  0
LTYPE
  5
7
330
3
100
AcDbSymbolTableRecord
100
AcDbLinetypeTableRecord
  2
DASHDOT
 70
0
  3
Dash Dot ____ _ ____ _
 72
65
 73
4
 40
2
 49
1.25
 74
0
 49
-0.25
 74
0
 49
0.25
 74
0
 49
-0.25
 74
0
  0
LTYPE
  5
8
330
3
100
AcDbSymbolTableRecord
100
AcDbLinetypeTableRecord
  2
DASHED
 70
0
  3
Dashed __ __ __ __ __
 72
65
 73
2
 40
0.75
 49
0.5
 74
0
 49
-0.25
 74
0
  0
LTYPE
  5
9
330
3
100
AcDbSymbolTableRecord
100
AcDbLinetypeTableRecord
  2
DOTTED
 70
0
  3
Dotted .  .  .  .
 72
65
 73
2
 40
0.2
 49
0.0
 74
0
 49
-0.2
 74
0
  0
ENDTAB
  0
TABLE
  2
STYLE
  5
A
330
0
100
AcDbSymbolTable
 70
4
  0
STYLE
  5
B
330
A
100
AcDbSymbolTableRecord
100
AcDbTextStyleTableRecord
  2
Flux
 70
0
 40
0
 41
1
 42
1
 50
0
 71
0
  3
isocp.shx
  0
STYLE
  5
C
330
A
100
AcDbSymbolTableRecord
100
AcDbTextStyleTableRecord
  2
FluxB
 70
0
 40
0
 41
1
 42
1
 50
0
 71
0
  3
isocp.shx
  0
STYLE
  5
D
330
A
100
AcDbSymbolTableRecord
100
AcDbTextStyleTableRecord
  2
FluxI
 70
0
 40
0
 41
1
 42
1
 50
15
 71
0
  3
isocp.shx
  0
STYLE
  5
E
330
A
100
AcDbSymbolTableRecord
100
AcDbTextStyleTableRecord
  2
FluxBI
 70
0
 40
0
 41
1
 42
1
 50
15
 71
0
  3
isocp.shx
  0
ENDTAB
  0
TABLE
  2
LAYER
  5
F
330
0
100
AcDbSymbolTable
 70
12
  0
LAYER
  5
12
330
F
100
AcDbSymbolTableRecord
100
AcDbLayerTableRecord
  2
0
 70
0
 62
7
  6
CONTINUOUS
390
10
  0
LAYER
  5
13
330
F
100
AcDbSymbolTableRecord
100
AcDbLayerTableRecord
  2
Edge.Cuts
 70
0
 62
254
420
13685453
  6
CONTINUOUS
390
10
  0
LAYER
  5
14
330
F
100
AcDbSymbolTableRecord
100
AcDbLayerTableRecord
  2
B.Cu
 70
0
 62
153
420
5078980
  6
CONTINUOUS
390
10
  0
LAYER
  5
15
330
F
100
AcDbSymbolTableRecord
100
AcDbLayerTableRecord
  2
B.Mask
 70
0
 62
4
420
196590
  6
CONTINUOUS
390
10
  0
LAYER
  5
16
330
F
100
AcDbSymbolTableRecord
100
AcDbLayerTableRecord
  2
B.Paste
 70
0
 62
132
420
49858
  6
CONTINUOUS
390
10
  0
LAYER
  5
17
330
F
100
AcDbSymbolTableRecord
100
AcDbLayerTableRecord
  2
B.Silkscreen
 70
0
 62
31
420
15250087
  6
CONTINUOUS
390
10
  0
LAYER
  5
18
330
F
100
AcDbSymbolTableRecord
100
AcDbLayerTableRecord
  2
F.Cu
 70
0
 62
13
420
13120564
  6
CONTINUOUS
390
10
  0
LAYER
  5
19
330
F
100
AcDbSymbolTableRecord
100
AcDbLayerTableRecord
  2
F.Mask
 70
0
 62
201
420
14181631
  6
CONTINUOUS
390
10
  0
LAYER
  5
1A
330
F
100
AcDbSymbolTableRecord
100
AcDbLayerTableRecord
  2
F.Paste
 70
0
 62
253
420
11837594
  6
CONTINUOUS
390
10
  0
LAYER
  5
1B
330
F
100
AcDbSymbolTableRecord
100
AcDbLayerTableRecord
  2
F.Silkscreen
 70
0
 62
41
420
15920545
  6
CONTINUOUS
390
10
  0
LAYER
  5
1C
330
F
100
AcDbSymbolTableRecord
100
AcDbLayerTableRecord
  2
In1.Cu
 70
0
 62
91
420
8374399
  6
CONTINUOUS
390
10
  0
LAYER
  5
1D
330
F
100
AcDbSymbolTableRecord
100
AcDbLayerTableRecord
  2
In2.Cu
 70
0
 62
33
420
13532460
  6
CONTINUOUS
390
10
  0
ENDTAB
  0
TABLE
  2
VPORT
  5
1E
330
0
100
AcDbSymbolTable
 70
0
  0
ENDTAB
  0
TABLE
  2
VIEW
  5
1F
330
0
100
AcDbSymbolTable
 70
0
  0
ENDTAB
  0
TABLE
  2
UCS
  5
20
330
0
100
AcDbSymbolTable
 70
0
  0
ENDTAB
  0
TABLE
  2
DIMSTYLE
  5
21
330
0
100
AcDbSymbolTable
 70
1
100
AcDbDimStyleTable
 71
0
  0
DIMSTYLE
105
22
330
21
100
AcDbSymbolTableRecord
100
AcDbDimStyleTableRecord
  2
Standard
 70
0
  0
ENDTAB
  0
TABLE
  2
BLOCK_RECORD
  5
23
330
0
100
AcDbSymbolTable
 70
3
  0
BLOCK_RECORD
  5
24
330
23
100
AcDbSymbolTableRecord
100
AcDbBlockTableRecord
  2
*Model_Space
340
27
 70
0
280
1
281
0
  0
BLOCK_RECORD
  5
25
330
23
100
AcDbSymbolTableRecord
100
AcDbBlockTableRecord
  2
*Paper_Space
340
28
 70
0
280
1
281
0
  0
BLOCK_RECORD
  5
26
330
23
100
AcDbSymbolTableRecord
100
AcDbBlockTableRecord
  2
*Paper_Space0
340
29
 70
0
280
1
281
0
  0
ENDTAB
  0
ENDSEC
  0
SECTION
  2
BLOCKS
  0
BLOCK
  5
2D
330
24
100
AcDbEntity
  8
0
100
AcDbBlockBegin
  2
*Model_Space
 70
0
 10
0.0
 20
0.0
 30
0.0
  3
*Model_Space
  1

  0
ENDBLK
  5
2C
330
24
100
AcDbEntity
  8
0
100
AcDbBlockEnd
  0
BLOCK
  5
2F
330
25
100
AcDbEntity
 67
1
  8
0
100
AcDbBlockBegin
  2
*Paper_Space
 70
0
 10
0.0
 20
0.0
 30
0.0
  3
*Paper_Space
  1

  0
ENDBLK
  5
2E
330
25
100
AcDbEntity
 67
1
  8
0
100
AcDbBlockEnd
  0
BLOCK
  5
31
330
26
100
AcDbEntity
 67
1
  8
0
100
AcDbBlockBegin
  2
*Paper_Space0
 70
0
 10
0.0
 20
0.0
 30
0.0
  3
*Paper_Space0
  1

  0
ENDBLK
  5
30
330
26
100
AcDbEntity
 67
1
  8
0
100
AcDbBlockEnd
  0
ENDSEC
  0
SECTION
  2
ENTITIES
  0
LINE
  5
32
330
24
100
AcDbEntity
  8
B.Mask
  6
CONTINUOUS
100
AcDbLine
 10
4.5837335433070869
 20
-4.8204191338582678
 30
0
 11
4.591959251968504
 21
-4.823091850393701
 31
0
  0
LINE
  5
33
330
24
100
AcDbEntity
  8
B.Mask
  6
CONTINUOUS
100
AcDbLine
 10
4.591959251968504
 20
-4.823091850393701
 30
0
 11
4.5996655905511812
 21
-4.82701842519685
 31
0
  0
LINE
  5
34
330
24
100
AcDbEntity
  8
B.Mask
  6
CONTINUOUS
100
AcDbLine
 10
4.5996655905511812
 20
-4.82701842519685
 30
0
 11
4.6066627952755903
 21
-4.8321022047244098
 31
0
  0
LINE
  5
35
330
24
100
AcDbEntity
  8
B.Mask
  6
CONTINUOUS
100
AcDbLine
 10
4.6066627952755903
 20
-4.8321022047244098
 30
0
 11
4.6127785826771657
 21
-4.8382179921259842
 31
0
  0
LINE
  5
36
330
24
100
AcDbEntity
  8
B.Mask
  6
CONTINUOUS
100
AcDbLine
 10
4.6127785826771657
 20
-4.8382179921259842
 30
0
 11
4.6178623622047246
 21
-4.8452151968503934
 31
0
  0
LINE
  5
37
330
24
100
AcDbEntity
  8
B.Mask
  6
CONTINUOUS
100
AcDbLine
 10
4.6178623622047246
 20
-4.8452151968503934
 30
0
 11
4.6217889370078735
 21
-4.8529215354330706
 31
0
  0
LINE
  5
38
330
24
100
AcDbEntity
  8
B.Mask
  6
CONTINUOUS
100
AcDbLine
 10
4.6217889370078735
 20
-4.8529215354330706
 30
0
 11
4.6244616535433067
 21
-4.8611472440944885
 31
0
  0
LINE
  5
39
330
24
100
AcDbEntity
  8
B.Mask
  6
CONTINUOUS
100
AcDbLine
 10
4.6244616535433067
 20
-4.8611472440944885
 30
0
 11
4.6258146456692915
 21
-4.8696898031496065
 31
0
  0
LINE
  5
3A
330
24
100
AcDbEntity
  8
B.Mask
  6
CONTINUOUS
100
AcDbLine
 10
4.6258146456692915
 20
-4.8696898031496065
 30
0
 11
4.6258146456692915
 21
-4.8783388582677167
 31
0
  0
LINE
  5
3B
330
24
100
AcDbEntity
  8
B.Mask
  6
CONTINUOUS
100
AcDbLine
 10
4.6258146456692915
 20
-4.8783388582677167
 30
0
 11
4.6244616535433067
 21
-4.8868814173228348
 31
0
  0
LINE
  5
3C
330
24
100
AcDbEntity
  8
B.Mask
  6
CONTINUOUS
100
AcDbLine
 10
4.6244616535433067
 20
-4.8868814173228348
 30
0
 11
4.6217889370078735
 21
-4.8951071259842518
 31
0
  0
LINE
  5
3D
330
24
100
AcDbEntity
  8
B.Mask
  6
CONTINUOUS
100
AcDbLine
 10
4.6217889370078735
 20
-4.8951071259842518
 30
0
 11
4.6178623622047246
 21
-4.902813464566929
 31
0
  0
LINE
  5
3E
330
24
100
AcDbEntity
  8
B.Mask
  6
CONTINUOUS
100
AcDbLine
 10
4.6178623622047246
 20
-4.902813464566929
 30
0
 11
4.6127785826771657
 21
-4.9098106692913381
 31
0
  0
LINE
  5
3F
330
24
100
AcDbEntity
  8
B.Mask
  6
CONTINUOUS
100
AcDbLine
 10
4.6127785826771657
 20
-4.9098106692913381
 30
0
 11
4.6066627952755903
 21
-4.9159264566929135
 31
0
  0
LINE
  5
40
330
24
100
AcDbEntity
  8
B.Mask
  6
CONTINUOUS
100
AcDbLine
 10
4.6066627952755903
 20
-4.9159264566929135
 30
0
 11
4.5996655905511812
 21
-4.9210102362204724
 31
0
  0
LINE
  5
41
330
24
100
AcDbEntity
  8
B.Mask
  6
CONTINUOUS
100
AcDbLine
 10
4.5996655905511812
 20
-4.9210102362204724
 30
0
 11
4.591959251968504
 21
-4.9249368110236222
 31
0
  0
LINE
  5
42
330
24
100
AcDbEntity
  8
B.Mask
  6
CONTINUOUS
100
AcDbLine
 10
4.591959251968504
 20
-4.9249368110236222
 30
0
 11
4.5837335433070869
 21
-4.9276095275590546
 31
0
  0
LINE
  5
43
330
24
100
AcDbEntity
  8
B.Mask
  6
CONTINUOUS
100
AcDbLine
 10
4.5837335433070869
 20
-4.9276095275590546
 30
0
 11
4.575190984251968
 21
-4.9289625196850393
 31
0
  0
LINE
  5
44
330
24
100
AcDbEntity
  8
B.Mask
  6
CONTINUOUS
100
AcDbLine
 10
4.575190984251968
 20
-4.9289625196850393
 30
0
 11
4.5665419291338578
 21
-4.9289625196850393
 31
0
  0
LINE
  5
45
330
24
100
AcDbEntity
  8
B.Mask
  6
CONTINUOUS
100
AcDbLine
 10
4.5665419291338578
 20
-4.9289625196850393
 30
0
 11
4.5579993700787398
 21
-4.9276095275590546
 31
0
  0
LINE
  5
46
330
24
100
AcDbEntity
  8
B.Mask
  6
CONTINUOUS
100
AcDbLine
 10
4.5579993700787398
 20
-4.9276095275590546
 30
0
 11
4.5497736614173228
 21
-4.9249368110236222
 31
0
  0
LINE
  5
47
330
24
100
AcDbEntity
  8
B.Mask
  6
CONTINUOUS
100
AcDbLine
 10
4.5497736614173228
 20
-4.9249368110236222
 30
0
 11
4.5420673228346455
 21
-4.9210102362204724
 31
0
  0
LINE
  5
48
330
24
100
AcDbEntity
  8
B.Mask
  6
CONTINUOUS
100
AcDbLine
 10
4.5420673228346455
 20
-4.9210102362204724
 30
0
 11
4.5350701181102364
 21
-4.9159264566929135
 31
0
  0
LINE
  5
49
330
24
100
AcDbEntity
  8
B.Mask
  6
CONTINUOUS
100
AcDbLine
 10
4.5350701181102364
 20
-4.9159264566929135
 30
0
 11
4.528954330708661
 21
-4.9098106692913381
 31
0
  0
LINE
  5
4A
330
24
100
AcDbEntity
  8
B.Mask
  6
CONTINUOUS
100
AcDbLine
 10
4.528954330708661
 20
-4.9098106692913381
 30
0
 11
4.5238705511811022
 21
-4.902813464566929
 31
0
  0
LINE
  5
4B
330
24
100
AcDbEntity
  8
B.Mask
  6
CONTINUOUS
100
AcDbLine
 10
4.5238705511811022
 20
-4.902813464566929
 30
0
 11
4.5199439763779523
 21
-4.8951071259842518
 31
0
  0
LINE
  5
4C
330
24
100
AcDbEntity
  8
B.Mask
  6
CONTINUOUS
100
AcDbLine
 10
4.5199439763779523
 20
-4.8951071259842518
 30
0
 11
4.51727125984252
 21
-4.8868814173228348
 31
0
  0
LINE
  5
4D
330
24
100
AcDbEntity
  8
B.Mask
  6
CONTINUOUS
100
AcDbLine
 10
4.51727125984252
 20
-4.8868814173228348
 30
0
 11
4.5159182677165353
 21
-4.8783388582677167
 31
0
  0
LINE
  5
4E
330
24
100
AcDbEntity
  8
B.Mask
  6
CONTINUOUS
100
AcDbLine
 10
4.5159182677165353
 20
-4.8783388582677167
 30
0
 11
4.5159182677165353
 21
-4.8696898031496065
 31
0
  0
LINE
  5
4F
330
24
100
AcDbEntity
  8
B.Mask
  6
CONTINUOUS
100
AcDbLine
 10
4.5159182677165353
 20
-4.8696898031496065
 30
0
 11
4.51727125984252
 21
-4.8611472440944885
 31
0
  0
LINE
  5
50
330
24
100
AcDbEntity
  8
B.Mask
  6
CONTINUOUS
100
AcDbLine
 10
4.51727125984252
 20
-4.8611472440944885
 30
0
 11
4.5199439763779523
 21
-4.8529215354330706
 31
0
  0
LINE
  5
51
330
24
100
AcDbEntity
  8
B.Mask
  6
CONTINUOUS
100
AcDbLine
 10
4.5199439763779523
 20
-4.8529215354330706
 30
0
 11
4.5238705511811022
 21
-4.8452151968503934
 31
0
  0
LINE
  5
52
330
24
100
AcDbEntity
  8
B.Mask
  6
CONTINUOUS
100
AcDbLine
 10
4.5238705511811022
 20
-4.8452151968503934
 30
0
 11
4.528954330708661
 21
-4.8382179921259842
 31
0
  0
LINE
  5
53
330
24
100
AcDbEntity
  8
B.Mask
  6
CONTINUOUS
100
AcDbLine
 10
4.528954330708661
 20
-4.8382179921259842
 30
0
 11
4.5350701181102364
 21
-4.8321022047244098
 31
0
  0
LINE
  5
54
330
24
100
AcDbEntity
  8
B.Mask
  6
CONTINUOUS
100
AcDbLine
 10
4.5350701181102364
 20
-4.8321022047244098
 30
0
 11
4.5420673228346455
 21
-4.82701842519685
 31
0
  0
LINE
  5
55
330
24
100
AcDbEntity
  8
B.Mask
  6
CONTINUOUS
100
AcDbLine
 10
4.5420673228346455
 20
-4.82701842519685
 30
0
 11
4.5497736614173228
 21
-4.823091850393701
 31
0
  0
LINE
  5
56
330
24
100
AcDbEntity
  8
B.Mask
  6
CONTINUOUS
100
AcDbLine
 10
4.5497736614173228
 20
-4.823091850393701
 30
0
 11
4.5579993700787398
 21
-4.8204191338582678
 31
0
  0
LINE
  5
57
330
24
100
AcDbEntity
  8
B.Mask
  6
CONTINUOUS
100
AcDbLine
 10
4.5579993700787398
 20
-4.8204191338582678
 30
0
 11
4.5665419291338578
 21
-4.8190661417322831
 31
0
  0
LINE
  5
58
330
24
100
AcDbEntity
  8
B.Mask
  6
CONTINUOUS
100
AcDbLine
 10
4.5665419291338578
 20
-4.8190661417322831
 30
0
 11
4.575190984251968
 21
-4.8190661417322831
 31
0
  0
LINE
  5
59
330
24
100
AcDbEntity
  8
B.Mask
  6
CONTINUOUS
100
AcDbLine
 10
4.575190984251968
 20
-4.8190661417322831
 30
0
 11
4.5837335433070869
 21
-4.8204191338582678
 31
0
  0
LINE
  5
5A
330
24
100
AcDbEntity
  8
B.Mask
  6
CONTINUOUS
100
AcDbLine
 10
4.8868098818897634
 20
-4.695209409448819
 30
0
 11
4.8923359055118105
 21
-4.6974983858267718
 31
0
  0
LINE
  5
5B
330
24
100
AcDbEntity
  8
B.Mask
  6
CONTINUOUS
100
AcDbLine
 10
4.8923359055118105
 20
-4.6974983858267718
 30
0
 11
4.8973092519685038
 21
-4.7008214566929132
 31
0
  0
LINE
  5
5C
330
24
100
AcDbEntity
  8
B.Mask
  6
CONTINUOUS
100
AcDbLine
 10
4.8973092519685038
 20
-4.7008214566929132
 30
0
 11
4.9015387007874018
 21
-4.7050509055118113
 31
0
  0
LINE
  5
5D
330
24
100
AcDbEntity
  8
B.Mask
  6
CONTINUOUS
100
AcDbLine
 10
4.9015387007874018
 20
-4.7050509055118113
 30
0
 11
4.9048617716535432
 21
-4.7100242519685036
 31
0
  0
LINE
  5
5E
330
24
100
AcDbEntity
  8
B.Mask
  6
CONTINUOUS
100
AcDbLine
 10
4.9048617716535432
 20
-4.7100242519685036
 30
0
 11
4.907150748031496
 21
-4.7155502755905507
 31
0
  0
LINE
  5
5F
330
24
100
AcDbEntity
  8
B.Mask
  6
CONTINUOUS
100
AcDbLine
 10
4.907150748031496
 20
-4.7155502755905507
 30
0
 11
4.9083176377952755
 21
-4.7214167322834646
 31
0
  0
LINE
  5
60
330
24
100
AcDbEntity
  8
B.Mask
  6
CONTINUOUS
100
AcDbLine
 10
4.9083176377952755
 20
-4.7214167322834646
 30
0
 11
4.9083176377952755
 21
-4.7273980708661414
 31
0
  0
LINE
  5
61
330
24
100
AcDbEntity
  8
B.Mask
  6
CONTINUOUS
100
AcDbLine
 10
4.9083176377952755
 20
-4.7273980708661414
 30
0
 11
4.907150748031496
 21
-4.7332645275590552
 31
0
  0
LINE
  5
62
330
24
100
AcDbEntity
  8
B.Mask
  6
CONTINUOUS
100
AcDbLine
 10
4.907150748031496
 20
-4.7332645275590552
 30
0
 11
4.9048617716535432
 21
-4.7387905511811024
 31
0
  0
LINE
  5
63
330
24
100
AcDbEntity
  8
B.Mask
  6
CONTINUOUS
100
AcDbLine
 10
4.9048617716535432
 20
-4.7387905511811024
 30
0
 11
4.9015387007874018
 21
-4.7437638976377956
 31
0
  0
LINE
  5
64
330
24
100
AcDbEntity
  8
B.Mask
  6
CONTINUOUS
100
AcDbLine
 10
4.9015387007874018
 20
-4.7437638976377956
 30
0
 11
4.8973092519685038
 21
-4.7479933464566928
 31
0
  0
LINE
  5
65
330
24
100
AcDbEntity
  8
B.Mask
  6
CONTINUOUS
100
AcDbLine
 10
4.8973092519685038
 20
-4.7479933464566928
 30
0
 11
4.8923359055118105
 21
-4.7513164173228342
 31
0
  0
LINE
  5
66
330
24
100
AcDbEntity
  8
B.Mask
  6
CONTINUOUS
100
AcDbLine
 10
4.8923359055118105
 20
-4.7513164173228342
 30
0
 11
4.8868098818897634
 21
-4.7536053937007869
 31
0
  0
LINE
  5
67
330
24
100
AcDbEntity
  8
B.Mask
  6
CONTINUOUS
100
AcDbLine
 10
4.8868098818897634
 20
-4.7536053937007869
 30
0
 11
4.8809434251968504
 21
-4.7547722834645665
 31
0
  0
LINE
  5
68
330
24
100
AcDbEntity
  8
B.Mask
  6
CONTINUOUS
100
AcDbLine
 10
4.8809434251968504
 20
-4.7547722834645665
 30
0
 11
4.8749620866141727
 21
-4.7547722834645665
 31
0
  0
LINE
  5
69
330
24
100
AcDbEntity
  8
B.Mask
  6
CONTINUOUS
100
AcDbLine
 10
4.8749620866141727
 20
-4.7547722834645665
 30
0
 11
4.8690956299212598
 21
-4.7536053937007869
 31
0
  0
LINE
  5
6A
330
24
100
AcDbEntity
  8
B.Mask
  6
CONTINUOUS
100
AcDbLine
 10
4.8690956299212598
 20
-4.7536053937007869
 30
0
 11
4.8635696062992126
 21
-4.7513164173228342
 31
0
  0
LINE
  5
6B
330
24
100
AcDbEntity
  8
B.Mask
  6
CONTINUOUS
100
AcDbLine
 10
4.8635696062992126
 20
-4.7513164173228342
 30
0
 11
4.8585962598425194
 21
-4.7479933464566928
 31
0
  0
LINE
  5
6C
330
24
100
AcDbEntity
  8
B.Mask
  6
CONTINUOUS
100
AcDbLine
 10
4.8585962598425194
 20
-4.7479933464566928
 30
0
 11
4.8543668110236222
 21
-4.7437638976377956
 31
0
  0
LINE
  5
6D
330
24
100
AcDbEntity
  8
B.Mask
  6
CONTINUOUS
100
AcDbLine
 10
4.8543668110236222
 20
-4.7437638976377956
 30
0
 11
4.85104374015748
 21
-4.7387905511811024
 31
0
  0
LINE
  5
6E
330
24
100
AcDbEntity
  8
B.Mask
  6
CONTINUOUS
100
AcDbLine
 10
4.85104374015748
 20
-4.7387905511811024
 30
0
 11
4.8487547637795272
 21
-4.7332645275590552
 31
0
  0
LINE
  5
6F
330
24
100
AcDbEntity
  8
B.Mask
  6
CONTINUOUS
100
AcDbLine
 10
4.8487547637795272
 20
-4.7332645275590552
 30
0
 11
4.8475878740157476
 21
-4.7273980708661414
 31
0
  0
LINE
  5
70
330
24
100
AcDbEntity
  8
B.Mask
  6
CONTINUOUS
100
AcDbLine
 10
4.8475878740157476
 20
-4.7273980708661414
 30
0
 11
4.8475878740157476
 21
-4.7214167322834646
 31
0
  0
LINE
  5
71
330
24
100
AcDbEntity
  8
B.Mask
  6
CONTINUOUS
100
AcDbLine
 10
4.8475878740157476
 20
-4.7214167322834646
 30
0
 11
4.8487547637795272
 21
-4.7155502755905507
 31
0
  0
LINE
  5
72
330
24
100
AcDbEntity
  8
B.Mask
  6
CONTINUOUS
100
AcDbLine
 10
4.8487547637795272
 20
-4.7155502755905507
 30
0
 11
4.85104374015748
 21
-4.7100242519685036
 31
0
  0
LINE
  5
73
330
24
100
AcDbEntity
  8
B.Mask
  6
CONTINUOUS
100
AcDbLine
 10
4.85104374015748
 20
-4.7100242519685036
 30
0
 11
4.8543668110236222
 21
-4.7050509055118113
 31
0
  0
LINE
  5
74
330
24
100
AcDbEntity
  8
B.Mask
  6
CONTINUOUS
100
AcDbLine
 10
4.8543668110236222
 20
-4.7050509055118113
 30
0
 11
4.8585962598425194
 21
-4.7008214566929132
 31
0
  0
LINE
  5
75
330
24
100
AcDbEntity
  8
B.Mask
  6
CONTINUOUS
100
AcDbLine
 10
4.8585962598425194
 20
-4.7008214566929132
 30
0
 11
4.8635696062992126
 21
-4.6974983858267718
 31
0
  0
LINE
  5
76
330
24
100
AcDbEntity
  8
B.Mask
  6
CONTINUOUS
100
AcDbLine
 10
4.8635696062992126
 20
-4.6974983858267718
 30
0
 11
4.8690956299212598
 21
-4.695209409448819
 31
0
  0
LINE
  5
77
330
24
100
AcDbEntity
  8
B.Mask
  6
CONTINUOUS
100
AcDbLine
 10
4.8690956299212598
 20
-4.695209409448819
 30
0
 11
4.8749620866141727
 21
-4.6940425196850395
 31
0
  0
LINE
  5
78
330
24
100
AcDbEntity
  8
B.Mask
  6
CONTINUOUS
100
AcDbLine
 10
4.8749620866141727
 20
-4.6940425196850395
 30
0
 11
4.8809434251968504
 21
-4.6940425196850395
 31
0
  0
LINE
  5
79
330
24
100
AcDbEntity
  8
B.Mask
  6
CONTINUOUS
100
AcDbLine
 10
4.8809434251968504
 20
-4.6940425196850395
 30
0
 11
4.8868098818897634
 21
-4.695209409448819
 31
0
  0
LINE
  5
7A
330
24
100
AcDbEntity
  8
B.Mask
  6
CONTINUOUS
100
AcDbLine
 10
4.5837329133858269
 20
-4.5212065354330706
 30
0
 11
4.5919586220472439
 21
-4.5238792519685038
 31
0
  0
LINE
  5
7B
330
24
100
AcDbEntity
  8
B.Mask
  6
CONTINUOUS
100
AcDbLine
 10
4.5919586220472439
 20
-4.5238792519685038
 30
0
 11
4.5996649606299211
 21
-4.5278058267716537
 31
0
  0
LINE
  5
7C
330
24
100
AcDbEntity
  8
B.Mask
  6
CONTINUOUS
100
AcDbLine
 10
4.5996649606299211
 20
-4.5278058267716537
 30
0
 11
4.6066621653543303
 21
-4.5328896062992126
 31
0
  0
LINE
  5
7D
330
24
100
AcDbEntity
  8
B.Mask
  6
CONTINUOUS
100
AcDbLine
 10
4.6066621653543303
 20
-4.5328896062992126
 30
0
 11
4.6127779527559056
 21
-4.539005393700787
 31
0
  0
LINE
  5
7E
330
24
100
AcDbEntity
  8
B.Mask
  6
CONTINUOUS
100
AcDbLine
 10
4.6127779527559056
 20
-4.539005393700787
 30
0
 11
4.6178617322834645
 21
-4.546002598425197
 31
0
  0
LINE
  5
7F
330
24
100
AcDbEntity
  8
B.Mask
  6
CONTINUOUS
100
AcDbLine
 10
4.6178617322834645
 20
-4.546002598425197
 30
0
 11
4.6217883070866144
 21
-4.5537089370078743
 31
0
  0
LINE
  5
80
330
24
100
AcDbEntity
  8
B.Mask
  6
CONTINUOUS
100
AcDbLine
 10
4.6217883070866144
 20
-4.5537089370078743
 30
0
 11
4.6244610236220467
 21
-4.5619346456692913
 31
0
  0
LINE
  5
81
330
24
100
AcDbEntity
  8
B.Mask
  6
CONTINUOUS
100
AcDbLine
 10
4.6244610236220467
 20
-4.5619346456692913
 30
0
 11
4.6258140157480314
 21
-4.5704772047244093
 31
0
  0
LINE
  5
82
330
24
100
AcDbEntity
  8
B.Mask
  6
CONTINUOUS
100
AcDbLine
 10
4.6258140157480314
 20
-4.5704772047244093
 30
0
 11
4.6258140157480314
 21
-4.5791262598425195
 31
0
  0
LINE
  5
83
330
24
100
AcDbEntity
  8
B.Mask
  6
CONTINUOUS
100
AcDbLine
 10
4.6258140157480314
 20
-4.5791262598425195
 30
0
 11
4.6244610236220467
 21
-4.5876688188976376
 31
0
  0
LINE
  5
84
330
24
100
AcDbEntity
  8
B.Mask
  6
CONTINUOUS
100
AcDbLine
 10
4.6244610236220467
 20
-4.5876688188976376
 30
0
 11
4.6217883070866144
 21
-4.5958945275590546
 31
0
  0
LINE
  5
85
330
24
100
AcDbEntity
  8
B.Mask
  6
CONTINUOUS
100
AcDbLine
 10
4.6217883070866144
 20
-4.5958945275590546
 30
0
 11
4.6178617322834645
 21
-4.6036008661417318
 31
0
  0
LINE
  5
86
330
24
100
AcDbEntity
  8
B.Mask
  6
CONTINUOUS
100
AcDbLine
 10
4.6178617322834645
 20
-4.6036008661417318
 30
0
 11
4.6127779527559056
 21
-4.6105980708661418
 31
0
  0
LINE
  5
87
330
24
100
AcDbEntity
  8
B.Mask
  6
CONTINUOUS
100
AcDbLine
 10
4.6127779527559056
 20
-4.6105980708661418
 30
0
 11
4.6066621653543303
 21
-4.6167138582677163
 31
0
  0
LINE
  5
88
330
24
100
AcDbEntity
  8
B.Mask
  6
CONTINUOUS
100
AcDbLine
 10
4.6066621653543303
 20
-4.6167138582677163
 30
0
 11
4.5996649606299211
 21
-4.6217976377952752
 31
0
  0
LINE
  5
89
330
24
100
AcDbEntity
  8
B.Mask
  6
CONTINUOUS
100
AcDbLine
 10
4.5996649606299211
 20
-4.6217976377952752
 30
0
 11
4.5919586220472439
 21
-4.625724212598425
 31
0
  0
LINE
  5
8A
330
24
100
AcDbEntity
  8
B.Mask
  6
CONTINUOUS
100
AcDbLine
 10
4.5919586220472439
 20
-4.625724212598425
 30
0
 11
4.5837329133858269
 21
-4.6283969291338583
 31
0
  0
LINE
  5
8B
330
24
100
AcDbEntity
  8
B.Mask
  6
CONTINUOUS
100
AcDbLine
 10
4.5837329133858269
 20
-4.6283969291338583
 30
0
 11
4.5751903543307089
 21
-4.6297499212598421
 31
0
  0
LINE
  5
8C
330
24
100
AcDbEntity
  8
B.Mask
  6
CONTINUOUS
100
AcDbLine
 10
4.5751903543307089
 20
-4.6297499212598421
 30
0
 11
4.5665412992125987
 21
-4.6297499212598421
 31
0
  0
LINE
  5
8D
330
24
100
AcDbEntity
  8
B.Mask
  6
CONTINUOUS
100
AcDbLine
 10
4.5665412992125987
 20
-4.6297499212598421
 30
0
 11
4.5579987401574806
 21
-4.6283969291338583
 31
0
  0
LINE
  5
8E
330
24
100
AcDbEntity
  8
B.Mask
  6
CONTINUOUS
100
AcDbLine
 10
4.5579987401574806
 20
-4.6283969291338583
 30
0
 11
4.5497730314960627
 21
-4.625724212598425
 31
0
  0
LINE
  5
8F
330
24
100
AcDbEntity
  8
B.Mask
  6
CONTINUOUS
100
AcDbLine
 10
4.5497730314960627
 20
-4.625724212598425
 30
0
 11
4.5420666929133855
 21
-4.6217976377952752
 31
0
  0
LINE
  5
90
330
24
100
AcDbEntity
  8
B.Mask
  6
CONTINUOUS
100
AcDbLine
 10
4.5420666929133855
 20
-4.6217976377952752
 30
0
 11
4.5350694881889764
 21
-4.6167138582677163
 31
0
  0
LINE
  5
91
330
24
100
AcDbEntity
  8
B.Mask
  6
CONTINUOUS
100
AcDbLine
 10
4.5350694881889764
 20
-4.6167138582677163
 30
0
 11
4.5289537007874019
 21
-4.6105980708661418
 31
0
  0
LINE
  5
92
330
24
100
AcDbEntity
  8
B.Mask
  6
CONTINUOUS
100
AcDbLine
 10
4.5289537007874019
 20
-4.6105980708661418
 30
0
 11
4.5238699212598421
 21
-4.6036008661417318
 31
0
  0
LINE
  5
93
330
24
100
AcDbEntity
  8
B.Mask
  6
CONTINUOUS
100
AcDbLine
 10
4.5238699212598421
 20
-4.6036008661417318
 30
0
 11
4.5199433464566932
 21
-4.5958945275590546
 31
0
  0
LINE
  5
94
330
24
100
AcDbEntity
  8
B.Mask
  6
CONTINUOUS
100
AcDbLine
 10
4.5199433464566932
 20
-4.5958945275590546
 30
0
 11
4.5172706299212599
 21
-4.5876688188976376
 31
0
  0
LINE
  5
95
330
24
100
AcDbEntity
  8
B.Mask
  6
CONTINUOUS
100
AcDbLine
 10
4.5172706299212599
 20
-4.5876688188976376
 30
0
 11
4.5159176377952752
 21
-4.5791262598425195
 31
0
  0
LINE
  5
96
330
24
100
AcDbEntity
  8
B.Mask
  6
CONTINUOUS
100
AcDbLine
 10
4.5159176377952752
 20
-4.5791262598425195
 30
0
 11
4.5159176377952752
 21
-4.5704772047244093
 31
0
  0
LINE
  5
97
330
24
100
AcDbEntity
  8
B.Mask
  6
CONTINUOUS
100
AcDbLine
 10
4.5159176377952752
 20
-4.5704772047244093
 30
0
 11
4.5172706299212599
 21
-4.5619346456692913
 31
0
  0
LINE
  5
98
330
24
100
AcDbEntity
  8
B.Mask
  6
CONTINUOUS
100
AcDbLine
 10
4.5172706299212599
 20
-4.5619346456692913
 30
0
 11
4.5199433464566932
 21
-4.5537089370078743
 31
0
  0
LINE
  5
99
330
24
100
AcDbEntity
  8
B.Mask
  6
CONTINUOUS
100
AcDbLine
 10
4.5199433464566932
 20
-4.5537089370078743
 30
0
 11
4.5238699212598421
 21
-4.546002598425197
 31
0
  0
LINE
  5
9A
330
24
100
AcDbEntity
  8
B.Mask
  6
CONTINUOUS
100
AcDbLine
 10
4.5238699212598421
 20
-4.546002598425197
 30
0
 11
4.5289537007874019
 21
-4.539005393700787
 31
0
  0
LINE
  5
9B
330
24
100
AcDbEntity
  8
B.Mask
  6
CONTINUOUS
100
AcDbLine
 10
4.5289537007874019
 20
-4.539005393700787
 30
0
 11
4.5350694881889764
 21
-4.5328896062992126
 31
0
  0
LINE
  5
9C
330
24
100
AcDbEntity
  8
B.Mask
  6
CONTINUOUS
100
AcDbLine
 10
4.5350694881889764
 20
-4.5328896062992126
 30
0
 11
4.5420666929133855
 21
-4.5278058267716537
 31
0
  0
LINE
  5
9D
330
24
100
AcDbEntity
  8
B.Mask
  6
CONTINUOUS
100
AcDbLine
 10
4.5420666929133855
 20
-4.5278058267716537
 30
0
 11
4.5497730314960627
 21
-4.5238792519685038
 31
0
  0
LINE
  5
9E
330
24
100
AcDbEntity
  8
B.Mask
  6
CONTINUOUS
100
AcDbLine
 10
4.5497730314960627
 20
-4.5238792519685038
 30
0
 11
4.5579987401574806
 21
-4.5212065354330706
 31
0
  0
LINE
  5
9F
330
24
100
AcDbEntity
  8
B.Mask
  6
CONTINUOUS
100
AcDbLine
 10
4.5579987401574806
 20
-4.5212065354330706
 30
0
 11
4.5665412992125987
 21
-4.5198535433070868
 31
0
  0
LINE
  5
A0
330
24
100
AcDbEntity
  8
B.Mask
  6
CONTINUOUS
100
AcDbLine
 10
4.5665412992125987
 20
-4.5198535433070868
 30
0
 11
4.5751903543307089
 21
-4.5198535433070868
 31
0
  0
LINE
  5
A1
330
24
100
AcDbEntity
  8
B.Mask
  6
CONTINUOUS
100
AcDbLine
 10
4.5751903543307089
 20
-4.5198535433070868
 30
0
 11
4.5837329133858269
 21
-4.5212065354330706
 31
0
  0
LINE
  5
A2
330
24
100
AcDbEntity
  8
B.Mask
  6
CONTINUOUS
100
AcDbLine
 10
7.5911533464566929
 20
-4.245051456692913
 30
0
 11
7.5961170866141732
 21
-4.2463814566929132
 31
0
  0
LINE
  5
A3
330
24
100
AcDbEntity
  8
B.Mask
  6
CONTINUOUS
100
AcDbLine
 10
7.5961170866141732
 20
-4.2463814566929132
 30
0
 11
7.6005674409448813
 21
-4.2489508661417323
 31
0
  0
LINE
  5
A4
330
24
100
AcDbEntity
  8
B.Mask
  6
CONTINUOUS
100
AcDbLine
 10
7.6005674409448813
 20
-4.2489508661417323
 30
0
 11
7.6042011417322835
 21
-4.2525845669291336
 31
0
  0
LINE
  5
A5
330
24
100
AcDbEntity
  8
B.Mask
  6
CONTINUOUS
100
AcDbLine
 10
7.6042011417322835
 20
-4.2525845669291336
 30
0
 11
7.6067705511811026
 21
-4.2570349212598426
 31
0
  0
LINE
  5
A6
330
24
100
AcDbEntity
  8
B.Mask
  6
CONTINUOUS
100
AcDbLine
 10
7.6067705511811026
 20
-4.2570349212598426
 30
0
 11
7.608100551181102
 21
-4.2619986614173229
 31
0
  0
LINE
  5
A7
330
24
100
AcDbEntity
  8
B.Mask
  6
CONTINUOUS
100
AcDbLine
 10
7.608100551181102
 20
-4.2619986614173229
 30
0
 11
7.608100551181102
 21
-4.2671374803149602
 31
0
  0
LINE
  5
A8
330
24
100
AcDbEntity
  8
B.Mask
  6
CONTINUOUS
100
AcDbLine
 10
7.608100551181102
 20
-4.2671374803149602
 30
0
 11
7.6067705511811026
 21
-4.2721012204724405
 31
0
  0
LINE
  5
A9
330
24
100
AcDbEntity
  8
B.Mask
  6
CONTINUOUS
100
AcDbLine
 10
7.6067705511811026
 20
-4.2721012204724405
 30
0
 11
7.6042011417322835
 21
-4.2765515748031495
 31
0
  0
LINE
  5
AA
330
24
100
AcDbEntity
  8
B.Mask
  6
CONTINUOUS
100
AcDbLine
 10
7.6042011417322835
 20
-4.2765515748031495
 30
0
 11
7.6005674409448813
 21
-4.2801852755905507
 31
0
  0
LINE
  5
AB
330
24
100
AcDbEntity
  8
B.Mask
  6
CONTINUOUS
100
AcDbLine
 10
7.6005674409448813
 20
-4.2801852755905507
 30
0
 11
7.5961170866141732
 21
-4.2827546850393698
 31
0
  0
LINE
  5
AC
330
24
100
AcDbEntity
  8
B.Mask
  6
CONTINUOUS
100
AcDbLine
 10
7.5961170866141732
 20
-4.2827546850393698
 30
0
 11
7.5911533464566929
 21
-4.2840846850393701
 31
0
  0
LINE
  5
AD
330
24
100
AcDbEntity
  8
B.Mask
  6
CONTINUOUS
100
AcDbLine
 10
7.5911533464566929
 20
-4.2840846850393701
 30
0
 11
7.5885839370078738
 21
-4.2842531102362207
 31
0
  0
LINE
  5
AE
330
24
100
AcDbEntity
  8
B.Mask
  6
CONTINUOUS
100
AcDbLine
 10
7.5885839370078738
 20
-4.2842531102362207
 30
0
 11
7.5570878740157479
 21
-4.2842531102362207
 31
0
  0
LINE
  5
AF
330
24
100
AcDbEntity
  8
B.Mask
  6
CONTINUOUS
100
AcDbLine
 10
7.5570878740157479
 20
-4.2842531102362207
 30
0
 11
7.5545184645669288
 21
-4.2840846850393701
 31
0
  0
LINE
  5
B0
330
24
100
AcDbEntity
  8
B.Mask
  6
CONTINUOUS
100
AcDbLine
 10
7.5545184645669288
 20
-4.2840846850393701
 30
0
 11
7.5495547244094485
 21
-4.2827546850393698
 31
0
  0
LINE
  5
B1
330
24
100
AcDbEntity
  8
B.Mask
  6
CONTINUOUS
100
AcDbLine
 10
7.5495547244094485
 20
-4.2827546850393698
 30
0
 11
7.5451043700787404
 21
-4.2801852755905507
 31
0
  0
LINE
  5
B2
330
24
100
AcDbEntity
  8
B.Mask
  6
CONTINUOUS
100
AcDbLine
 10
7.5451043700787404
 20
-4.2801852755905507
 30
0
 11
7.5414706692913382
 21
-4.2765515748031495
 31
0
  0
LINE
  5
B3
330
24
100
AcDbEntity
  8
B.Mask
  6
CONTINUOUS
100
AcDbLine
 10
7.5414706692913382
 20
-4.2765515748031495
 30
0
 11
7.5389012598425191
 21
-4.2721012204724405
 31
0
  0
LINE
  5
B4
330
24
100
AcDbEntity
  8
B.Mask
  6
CONTINUOUS
100
AcDbLine
 10
7.5389012598425191
 20
-4.2721012204724405
 30
0
 11
7.5375712598425197
 21
-4.2671374803149602
 31
0
  0
LINE
  5
B5
330
24
100
AcDbEntity
  8
B.Mask
  6
CONTINUOUS
100
AcDbLine
 10
7.5375712598425197
 20
-4.2671374803149602
 30
0
 11
7.5375712598425197
 21
-4.2619986614173229
 31
0
  0
LINE
  5
B6
330
24
100
AcDbEntity
  8
B.Mask
  6
CONTINUOUS
100
AcDbLine
 10
7.5375712598425197
 20
-4.2619986614173229
 30
0
 11
7.5389012598425191
 21
-4.2570349212598426
 31
0
  0
LINE
  5
B7
330
24
100
AcDbEntity
  8
B.Mask
  6
CONTINUOUS
100
AcDbLine
 10
7.5389012598425191
 20
-4.2570349212598426
 30
0
 11
7.5414706692913382
 21
-4.2525845669291336
 31
0
  0
LINE
  5
B8
330
24
100
AcDbEntity
  8
B.Mask
  6
CONTINUOUS
100
AcDbLine
 10
7.5414706692913382
 20
-4.2525845669291336
 30
0
 11
7.5451043700787404
 21
-4.2489508661417323
 31
0
  0
LINE
  5
B9
330
24
100
AcDbEntity
  8
B.Mask
  6
CONTINUOUS
100
AcDbLine
 10
7.5451043700787404
 20
-4.2489508661417323
 30
0
 11
7.5495547244094485
 21
-4.2463814566929132
 31
0
  0
LINE
  5
BA
330
24
100
AcDbEntity
  8
B.Mask
  6
CONTINUOUS
100
AcDbLine
 10
7.5495547244094485
 20
-4.2463814566929132
 30
0
 11
7.5545184645669288
 21
-4.245051456692913
 31
0
  0
LINE
  5
BB
330
24
100
AcDbEntity
  8
B.Mask
  6
CONTINUOUS
100
AcDbLine
 10
7.5545184645669288
 20
-4.245051456692913
 30
0
 11
7.5570878740157479
 21
-4.2448830314960633
 31
0
  0
LINE
  5
BC
330
24
100
AcDbEntity
  8
B.Mask
  6
CONTINUOUS
100
AcDbLine
 10
7.5570878740157479
 20
-4.2448830314960633
 30
0
 11
7.5885839370078738
 21
-4.2448830314960633
 31
0
  0
LINE
  5
BD
330
24
100
AcDbEntity
  8
B.Mask
  6
CONTINUOUS
100
AcDbLine
 10
7.5885839370078738
 20
-4.2448830314960633
 30
0
 11
7.5911533464566929
 21
-4.245051456692913
 31
0
  0
LINE
  5
BE
330
24
100
AcDbEntity
  8
B.Mask
  6
CONTINUOUS
100
AcDbLine
 10
7.7446966535433068
 20
-4.2450503543307088
 30
0
 11
7.7496603937007871
 21
-4.2463803543307082
 31
0
  0
LINE
  5
BF
330
24
100
AcDbEntity
  8
B.Mask
  6
CONTINUOUS
100
AcDbLine
 10
7.7496603937007871
 20
-4.2463803543307082
 30
0
 11
7.7541107480314961
 21
-4.2489497637795273
 31
0
  0
LINE
  5
C0
330
24
100
AcDbEntity
  8
B.Mask
  6
CONTINUOUS
100
AcDbLine
 10
7.7541107480314961
 20
-4.2489497637795273
 30
0
 11
7.7577444488188974
 21
-4.2525834645669294
 31
0
  0
LINE
  5
C1
330
24
100
AcDbEntity
  8
B.Mask
  6
CONTINUOUS
100
AcDbLine
 10
7.7577444488188974
 20
-4.2525834645669294
 30
0
 11
7.7603138582677165
 21
-4.2570338188976375
 31
0
  0
LINE
  5
C2
330
24
100
AcDbEntity
  8
B.Mask
  6
CONTINUOUS
100
AcDbLine
 10
7.7603138582677165
 20
-4.2570338188976375
 30
0
 11
7.7616438582677167
 21
-4.2619975590551178
 31
0
  0
LINE
  5
C3
330
24
100
AcDbEntity
  8
B.Mask
  6
CONTINUOUS
100
AcDbLine
 10
7.7616438582677167
 20
-4.2619975590551178
 30
0
 11
7.7616438582677167
 21
-4.267136377952756
 31
0
  0
LINE
  5
C4
330
24
100
AcDbEntity
  8
B.Mask
  6
CONTINUOUS
100
AcDbLine
 10
7.7616438582677167
 20
-4.267136377952756
 30
0
 11
7.7603138582677165
 21
-4.2721001181102363
 31
0
  0
LINE
  5
C5
330
24
100
AcDbEntity
  8
B.Mask
  6
CONTINUOUS
100
AcDbLine
 10
7.7603138582677165
 20
-4.2721001181102363
 30
0
 11
7.7577444488188974
 21
-4.2765504724409444
 31
0
  0
LINE
  5
C6
330
24
100
AcDbEntity
  8
B.Mask
  6
CONTINUOUS
100
AcDbLine
 10
7.7577444488188974
 20
-4.2765504724409444
 30
0
 11
7.7541107480314961
 21
-4.2801841732283465
 31
0
  0
LINE
  5
C7
330
24
100
AcDbEntity
  8
B.Mask
  6
CONTINUOUS
100
AcDbLine
 10
7.7541107480314961
 20
-4.2801841732283465
 30
0
 11
7.7496603937007871
 21
-4.2827535826771657
 31
0
  0
LINE
  5
C8
330
24
100
AcDbEntity
  8
B.Mask
  6
CONTINUOUS
100
AcDbLine
 10
7.7496603937007871
 20
-4.2827535826771657
 30
0
 11
7.7446966535433068
 21
-4.284083582677165
 31
0
  0
LINE
  5
C9
330
24
100
AcDbEntity
  8
B.Mask
  6
CONTINUOUS
100
AcDbLine
 10
7.7446966535433068
 20
-4.284083582677165
 30
0
 11
7.7421272440944877
 21
-4.2842520078740156
 31
0
  0
LINE
  5
CA
330
24
100
AcDbEntity
  8
B.Mask
  6
CONTINUOUS
100
AcDbLine
 10
7.7421272440944877
 20
-4.2842520078740156
 30
0
 11
7.7106311811023618
 21
-4.2842520078740156
 31
0
  0
LINE
  5
CB
330
24
100
AcDbEntity
  8
B.Mask
  6
CONTINUOUS
100
AcDbLine
 10
7.7106311811023618
 20
-4.2842520078740156
 30
0
 11
7.7080617716535436
 21
-4.284083582677165
 31
0
  0
LINE
  5
CC
330
24
100
AcDbEntity
  8
B.Mask
  6
CONTINUOUS
100
AcDbLine
 10
7.7080617716535436
 20
-4.284083582677165
 30
0
 11
7.7030980314960624
 21
-4.2827535826771657
 31
0
  0
LINE
  5
CD
330
24
100
AcDbEntity
  8
B.Mask
  6
CONTINUOUS
100
AcDbLine
 10
7.7030980314960624
 20
-4.2827535826771657
 30
0
 11
7.6986476771653543
 21
-4.2801841732283465
 31
0
  0
LINE
  5
CE
330
24
100
AcDbEntity
  8
B.Mask
  6
CONTINUOUS
100
AcDbLine
 10
7.6986476771653543
 20
-4.2801841732283465
 30
0
 11
7.6950139763779521
 21
-4.2765504724409444
 31
0
  0
LINE
  5
CF
330
24
100
AcDbEntity
  8
B.Mask
  6
CONTINUOUS
100
AcDbLine
 10
7.6950139763779521
 20
-4.2765504724409444
 30
0
 11
7.6924445669291339
 21
-4.2721001181102363
 31
0
  0
LINE
  5
D0
330
24
100
AcDbEntity
  8
B.Mask
  6
CONTINUOUS
100
AcDbLine
 10
7.6924445669291339
 20
-4.2721001181102363
 30
0
 11
7.6911145669291336
 21
-4.267136377952756
 31
0
  0
LINE
  5
D1
330
24
100
AcDbEntity
  8
B.Mask
  6
CONTINUOUS
100
AcDbLine
 10
7.6911145669291336
 20
-4.267136377952756
 30
0
 11
7.6911145669291336
 21
-4.2619975590551178
 31
0
  0
LINE
  5
D2
330
24
100
AcDbEntity
  8
B.Mask
  6
CONTINUOUS
100
AcDbLine
 10
7.6911145669291336
 20
-4.2619975590551178
 30
0
 11
7.6924445669291339
 21
-4.2570338188976375
 31
0
  0
LINE
  5
D3
330
24
100
AcDbEntity
  8
B.Mask
  6
CONTINUOUS
100
AcDbLine
 10
7.6924445669291339
 20
-4.2570338188976375
 30
0
 11
7.6950139763779521
 21
-4.2525834645669294
 31
0
  0
LINE
  5
D4
330
24
100
AcDbEntity
  8
B.Mask
  6
CONTINUOUS
100
AcDbLine
 10
7.6950139763779521
 20
-4.2525834645669294
 30
0
 11
7.6986476771653543
 21
-4.2489497637795273
 31
0
  0
LINE
  5
D5
330
24
100
AcDbEntity
  8
B.Mask
  6
CONTINUOUS
100
AcDbLine
 10
7.6986476771653543
 20
-4.2489497637795273
 30
0
 11
7.7030980314960624
 21
-4.2463803543307082
 31
0
  0
LINE
  5
D6
330
24
100
AcDbEntity
  8
B.Mask
  6
CONTINUOUS
100
AcDbLine
 10
7.7030980314960624
 20
-4.2463803543307082
 30
0
 11
7.7080617716535436
 21
-4.2450503543307088
 31
0
  0
LINE
  5
D7
330
24
100
AcDbEntity
  8
B.Mask
  6
CONTINUOUS
100
AcDbLine
 10
7.7080617716535436
 20
-4.2450503543307088
 30
0
 11
7.7106311811023618
 21
-4.2448819291338582
 31
0
  0
LINE
  5
D8
330
24
100
AcDbEntity
  8
B.Mask
  6
CONTINUOUS
100
AcDbLine
 10
7.7106311811023618
 20
-4.2448819291338582
 30
0
 11
7.7421272440944877
 21
-4.2448819291338582
 31
0
  0
LINE
  5
D9
330
24
100
AcDbEntity
  8
B.Mask
  6
CONTINUOUS
100
AcDbLine
 10
7.7421272440944877
 20
-4.2448819291338582
 30
0
 11
7.7446966535433068
 21
-4.2450503543307088
 31
0
  0
LINE
  5
DA
330
24
100
AcDbEntity
  8
B.Mask
  6
CONTINUOUS
100
AcDbLine
 10
7.5911508267716536
 20
-3.9048939763779527
 30
0
 11
7.5961145669291339
 21
-3.9062239763779525
 31
0
  0
LINE
  5
DB
330
24
100
AcDbEntity
  8
B.Mask
  6
CONTINUOUS
100
AcDbLine
 10
7.5961145669291339
 20
-3.9062239763779525
 30
0
 11
7.6005649212598421
 21
-3.9087933858267716
 31
0
  0
LINE
  5
DC
330
24
100
AcDbEntity
  8
B.Mask
  6
CONTINUOUS
100
AcDbLine
 10
7.6005649212598421
 20
-3.9087933858267716
 30
0
 11
7.6041986220472442
 21
-3.9124270866141733
 31
0
  0
LINE
  5
DD
330
24
100
AcDbEntity
  8
B.Mask
  6
CONTINUOUS
100
AcDbLine
 10
7.6041986220472442
 20
-3.9124270866141733
 30
0
 11
7.6067680314960624
 21
-3.9168774409448819
 31
0
  0
LINE
  5
DE
330
24
100
AcDbEntity
  8
B.Mask
  6
CONTINUOUS
100
AcDbLine
 10
7.6067680314960624
 20
-3.9168774409448819
 30
0
 11
7.6080980314960627
 21
-3.9218411811023621
 31
0
  0
LINE
  5
DF
330
24
100
AcDbEntity
  8
B.Mask
  6
CONTINUOUS
100
AcDbLine
 10
7.6080980314960627
 20
-3.9218411811023621
 30
0
 11
7.6080980314960627
 21
-3.9269799999999999
 31
0
  0
LINE
  5
E0
330
24
100
AcDbEntity
  8
B.Mask
  6
CONTINUOUS
100
AcDbLine
 10
7.6080980314960627
 20
-3.9269799999999999
 30
0
 11
7.6067680314960624
 21
-3.9319437401574802
 31
0
  0
LINE
  5
E1
330
24
100
AcDbEntity
  8
B.Mask
  6
CONTINUOUS
100
AcDbLine
 10
7.6067680314960624
 20
-3.9319437401574802
 30
0
 11
7.6041986220472442
 21
-3.9363940944881888
 31
0
  0
LINE
  5
E2
330
24
100
AcDbEntity
  8
B.Mask
  6
CONTINUOUS
100
AcDbLine
 10
7.6041986220472442
 20
-3.9363940944881888
 30
0
 11
7.6005649212598421
 21
-3.9400277952755904
 31
0
  0
LINE
  5
E3
330
24
100
AcDbEntity
  8
B.Mask
  6
CONTINUOUS
100
AcDbLine
 10
7.6005649212598421
 20
-3.9400277952755904
 30
0
 11
7.5961145669291339
 21
-3.9425972047244096
 31
0
  0
LINE
  5
E4
330
24
100
AcDbEntity
  8
B.Mask
  6
CONTINUOUS
100
AcDbLine
 10
7.5961145669291339
 20
-3.9425972047244096
 30
0
 11
7.5911508267716536
 21
-3.9439272047244094
 31
0
  0
LINE
  5
E5
330
24
100
AcDbEntity
  8
B.Mask
  6
CONTINUOUS
100
AcDbLine
 10
7.5911508267716536
 20
-3.9439272047244094
 30
0
 11
7.5885814173228345
 21
-3.9440956299212599
 31
0
  0
LINE
  5
E6
330
24
100
AcDbEntity
  8
B.Mask
  6
CONTINUOUS
100
AcDbLine
 10
7.5885814173228345
 20
-3.9440956299212599
 30
0
 11
7.5570853543307086
 21
-3.9440956299212599
 31
0
  0
LINE
  5
E7
330
24
100
AcDbEntity
  8
B.Mask
  6
CONTINUOUS
100
AcDbLine
 10
7.5570853543307086
 20
-3.9440956299212599
 30
0
 11
7.5545159448818895
 21
-3.9439272047244094
 31
0
  0
LINE
  5
E8
330
24
100
AcDbEntity
  8
B.Mask
  6
CONTINUOUS
100
AcDbLine
 10
7.5545159448818895
 20
-3.9439272047244094
 30
0
 11
7.5495522047244092
 21
-3.9425972047244096
 31
0
  0
LINE
  5
E9
330
24
100
AcDbEntity
  8
B.Mask
  6
CONTINUOUS
100
AcDbLine
 10
7.5495522047244092
 20
-3.9425972047244096
 30
0
 11
7.5451018503937002
 21
-3.9400277952755904
 31
0
  0
LINE
  5
EA
330
24
100
AcDbEntity
  8
B.Mask
  6
CONTINUOUS
100
AcDbLine
 10
7.5451018503937002
 20
-3.9400277952755904
 30
0
 11
7.541468149606299
 21
-3.9363940944881888
 31
0
  0
LINE
  5
EB
330
24
100
AcDbEntity
  8
B.Mask
  6
CONTINUOUS
100
AcDbLine
 10
7.541468149606299
 20
-3.9363940944881888
 30
0
 11
7.5388987401574798
 21
-3.9319437401574802
 31
0
  0
LINE
  5
EC
330
24
100
AcDbEntity
  8
B.Mask
  6
CONTINUOUS
100
AcDbLine
 10
7.5388987401574798
 20
-3.9319437401574802
 30
0
 11
7.5375687401574805
 21
-3.9269799999999999
 31
0
  0
LINE
  5
ED
330
24
100
AcDbEntity
  8
B.Mask
  6
CONTINUOUS
100
AcDbLine
 10
7.5375687401574805
 20
-3.9269799999999999
 30
0
 11
7.5375687401574805
 21
-3.9218411811023621
 31
0
  0
LINE
  5
EE
330
24
100
AcDbEntity
  8
B.Mask
  6
CONTINUOUS
100
AcDbLine
 10
7.5375687401574805
 20
-3.9218411811023621
 30
0
 11
7.5388987401574798
 21
-3.9168774409448819
 31
0
  0
LINE
  5
EF
330
24
100
AcDbEntity
  8
B.Mask
  6
CONTINUOUS
100
AcDbLine
 10
7.5388987401574798
 20
-3.9168774409448819
 30
0
 11
7.541468149606299
 21
-3.9124270866141733
 31
0
  0
LINE
  5
F0
330
24
100
AcDbEntity
  8
B.Mask
  6
CONTINUOUS
100
AcDbLine
 10
7.541468149606299
 20
-3.9124270866141733
 30
0
 11
7.5451018503937002
 21
-3.9087933858267716
 31
0
  0
LINE
  5
F1
330
24
100
AcDbEntity
  8
B.Mask
  6
CONTINUOUS
100
AcDbLine
 10
7.5451018503937002
 20
-3.9087933858267716
 30
0
 11
7.5495522047244092
 21
-3.9062239763779525
 31
0
  0
LINE
  5
F2
330
24
100
AcDbEntity
  8
B.Mask
  6
CONTINUOUS
100
AcDbLine
 10
7.5495522047244092
 20
-3.9062239763779525
 30
0
 11
7.5545159448818895
 21
-3.9048939763779527
 31
0
  0
LINE
  5
F3
330
24
100
AcDbEntity
  8
B.Mask
  6
CONTINUOUS
100
AcDbLine
 10
7.5545159448818895
 20
-3.9048939763779527
 30
0
 11
7.5570853543307086
 21
-3.9047255511811021
 31
0
  0
LINE
  5
F4
330
24
100
AcDbEntity
  8
B.Mask
  6
CONTINUOUS
100
AcDbLine
 10
7.5570853543307086
 20
-3.9047255511811021
 30
0
 11
7.5885814173228345
 21
-3.9047255511811021
 31
0
  0
LINE
  5
F5
330
24
100
AcDbEntity
  8
B.Mask
  6
CONTINUOUS
100
AcDbLine
 10
7.5885814173228345
 20
-3.9047255511811021
 30
0
 11
7.5911508267716536
 21
-3.9048939763779527
 31
0
  0
LINE
  5
F6
330
24
100
AcDbEntity
  8
B.Mask
  6
CONTINUOUS
100
AcDbLine
 10
7.7486311417322833
 20
-3.9048928346456693
 30
0
 11
7.7535948818897635
 21
-3.9062228346456691
 31
0
  0
LINE
  5
F7
330
24
100
AcDbEntity
  8
B.Mask
  6
CONTINUOUS
100
AcDbLine
 10
7.7535948818897635
 20
-3.9062228346456691
 30
0
 11
7.7580452362204726
 21
-3.9087922440944882
 31
0
  0
LINE
  5
F8
330
24
100
AcDbEntity
  8
B.Mask
  6
CONTINUOUS
100
AcDbLine
 10
7.7580452362204726
 20
-3.9087922440944882
 30
0
 11
7.7616789370078738
 21
-3.9124259448818899
 31
0
  0
LINE
  5
F9
330
24
100
AcDbEntity
  8
B.Mask
  6
CONTINUOUS
100
AcDbLine
 10
7.7616789370078738
 20
-3.9124259448818899
 30
0
 11
7.7642483464566929
 21
-3.9168762992125985
 31
0
  0
LINE
  5
FA
330
24
100
AcDbEntity
  8
B.Mask
  6
CONTINUOUS
100
AcDbLine
 10
7.7642483464566929
 20
-3.9168762992125985
 30
0
 11
7.7655783464566923
 21
-3.9218400393700787
 31
0
  0
LINE
  5
FB
330
24
100
AcDbEntity
  8
B.Mask
  6
CONTINUOUS
100
AcDbLine
 10
7.7655783464566923
 20
-3.9218400393700787
 30
0
 11
7.7655783464566923
 21
-3.9269788582677165
 31
0
  0
LINE
  5
FC
330
24
100
AcDbEntity
  8
B.Mask
  6
CONTINUOUS
100
AcDbLine
 10
7.7655783464566923
 20
-3.9269788582677165
 30
0
 11
7.7642483464566929
 21
-3.9319425984251968
 31
0
  0
LINE
  5
FD
330
24
100
AcDbEntity
  8
B.Mask
  6
CONTINUOUS
100
AcDbLine
 10
7.7642483464566929
 20
-3.9319425984251968
 30
0
 11
7.7616789370078738
 21
-3.9363929527559054
 31
0
  0
LINE
  5
FE
330
24
100
AcDbEntity
  8
B.Mask
  6
CONTINUOUS
100
AcDbLine
 10
7.7616789370078738
 20
-3.9363929527559054
 30
0
 11
7.7580452362204726
 21
-3.9400266535433071
 31
0
  0
LINE
  5
FF
330
24
100
AcDbEntity
  8
B.Mask
  6
CONTINUOUS
100
AcDbLine
 10
7.7580452362204726
 20
-3.9400266535433071
 30
0
 11
7.7535948818897635
 21
-3.9425960629921257
 31
0
  0
LINE
  5
100
330
24
100
AcDbEntity
  8
B.Mask
  6
CONTINUOUS
100
AcDbLine
 10
7.7535948818897635
 20
-3.9425960629921257
 30
0
 11
7.7486311417322833
 21
-3.943926062992126
 31
0
  0
LINE
  5
101
330
24
100
AcDbEntity
  8
B.Mask
  6
CONTINUOUS
100
AcDbLine
 10
7.7486311417322833
 20
-3.943926062992126
 30
0
 11
7.7460617322834642
 21
-3.9440944881889761
 31
0
  0
LINE
  5
102
330
24
100
AcDbEntity
  8
B.Mask
  6
CONTINUOUS
100
AcDbLine
 10
7.7460617322834642
 20
-3.9440944881889761
 30
0
 11
7.7145656692913382
 21
-3.9440944881889761
 31
0
  0
LINE
  5
103
330
24
100
AcDbEntity
  8
B.Mask
  6
CONTINUOUS
100
AcDbLine
 10
7.7145656692913382
 20
-3.9440944881889761
 30
0
 11
7.7119962598425191
 21
-3.943926062992126
 31
0
  0
LINE
  5
104
330
24
100
AcDbEntity
  8
B.Mask
  6
CONTINUOUS
100
AcDbLine
 10
7.7119962598425191
 20
-3.943926062992126
 30
0
 11
7.7070325196850389
 21
-3.9425960629921257
 31
0
  0
LINE
  5
105
330
24
100
AcDbEntity
  8
B.Mask
  6
CONTINUOUS
100
AcDbLine
 10
7.7070325196850389
 20
-3.9425960629921257
 30
0
 11
7.7025821653543307
 21
-3.9400266535433071
 31
0
  0
LINE
  5
106
330
24
100
AcDbEntity
  8
B.Mask
  6
CONTINUOUS
100
AcDbLine
 10
7.7025821653543307
 20
-3.9400266535433071
 30
0
 11
7.6989484645669286
 21
-3.9363929527559054
 31
0
  0
LINE
  5
107
330
24
100
AcDbEntity
  8
B.Mask
  6
CONTINUOUS
100
AcDbLine
 10
7.6989484645669286
 20
-3.9363929527559054
 30
0
 11
7.6963790551181104
 21
-3.9319425984251968
 31
0
  0
LINE
  5
108
330
24
100
AcDbEntity
  8
B.Mask
  6
CONTINUOUS
100
AcDbLine
 10
7.6963790551181104
 20
-3.9319425984251968
 30
0
 11
7.6950490551181101
 21
-3.9269788582677165
 31
0
  0
LINE
  5
109
330
24
100
AcDbEntity
  8
B.Mask
  6
CONTINUOUS
100
AcDbLine
 10
7.6950490551181101
 20
-3.9269788582677165
 30
0
 11
7.6950490551181101
 21
-3.9218400393700787
 31
0
  0
LINE
  5
10A
330
24
100
AcDbEntity
  8
B.Mask
  6
CONTINUOUS
100
AcDbLine
 10
7.6950490551181101
 20
-3.9218400393700787
 30
0
 11
7.6963790551181104
 21
-3.9168762992125985
 31
0
  0
LINE
  5
10B
330
24
100
AcDbEntity
  8
B.Mask
  6
CONTINUOUS
100
AcDbLine
 10
7.6963790551181104
 20
-3.9168762992125985
 30
0
 11
7.6989484645669286
 21
-3.9124259448818899
 31
0
  0
LINE
  5
10C
330
24
100
AcDbEntity
  8
B.Mask
  6
CONTINUOUS
100
AcDbLine
 10
7.6989484645669286
 20
-3.9124259448818899
 30
0
 11
7.7025821653543307
 21
-3.9087922440944882
 31
0
  0
LINE
  5
10D
330
24
100
AcDbEntity
  8
B.Mask
  6
CONTINUOUS
100
AcDbLine
 10
7.7025821653543307
 20
-3.9087922440944882
 30
0
 11
7.7070325196850389
 21
-3.9062228346456691
 31
0
  0
LINE
  5
10E
330
24
100
AcDbEntity
  8
B.Mask
  6
CONTINUOUS
100
AcDbLine
 10
7.7070325196850389
 20
-3.9062228346456691
 30
0
 11
7.7119962598425191
 21
-3.9048928346456693
 31
0
  0
LINE
  5
10F
330
24
100
AcDbEntity
  8
B.Mask
  6
CONTINUOUS
100
AcDbLine
 10
7.7119962598425191
 20
-3.9048928346456693
 30
0
 11
7.7145656692913382
 21
-3.9047244094488187
 31
0
  0
LINE
  5
110
330
24
100
AcDbEntity
  8
B.Mask
  6
CONTINUOUS
100
AcDbLine
 10
7.7145656692913382
 20
-3.9047244094488187
 30
0
 11
7.7460617322834642
 21
-3.9047244094488187
 31
0
  0
LINE
  5
111
330
24
100
AcDbEntity
  8
B.Mask
  6
CONTINUOUS
100
AcDbLine
 10
7.7460617322834642
 20
-3.9047244094488187
 30
0
 11
7.7486311417322833
 21
-3.9048928346456693
 31
0
  0
LINE
  5
112
330
24
100
AcDbEntity
  8
B.Mask
  6
CONTINUOUS
100
AcDbLine
 10
4.5837335433070869
 20
-3.6393167716535433
 30
0
 11
4.591959251968504
 21
-3.6419894881889765
 31
0
  0
LINE
  5
113
330
24
100
AcDbEntity
  8
B.Mask
  6
CONTINUOUS
100
AcDbLine
 10
4.591959251968504
 20
-3.6419894881889765
 30
0
 11
4.5996655905511812
 21
-3.6459160629921259
 31
0
  0
LINE
  5
114
330
24
100
AcDbEntity
  8
B.Mask
  6
CONTINUOUS
100
AcDbLine
 10
4.5996655905511812
 20
-3.6459160629921259
 30
0
 11
4.6066627952755903
 21
-3.6509998425196848
 31
0
  0
LINE
  5
115
330
24
100
AcDbEntity
  8
B.Mask
  6
CONTINUOUS
100
AcDbLine
 10
4.6066627952755903
 20
-3.6509998425196848
 30
0
 11
4.6127785826771657
 21
-3.6571156299212597
 31
0
  0
LINE
  5
116
330
24
100
AcDbEntity
  8
B.Mask
  6
CONTINUOUS
100
AcDbLine
 10
4.6127785826771657
 20
-3.6571156299212597
 30
0
 11
4.6178623622047246
 21
-3.6641128346456693
 31
0
  0
LINE
  5
117
330
24
100
AcDbEntity
  8
B.Mask
  6
CONTINUOUS
100
AcDbLine
 10
4.6178623622047246
 20
-3.6641128346456693
 30
0
 11
4.6217889370078735
 21
-3.6718191732283465
 31
0
  0
LINE
  5
118
330
24
100
AcDbEntity
  8
B.Mask
  6
CONTINUOUS
100
AcDbLine
 10
4.6217889370078735
 20
-3.6718191732283465
 30
0
 11
4.6244616535433067
 21
-3.6800448818897635
 31
0
  0
LINE
  5
119
330
24
100
AcDbEntity
  8
B.Mask
  6
CONTINUOUS
100
AcDbLine
 10
4.6244616535433067
 20
-3.6800448818897635
 30
0
 11
4.6258146456692915
 21
-3.688587440944882
 31
0
  0
LINE
  5
11A
330
24
100
AcDbEntity
  8
B.Mask
  6
CONTINUOUS
100
AcDbLine
 10
4.6258146456692915
 20
-3.688587440944882
 30
0
 11
4.6258146456692915
 21
-3.6972364960629922
 31
0
  0
LINE
  5
11B
330
24
100
AcDbEntity
  8
B.Mask
  6
CONTINUOUS
100
AcDbLine
 10
4.6258146456692915
 20
-3.6972364960629922
 30
0
 11
4.6244616535433067
 21
-3.7057790551181102
 31
0
  0
LINE
  5
11C
330
24
100
AcDbEntity
  8
B.Mask
  6
CONTINUOUS
100
AcDbLine
 10
4.6244616535433067
 20
-3.7057790551181102
 30
0
 11
4.6217889370078735
 21
-3.7140047637795273
 31
0
  0
LINE
  5
11D
330
24
100
AcDbEntity
  8
B.Mask
  6
CONTINUOUS
100
AcDbLine
 10
4.6217889370078735
 20
-3.7140047637795273
 30
0
 11
4.6178623622047246
 21
-3.7217111023622045
 31
0
  0
LINE
  5
11E
330
24
100
AcDbEntity
  8
B.Mask
  6
CONTINUOUS
100
AcDbLine
 10
4.6178623622047246
 20
-3.7217111023622045
 30
0
 11
4.6127785826771657
 21
-3.728708307086614
 31
0
  0
LINE
  5
11F
330
24
100
AcDbEntity
  8
B.Mask
  6
CONTINUOUS
100
AcDbLine
 10
4.6127785826771657
 20
-3.728708307086614
 30
0
 11
4.6066627952755903
 21
-3.734824094488189
 31
0
  0
LINE
  5
120
330
24
100
AcDbEntity
  8
B.Mask
  6
CONTINUOUS
100
AcDbLine
 10
4.6066627952755903
 20
-3.734824094488189
 30
0
 11
4.5996655905511812
 21
-3.7399078740157479
 31
0
  0
LINE
  5
121
330
24
100
AcDbEntity
  8
B.Mask
  6
CONTINUOUS
100
AcDbLine
 10
4.5996655905511812
 20
-3.7399078740157479
 30
0
 11
4.591959251968504
 21
-3.7438344488188977
 31
0
  0
LINE
  5
122
330
24
100
AcDbEntity
  8
B.Mask
  6
CONTINUOUS
100
AcDbLine
 10
4.591959251968504
 20
-3.7438344488188977
 30
0
 11
4.5837335433070869
 21
-3.7465071653543305
 31
0
  0
LINE
  5
123
330
24
100
AcDbEntity
  8
B.Mask
  6
CONTINUOUS
100
AcDbLine
 10
4.5837335433070869
 20
-3.7465071653543305
 30
0
 11
4.575190984251968
 21
-3.7478601574803148
 31
0
  0
LINE
  5
124
330
24
100
AcDbEntity
  8
B.Mask
  6
CONTINUOUS
100
AcDbLine
 10
4.575190984251968
 20
-3.7478601574803148
 30
0
 11
4.5665419291338578
 21
-3.7478601574803148
 31
0
  0
LINE
  5
125
330
24
100
AcDbEntity
  8
B.Mask
  6
CONTINUOUS
100
AcDbLine
 10
4.5665419291338578
 20
-3.7478601574803148
 30
0
 11
4.5579993700787398
 21
-3.7465071653543305
 31
0
  0
LINE
  5
126
330
24
100
AcDbEntity
  8
B.Mask
  6
CONTINUOUS
100
AcDbLine
 10
4.5579993700787398
 20
-3.7465071653543305
 30
0
 11
4.5497736614173228
 21
-3.7438344488188977
 31
0
  0
LINE
  5
127
330
24
100
AcDbEntity
  8
B.Mask
  6
CONTINUOUS
100
AcDbLine
 10
4.5497736614173228
 20
-3.7438344488188977
 30
0
 11
4.5420673228346455
 21
-3.7399078740157479
 31
0
  0
LINE
  5
128
330
24
100
AcDbEntity
  8
B.Mask
  6
CONTINUOUS
100
AcDbLine
 10
4.5420673228346455
 20
-3.7399078740157479
 30
0
 11
4.5350701181102364
 21
-3.734824094488189
 31
0
  0
LINE
  5
129
330
24
100
AcDbEntity
  8
B.Mask
  6
CONTINUOUS
100
AcDbLine
 10
4.5350701181102364
 20
-3.734824094488189
 30
0
 11
4.528954330708661
 21
-3.728708307086614
 31
0
  0
LINE
  5
12A
330
24
100
AcDbEntity
  8
B.Mask
  6
CONTINUOUS
100
AcDbLine
 10
4.528954330708661
 20
-3.728708307086614
 30
0
 11
4.5238705511811022
 21
-3.7217111023622045
 31
0
  0
LINE
  5
12B
330
24
100
AcDbEntity
  8
B.Mask
  6
CONTINUOUS
100
AcDbLine
 10
4.5238705511811022
 20
-3.7217111023622045
 30
0
 11
4.5199439763779523
 21
-3.7140047637795273
 31
0
  0
LINE
  5
12C
330
24
100
AcDbEntity
  8
B.Mask
  6
CONTINUOUS
100
AcDbLine
 10
4.5199439763779523
 20
-3.7140047637795273
 30
0
 11
4.51727125984252
 21
-3.7057790551181102
 31
0
  0
LINE
  5
12D
330
24
100
AcDbEntity
  8
B.Mask
  6
CONTINUOUS
100
AcDbLine
 10
4.51727125984252
 20
-3.7057790551181102
 30
0
 11
4.5159182677165353
 21
-3.6972364960629922
 31
0
  0
LINE
  5
12E
330
24
100
AcDbEntity
  8
B.Mask
  6
CONTINUOUS
100
AcDbLine
 10
4.5159182677165353
 20
-3.6972364960629922
 30
0
 11
4.5159182677165353
 21
-3.688587440944882
 31
0
  0
LINE
  5
12F
330
24
100
AcDbEntity
  8
B.Mask
  6
CONTINUOUS
100
AcDbLine
 10
4.5159182677165353
 20
-3.688587440944882
 30
0
 11
4.51727125984252
 21
-3.6800448818897635
 31
0
  0
LINE
  5
130
330
24
100
AcDbEntity
  8
B.Mask
  6
CONTINUOUS
100
AcDbLine
 10
4.51727125984252
 20
-3.6800448818897635
 30
0
 11
4.5199439763779523
 21
-3.6718191732283465
 31
0
  0
LINE
  5
131
330
24
100
AcDbEntity
  8
B.Mask
  6
CONTINUOUS
100
AcDbLine
 10
4.5199439763779523
 20
-3.6718191732283465
 30
0
 11
4.5238705511811022
 21
-3.6641128346456693
 31
0
  0
LINE
  5
132
330
24
100
AcDbEntity
  8
B.Mask
  6
CONTINUOUS
100
AcDbLine
 10
4.5238705511811022
 20
-3.6641128346456693
 30
0
 11
4.528954330708661
 21
-3.6571156299212597
 31
0
  0
LINE
  5
133
330
24
100
AcDbEntity
  8
B.Mask
  6
CONTINUOUS
100
AcDbLine
 10
4.528954330708661
 20
-3.6571156299212597
 30
0
 11
4.5350701181102364
 21
-3.6509998425196848
 31
0
  0
LINE
  5
134
330
24
100
AcDbEntity
  8
B.Mask
  6
CONTINUOUS
100
AcDbLine
 10
4.5350701181102364
 20
-3.6509998425196848
 30
0
 11
4.5420673228346455
 21
-3.6459160629921259
 31
0
  0
LINE
  5
135
330
24
100
AcDbEntity
  8
B.Mask
  6
CONTINUOUS
100
AcDbLine
 10
4.5420673228346455
 20
-3.6459160629921259
 30
0
 11
4.5497736614173228
 21
-3.6419894881889765
 31
0
  0
LINE
  5
136
330
24
100
AcDbEntity
  8
B.Mask
  6
CONTINUOUS
100
AcDbLine
 10
4.5497736614173228
 20
-3.6419894881889765
 30
0
 11
4.5579993700787398
 21
-3.6393167716535433
 31
0
  0
LINE
  5
137
330
24
100
AcDbEntity
  8
B.Mask
  6
CONTINUOUS
100
AcDbLine
 10
4.5579993700787398
 20
-3.6393167716535433
 30
0
 11
4.5665419291338578
 21
-3.637963779527559
 31
0
  0
LINE
  5
138
330
24
100
AcDbEntity
  8
B.Mask
  6
CONTINUOUS
100
AcDbLine
 10
4.5665419291338578
 20
-3.637963779527559
 30
0
 11
4.575190984251968
 21
-3.637963779527559
 31
0
  0
LINE
  5
139
330
24
100
AcDbEntity
  8
B.Mask
  6
CONTINUOUS
100
AcDbLine
 10
4.575190984251968
 20
-3.637963779527559
 30
0
 11
4.5837335433070869
 21
-3.6393167716535433
 31
0
  0
LINE
  5
13A
330
24
100
AcDbEntity
  8
B.Mask
  6
CONTINUOUS
100
AcDbLine
 10
6.3307086614173222
 20
-3.6929133858267718
 30
0
 11
6.228346456692913
 21
-3.6929133858267718
 31
0
  0
LINE
  5
13B
330
24
100
AcDbEntity
  8
B.Mask
  6
CONTINUOUS
100
AcDbLine
 10
6.228346456692913
 20
-3.6929133858267718
 30
0
 11
6.228346456692913
 21
-3.6299212598425195
 31
0
  0
LINE
  5
13C
330
24
100
AcDbEntity
  8
B.Mask
  6
CONTINUOUS
100
AcDbLine
 10
6.228346456692913
 20
-3.6299212598425195
 30
0
 11
6.3307086614173222
 21
-3.6299212598425195
 31
0
  0
LINE
  5
13D
330
24
100
AcDbEntity
  8
B.Mask
  6
CONTINUOUS
100
AcDbLine
 10
6.3307086614173222
 20
-3.6299212598425195
 30
0
 11
6.3307086614173222
 21
-3.6929133858267718
 31
0
  0
LINE
  5
13E
330
24
100
AcDbEntity
  8
B.Mask
  6
CONTINUOUS
100
AcDbLine
 10
4.8868098818897634
 20
-3.5141070472440945
 30
0
 11
4.8923359055118105
 21
-3.5163960236220473
 31
0
  0
LINE
  5
13F
330
24
100
AcDbEntity
  8
B.Mask
  6
CONTINUOUS
100
AcDbLine
 10
4.8923359055118105
 20
-3.5163960236220473
 30
0
 11
4.8973092519685038
 21
-3.5197190944881891
 31
0
  0
LINE
  5
140
330
24
100
AcDbEntity
  8
B.Mask
  6
CONTINUOUS
100
AcDbLine
 10
4.8973092519685038
 20
-3.5197190944881891
 30
0
 11
4.9015387007874018
 21
-3.5239485433070867
 31
0
  0
LINE
  5
141
330
24
100
AcDbEntity
  8
B.Mask
  6
CONTINUOUS
100
AcDbLine
 10
4.9015387007874018
 20
-3.5239485433070867
 30
0
 11
4.9048617716535432
 21
-3.5289218897637795
 31
0
  0
LINE
  5
142
330
24
100
AcDbEntity
  8
B.Mask
  6
CONTINUOUS
100
AcDbLine
 10
4.9048617716535432
 20
-3.5289218897637795
 30
0
 11
4.907150748031496
 21
-3.5344479133858266
 31
0
  0
LINE
  5
143
330
24
100
AcDbEntity
  8
B.Mask
  6
CONTINUOUS
100
AcDbLine
 10
4.907150748031496
 20
-3.5344479133858266
 30
0
 11
4.9083176377952755
 21
-3.5403143700787401
 31
0
  0
LINE
  5
144
330
24
100
AcDbEntity
  8
B.Mask
  6
CONTINUOUS
100
AcDbLine
 10
4.9083176377952755
 20
-3.5403143700787401
 30
0
 11
4.9083176377952755
 21
-3.5462957086614173
 31
0
  0
LINE
  5
145
330
24
100
AcDbEntity
  8
B.Mask
  6
CONTINUOUS
100
AcDbLine
 10
4.9083176377952755
 20
-3.5462957086614173
 30
0
 11
4.907150748031496
 21
-3.5521621653543307
 31
0
  0
LINE
  5
146
330
24
100
AcDbEntity
  8
B.Mask
  6
CONTINUOUS
100
AcDbLine
 10
4.907150748031496
 20
-3.5521621653543307
 30
0
 11
4.9048617716535432
 21
-3.5576881889763778
 31
0
  0
LINE
  5
147
330
24
100
AcDbEntity
  8
B.Mask
  6
CONTINUOUS
100
AcDbLine
 10
4.9048617716535432
 20
-3.5576881889763778
 30
0
 11
4.9015387007874018
 21
-3.5626615354330706
 31
0
  0
LINE
  5
148
330
24
100
AcDbEntity
  8
B.Mask
  6
CONTINUOUS
100
AcDbLine
 10
4.9015387007874018
 20
-3.5626615354330706
 30
0
 11
4.8973092519685038
 21
-3.5668909842519683
 31
0
  0
LINE
  5
149
330
24
100
AcDbEntity
  8
B.Mask
  6
CONTINUOUS
100
AcDbLine
 10
4.8973092519685038
 20
-3.5668909842519683
 30
0
 11
4.8923359055118105
 21
-3.5702140551181101
 31
0
  0
LINE
  5
14A
330
24
100
AcDbEntity
  8
B.Mask
  6
CONTINUOUS
100
AcDbLine
 10
4.8923359055118105
 20
-3.5702140551181101
 30
0
 11
4.8868098818897634
 21
-3.5725030314960629
 31
0
  0
LINE
  5
14B
330
24
100
AcDbEntity
  8
B.Mask
  6
CONTINUOUS
100
AcDbLine
 10
4.8868098818897634
 20
-3.5725030314960629
 30
0
 11
4.8809434251968504
 21
-3.5736699212598424
 31
0
  0
LINE
  5
14C
330
24
100
AcDbEntity
  8
B.Mask
  6
CONTINUOUS
100
AcDbLine
 10
4.8809434251968504
 20
-3.5736699212598424
 30
0
 11
4.8749620866141727
 21
-3.5736699212598424
 31
0
  0
LINE
  5
14D
330
24
100
AcDbEntity
  8
B.Mask
  6
CONTINUOUS
100
AcDbLine
 10
4.8749620866141727
 20
-3.5736699212598424
 30
0
 11
4.8690956299212598
 21
-3.5725030314960629
 31
0
  0
LINE
  5
14E
330
24
100
AcDbEntity
  8
B.Mask
  6
CONTINUOUS
100
AcDbLine
 10
4.8690956299212598
 20
-3.5725030314960629
 30
0
 11
4.8635696062992126
 21
-3.5702140551181101
 31
0
  0
LINE
  5
14F
330
24
100
AcDbEntity
  8
B.Mask
  6
CONTINUOUS
100
AcDbLine
 10
4.8635696062992126
 20
-3.5702140551181101
 30
0
 11
4.8585962598425194
 21
-3.5668909842519683
 31
0
  0
LINE
  5
150
330
24
100
AcDbEntity
  8
B.Mask
  6
CONTINUOUS
100
AcDbLine
 10
4.8585962598425194
 20
-3.5668909842519683
 30
0
 11
4.8543668110236222
 21
-3.5626615354330706
 31
0
  0
LINE
  5
151
330
24
100
AcDbEntity
  8
B.Mask
  6
CONTINUOUS
100
AcDbLine
 10
4.8543668110236222
 20
-3.5626615354330706
 30
0
 11
4.85104374015748
 21
-3.5576881889763778
 31
0
  0
LINE
  5
152
330
24
100
AcDbEntity
  8
B.Mask
  6
CONTINUOUS
100
AcDbLine
 10
4.85104374015748
 20
-3.5576881889763778
 30
0
 11
4.8487547637795272
 21
-3.5521621653543307
 31
0
  0
LINE
  5
153
330
24
100
AcDbEntity
  8
B.Mask
  6
CONTINUOUS
100
AcDbLine
 10
4.8487547637795272
 20
-3.5521621653543307
 30
0
 11
4.8475878740157476
 21
-3.5462957086614173
 31
0
  0
LINE
  5
154
330
24
100
AcDbEntity
  8
B.Mask
  6
CONTINUOUS
100
AcDbLine
 10
4.8475878740157476
 20
-3.5462957086614173
 30
0
 11
4.8475878740157476
 21
-3.5403143700787401
 31
0
  0
LINE
  5
155
330
24
100
AcDbEntity
  8
B.Mask
  6
CONTINUOUS
100
AcDbLine
 10
4.8475878740157476
 20
-3.5403143700787401
 30
0
 11
4.8487547637795272
 21
-3.5344479133858266
 31
0
  0
LINE
  5
156
330
24
100
AcDbEntity
  8
B.Mask
  6
CONTINUOUS
100
AcDbLine
 10
4.8487547637795272
 20
-3.5344479133858266
 30
0
 11
4.85104374015748
 21
-3.5289218897637795
 31
0
  0
LINE
  5
157
330
24
100
AcDbEntity
  8
B.Mask
  6
CONTINUOUS
100
AcDbLine
 10
4.85104374015748
 20
-3.5289218897637795
 30
0
 11
4.8543668110236222
 21
-3.5239485433070867
 31
0
  0
LINE
  5
158
330
24
100
AcDbEntity
  8
B.Mask
  6
CONTINUOUS
100
AcDbLine
 10
4.8543668110236222
 20
-3.5239485433070867
 30
0
 11
4.8585962598425194
 21
-3.5197190944881891
 31
0
  0
LINE
  5
159
330
24
100
AcDbEntity
  8
B.Mask
  6
CONTINUOUS
100
AcDbLine
 10
4.8585962598425194
 20
-3.5197190944881891
 30
0
 11
4.8635696062992126
 21
-3.5163960236220473
 31
0
  0
LINE
  5
15A
330
24
100
AcDbEntity
  8
B.Mask
  6
CONTINUOUS
100
AcDbLine
 10
4.8635696062992126
 20
-3.5163960236220473
 30
0
 11
4.8690956299212598
 21
-3.5141070472440945
 31
0
  0
LINE
  5
15B
330
24
100
AcDbEntity
  8
B.Mask
  6
CONTINUOUS
100
AcDbLine
 10
4.8690956299212598
 20
-3.5141070472440945
 30
0
 11
4.8749620866141727
 21
-3.512940157480315
 31
0
  0
LINE
  5
15C
330
24
100
AcDbEntity
  8
B.Mask
  6
CONTINUOUS
100
AcDbLine
 10
4.8749620866141727
 20
-3.512940157480315
 30
0
 11
4.8809434251968504
 21
-3.512940157480315
 31
0
  0
LINE
  5
15D
330
24
100
AcDbEntity
  8
B.Mask
  6
CONTINUOUS
100
AcDbLine
 10
4.8809434251968504
 20
-3.512940157480315
 30
0
 11
4.8868098818897634
 21
-3.5141070472440945
 31
0
  0
LINE
  5
15E
330
24
100
AcDbEntity
  8
B.Mask
  6
CONTINUOUS
100
AcDbLine
 10
4.5837329133858269
 20
-3.3401041732283465
 30
0
 11
4.5919586220472439
 21
-3.3427768897637793
 31
0
  0
LINE
  5
15F
330
24
100
AcDbEntity
  8
B.Mask
  6
CONTINUOUS
100
AcDbLine
 10
4.5919586220472439
 20
-3.3427768897637793
 30
0
 11
4.5996649606299211
 21
-3.3467034645669291
 31
0
  0
LINE
  5
160
330
24
100
AcDbEntity
  8
B.Mask
  6
CONTINUOUS
100
AcDbLine
 10
4.5996649606299211
 20
-3.3467034645669291
 30
0
 11
4.6066621653543303
 21
-3.351787244094488
 31
0
  0
LINE
  5
161
330
24
100
AcDbEntity
  8
B.Mask
  6
CONTINUOUS
100
AcDbLine
 10
4.6066621653543303
 20
-3.351787244094488
 30
0
 11
4.6127779527559056
 21
-3.357903031496063
 31
0
  0
LINE
  5
162
330
24
100
AcDbEntity
  8
B.Mask
  6
CONTINUOUS
100
AcDbLine
 10
4.6127779527559056
 20
-3.357903031496063
 30
0
 11
4.6178617322834645
 21
-3.3649002362204725
 31
0
  0
LINE
  5
163
330
24
100
AcDbEntity
  8
B.Mask
  6
CONTINUOUS
100
AcDbLine
 10
4.6178617322834645
 20
-3.3649002362204725
 30
0
 11
4.6217883070866144
 21
-3.3726065748031497
 31
0
  0
LINE
  5
164
330
24
100
AcDbEntity
  8
B.Mask
  6
CONTINUOUS
100
AcDbLine
 10
4.6217883070866144
 20
-3.3726065748031497
 30
0
 11
4.6244610236220467
 21
-3.3808322834645668
 31
0
  0
LINE
  5
165
330
24
100
AcDbEntity
  8
B.Mask
  6
CONTINUOUS
100
AcDbLine
 10
4.6244610236220467
 20
-3.3808322834645668
 30
0
 11
4.6258140157480314
 21
-3.3893748425196848
 31
0
  0
LINE
  5
166
330
24
100
AcDbEntity
  8
B.Mask
  6
CONTINUOUS
100
AcDbLine
 10
4.6258140157480314
 20
-3.3893748425196848
 30
0
 11
4.6258140157480314
 21
-3.398023897637795
 31
0
  0
LINE
  5
167
330
24
100
AcDbEntity
  8
B.Mask
  6
CONTINUOUS
100
AcDbLine
 10
4.6258140157480314
 20
-3.398023897637795
 30
0
 11
4.6244610236220467
 21
-3.4065664566929135
 31
0
  0
LINE
  5
168
330
24
100
AcDbEntity
  8
B.Mask
  6
CONTINUOUS
100
AcDbLine
 10
4.6244610236220467
 20
-3.4065664566929135
 30
0
 11
4.6217883070866144
 21
-3.4147921653543305
 31
0
  0
LINE
  5
169
330
24
100
AcDbEntity
  8
B.Mask
  6
CONTINUOUS
100
AcDbLine
 10
4.6217883070866144
 20
-3.4147921653543305
 30
0
 11
4.6178617322834645
 21
-3.4224985039370077
 31
0
  0
LINE
  5
16A
330
24
100
AcDbEntity
  8
B.Mask
  6
CONTINUOUS
100
AcDbLine
 10
4.6178617322834645
 20
-3.4224985039370077
 30
0
 11
4.6127779527559056
 21
-3.4294957086614173
 31
0
  0
LINE
  5
16B
330
24
100
AcDbEntity
  8
B.Mask
  6
CONTINUOUS
100
AcDbLine
 10
4.6127779527559056
 20
-3.4294957086614173
 30
0
 11
4.6066621653543303
 21
-3.4356114960629922
 31
0
  0
LINE
  5
16C
330
24
100
AcDbEntity
  8
B.Mask
  6
CONTINUOUS
100
AcDbLine
 10
4.6066621653543303
 20
-3.4356114960629922
 30
0
 11
4.5996649606299211
 21
-3.4406952755905511
 31
0
  0
LINE
  5
16D
330
24
100
AcDbEntity
  8
B.Mask
  6
CONTINUOUS
100
AcDbLine
 10
4.5996649606299211
 20
-3.4406952755905511
 30
0
 11
4.5919586220472439
 21
-3.4446218503937005
 31
0
  0
LINE
  5
16E
330
24
100
AcDbEntity
  8
B.Mask
  6
CONTINUOUS
100
AcDbLine
 10
4.5919586220472439
 20
-3.4446218503937005
 30
0
 11
4.5837329133858269
 21
-3.4472945669291337
 31
0
  0
LINE
  5
16F
330
24
100
AcDbEntity
  8
B.Mask
  6
CONTINUOUS
100
AcDbLine
 10
4.5837329133858269
 20
-3.4472945669291337
 30
0
 11
4.5751903543307089
 21
-3.448647559055118
 31
0
  0
LINE
  5
170
330
24
100
AcDbEntity
  8
B.Mask
  6
CONTINUOUS
100
AcDbLine
 10
4.5751903543307089
 20
-3.448647559055118
 30
0
 11
4.5665412992125987
 21
-3.448647559055118
 31
0
  0
LINE
  5
171
330
24
100
AcDbEntity
  8
B.Mask
  6
CONTINUOUS
100
AcDbLine
 10
4.5665412992125987
 20
-3.448647559055118
 30
0
 11
4.5579987401574806
 21
-3.4472945669291337
 31
0
  0
LINE
  5
172
330
24
100
AcDbEntity
  8
B.Mask
  6
CONTINUOUS
100
AcDbLine
 10
4.5579987401574806
 20
-3.4472945669291337
 30
0
 11
4.5497730314960627
 21
-3.4446218503937005
 31
0
  0
LINE
  5
173
330
24
100
AcDbEntity
  8
B.Mask
  6
CONTINUOUS
100
AcDbLine
 10
4.5497730314960627
 20
-3.4446218503937005
 30
0
 11
4.5420666929133855
 21
-3.4406952755905511
 31
0
  0
LINE
  5
174
330
24
100
AcDbEntity
  8
B.Mask
  6
CONTINUOUS
100
AcDbLine
 10
4.5420666929133855
 20
-3.4406952755905511
 30
0
 11
4.5350694881889764
 21
-3.4356114960629922
 31
0
  0
LINE
  5
175
330
24
100
AcDbEntity
  8
B.Mask
  6
CONTINUOUS
100
AcDbLine
 10
4.5350694881889764
 20
-3.4356114960629922
 30
0
 11
4.5289537007874019
 21
-3.4294957086614173
 31
0
  0
LINE
  5
176
330
24
100
AcDbEntity
  8
B.Mask
  6
CONTINUOUS
100
AcDbLine
 10
4.5289537007874019
 20
-3.4294957086614173
 30
0
 11
4.5238699212598421
 21
-3.4224985039370077
 31
0
  0
LINE
  5
177
330
24
100
AcDbEntity
  8
B.Mask
  6
CONTINUOUS
100
AcDbLine
 10
4.5238699212598421
 20
-3.4224985039370077
 30
0
 11
4.5199433464566932
 21
-3.4147921653543305
 31
0
  0
LINE
  5
178
330
24
100
AcDbEntity
  8
B.Mask
  6
CONTINUOUS
100
AcDbLine
 10
4.5199433464566932
 20
-3.4147921653543305
 30
0
 11
4.5172706299212599
 21
-3.4065664566929135
 31
0
  0
LINE
  5
179
330
24
100
AcDbEntity
  8
B.Mask
  6
CONTINUOUS
100
AcDbLine
 10
4.5172706299212599
 20
-3.4065664566929135
 30
0
 11
4.5159176377952752
 21
-3.398023897637795
 31
0
  0
LINE
  5
17A
330
24
100
AcDbEntity
  8
B.Mask
  6
CONTINUOUS
100
AcDbLine
 10
4.5159176377952752
 20
-3.398023897637795
 30
0
 11
4.5159176377952752
 21
-3.3893748425196848
 31
0
  0
LINE
  5
17B
330
24
100
AcDbEntity
  8
B.Mask
  6
CONTINUOUS
100
AcDbLine
 10
4.5159176377952752
 20
-3.3893748425196848
 30
0
 11
4.5172706299212599
 21
-3.3808322834645668
 31
0
  0
LINE
  5
17C
330
24
100
AcDbEntity
  8
B.Mask
  6
CONTINUOUS
100
AcDbLine
 10
4.5172706299212599
 20
-3.3808322834645668
 30
0
 11
4.5199433464566932
 21
-3.3726065748031497
 31
0
  0
LINE
  5
17D
330
24
100
AcDbEntity
  8
B.Mask
  6
CONTINUOUS
100
AcDbLine
 10
4.5199433464566932
 20
-3.3726065748031497
 30
0
 11
4.5238699212598421
 21
-3.3649002362204725
 31
0
  0
LINE
  5
17E
330
24
100
AcDbEntity
  8
B.Mask
  6
CONTINUOUS
100
AcDbLine
 10
4.5238699212598421
 20
-3.3649002362204725
 30
0
 11
4.5289537007874019
 21
-3.357903031496063
 31
0
  0
LINE
  5
17F
330
24
100
AcDbEntity
  8
B.Mask
  6
CONTINUOUS
100
AcDbLine
 10
4.5289537007874019
 20
-3.357903031496063
 30
0
 11
4.5350694881889764
 21
-3.351787244094488
 31
0
  0
LINE
  5
180
330
24
100
AcDbEntity
  8
B.Mask
  6
CONTINUOUS
100
AcDbLine
 10
4.5350694881889764
 20
-3.351787244094488
 30
0
 11
4.5420666929133855
 21
-3.3467034645669291
 31
0
  0
LINE
  5
181
330
24
100
AcDbEntity
  8
B.Mask
  6
CONTINUOUS
100
AcDbLine
 10
4.5420666929133855
 20
-3.3467034645669291
 30
0
 11
4.5497730314960627
 21
-3.3427768897637793
 31
0
  0
LINE
  5
182
330
24
100
AcDbEntity
  8
B.Mask
  6
CONTINUOUS
100
AcDbLine
 10
4.5497730314960627
 20
-3.3427768897637793
 30
0
 11
4.5579987401574806
 21
-3.3401041732283465
 31
0
  0
LINE
  5
183
330
24
100
AcDbEntity
  8
B.Mask
  6
CONTINUOUS
100
AcDbLine
 10
4.5579987401574806
 20
-3.3401041732283465
 30
0
 11
4.5665412992125987
 21
-3.3387511811023622
 31
0
  0
LINE
  5
184
330
24
100
AcDbEntity
  8
B.Mask
  6
CONTINUOUS
100
AcDbLine
 10
4.5665412992125987
 20
-3.3387511811023622
 30
0
 11
4.5751903543307089
 21
-3.3387511811023622
 31
0
  0
LINE
  5
185
330
24
100
AcDbEntity
  8
B.Mask
  6
CONTINUOUS
100
AcDbLine
 10
4.5751903543307089
 20
-3.3387511811023622
 30
0
 11
4.5837329133858269
 21
-3.3401041732283465
 31
0
  0
LINE
  5
186
330
24
100
AcDbEntity
  8
B.Mask
  6
CONTINUOUS
100
AcDbLine
 10
4.9271653543307083
 20
-2.2927165354330707
 30
0
 11
4.8657480314960626
 21
-2.2927165354330707
 31
0
  0
LINE
  5
187
330
24
100
AcDbEntity
  8
B.Mask
  6
CONTINUOUS
100
AcDbLine
 10
4.8657480314960626
 20
-2.2927165354330707
 30
0
 11
4.8657480314960626
 21
-2.231299212598425
 31
0
  0
LINE
  5
188
330
24
100
AcDbEntity
  8
B.Mask
  6
CONTINUOUS
100
AcDbLine
 10
4.8657480314960626
 20
-2.231299212598425
 30
0
 11
4.9271653543307083
 21
-2.231299212598425
 31
0
  0
LINE
  5
189
330
24
100
AcDbEntity
  8
B.Mask
  6
CONTINUOUS
100
AcDbLine
 10
4.9271653543307083
 20
-2.231299212598425
 30
0
 11
4.9271653543307083
 21
-2.2927165354330707
 31
0
  0
LINE
  5
18A
330
24
100
AcDbEntity
  8
B.Mask
  6
CONTINUOUS
100
AcDbLine
 10
5.0053709448818893
 20
-2.2326215354330707
 30
0
 11
5.0109326377952756
 21
-2.2349252362204726
 31
0
  0
LINE
  5
18B
330
24
100
AcDbEntity
  8
B.Mask
  6
CONTINUOUS
100
AcDbLine
 10
5.0109326377952756
 20
-2.2349252362204726
 30
0
 11
5.0159380708661416
 21
-2.2382697637795275
 31
0
  0
LINE
  5
18C
330
24
100
AcDbEntity
  8
B.Mask
  6
CONTINUOUS
100
AcDbLine
 10
5.0159380708661416
 20
-2.2382697637795275
 30
0
 11
5.0201948031496064
 21
-2.2425264960629923
 31
0
  0
LINE
  5
18D
330
24
100
AcDbEntity
  8
B.Mask
  6
CONTINUOUS
100
AcDbLine
 10
5.0201948031496064
 20
-2.2425264960629923
 30
0
 11
5.0235393307086609
 21
-2.2475319291338582
 31
0
  0
LINE
  5
18E
330
24
100
AcDbEntity
  8
B.Mask
  6
CONTINUOUS
100
AcDbLine
 10
5.0235393307086609
 20
-2.2475319291338582
 30
0
 11
5.0258430314960627
 21
-2.2530936220472442
 31
0
  0
LINE
  5
18F
330
24
100
AcDbEntity
  8
B.Mask
  6
CONTINUOUS
100
AcDbLine
 10
5.0258430314960627
 20
-2.2530936220472442
 30
0
 11
5.0270174803149601
 21
-2.2589979133858269
 31
0
  0
LINE
  5
190
330
24
100
AcDbEntity
  8
B.Mask
  6
CONTINUOUS
100
AcDbLine
 10
5.0270174803149601
 20
-2.2589979133858269
 30
0
 11
5.0270174803149601
 21
-2.2650178346456693
 31
0
  0
LINE
  5
191
330
24
100
AcDbEntity
  8
B.Mask
  6
CONTINUOUS
100
AcDbLine
 10
5.0270174803149601
 20
-2.2650178346456693
 30
0
 11
5.0258430314960627
 21
-2.270922125984252
 31
0
  0
LINE
  5
192
330
24
100
AcDbEntity
  8
B.Mask
  6
CONTINUOUS
100
AcDbLine
 10
5.0258430314960627
 20
-2.270922125984252
 30
0
 11
5.0235393307086609
 21
-2.276483818897638
 31
0
  0
LINE
  5
193
330
24
100
AcDbEntity
  8
B.Mask
  6
CONTINUOUS
100
AcDbLine
 10
5.0235393307086609
 20
-2.276483818897638
 30
0
 11
5.0201948031496064
 21
-2.2814892519685039
 31
0
  0
LINE
  5
194
330
24
100
AcDbEntity
  8
B.Mask
  6
CONTINUOUS
100
AcDbLine
 10
5.0201948031496064
 20
-2.2814892519685039
 30
0
 11
5.0159380708661416
 21
-2.2857459842519683
 31
0
  0
LINE
  5
195
330
24
100
AcDbEntity
  8
B.Mask
  6
CONTINUOUS
100
AcDbLine
 10
5.0159380708661416
 20
-2.2857459842519683
 30
0
 11
5.0109326377952756
 21
-2.2890905118110236
 31
0
  0
LINE
  5
196
330
24
100
AcDbEntity
  8
B.Mask
  6
CONTINUOUS
100
AcDbLine
 10
5.0109326377952756
 20
-2.2890905118110236
 30
0
 11
5.0053709448818893
 21
-2.291394212598425
 31
0
  0
LINE
  5
197
330
24
100
AcDbEntity
  8
B.Mask
  6
CONTINUOUS
100
AcDbLine
 10
5.0053709448818893
 20
-2.291394212598425
 30
0
 11
4.9994666535433065
 21
-2.2925686614173229
 31
0
  0
LINE
  5
198
330
24
100
AcDbEntity
  8
B.Mask
  6
CONTINUOUS
100
AcDbLine
 10
4.9994666535433065
 20
-2.2925686614173229
 30
0
 11
4.9934467322834646
 21
-2.2925686614173229
 31
0
  0
LINE
  5
199
330
24
100
AcDbEntity
  8
B.Mask
  6
CONTINUOUS
100
AcDbLine
 10
4.9934467322834646
 20
-2.2925686614173229
 30
0
 11
4.9875424409448819
 21
-2.291394212598425
 31
0
  0
LINE
  5
19A
330
24
100
AcDbEntity
  8
B.Mask
  6
CONTINUOUS
100
AcDbLine
 10
4.9875424409448819
 20
-2.291394212598425
 30
0
 11
4.9819807480314964
 21
-2.2890905118110236
 31
0
  0
LINE
  5
19B
330
24
100
AcDbEntity
  8
B.Mask
  6
CONTINUOUS
100
AcDbLine
 10
4.9819807480314964
 20
-2.2890905118110236
 30
0
 11
4.9769753149606295
 21
-2.2857459842519683
 31
0
  0
LINE
  5
19C
330
24
100
AcDbEntity
  8
B.Mask
  6
CONTINUOUS
100
AcDbLine
 10
4.9769753149606295
 20
-2.2857459842519683
 30
0
 11
4.9727185826771656
 21
-2.2814892519685039
 31
0
  0
LINE
  5
19D
330
24
100
AcDbEntity
  8
B.Mask
  6
CONTINUOUS
100
AcDbLine
 10
4.9727185826771656
 20
-2.2814892519685039
 30
0
 11
4.9693740551181103
 21
-2.276483818897638
 31
0
  0
LINE
  5
19E
330
24
100
AcDbEntity
  8
B.Mask
  6
CONTINUOUS
100
AcDbLine
 10
4.9693740551181103
 20
-2.276483818897638
 30
0
 11
4.9670703543307084
 21
-2.270922125984252
 31
0
  0
LINE
  5
19F
330
24
100
AcDbEntity
  8
B.Mask
  6
CONTINUOUS
100
AcDbLine
 10
4.9670703543307084
 20
-2.270922125984252
 30
0
 11
4.965895905511811
 21
-2.2650178346456693
 31
0
  0
LINE
  5
1A0
330
24
100
AcDbEntity
  8
B.Mask
  6
CONTINUOUS
100
AcDbLine
 10
4.965895905511811
 20
-2.2650178346456693
 30
0
 11
4.965895905511811
 21
-2.2589979133858269
 31
0
  0
LINE
  5
1A1
330
24
100
AcDbEntity
  8
B.Mask
  6
CONTINUOUS
100
AcDbLine
 10
4.965895905511811
 20
-2.2589979133858269
 30
0
 11
4.9670703543307084
 21
-2.2530936220472442
 31
0
  0
LINE
  5
1A2
330
24
100
AcDbEntity
  8
B.Mask
  6
CONTINUOUS
100
AcDbLine
 10
4.9670703543307084
 20
-2.2530936220472442
 30
0
 11
4.9693740551181103
 21
-2.2475319291338582
 31
0
  0
LINE
  5
1A3
330
24
100
AcDbEntity
  8
B.Mask
  6
CONTINUOUS
100
AcDbLine
 10
4.9693740551181103
 20
-2.2475319291338582
 30
0
 11
4.9727185826771656
 21
-2.2425264960629923
 31
0
  0
LINE
  5
1A4
330
24
100
AcDbEntity
  8
B.Mask
  6
CONTINUOUS
100
AcDbLine
 10
4.9727185826771656
 20
-2.2425264960629923
 30
0
 11
4.9769753149606295
 21
-2.2382697637795275
 31
0
  0
LINE
  5
1A5
330
24
100
AcDbEntity
  8
B.Mask
  6
CONTINUOUS
100
AcDbLine
 10
4.9769753149606295
 20
-2.2382697637795275
 30
0
 11
4.9819807480314964
 21
-2.2349252362204726
 31
0
  0
LINE
  5
1A6
330
24
100
AcDbEntity
  8
B.Mask
  6
CONTINUOUS
100
AcDbLine
 10
4.9819807480314964
 20
-2.2349252362204726
 30
0
 11
4.9875424409448819
 21
-2.2326215354330707
 31
0
  0
LINE
  5
1A7
330
24
100
AcDbEntity
  8
B.Mask
  6
CONTINUOUS
100
AcDbLine
 10
4.9875424409448819
 20
-2.2326215354330707
 30
0
 11
4.9934467322834646
 21
-2.2314470866141733
 31
0
  0
LINE
  5
1A8
330
24
100
AcDbEntity
  8
B.Mask
  6
CONTINUOUS
100
AcDbLine
 10
4.9934467322834646
 20
-2.2314470866141733
 30
0
 11
4.9994666535433065
 21
-2.2314470866141733
 31
0
  0
LINE
  5
1A9
330
24
100
AcDbEntity
  8
B.Mask
  6
CONTINUOUS
100
AcDbLine
 10
4.9994666535433065
 20
-2.2314470866141733
 30
0
 11
5.0053709448818893
 21
-2.2326215354330707
 31
0
  0
LINE
  5
1AA
330
24
100
AcDbEntity
  8
B.Mask
  6
CONTINUOUS
100
AcDbLine
 10
5.1053709448818898
 20
-2.2326215354330707
 30
0
 11
5.1109326377952753
 21
-2.2349252362204726
 31
0
  0
LINE
  5
1AB
330
24
100
AcDbEntity
  8
B.Mask
  6
CONTINUOUS
100
AcDbLine
 10
5.1109326377952753
 20
-2.2349252362204726
 30
0
 11
5.1159380708661413
 21
-2.2382697637795275
 31
0
  0
LINE
  5
1AC
330
24
100
AcDbEntity
  8
B.Mask
  6
CONTINUOUS
100
AcDbLine
 10
5.1159380708661413
 20
-2.2382697637795275
 30
0
 11
5.1201948031496061
 21
-2.2425264960629923
 31
0
  0
LINE
  5
1AD
330
24
100
AcDbEntity
  8
B.Mask
  6
CONTINUOUS
100
AcDbLine
 10
5.1201948031496061
 20
-2.2425264960629923
 30
0
 11
5.1235393307086614
 21
-2.2475319291338582
 31
0
  0
LINE
  5
1AE
330
24
100
AcDbEntity
  8
B.Mask
  6
CONTINUOUS
100
AcDbLine
 10
5.1235393307086614
 20
-2.2475319291338582
 30
0
 11
5.1258430314960632
 21
-2.2530936220472442
 31
0
  0
LINE
  5
1AF
330
24
100
AcDbEntity
  8
B.Mask
  6
CONTINUOUS
100
AcDbLine
 10
5.1258430314960632
 20
-2.2530936220472442
 30
0
 11
5.1270174803149606
 21
-2.2589979133858269
 31
0
  0
LINE
  5
1B0
330
24
100
AcDbEntity
  8
B.Mask
  6
CONTINUOUS
100
AcDbLine
 10
5.1270174803149606
 20
-2.2589979133858269
 30
0
 11
5.1270174803149606
 21
-2.2650178346456693
 31
0
  0
LINE
  5
1B1
330
24
100
AcDbEntity
  8
B.Mask
  6
CONTINUOUS
100
AcDbLine
 10
5.1270174803149606
 20
-2.2650178346456693
 30
0
 11
5.1258430314960632
 21
-2.270922125984252
 31
0
  0
LINE
  5
1B2
330
24
100
AcDbEntity
  8
B.Mask
  6
CONTINUOUS
100
AcDbLine
 10
5.1258430314960632
 20
-2.270922125984252
 30
0
 11
5.1235393307086614
 21
-2.276483818897638
 31
0
  0
LINE
  5
1B3
330
24
100
AcDbEntity
  8
B.Mask
  6
CONTINUOUS
100
AcDbLine
 10
5.1235393307086614
 20
-2.276483818897638
 30
0
 11
5.1201948031496061
 21
-2.2814892519685039
 31
0
  0
LINE
  5
1B4
330
24
100
AcDbEntity
  8
B.Mask
  6
CONTINUOUS
100
AcDbLine
 10
5.1201948031496061
 20
-2.2814892519685039
 30
0
 11
5.1159380708661413
 21
-2.2857459842519683
 31
0
  0
LINE
  5
1B5
330
24
100
AcDbEntity
  8
B.Mask
  6
CONTINUOUS
100
AcDbLine
 10
5.1159380708661413
 20
-2.2857459842519683
 30
0
 11
5.1109326377952753
 21
-2.2890905118110236
 31
0
  0
LINE
  5
1B6
330
24
100
AcDbEntity
  8
B.Mask
  6
CONTINUOUS
100
AcDbLine
 10
5.1109326377952753
 20
-2.2890905118110236
 30
0
 11
5.1053709448818898
 21
-2.291394212598425
 31
0
  0
LINE
  5
1B7
330
24
100
AcDbEntity
  8
B.Mask
  6
CONTINUOUS
100
AcDbLine
 10
5.1053709448818898
 20
-2.291394212598425
 30
0
 11
5.0994666535433071
 21
-2.2925686614173229
 31
0
  0
LINE
  5
1B8
330
24
100
AcDbEntity
  8
B.Mask
  6
CONTINUOUS
100
AcDbLine
 10
5.0994666535433071
 20
-2.2925686614173229
 30
0
 11
5.0934467322834642
 21
-2.2925686614173229
 31
0
  0
LINE
  5
1B9
330
24
100
AcDbEntity
  8
B.Mask
  6
CONTINUOUS
100
AcDbLine
 10
5.0934467322834642
 20
-2.2925686614173229
 30
0
 11
5.0875424409448815
 21
-2.291394212598425
 31
0
  0
LINE
  5
1BA
330
24
100
AcDbEntity
  8
B.Mask
  6
CONTINUOUS
100
AcDbLine
 10
5.0875424409448815
 20
-2.291394212598425
 30
0
 11
5.081980748031496
 21
-2.2890905118110236
 31
0
  0
LINE
  5
1BB
330
24
100
AcDbEntity
  8
B.Mask
  6
CONTINUOUS
100
AcDbLine
 10
5.081980748031496
 20
-2.2890905118110236
 30
0
 11
5.07697531496063
 21
-2.2857459842519683
 31
0
  0
LINE
  5
1BC
330
24
100
AcDbEntity
  8
B.Mask
  6
CONTINUOUS
100
AcDbLine
 10
5.07697531496063
 20
-2.2857459842519683
 30
0
 11
5.0727185826771652
 21
-2.2814892519685039
 31
0
  0
LINE
  5
1BD
330
24
100
AcDbEntity
  8
B.Mask
  6
CONTINUOUS
100
AcDbLine
 10
5.0727185826771652
 20
-2.2814892519685039
 30
0
 11
5.0693740551181099
 21
-2.276483818897638
 31
0
  0
LINE
  5
1BE
330
24
100
AcDbEntity
  8
B.Mask
  6
CONTINUOUS
100
AcDbLine
 10
5.0693740551181099
 20
-2.276483818897638
 30
0
 11
5.067070354330709
 21
-2.270922125984252
 31
0
  0
LINE
  5
1BF
330
24
100
AcDbEntity
  8
B.Mask
  6
CONTINUOUS
100
AcDbLine
 10
5.067070354330709
 20
-2.270922125984252
 30
0
 11
5.0658959055118107
 21
-2.2650178346456693
 31
0
  0
LINE
  5
1C0
330
24
100
AcDbEntity
  8
B.Mask
  6
CONTINUOUS
100
AcDbLine
 10
5.0658959055118107
 20
-2.2650178346456693
 30
0
 11
5.0658959055118107
 21
-2.2589979133858269
 31
0
  0
LINE
  5
1C1
330
24
100
AcDbEntity
  8
B.Mask
  6
CONTINUOUS
100
AcDbLine
 10
5.0658959055118107
 20
-2.2589979133858269
 30
0
 11
5.067070354330709
 21
-2.2530936220472442
 31
0
  0
LINE
  5
1C2
330
24
100
AcDbEntity
  8
B.Mask
  6
CONTINUOUS
100
AcDbLine
 10
5.067070354330709
 20
-2.2530936220472442
 30
0
 11
5.0693740551181099
 21
-2.2475319291338582
 31
0
  0
LINE
  5
1C3
330
24
100
AcDbEntity
  8
B.Mask
  6
CONTINUOUS
100
AcDbLine
 10
5.0693740551181099
 20
-2.2475319291338582
 30
0
 11
5.0727185826771652
 21
-2.2425264960629923
 31
0
  0
LINE
  5
1C4
330
24
100
AcDbEntity
  8
B.Mask
  6
CONTINUOUS
100
AcDbLine
 10
5.0727185826771652
 20
-2.2425264960629923
 30
0
 11
5.07697531496063
 21
-2.2382697637795275
 31
0
  0
LINE
  5
1C5
330
24
100
AcDbEntity
  8
B.Mask
  6
CONTINUOUS
100
AcDbLine
 10
5.07697531496063
 20
-2.2382697637795275
 30
0
 11
5.081980748031496
 21
-2.2349252362204726
 31
0
  0
LINE
  5
1C6
330
24
100
AcDbEntity
  8
B.Mask
  6
CONTINUOUS
100
AcDbLine
 10
5.081980748031496
 20
-2.2349252362204726
 30
0
 11
5.0875424409448815
 21
-2.2326215354330707
 31
0
  0
LINE
  5
1C7
330
24
100
AcDbEntity
  8
B.Mask
  6
CONTINUOUS
100
AcDbLine
 10
5.0875424409448815
 20
-2.2326215354330707
 30
0
 11
5.0934467322834642
 21
-2.2314470866141733
 31
0
  0
LINE
  5
1C8
330
24
100
AcDbEntity
  8
B.Mask
  6
CONTINUOUS
100
AcDbLine
 10
5.0934467322834642
 20
-2.2314470866141733
 30
0
 11
5.0994666535433071
 21
-2.2314470866141733
 31
0
  0
LINE
  5
1C9
330
24
100
AcDbEntity
  8
B.Mask
  6
CONTINUOUS
100
AcDbLine
 10
5.0994666535433071
 20
-2.2314470866141733
 30
0
 11
5.1053709448818898
 21
-2.2326215354330707
 31
0
  0
LINE
  5
1CA
330
24
100
AcDbEntity
  8
B.Mask
  6
CONTINUOUS
100
AcDbLine
 10
5.2053709448818895
 20
-2.2326215354330707
 30
0
 11
5.2109326377952758
 21
-2.2349252362204726
 31
0
  0
LINE
  5
1CB
330
24
100
AcDbEntity
  8
B.Mask
  6
CONTINUOUS
100
AcDbLine
 10
5.2109326377952758
 20
-2.2349252362204726
 30
0
 11
5.2159380708661418
 21
-2.2382697637795275
 31
0
  0
LINE
  5
1CC
330
24
100
AcDbEntity
  8
B.Mask
  6
CONTINUOUS
100
AcDbLine
 10
5.2159380708661418
 20
-2.2382697637795275
 30
0
 11
5.2201948031496066
 21
-2.2425264960629923
 31
0
  0
LINE
  5
1CD
330
24
100
AcDbEntity
  8
B.Mask
  6
CONTINUOUS
100
AcDbLine
 10
5.2201948031496066
 20
-2.2425264960629923
 30
0
 11
5.2235393307086611
 21
-2.2475319291338582
 31
0
  0
LINE
  5
1CE
330
24
100
AcDbEntity
  8
B.Mask
  6
CONTINUOUS
100
AcDbLine
 10
5.2235393307086611
 20
-2.2475319291338582
 30
0
 11
5.2258430314960629
 21
-2.2530936220472442
 31
0
  0
LINE
  5
1CF
330
24
100
AcDbEntity
  8
B.Mask
  6
CONTINUOUS
100
AcDbLine
 10
5.2258430314960629
 20
-2.2530936220472442
 30
0
 11
5.2270174803149603
 21
-2.2589979133858269
 31
0
  0
LINE
  5
1D0
330
24
100
AcDbEntity
  8
B.Mask
  6
CONTINUOUS
100
AcDbLine
 10
5.2270174803149603
 20
-2.2589979133858269
 30
0
 11
5.2270174803149603
 21
-2.2650178346456693
 31
0
  0
LINE
  5
1D1
330
24
100
AcDbEntity
  8
B.Mask
  6
CONTINUOUS
100
AcDbLine
 10
5.2270174803149603
 20
-2.2650178346456693
 30
0
 11
5.2258430314960629
 21
-2.270922125984252
 31
0
  0
LINE
  5
1D2
330
24
100
AcDbEntity
  8
B.Mask
  6
CONTINUOUS
100
AcDbLine
 10
5.2258430314960629
 20
-2.270922125984252
 30
0
 11
5.2235393307086611
 21
-2.276483818897638
 31
0
  0
LINE
  5
1D3
330
24
100
AcDbEntity
  8
B.Mask
  6
CONTINUOUS
100
AcDbLine
 10
5.2235393307086611
 20
-2.276483818897638
 30
0
 11
5.2201948031496066
 21
-2.2814892519685039
 31
0
  0
LINE
  5
1D4
330
24
100
AcDbEntity
  8
B.Mask
  6
CONTINUOUS
100
AcDbLine
 10
5.2201948031496066
 20
-2.2814892519685039
 30
0
 11
5.2159380708661418
 21
-2.2857459842519683
 31
0
  0
LINE
  5
1D5
330
24
100
AcDbEntity
  8
B.Mask
  6
CONTINUOUS
100
AcDbLine
 10
5.2159380708661418
 20
-2.2857459842519683
 30
0
 11
5.2109326377952758
 21
-2.2890905118110236
 31
0
  0
LINE
  5
1D6
330
24
100
AcDbEntity
  8
B.Mask
  6
CONTINUOUS
100
AcDbLine
 10
5.2109326377952758
 20
-2.2890905118110236
 30
0
 11
5.2053709448818895
 21
-2.291394212598425
 31
0
  0
LINE
  5
1D7
330
24
100
AcDbEntity
  8
B.Mask
  6
CONTINUOUS
100
AcDbLine
 10
5.2053709448818895
 20
-2.291394212598425
 30
0
 11
5.1994666535433067
 21
-2.2925686614173229
 31
0
  0
LINE
  5
1D8
330
24
100
AcDbEntity
  8
B.Mask
  6
CONTINUOUS
100
AcDbLine
 10
5.1994666535433067
 20
-2.2925686614173229
 30
0
 11
5.1934467322834648
 21
-2.2925686614173229
 31
0
  0
LINE
  5
1D9
330
24
100
AcDbEntity
  8
B.Mask
  6
CONTINUOUS
100
AcDbLine
 10
5.1934467322834648
 20
-2.2925686614173229
 30
0
 11
5.187542440944882
 21
-2.291394212598425
 31
0
  0
LINE
  5
1DA
330
24
100
AcDbEntity
  8
B.Mask
  6
CONTINUOUS
100
AcDbLine
 10
5.187542440944882
 20
-2.291394212598425
 30
0
 11
5.1819807480314957
 21
-2.2890905118110236
 31
0
  0
LINE
  5
1DB
330
24
100
AcDbEntity
  8
B.Mask
  6
CONTINUOUS
100
AcDbLine
 10
5.1819807480314957
 20
-2.2890905118110236
 30
0
 11
5.1769753149606297
 21
-2.2857459842519683
 31
0
  0
LINE
  5
1DC
330
24
100
AcDbEntity
  8
B.Mask
  6
CONTINUOUS
100
AcDbLine
 10
5.1769753149606297
 20
-2.2857459842519683
 30
0
 11
5.1727185826771649
 21
-2.2814892519685039
 31
0
  0
LINE
  5
1DD
330
24
100
AcDbEntity
  8
B.Mask
  6
CONTINUOUS
100
AcDbLine
 10
5.1727185826771649
 20
-2.2814892519685039
 30
0
 11
5.1693740551181104
 21
-2.276483818897638
 31
0
  0
LINE
  5
1DE
330
24
100
AcDbEntity
  8
B.Mask
  6
CONTINUOUS
100
AcDbLine
 10
5.1693740551181104
 20
-2.276483818897638
 30
0
 11
5.1670703543307086
 21
-2.270922125984252
 31
0
  0
LINE
  5
1DF
330
24
100
AcDbEntity
  8
B.Mask
  6
CONTINUOUS
100
AcDbLine
 10
5.1670703543307086
 20
-2.270922125984252
 30
0
 11
5.1658959055118112
 21
-2.2650178346456693
 31
0
  0
LINE
  5
1E0
330
24
100
AcDbEntity
  8
B.Mask
  6
CONTINUOUS
100
AcDbLine
 10
5.1658959055118112
 20
-2.2650178346456693
 30
0
 11
5.1658959055118112
 21
-2.2589979133858269
 31
0
  0
LINE
  5
1E1
330
24
100
AcDbEntity
  8
B.Mask
  6
CONTINUOUS
100
AcDbLine
 10
5.1658959055118112
 20
-2.2589979133858269
 30
0
 11
5.1670703543307086
 21
-2.2530936220472442
 31
0
  0
LINE
  5
1E2
330
24
100
AcDbEntity
  8
B.Mask
  6
CONTINUOUS
100
AcDbLine
 10
5.1670703543307086
 20
-2.2530936220472442
 30
0
 11
5.1693740551181104
 21
-2.2475319291338582
 31
0
  0
LINE
  5
1E3
330
24
100
AcDbEntity
  8
B.Mask
  6
CONTINUOUS
100
AcDbLine
 10
5.1693740551181104
 20
-2.2475319291338582
 30
0
 11
5.1727185826771649
 21
-2.2425264960629923
 31
0
  0
LINE
  5
1E4
330
24
100
AcDbEntity
  8
B.Mask
  6
CONTINUOUS
100
AcDbLine
 10
5.1727185826771649
 20
-2.2425264960629923
 30
0
 11
5.1769753149606297
 21
-2.2382697637795275
 31
0
  0
LINE
  5
1E5
330
24
100
AcDbEntity
  8
B.Mask
  6
CONTINUOUS
100
AcDbLine
 10
5.1769753149606297
 20
-2.2382697637795275
 30
0
 11
5.1819807480314957
 21
-2.2349252362204726
 31
0
  0
LINE
  5
1E6
330
24
100
AcDbEntity
  8
B.Mask
  6
CONTINUOUS
100
AcDbLine
 10
5.1819807480314957
 20
-2.2349252362204726
 30
0
 11
5.187542440944882
 21
-2.2326215354330707
 31
0
  0
LINE
  5
1E7
330
24
100
AcDbEntity
  8
B.Mask
  6
CONTINUOUS
100
AcDbLine
 10
5.187542440944882
 20
-2.2326215354330707
 30
0
 11
5.1934467322834648
 21
-2.2314470866141733
 31
0
  0
LINE
  5
1E8
330
24
100
AcDbEntity
  8
B.Mask
  6
CONTINUOUS
100
AcDbLine
 10
5.1934467322834648
 20
-2.2314470866141733
 30
0
 11
5.1994666535433067
 21
-2.2314470866141733
 31
0
  0
LINE
  5
1E9
330
24
100
AcDbEntity
  8
B.Mask
  6
CONTINUOUS
100
AcDbLine
 10
5.1994666535433067
 20
-2.2314470866141733
 30
0
 11
5.2053709448818895
 21
-2.2326215354330707
 31
0
  0
LINE
  5
1EA
330
24
100
AcDbEntity
  8
B.Mask
  6
CONTINUOUS
100
AcDbLine
 10
5.30537094488189
 20
-2.2326215354330707
 30
0
 11
5.3109326377952755
 21
-2.2349252362204726
 31
0
  0
LINE
  5
1EB
330
24
100
AcDbEntity
  8
B.Mask
  6
CONTINUOUS
100
AcDbLine
 10
5.3109326377952755
 20
-2.2349252362204726
 30
0
 11
5.3159380708661415
 21
-2.2382697637795275
 31
0
  0
LINE
  5
1EC
330
24
100
AcDbEntity
  8
B.Mask
  6
CONTINUOUS
100
AcDbLine
 10
5.3159380708661415
 20
-2.2382697637795275
 30
0
 11
5.3201948031496062
 21
-2.2425264960629923
 31
0
  0
LINE
  5
1ED
330
24
100
AcDbEntity
  8
B.Mask
  6
CONTINUOUS
100
AcDbLine
 10
5.3201948031496062
 20
-2.2425264960629923
 30
0
 11
5.3235393307086616
 21
-2.2475319291338582
 31
0
  0
LINE
  5
1EE
330
24
100
AcDbEntity
  8
B.Mask
  6
CONTINUOUS
100
AcDbLine
 10
5.3235393307086616
 20
-2.2475319291338582
 30
0
 11
5.3258430314960625
 21
-2.2530936220472442
 31
0
  0
LINE
  5
1EF
330
24
100
AcDbEntity
  8
B.Mask
  6
CONTINUOUS
100
AcDbLine
 10
5.3258430314960625
 20
-2.2530936220472442
 30
0
 11
5.3270174803149608
 21
-2.2589979133858269
 31
0
  0
LINE
  5
1F0
330
24
100
AcDbEntity
  8
B.Mask
  6
CONTINUOUS
100
AcDbLine
 10
5.3270174803149608
 20
-2.2589979133858269
 30
0
 11
5.3270174803149608
 21
-2.2650178346456693
 31
0
  0
LINE
  5
1F1
330
24
100
AcDbEntity
  8
B.Mask
  6
CONTINUOUS
100
AcDbLine
 10
5.3270174803149608
 20
-2.2650178346456693
 30
0
 11
5.3258430314960625
 21
-2.270922125984252
 31
0
  0
LINE
  5
1F2
330
24
100
AcDbEntity
  8
B.Mask
  6
CONTINUOUS
100
AcDbLine
 10
5.3258430314960625
 20
-2.270922125984252
 30
0
 11
5.3235393307086616
 21
-2.276483818897638
 31
0
  0
LINE
  5
1F3
330
24
100
AcDbEntity
  8
B.Mask
  6
CONTINUOUS
100
AcDbLine
 10
5.3235393307086616
 20
-2.276483818897638
 30
0
 11
5.3201948031496062
 21
-2.2814892519685039
 31
0
  0
LINE
  5
1F4
330
24
100
AcDbEntity
  8
B.Mask
  6
CONTINUOUS
100
AcDbLine
 10
5.3201948031496062
 20
-2.2814892519685039
 30
0
 11
5.3159380708661415
 21
-2.2857459842519683
 31
0
  0
LINE
  5
1F5
330
24
100
AcDbEntity
  8
B.Mask
  6
CONTINUOUS
100
AcDbLine
 10
5.3159380708661415
 20
-2.2857459842519683
 30
0
 11
5.3109326377952755
 21
-2.2890905118110236
 31
0
  0
LINE
  5
1F6
330
24
100
AcDbEntity
  8
B.Mask
  6
CONTINUOUS
100
AcDbLine
 10
5.3109326377952755
 20
-2.2890905118110236
 30
0
 11
5.30537094488189
 21
-2.291394212598425
 31
0
  0
LINE
  5
1F7
330
24
100
AcDbEntity
  8
B.Mask
  6
CONTINUOUS
100
AcDbLine
 10
5.30537094488189
 20
-2.291394212598425
 30
0
 11
5.2994666535433073
 21
-2.2925686614173229
 31
0
  0
LINE
  5
1F8
330
24
100
AcDbEntity
  8
B.Mask
  6
CONTINUOUS
100
AcDbLine
 10
5.2994666535433073
 20
-2.2925686614173229
 30
0
 11
5.2934467322834644
 21
-2.2925686614173229
 31
0
  0
LINE
  5
1F9
330
24
100
AcDbEntity
  8
B.Mask
  6
CONTINUOUS
100
AcDbLine
 10
5.2934467322834644
 20
-2.2925686614173229
 30
0
 11
5.2875424409448817
 21
-2.291394212598425
 31
0
  0
LINE
  5
1FA
330
24
100
AcDbEntity
  8
B.Mask
  6
CONTINUOUS
100
AcDbLine
 10
5.2875424409448817
 20
-2.291394212598425
 30
0
 11
5.2819807480314962
 21
-2.2890905118110236
 31
0
  0
LINE
  5
1FB
330
24
100
AcDbEntity
  8
B.Mask
  6
CONTINUOUS
100
AcDbLine
 10
5.2819807480314962
 20
-2.2890905118110236
 30
0
 11
5.2769753149606302
 21
-2.2857459842519683
 31
0
  0
LINE
  5
1FC
330
24
100
AcDbEntity
  8
B.Mask
  6
CONTINUOUS
100
AcDbLine
 10
5.2769753149606302
 20
-2.2857459842519683
 30
0
 11
5.2727185826771654
 21
-2.2814892519685039
 31
0
  0
LINE
  5
1FD
330
24
100
AcDbEntity
  8
B.Mask
  6
CONTINUOUS
100
AcDbLine
 10
5.2727185826771654
 20
-2.2814892519685039
 30
0
 11
5.2693740551181101
 21
-2.276483818897638
 31
0
  0
LINE
  5
1FE
330
24
100
AcDbEntity
  8
B.Mask
  6
CONTINUOUS
100
AcDbLine
 10
5.2693740551181101
 20
-2.276483818897638
 30
0
 11
5.2670703543307082
 21
-2.270922125984252
 31
0
  0
LINE
  5
1FF
330
24
100
AcDbEntity
  8
B.Mask
  6
CONTINUOUS
100
AcDbLine
 10
5.2670703543307082
 20
-2.270922125984252
 30
0
 11
5.2658959055118109
 21
-2.2650178346456693
 31
0
  0
LINE
  5
200
330
24
100
AcDbEntity
  8
B.Mask
  6
CONTINUOUS
100
AcDbLine
 10
5.2658959055118109
 20
-2.2650178346456693
 30
0
 11
5.2658959055118109
 21
-2.2589979133858269
 31
0
  0
LINE
  5
201
330
24
100
AcDbEntity
  8
B.Mask
  6
CONTINUOUS
100
AcDbLine
 10
5.2658959055118109
 20
-2.2589979133858269
 30
0
 11
5.2670703543307082
 21
-2.2530936220472442
 31
0
  0
LINE
  5
202
330
24
100
AcDbEntity
  8
B.Mask
  6
CONTINUOUS
100
AcDbLine
 10
5.2670703543307082
 20
-2.2530936220472442
 30
0
 11
5.2693740551181101
 21
-2.2475319291338582
 31
0
  0
LINE
  5
203
330
24
100
AcDbEntity
  8
B.Mask
  6
CONTINUOUS
100
AcDbLine
 10
5.2693740551181101
 20
-2.2475319291338582
 30
0
 11
5.2727185826771654
 21
-2.2425264960629923
 31
0
  0
LINE
  5
204
330
24
100
AcDbEntity
  8
B.Mask
  6
CONTINUOUS
100
AcDbLine
 10
5.2727185826771654
 20
-2.2425264960629923
 30
0
 11
5.2769753149606302
 21
-2.2382697637795275
 31
0
  0
LINE
  5
205
330
24
100
AcDbEntity
  8
B.Mask
  6
CONTINUOUS
100
AcDbLine
 10
5.2769753149606302
 20
-2.2382697637795275
 30
0
 11
5.2819807480314962
 21
-2.2349252362204726
 31
0
  0
LINE
  5
206
330
24
100
AcDbEntity
  8
B.Mask
  6
CONTINUOUS
100
AcDbLine
 10
5.2819807480314962
 20
-2.2349252362204726
 30
0
 11
5.2875424409448817
 21
-2.2326215354330707
 31
0
  0
LINE
  5
207
330
24
100
AcDbEntity
  8
B.Mask
  6
CONTINUOUS
100
AcDbLine
 10
5.2875424409448817
 20
-2.2326215354330707
 30
0
 11
5.2934467322834644
 21
-2.2314470866141733
 31
0
  0
LINE
  5
208
330
24
100
AcDbEntity
  8
B.Mask
  6
CONTINUOUS
100
AcDbLine
 10
5.2934467322834644
 20
-2.2314470866141733
 30
0
 11
5.2994666535433073
 21
-2.2314470866141733
 31
0
  0
LINE
  5
209
330
24
100
AcDbEntity
  8
B.Mask
  6
CONTINUOUS
100
AcDbLine
 10
5.2994666535433073
 20
-2.2314470866141733
 30
0
 11
5.30537094488189
 21
-2.2326215354330707
 31
0
  0
LINE
  5
20A
330
24
100
AcDbEntity
  8
B.Mask
  6
CONTINUOUS
100
AcDbLine
 10
5.4053709448818896
 20
-2.2326215354330707
 30
0
 11
5.4109326377952751
 21
-2.2349252362204726
 31
0
  0
LINE
  5
20B
330
24
100
AcDbEntity
  8
B.Mask
  6
CONTINUOUS
100
AcDbLine
 10
5.4109326377952751
 20
-2.2349252362204726
 30
0
 11
5.415938070866142
 21
-2.2382697637795275
 31
0
  0
LINE
  5
20C
330
24
100
AcDbEntity
  8
B.Mask
  6
CONTINUOUS
100
AcDbLine
 10
5.415938070866142
 20
-2.2382697637795275
 30
0
 11
5.4201948031496059
 21
-2.2425264960629923
 31
0
  0
LINE
  5
20D
330
24
100
AcDbEntity
  8
B.Mask
  6
CONTINUOUS
100
AcDbLine
 10
5.4201948031496059
 20
-2.2425264960629923
 30
0
 11
5.4235393307086612
 21
-2.2475319291338582
 31
0
  0
LINE
  5
20E
330
24
100
AcDbEntity
  8
B.Mask
  6
CONTINUOUS
100
AcDbLine
 10
5.4235393307086612
 20
-2.2475319291338582
 30
0
 11
5.4258430314960631
 21
-2.2530936220472442
 31
0
  0
LINE
  5
20F
330
24
100
AcDbEntity
  8
B.Mask
  6
CONTINUOUS
100
AcDbLine
 10
5.4258430314960631
 20
-2.2530936220472442
 30
0
 11
5.4270174803149605
 21
-2.2589979133858269
 31
0
  0
LINE
  5
210
330
24
100
AcDbEntity
  8
B.Mask
  6
CONTINUOUS
100
AcDbLine
 10
5.4270174803149605
 20
-2.2589979133858269
 30
0
 11
5.4270174803149605
 21
-2.2650178346456693
 31
0
  0
LINE
  5
211
330
24
100
AcDbEntity
  8
B.Mask
  6
CONTINUOUS
100
AcDbLine
 10
5.4270174803149605
 20
-2.2650178346456693
 30
0
 11
5.4258430314960631
 21
-2.270922125984252
 31
0
  0
LINE
  5
212
330
24
100
AcDbEntity
  8
B.Mask
  6
CONTINUOUS
100
AcDbLine
 10
5.4258430314960631
 20
-2.270922125984252
 30
0
 11
5.4235393307086612
 21
-2.276483818897638
 31
0
  0
LINE
  5
213
330
24
100
AcDbEntity
  8
B.Mask
  6
CONTINUOUS
100
AcDbLine
 10
5.4235393307086612
 20
-2.276483818897638
 30
0
 11
5.4201948031496059
 21
-2.2814892519685039
 31
0
  0
LINE
  5
214
330
24
100
AcDbEntity
  8
B.Mask
  6
CONTINUOUS
100
AcDbLine
 10
5.4201948031496059
 20
-2.2814892519685039
 30
0
 11
5.415938070866142
 21
-2.2857459842519683
 31
0
  0
LINE
  5
215
330
24
100
AcDbEntity
  8
B.Mask
  6
CONTINUOUS
100
AcDbLine
 10
5.415938070866142
 20
-2.2857459842519683
 30
0
 11
5.4109326377952751
 21
-2.2890905118110236
 31
0
  0
LINE
  5
216
330
24
100
AcDbEntity
  8
B.Mask
  6
CONTINUOUS
100
AcDbLine
 10
5.4109326377952751
 20
-2.2890905118110236
 30
0
 11
5.4053709448818896
 21
-2.291394212598425
 31
0
  0
LINE
  5
217
330
24
100
AcDbEntity
  8
B.Mask
  6
CONTINUOUS
100
AcDbLine
 10
5.4053709448818896
 20
-2.291394212598425
 30
0
 11
5.3994666535433069
 21
-2.2925686614173229
 31
0
  0
LINE
  5
218
330
24
100
AcDbEntity
  8
B.Mask
  6
CONTINUOUS
100
AcDbLine
 10
5.3994666535433069
 20
-2.2925686614173229
 30
0
 11
5.3934467322834641
 21
-2.2925686614173229
 31
0
  0
LINE
  5
219
330
24
100
AcDbEntity
  8
B.Mask
  6
CONTINUOUS
100
AcDbLine
 10
5.3934467322834641
 20
-2.2925686614173229
 30
0
 11
5.3875424409448813
 21
-2.291394212598425
 31
0
  0
LINE
  5
21A
330
24
100
AcDbEntity
  8
B.Mask
  6
CONTINUOUS
100
AcDbLine
 10
5.3875424409448813
 20
-2.291394212598425
 30
0
 11
5.3819807480314958
 21
-2.2890905118110236
 31
0
  0
LINE
  5
21B
330
24
100
AcDbEntity
  8
B.Mask
  6
CONTINUOUS
100
AcDbLine
 10
5.3819807480314958
 20
-2.2890905118110236
 30
0
 11
5.3769753149606299
 21
-2.2857459842519683
 31
0
  0
LINE
  5
21C
330
24
100
AcDbEntity
  8
B.Mask
  6
CONTINUOUS
100
AcDbLine
 10
5.3769753149606299
 20
-2.2857459842519683
 30
0
 11
5.3727185826771651
 21
-2.2814892519685039
 31
0
  0
LINE
  5
21D
330
24
100
AcDbEntity
  8
B.Mask
  6
CONTINUOUS
100
AcDbLine
 10
5.3727185826771651
 20
-2.2814892519685039
 30
0
 11
5.3693740551181097
 21
-2.276483818897638
 31
0
  0
LINE
  5
21E
330
24
100
AcDbEntity
  8
B.Mask
  6
CONTINUOUS
100
AcDbLine
 10
5.3693740551181097
 20
-2.276483818897638
 30
0
 11
5.3670703543307088
 21
-2.270922125984252
 31
0
  0
LINE
  5
21F
330
24
100
AcDbEntity
  8
B.Mask
  6
CONTINUOUS
100
AcDbLine
 10
5.3670703543307088
 20
-2.270922125984252
 30
0
 11
5.3658959055118105
 21
-2.2650178346456693
 31
0
  0
LINE
  5
220
330
24
100
AcDbEntity
  8
B.Mask
  6
CONTINUOUS
100
AcDbLine
 10
5.3658959055118105
 20
-2.2650178346456693
 30
0
 11
5.3658959055118105
 21
-2.2589979133858269
 31
0
  0
LINE
  5
221
330
24
100
AcDbEntity
  8
B.Mask
  6
CONTINUOUS
100
AcDbLine
 10
5.3658959055118105
 20
-2.2589979133858269
 30
0
 11
5.3670703543307088
 21
-2.2530936220472442
 31
0
  0
LINE
  5
222
330
24
100
AcDbEntity
  8
B.Mask
  6
CONTINUOUS
100
AcDbLine
 10
5.3670703543307088
 20
-2.2530936220472442
 30
0
 11
5.3693740551181097
 21
-2.2475319291338582
 31
0
  0
LINE
  5
223
330
24
100
AcDbEntity
  8
B.Mask
  6
CONTINUOUS
100
AcDbLine
 10
5.3693740551181097
 20
-2.2475319291338582
 30
0
 11
5.3727185826771651
 21
-2.2425264960629923
 31
0
  0
LINE
  5
224
330
24
100
AcDbEntity
  8
B.Mask
  6
CONTINUOUS
100
AcDbLine
 10
5.3727185826771651
 20
-2.2425264960629923
 30
0
 11
5.3769753149606299
 21
-2.2382697637795275
 31
0
  0
LINE
  5
225
330
24
100
AcDbEntity
  8
B.Mask
  6
CONTINUOUS
100
AcDbLine
 10
5.3769753149606299
 20
-2.2382697637795275
 30
0
 11
5.3819807480314958
 21
-2.2349252362204726
 31
0
  0
LINE
  5
226
330
24
100
AcDbEntity
  8
B.Mask
  6
CONTINUOUS
100
AcDbLine
 10
5.3819807480314958
 20
-2.2349252362204726
 30
0
 11
5.3875424409448813
 21
-2.2326215354330707
 31
0
  0
LINE
  5
227
330
24
100
AcDbEntity
  8
B.Mask
  6
CONTINUOUS
100
AcDbLine
 10
5.3875424409448813
 20
-2.2326215354330707
 30
0
 11
5.3934467322834641
 21
-2.2314470866141733
 31
0
  0
LINE
  5
228
330
24
100
AcDbEntity
  8
B.Mask
  6
CONTINUOUS
100
AcDbLine
 10
5.3934467322834641
 20
-2.2314470866141733
 30
0
 11
5.3994666535433069
 21
-2.2314470866141733
 31
0
  0
LINE
  5
229
330
24
100
AcDbEntity
  8
B.Mask
  6
CONTINUOUS
100
AcDbLine
 10
5.3994666535433069
 20
-2.2314470866141733
 30
0
 11
5.4053709448818896
 21
-2.2326215354330707
 31
0
  0
LINE
  5
22A
330
24
100
AcDbEntity
  8
B.Mask
  6
CONTINUOUS
100
AcDbLine
 10
5.5053709448818893
 20
-2.2326215354330707
 30
0
 11
5.5109326377952756
 21
-2.2349252362204726
 31
0
  0
LINE
  5
22B
330
24
100
AcDbEntity
  8
B.Mask
  6
CONTINUOUS
100
AcDbLine
 10
5.5109326377952756
 20
-2.2349252362204726
 30
0
 11
5.5159380708661416
 21
-2.2382697637795275
 31
0
  0
LINE
  5
22C
330
24
100
AcDbEntity
  8
B.Mask
  6
CONTINUOUS
100
AcDbLine
 10
5.5159380708661416
 20
-2.2382697637795275
 30
0
 11
5.5201948031496064
 21
-2.2425264960629923
 31
0
  0
LINE
  5
22D
330
24
100
AcDbEntity
  8
B.Mask
  6
CONTINUOUS
100
AcDbLine
 10
5.5201948031496064
 20
-2.2425264960629923
 30
0
 11
5.5235393307086609
 21
-2.2475319291338582
 31
0
  0
LINE
  5
22E
330
24
100
AcDbEntity
  8
B.Mask
  6
CONTINUOUS
100
AcDbLine
 10
5.5235393307086609
 20
-2.2475319291338582
 30
0
 11
5.5258430314960627
 21
-2.2530936220472442
 31
0
  0
LINE
  5
22F
330
24
100
AcDbEntity
  8
B.Mask
  6
CONTINUOUS
100
AcDbLine
 10
5.5258430314960627
 20
-2.2530936220472442
 30
0
 11
5.5270174803149601
 21
-2.2589979133858269
 31
0
  0
LINE
  5
230
330
24
100
AcDbEntity
  8
B.Mask
  6
CONTINUOUS
100
AcDbLine
 10
5.5270174803149601
 20
-2.2589979133858269
 30
0
 11
5.5270174803149601
 21
-2.2650178346456693
 31
0
  0
LINE
  5
231
330
24
100
AcDbEntity
  8
B.Mask
  6
CONTINUOUS
100
AcDbLine
 10
5.5270174803149601
 20
-2.2650178346456693
 30
0
 11
5.5258430314960627
 21
-2.270922125984252
 31
0
  0
LINE
  5
232
330
24
100
AcDbEntity
  8
B.Mask
  6
CONTINUOUS
100
AcDbLine
 10
5.5258430314960627
 20
-2.270922125984252
 30
0
 11
5.5235393307086609
 21
-2.276483818897638
 31
0
  0
LINE
  5
233
330
24
100
AcDbEntity
  8
B.Mask
  6
CONTINUOUS
100
AcDbLine
 10
5.5235393307086609
 20
-2.276483818897638
 30
0
 11
5.5201948031496064
 21
-2.2814892519685039
 31
0
  0
LINE
  5
234
330
24
100
AcDbEntity
  8
B.Mask
  6
CONTINUOUS
100
AcDbLine
 10
5.5201948031496064
 20
-2.2814892519685039
 30
0
 11
5.5159380708661416
 21
-2.2857459842519683
 31
0
  0
LINE
  5
235
330
24
100
AcDbEntity
  8
B.Mask
  6
CONTINUOUS
100
AcDbLine
 10
5.5159380708661416
 20
-2.2857459842519683
 30
0
 11
5.5109326377952756
 21
-2.2890905118110236
 31
0
  0
LINE
  5
236
330
24
100
AcDbEntity
  8
B.Mask
  6
CONTINUOUS
100
AcDbLine
 10
5.5109326377952756
 20
-2.2890905118110236
 30
0
 11
5.5053709448818893
 21
-2.291394212598425
 31
0
  0
LINE
  5
237
330
24
100
AcDbEntity
  8
B.Mask
  6
CONTINUOUS
100
AcDbLine
 10
5.5053709448818893
 20
-2.291394212598425
 30
0
 11
5.4994666535433065
 21
-2.2925686614173229
 31
0
  0
LINE
  5
238
330
24
100
AcDbEntity
  8
B.Mask
  6
CONTINUOUS
100
AcDbLine
 10
5.4994666535433065
 20
-2.2925686614173229
 30
0
 11
5.4934467322834646
 21
-2.2925686614173229
 31
0
  0
LINE
  5
239
330
24
100
AcDbEntity
  8
B.Mask
  6
CONTINUOUS
100
AcDbLine
 10
5.4934467322834646
 20
-2.2925686614173229
 30
0
 11
5.4875424409448819
 21
-2.291394212598425
 31
0
  0
LINE
  5
23A
330
24
100
AcDbEntity
  8
B.Mask
  6
CONTINUOUS
100
AcDbLine
 10
5.4875424409448819
 20
-2.291394212598425
 30
0
 11
5.4819807480314964
 21
-2.2890905118110236
 31
0
  0
LINE
  5
23B
330
24
100
AcDbEntity
  8
B.Mask
  6
CONTINUOUS
100
AcDbLine
 10
5.4819807480314964
 20
-2.2890905118110236
 30
0
 11
5.4769753149606295
 21
-2.2857459842519683
 31
0
  0
LINE
  5
23C
330
24
100
AcDbEntity
  8
B.Mask
  6
CONTINUOUS
100
AcDbLine
 10
5.4769753149606295
 20
-2.2857459842519683
 30
0
 11
5.4727185826771656
 21
-2.2814892519685039
 31
0
  0
LINE
  5
23D
330
24
100
AcDbEntity
  8
B.Mask
  6
CONTINUOUS
100
AcDbLine
 10
5.4727185826771656
 20
-2.2814892519685039
 30
0
 11
5.4693740551181103
 21
-2.276483818897638
 31
0
  0
LINE
  5
23E
330
24
100
AcDbEntity
  8
B.Mask
  6
CONTINUOUS
100
AcDbLine
 10
5.4693740551181103
 20
-2.276483818897638
 30
0
 11
5.4670703543307084
 21
-2.270922125984252
 31
0
  0
LINE
  5
23F
330
24
100
AcDbEntity
  8
B.Mask
  6
CONTINUOUS
100
AcDbLine
 10
5.4670703543307084
 20
-2.270922125984252
 30
0
 11
5.465895905511811
 21
-2.2650178346456693
 31
0
  0
LINE
  5
240
330
24
100
AcDbEntity
  8
B.Mask
  6
CONTINUOUS
100
AcDbLine
 10
5.465895905511811
 20
-2.2650178346456693
 30
0
 11
5.465895905511811
 21
-2.2589979133858269
 31
0
  0
LINE
  5
241
330
24
100
AcDbEntity
  8
B.Mask
  6
CONTINUOUS
100
AcDbLine
 10
5.465895905511811
 20
-2.2589979133858269
 30
0
 11
5.4670703543307084
 21
-2.2530936220472442
 31
0
  0
LINE
  5
242
330
24
100
AcDbEntity
  8
B.Mask
  6
CONTINUOUS
100
AcDbLine
 10
5.4670703543307084
 20
-2.2530936220472442
 30
0
 11
5.4693740551181103
 21
-2.2475319291338582
 31
0
  0
LINE
  5
243
330
24
100
AcDbEntity
  8
B.Mask
  6
CONTINUOUS
100
AcDbLine
 10
5.4693740551181103
 20
-2.2475319291338582
 30
0
 11
5.4727185826771656
 21
-2.2425264960629923
 31
0
  0
LINE
  5
244
330
24
100
AcDbEntity
  8
B.Mask
  6
CONTINUOUS
100
AcDbLine
 10
5.4727185826771656
 20
-2.2425264960629923
 30
0
 11
5.4769753149606295
 21
-2.2382697637795275
 31
0
  0
LINE
  5
245
330
24
100
AcDbEntity
  8
B.Mask
  6
CONTINUOUS
100
AcDbLine
 10
5.4769753149606295
 20
-2.2382697637795275
 30
0
 11
5.4819807480314964
 21
-2.2349252362204726
 31
0
  0
LINE
  5
246
330
24
100
AcDbEntity
  8
B.Mask
  6
CONTINUOUS
100
AcDbLine
 10
5.4819807480314964
 20
-2.2349252362204726
 30
0
 11
5.4875424409448819
 21
-2.2326215354330707
 31
0
  0
LINE
  5
247
330
24
100
AcDbEntity
  8
B.Mask
  6
CONTINUOUS
100
AcDbLine
 10
5.4875424409448819
 20
-2.2326215354330707
 30
0
 11
5.4934467322834646
 21
-2.2314470866141733
 31
0
  0
LINE
  5
248
330
24
100
AcDbEntity
  8
B.Mask
  6
CONTINUOUS
100
AcDbLine
 10
5.4934467322834646
 20
-2.2314470866141733
 30
0
 11
5.4994666535433065
 21
-2.2314470866141733
 31
0
  0
LINE
  5
249
330
24
100
AcDbEntity
  8
B.Mask
  6
CONTINUOUS
100
AcDbLine
 10
5.4994666535433065
 20
-2.2314470866141733
 30
0
 11
5.5053709448818893
 21
-2.2326215354330707
 31
0
  0
LINE
  5
24A
330
24
100
AcDbEntity
  8
B.Mask
  6
CONTINUOUS
100
AcDbLine
 10
5.6053709448818898
 20
-2.2326215354330707
 30
0
 11
5.6109326377952753
 21
-2.2349252362204726
 31
0
  0
LINE
  5
24B
330
24
100
AcDbEntity
  8
B.Mask
  6
CONTINUOUS
100
AcDbLine
 10
5.6109326377952753
 20
-2.2349252362204726
 30
0
 11
5.6159380708661413
 21
-2.2382697637795275
 31
0
  0
LINE
  5
24C
330
24
100
AcDbEntity
  8
B.Mask
  6
CONTINUOUS
100
AcDbLine
 10
5.6159380708661413
 20
-2.2382697637795275
 30
0
 11
5.6201948031496061
 21
-2.2425264960629923
 31
0
  0
LINE
  5
24D
330
24
100
AcDbEntity
  8
B.Mask
  6
CONTINUOUS
100
AcDbLine
 10
5.6201948031496061
 20
-2.2425264960629923
 30
0
 11
5.6235393307086614
 21
-2.2475319291338582
 31
0
  0
LINE
  5
24E
330
24
100
AcDbEntity
  8
B.Mask
  6
CONTINUOUS
100
AcDbLine
 10
5.6235393307086614
 20
-2.2475319291338582
 30
0
 11
5.6258430314960632
 21
-2.2530936220472442
 31
0
  0
LINE
  5
24F
330
24
100
AcDbEntity
  8
B.Mask
  6
CONTINUOUS
100
AcDbLine
 10
5.6258430314960632
 20
-2.2530936220472442
 30
0
 11
5.6270174803149606
 21
-2.2589979133858269
 31
0
  0
LINE
  5
250
330
24
100
AcDbEntity
  8
B.Mask
  6
CONTINUOUS
100
AcDbLine
 10
5.6270174803149606
 20
-2.2589979133858269
 30
0
 11
5.6270174803149606
 21
-2.2650178346456693
 31
0
  0
LINE
  5
251
330
24
100
AcDbEntity
  8
B.Mask
  6
CONTINUOUS
100
AcDbLine
 10
5.6270174803149606
 20
-2.2650178346456693
 30
0
 11
5.6258430314960632
 21
-2.270922125984252
 31
0
  0
LINE
  5
252
330
24
100
AcDbEntity
  8
B.Mask
  6
CONTINUOUS
100
AcDbLine
 10
5.6258430314960632
 20
-2.270922125984252
 30
0
 11
5.6235393307086614
 21
-2.276483818897638
 31
0
  0
LINE
  5
253
330
24
100
AcDbEntity
  8
B.Mask
  6
CONTINUOUS
100
AcDbLine
 10
5.6235393307086614
 20
-2.276483818897638
 30
0
 11
5.6201948031496061
 21
-2.2814892519685039
 31
0
  0
LINE
  5
254
330
24
100
AcDbEntity
  8
B.Mask
  6
CONTINUOUS
100
AcDbLine
 10
5.6201948031496061
 20
-2.2814892519685039
 30
0
 11
5.6159380708661413
 21
-2.2857459842519683
 31
0
  0
LINE
  5
255
330
24
100
AcDbEntity
  8
B.Mask
  6
CONTINUOUS
100
AcDbLine
 10
5.6159380708661413
 20
-2.2857459842519683
 30
0
 11
5.6109326377952753
 21
-2.2890905118110236
 31
0
  0
LINE
  5
256
330
24
100
AcDbEntity
  8
B.Mask
  6
CONTINUOUS
100
AcDbLine
 10
5.6109326377952753
 20
-2.2890905118110236
 30
0
 11
5.6053709448818898
 21
-2.291394212598425
 31
0
  0
LINE
  5
257
330
24
100
AcDbEntity
  8
B.Mask
  6
CONTINUOUS
100
AcDbLine
 10
5.6053709448818898
 20
-2.291394212598425
 30
0
 11
5.5994666535433071
 21
-2.2925686614173229
 31
0
  0
LINE
  5
258
330
24
100
AcDbEntity
  8
B.Mask
  6
CONTINUOUS
100
AcDbLine
 10
5.5994666535433071
 20
-2.2925686614173229
 30
0
 11
5.5934467322834642
 21
-2.2925686614173229
 31
0
  0
LINE
  5
259
330
24
100
AcDbEntity
  8
B.Mask
  6
CONTINUOUS
100
AcDbLine
 10
5.5934467322834642
 20
-2.2925686614173229
 30
0
 11
5.5875424409448815
 21
-2.291394212598425
 31
0
  0
LINE
  5
25A
330
24
100
AcDbEntity
  8
B.Mask
  6
CONTINUOUS
100
AcDbLine
 10
5.5875424409448815
 20
-2.291394212598425
 30
0
 11
5.581980748031496
 21
-2.2890905118110236
 31
0
  0
LINE
  5
25B
330
24
100
AcDbEntity
  8
B.Mask
  6
CONTINUOUS
100
AcDbLine
 10
5.581980748031496
 20
-2.2890905118110236
 30
0
 11
5.57697531496063
 21
-2.2857459842519683
 31
0
  0
LINE
  5
25C
330
24
100
AcDbEntity
  8
B.Mask
  6
CONTINUOUS
100
AcDbLine
 10
5.57697531496063
 20
-2.2857459842519683
 30
0
 11
5.5727185826771652
 21
-2.2814892519685039
 31
0
  0
LINE
  5
25D
330
24
100
AcDbEntity
  8
B.Mask
  6
CONTINUOUS
100
AcDbLine
 10
5.5727185826771652
 20
-2.2814892519685039
 30
0
 11
5.5693740551181099
 21
-2.276483818897638
 31
0
  0
LINE
  5
25E
330
24
100
AcDbEntity
  8
B.Mask
  6
CONTINUOUS
100
AcDbLine
 10
5.5693740551181099
 20
-2.276483818897638
 30
0
 11
5.567070354330709
 21
-2.270922125984252
 31
0
  0
LINE
  5
25F
330
24
100
AcDbEntity
  8
B.Mask
  6
CONTINUOUS
100
AcDbLine
 10
5.567070354330709
 20
-2.270922125984252
 30
0
 11
5.5658959055118107
 21
-2.2650178346456693
 31
0
  0
LINE
  5
260
330
24
100
AcDbEntity
  8
B.Mask
  6
CONTINUOUS
100
AcDbLine
 10
5.5658959055118107
 20
-2.2650178346456693
 30
0
 11
5.5658959055118107
 21
-2.2589979133858269
 31
0
  0
LINE
  5
261
330
24
100
AcDbEntity
  8
B.Mask
  6
CONTINUOUS
100
AcDbLine
 10
5.5658959055118107
 20
-2.2589979133858269
 30
0
 11
5.567070354330709
 21
-2.2530936220472442
 31
0
  0
LINE
  5
262
330
24
100
AcDbEntity
  8
B.Mask
  6
CONTINUOUS
100
AcDbLine
 10
5.567070354330709
 20
-2.2530936220472442
 30
0
 11
5.5693740551181099
 21
-2.2475319291338582
 31
0
  0
LINE
  5
263
330
24
100
AcDbEntity
  8
B.Mask
  6
CONTINUOUS
100
AcDbLine
 10
5.5693740551181099
 20
-2.2475319291338582
 30
0
 11
5.5727185826771652
 21
-2.2425264960629923
 31
0
  0
LINE
  5
264
330
24
100
AcDbEntity
  8
B.Mask
  6
CONTINUOUS
100
AcDbLine
 10
5.5727185826771652
 20
-2.2425264960629923
 30
0
 11
5.57697531496063
 21
-2.2382697637795275
 31
0
  0
LINE
  5
265
330
24
100
AcDbEntity
  8
B.Mask
  6
CONTINUOUS
100
AcDbLine
 10
5.57697531496063
 20
-2.2382697637795275
 30
0
 11
5.581980748031496
 21
-2.2349252362204726
 31
0
  0
LINE
  5
266
330
24
100
AcDbEntity
  8
B.Mask
  6
CONTINUOUS
100
AcDbLine
 10
5.581980748031496
 20
-2.2349252362204726
 30
0
 11
5.5875424409448815
 21
-2.2326215354330707
 31
0
  0
LINE
  5
267
330
24
100
AcDbEntity
  8
B.Mask
  6
CONTINUOUS
100
AcDbLine
 10
5.5875424409448815
 20
-2.2326215354330707
 30
0
 11
5.5934467322834642
 21
-2.2314470866141733
 31
0
  0
LINE
  5
268
330
24
100
AcDbEntity
  8
B.Mask
  6
CONTINUOUS
100
AcDbLine
 10
5.5934467322834642
 20
-2.2314470866141733
 30
0
 11
5.5994666535433071
 21
-2.2314470866141733
 31
0
  0
LINE
  5
269
330
24
100
AcDbEntity
  8
B.Mask
  6
CONTINUOUS
100
AcDbLine
 10
5.5994666535433071
 20
-2.2314470866141733
 30
0
 11
5.6053709448818898
 21
-2.2326215354330707
 31
0
  0
LINE
  5
26A
330
24
100
AcDbEntity
  8
B.Mask
  6
CONTINUOUS
100
AcDbLine
 10
5.7053709448818895
 20
-2.2326215354330707
 30
0
 11
5.7109326377952758
 21
-2.2349252362204726
 31
0
  0
LINE
  5
26B
330
24
100
AcDbEntity
  8
B.Mask
  6
CONTINUOUS
100
AcDbLine
 10
5.7109326377952758
 20
-2.2349252362204726
 30
0
 11
5.7159380708661418
 21
-2.2382697637795275
 31
0
  0
LINE
  5
26C
330
24
100
AcDbEntity
  8
B.Mask
  6
CONTINUOUS
100
AcDbLine
 10
5.7159380708661418
 20
-2.2382697637795275
 30
0
 11
5.7201948031496066
 21
-2.2425264960629923
 31
0
  0
LINE
  5
26D
330
24
100
AcDbEntity
  8
B.Mask
  6
CONTINUOUS
100
AcDbLine
 10
5.7201948031496066
 20
-2.2425264960629923
 30
0
 11
5.7235393307086611
 21
-2.2475319291338582
 31
0
  0
LINE
  5
26E
330
24
100
AcDbEntity
  8
B.Mask
  6
CONTINUOUS
100
AcDbLine
 10
5.7235393307086611
 20
-2.2475319291338582
 30
0
 11
5.7258430314960629
 21
-2.2530936220472442
 31
0
  0
LINE
  5
26F
330
24
100
AcDbEntity
  8
B.Mask
  6
CONTINUOUS
100
AcDbLine
 10
5.7258430314960629
 20
-2.2530936220472442
 30
0
 11
5.7270174803149603
 21
-2.2589979133858269
 31
0
  0
LINE
  5
270
330
24
100
AcDbEntity
  8
B.Mask
  6
CONTINUOUS
100
AcDbLine
 10
5.7270174803149603
 20
-2.2589979133858269
 30
0
 11
5.7270174803149603
 21
-2.2650178346456693
 31
0
  0
LINE
  5
271
330
24
100
AcDbEntity
  8
B.Mask
  6
CONTINUOUS
100
AcDbLine
 10
5.7270174803149603
 20
-2.2650178346456693
 30
0
 11
5.7258430314960629
 21
-2.270922125984252
 31
0
  0
LINE
  5
272
330
24
100
AcDbEntity
  8
B.Mask
  6
CONTINUOUS
100
AcDbLine
 10
5.7258430314960629
 20
-2.270922125984252
 30
0
 11
5.7235393307086611
 21
-2.276483818897638
 31
0
  0
LINE
  5
273
330
24
100
AcDbEntity
  8
B.Mask
  6
CONTINUOUS
100
AcDbLine
 10
5.7235393307086611
 20
-2.276483818897638
 30
0
 11
5.7201948031496066
 21
-2.2814892519685039
 31
0
  0
LINE
  5
274
330
24
100
AcDbEntity
  8
B.Mask
  6
CONTINUOUS
100
AcDbLine
 10
5.7201948031496066
 20
-2.2814892519685039
 30
0
 11
5.7159380708661418
 21
-2.2857459842519683
 31
0
  0
LINE
  5
275
330
24
100
AcDbEntity
  8
B.Mask
  6
CONTINUOUS
100
AcDbLine
 10
5.7159380708661418
 20
-2.2857459842519683
 30
0
 11
5.7109326377952758
 21
-2.2890905118110236
 31
0
  0
LINE
  5
276
330
24
100
AcDbEntity
  8
B.Mask
  6
CONTINUOUS
100
AcDbLine
 10
5.7109326377952758
 20
-2.2890905118110236
 30
0
 11
5.7053709448818895
 21
-2.291394212598425
 31
0
  0
LINE
  5
277
330
24
100
AcDbEntity
  8
B.Mask
  6
CONTINUOUS
100
AcDbLine
 10
5.7053709448818895
 20
-2.291394212598425
 30
0
 11
5.6994666535433067
 21
-2.2925686614173229
 31
0
  0
LINE
  5
278
330
24
100
AcDbEntity
  8
B.Mask
  6
CONTINUOUS
100
AcDbLine
 10
5.6994666535433067
 20
-2.2925686614173229
 30
0
 11
5.6934467322834648
 21
-2.2925686614173229
 31
0
  0
LINE
  5
279
330
24
100
AcDbEntity
  8
B.Mask
  6
CONTINUOUS
100
AcDbLine
 10
5.6934467322834648
 20
-2.2925686614173229
 30
0
 11
5.687542440944882
 21
-2.291394212598425
 31
0
  0
LINE
  5
27A
330
24
100
AcDbEntity
  8
B.Mask
  6
CONTINUOUS
100
AcDbLine
 10
5.687542440944882
 20
-2.291394212598425
 30
0
 11
5.6819807480314957
 21
-2.2890905118110236
 31
0
  0
LINE
  5
27B
330
24
100
AcDbEntity
  8
B.Mask
  6
CONTINUOUS
100
AcDbLine
 10
5.6819807480314957
 20
-2.2890905118110236
 30
0
 11
5.6769753149606297
 21
-2.2857459842519683
 31
0
  0
LINE
  5
27C
330
24
100
AcDbEntity
  8
B.Mask
  6
CONTINUOUS
100
AcDbLine
 10
5.6769753149606297
 20
-2.2857459842519683
 30
0
 11
5.6727185826771649
 21
-2.2814892519685039
 31
0
  0
LINE
  5
27D
330
24
100
AcDbEntity
  8
B.Mask
  6
CONTINUOUS
100
AcDbLine
 10
5.6727185826771649
 20
-2.2814892519685039
 30
0
 11
5.6693740551181104
 21
-2.276483818897638
 31
0
  0
LINE
  5
27E
330
24
100
AcDbEntity
  8
B.Mask
  6
CONTINUOUS
100
AcDbLine
 10
5.6693740551181104
 20
-2.276483818897638
 30
0
 11
5.6670703543307086
 21
-2.270922125984252
 31
0
  0
LINE
  5
27F
330
24
100
AcDbEntity
  8
B.Mask
  6
CONTINUOUS
100
AcDbLine
 10
5.6670703543307086
 20
-2.270922125984252
 30
0
 11
5.6658959055118112
 21
-2.2650178346456693
 31
0
  0
LINE
  5
280
330
24
100
AcDbEntity
  8
B.Mask
  6
CONTINUOUS
100
AcDbLine
 10
5.6658959055118112
 20
-2.2650178346456693
 30
0
 11
5.6658959055118112
 21
-2.2589979133858269
 31
0
  0
LINE
  5
281
330
24
100
AcDbEntity
  8
B.Mask
  6
CONTINUOUS
100
AcDbLine
 10
5.6658959055118112
 20
-2.2589979133858269
 30
0
 11
5.6670703543307086
 21
-2.2530936220472442
 31
0
  0
LINE
  5
282
330
24
100
AcDbEntity
  8
B.Mask
  6
CONTINUOUS
100
AcDbLine
 10
5.6670703543307086
 20
-2.2530936220472442
 30
0
 11
5.6693740551181104
 21
-2.2475319291338582
 31
0
  0
LINE
  5
283
330
24
100
AcDbEntity
  8
B.Mask
  6
CONTINUOUS
100
AcDbLine
 10
5.6693740551181104
 20
-2.2475319291338582
 30
0
 11
5.6727185826771649
 21
-2.2425264960629923
 31
0
  0
LINE
  5
284
330
24
100
AcDbEntity
  8
B.Mask
  6
CONTINUOUS
100
AcDbLine
 10
5.6727185826771649
 20
-2.2425264960629923
 30
0
 11
5.6769753149606297
 21
-2.2382697637795275
 31
0
  0
LINE
  5
285
330
24
100
AcDbEntity
  8
B.Mask
  6
CONTINUOUS
100
AcDbLine
 10
5.6769753149606297
 20
-2.2382697637795275
 30
0
 11
5.6819807480314957
 21
-2.2349252362204726
 31
0
  0
LINE
  5
286
330
24
100
AcDbEntity
  8
B.Mask
  6
CONTINUOUS
100
AcDbLine
 10
5.6819807480314957
 20
-2.2349252362204726
 30
0
 11
5.687542440944882
 21
-2.2326215354330707
 31
0
  0
LINE
  5
287
330
24
100
AcDbEntity
  8
B.Mask
  6
CONTINUOUS
100
AcDbLine
 10
5.687542440944882
 20
-2.2326215354330707
 30
0
 11
5.6934467322834648
 21
-2.2314470866141733
 31
0
  0
LINE
  5
288
330
24
100
AcDbEntity
  8
B.Mask
  6
CONTINUOUS
100
AcDbLine
 10
5.6934467322834648
 20
-2.2314470866141733
 30
0
 11
5.6994666535433067
 21
-2.2314470866141733
 31
0
  0
LINE
  5
289
330
24
100
AcDbEntity
  8
B.Mask
  6
CONTINUOUS
100
AcDbLine
 10
5.6994666535433067
 20
-2.2314470866141733
 30
0
 11
5.7053709448818895
 21
-2.2326215354330707
 31
0
  0
LINE
  5
28A
330
24
100
AcDbEntity
  8
B.Mask
  6
CONTINUOUS
100
AcDbLine
 10
5.80537094488189
 20
-2.2326215354330707
 30
0
 11
5.8109326377952755
 21
-2.2349252362204726
 31
0
  0
LINE
  5
28B
330
24
100
AcDbEntity
  8
B.Mask
  6
CONTINUOUS
100
AcDbLine
 10
5.8109326377952755
 20
-2.2349252362204726
 30
0
 11
5.8159380708661415
 21
-2.2382697637795275
 31
0
  0
LINE
  5
28C
330
24
100
AcDbEntity
  8
B.Mask
  6
CONTINUOUS
100
AcDbLine
 10
5.8159380708661415
 20
-2.2382697637795275
 30
0
 11
5.8201948031496062
 21
-2.2425264960629923
 31
0
  0
LINE
  5
28D
330
24
100
AcDbEntity
  8
B.Mask
  6
CONTINUOUS
100
AcDbLine
 10
5.8201948031496062
 20
-2.2425264960629923
 30
0
 11
5.8235393307086616
 21
-2.2475319291338582
 31
0
  0
LINE
  5
28E
330
24
100
AcDbEntity
  8
B.Mask
  6
CONTINUOUS
100
AcDbLine
 10
5.8235393307086616
 20
-2.2475319291338582
 30
0
 11
5.8258430314960625
 21
-2.2530936220472442
 31
0
  0
LINE
  5
28F
330
24
100
AcDbEntity
  8
B.Mask
  6
CONTINUOUS
100
AcDbLine
 10
5.8258430314960625
 20
-2.2530936220472442
 30
0
 11
5.8270174803149608
 21
-2.2589979133858269
 31
0
  0
LINE
  5
290
330
24
100
AcDbEntity
  8
B.Mask
  6
CONTINUOUS
100
AcDbLine
 10
5.8270174803149608
 20
-2.2589979133858269
 30
0
 11
5.8270174803149608
 21
-2.2650178346456693
 31
0
  0
LINE
  5
291
330
24
100
AcDbEntity
  8
B.Mask
  6
CONTINUOUS
100
AcDbLine
 10
5.8270174803149608
 20
-2.2650178346456693
 30
0
 11
5.8258430314960625
 21
-2.270922125984252
 31
0
  0
LINE
  5
292
330
24
100
AcDbEntity
  8
B.Mask
  6
CONTINUOUS
100
AcDbLine
 10
5.8258430314960625
 20
-2.270922125984252
 30
0
 11
5.8235393307086616
 21
-2.276483818897638
 31
0
  0
LINE
  5
293
330
24
100
AcDbEntity
  8
B.Mask
  6
CONTINUOUS
100
AcDbLine
 10
5.8235393307086616
 20
-2.276483818897638
 30
0
 11
5.8201948031496062
 21
-2.2814892519685039
 31
0
  0
LINE
  5
294
330
24
100
AcDbEntity
  8
B.Mask
  6
CONTINUOUS
100
AcDbLine
 10
5.8201948031496062
 20
-2.2814892519685039
 30
0
 11
5.8159380708661415
 21
-2.2857459842519683
 31
0
  0
LINE
  5
295
330
24
100
AcDbEntity
  8
B.Mask
  6
CONTINUOUS
100
AcDbLine
 10
5.8159380708661415
 20
-2.2857459842519683
 30
0
 11
5.8109326377952755
 21
-2.2890905118110236
 31
0
  0
LINE
  5
296
330
24
100
AcDbEntity
  8
B.Mask
  6
CONTINUOUS
100
AcDbLine
 10
5.8109326377952755
 20
-2.2890905118110236
 30
0
 11
5.80537094488189
 21
-2.291394212598425
 31
0
  0
LINE
  5
297
330
24
100
AcDbEntity
  8
B.Mask
  6
CONTINUOUS
100
AcDbLine
 10
5.80537094488189
 20
-2.291394212598425
 30
0
 11
5.7994666535433073
 21
-2.2925686614173229
 31
0
  0
LINE
  5
298
330
24
100
AcDbEntity
  8
B.Mask
  6
CONTINUOUS
100
AcDbLine
 10
5.7994666535433073
 20
-2.2925686614173229
 30
0
 11
5.7934467322834644
 21
-2.2925686614173229
 31
0
  0
LINE
  5
299
330
24
100
AcDbEntity
  8
B.Mask
  6
CONTINUOUS
100
AcDbLine
 10
5.7934467322834644
 20
-2.2925686614173229
 30
0
 11
5.7875424409448817
 21
-2.291394212598425
 31
0
  0
LINE
  5
29A
330
24
100
AcDbEntity
  8
B.Mask
  6
CONTINUOUS
100
AcDbLine
 10
5.7875424409448817
 20
-2.291394212598425
 30
0
 11
5.7819807480314962
 21
-2.2890905118110236
 31
0
  0
LINE
  5
29B
330
24
100
AcDbEntity
  8
B.Mask
  6
CONTINUOUS
100
AcDbLine
 10
5.7819807480314962
 20
-2.2890905118110236
 30
0
 11
5.7769753149606302
 21
-2.2857459842519683
 31
0
  0
LINE
  5
29C
330
24
100
AcDbEntity
  8
B.Mask
  6
CONTINUOUS
100
AcDbLine
 10
5.7769753149606302
 20
-2.2857459842519683
 30
0
 11
5.7727185826771654
 21
-2.2814892519685039
 31
0
  0
LINE
  5
29D
330
24
100
AcDbEntity
  8
B.Mask
  6
CONTINUOUS
100
AcDbLine
 10
5.7727185826771654
 20
-2.2814892519685039
 30
0
 11
5.7693740551181101
 21
-2.276483818897638
 31
0
  0
LINE
  5
29E
330
24
100
AcDbEntity
  8
B.Mask
  6
CONTINUOUS
100
AcDbLine
 10
5.7693740551181101
 20
-2.276483818897638
 30
0
 11
5.7670703543307082
 21
-2.270922125984252
 31
0
  0
LINE
  5
29F
330
24
100
AcDbEntity
  8
B.Mask
  6
CONTINUOUS
100
AcDbLine
 10
5.7670703543307082
 20
-2.270922125984252
 30
0
 11
5.7658959055118109
 21
-2.2650178346456693
 31
0
  0
LINE
  5
2A0
330
24
100
AcDbEntity
  8
B.Mask
  6
CONTINUOUS
100
AcDbLine
 10
5.7658959055118109
 20
-2.2650178346456693
 30
0
 11
5.7658959055118109
 21
-2.2589979133858269
 31
0
  0
LINE
  5
2A1
330
24
100
AcDbEntity
  8
B.Mask
  6
CONTINUOUS
100
AcDbLine
 10
5.7658959055118109
 20
-2.2589979133858269
 30
0
 11
5.7670703543307082
 21
-2.2530936220472442
 31
0
  0
LINE
  5
2A2
330
24
100
AcDbEntity
  8
B.Mask
  6
CONTINUOUS
100
AcDbLine
 10
5.7670703543307082
 20
-2.2530936220472442
 30
0
 11
5.7693740551181101
 21
-2.2475319291338582
 31
0
  0
LINE
  5
2A3
330
24
100
AcDbEntity
  8
B.Mask
  6
CONTINUOUS
100
AcDbLine
 10
5.7693740551181101
 20
-2.2475319291338582
 30
0
 11
5.7727185826771654
 21
-2.2425264960629923
 31
0
  0
LINE
  5
2A4
330
24
100
AcDbEntity
  8
B.Mask
  6
CONTINUOUS
100
AcDbLine
 10
5.7727185826771654
 20
-2.2425264960629923
 30
0
 11
5.7769753149606302
 21
-2.2382697637795275
 31
0
  0
LINE
  5
2A5
330
24
100
AcDbEntity
  8
B.Mask
  6
CONTINUOUS
100
AcDbLine
 10
5.7769753149606302
 20
-2.2382697637795275
 30
0
 11
5.7819807480314962
 21
-2.2349252362204726
 31
0
  0
LINE
  5
2A6
330
24
100
AcDbEntity
  8
B.Mask
  6
CONTINUOUS
100
AcDbLine
 10
5.7819807480314962
 20
-2.2349252362204726
 30
0
 11
5.7875424409448817
 21
-2.2326215354330707
 31
0
  0
LINE
  5
2A7
330
24
100
AcDbEntity
  8
B.Mask
  6
CONTINUOUS
100
AcDbLine
 10
5.7875424409448817
 20
-2.2326215354330707
 30
0
 11
5.7934467322834644
 21
-2.2314470866141733
 31
0
  0
LINE
  5
2A8
330
24
100
AcDbEntity
  8
B.Mask
  6
CONTINUOUS
100
AcDbLine
 10
5.7934467322834644
 20
-2.2314470866141733
 30
0
 11
5.7994666535433073
 21
-2.2314470866141733
 31
0
  0
LINE
  5
2A9
330
24
100
AcDbEntity
  8
B.Mask
  6
CONTINUOUS
100
AcDbLine
 10
5.7994666535433073
 20
-2.2314470866141733
 30
0
 11
5.80537094488189
 21
-2.2326215354330707
 31
0
  0
LINE
  5
2AA
330
24
100
AcDbEntity
  8
B.Mask
  6
CONTINUOUS
100
AcDbLine
 10
5.9053709448818896
 20
-2.2326215354330707
 30
0
 11
5.9109326377952751
 21
-2.2349252362204726
 31
0
  0
LINE
  5
2AB
330
24
100
AcDbEntity
  8
B.Mask
  6
CONTINUOUS
100
AcDbLine
 10
5.9109326377952751
 20
-2.2349252362204726
 30
0
 11
5.915938070866142
 21
-2.2382697637795275
 31
0
  0
LINE
  5
2AC
330
24
100
AcDbEntity
  8
B.Mask
  6
CONTINUOUS
100
AcDbLine
 10
5.915938070866142
 20
-2.2382697637795275
 30
0
 11
5.9201948031496059
 21
-2.2425264960629923
 31
0
  0
LINE
  5
2AD
330
24
100
AcDbEntity
  8
B.Mask
  6
CONTINUOUS
100
AcDbLine
 10
5.9201948031496059
 20
-2.2425264960629923
 30
0
 11
5.9235393307086612
 21
-2.2475319291338582
 31
0
  0
LINE
  5
2AE
330
24
100
AcDbEntity
  8
B.Mask
  6
CONTINUOUS
100
AcDbLine
 10
5.9235393307086612
 20
-2.2475319291338582
 30
0
 11
5.9258430314960631
 21
-2.2530936220472442
 31
0
  0
LINE
  5
2AF
330
24
100
AcDbEntity
  8
B.Mask
  6
CONTINUOUS
100
AcDbLine
 10
5.9258430314960631
 20
-2.2530936220472442
 30
0
 11
5.9270174803149605
 21
-2.2589979133858269
 31
0
  0
LINE
  5
2B0
330
24
100
AcDbEntity
  8
B.Mask
  6
CONTINUOUS
100
AcDbLine
 10
5.9270174803149605
 20
-2.2589979133858269
 30
0
 11
5.9270174803149605
 21
-2.2650178346456693
 31
0
  0
LINE
  5
2B1
330
24
100
AcDbEntity
  8
B.Mask
  6
CONTINUOUS
100
AcDbLine
 10
5.9270174803149605
 20
-2.2650178346456693
 30
0
 11
5.9258430314960631
 21
-2.270922125984252
 31
0
  0
LINE
  5
2B2
330
24
100
AcDbEntity
  8
B.Mask
  6
CONTINUOUS
100
AcDbLine
 10
5.9258430314960631
 20
-2.270922125984252
 30
0
 11
5.9235393307086612
 21
-2.276483818897638
 31
0
  0
LINE
  5
2B3
330
24
100
AcDbEntity
  8
B.Mask
  6
CONTINUOUS
100
AcDbLine
 10
5.9235393307086612
 20
-2.276483818897638
 30
0
 11
5.9201948031496059
 21
-2.2814892519685039
 31
0
  0
LINE
  5
2B4
330
24
100
AcDbEntity
  8
B.Mask
  6
CONTINUOUS
100
AcDbLine
 10
5.9201948031496059
 20
-2.2814892519685039
 30
0
 11
5.915938070866142
 21
-2.2857459842519683
 31
0
  0
LINE
  5
2B5
330
24
100
AcDbEntity
  8
B.Mask
  6
CONTINUOUS
100
AcDbLine
 10
5.915938070866142
 20
-2.2857459842519683
 30
0
 11
5.9109326377952751
 21
-2.2890905118110236
 31
0
  0
LINE
  5
2B6
330
24
100
AcDbEntity
  8
B.Mask
  6
CONTINUOUS
100
AcDbLine
 10
5.9109326377952751
 20
-2.2890905118110236
 30
0
 11
5.9053709448818896
 21
-2.291394212598425
 31
0
  0
LINE
  5
2B7
330
24
100
AcDbEntity
  8
B.Mask
  6
CONTINUOUS
100
AcDbLine
 10
5.9053709448818896
 20
-2.291394212598425
 30
0
 11
5.8994666535433069
 21
-2.2925686614173229
 31
0
  0
LINE
  5
2B8
330
24
100
AcDbEntity
  8
B.Mask
  6
CONTINUOUS
100
AcDbLine
 10
5.8994666535433069
 20
-2.2925686614173229
 30
0
 11
5.8934467322834641
 21
-2.2925686614173229
 31
0
  0
LINE
  5
2B9
330
24
100
AcDbEntity
  8
B.Mask
  6
CONTINUOUS
100
AcDbLine
 10
5.8934467322834641
 20
-2.2925686614173229
 30
0
 11
5.8875424409448813
 21
-2.291394212598425
 31
0
  0
LINE
  5
2BA
330
24
100
AcDbEntity
  8
B.Mask
  6
CONTINUOUS
100
AcDbLine
 10
5.8875424409448813
 20
-2.291394212598425
 30
0
 11
5.8819807480314958
 21
-2.2890905118110236
 31
0
  0
LINE
  5
2BB
330
24
100
AcDbEntity
  8
B.Mask
  6
CONTINUOUS
100
AcDbLine
 10
5.8819807480314958
 20
-2.2890905118110236
 30
0
 11
5.8769753149606299
 21
-2.2857459842519683
 31
0
  0
LINE
  5
2BC
330
24
100
AcDbEntity
  8
B.Mask
  6
CONTINUOUS
100
AcDbLine
 10
5.8769753149606299
 20
-2.2857459842519683
 30
0
 11
5.8727185826771651
 21
-2.2814892519685039
 31
0
  0
LINE
  5
2BD
330
24
100
AcDbEntity
  8
B.Mask
  6
CONTINUOUS
100
AcDbLine
 10
5.8727185826771651
 20
-2.2814892519685039
 30
0
 11
5.8693740551181097
 21
-2.276483818897638
 31
0
  0
LINE
  5
2BE
330
24
100
AcDbEntity
  8
B.Mask
  6
CONTINUOUS
100
AcDbLine
 10
5.8693740551181097
 20
-2.276483818897638
 30
0
 11
5.8670703543307088
 21
-2.270922125984252
 31
0
  0
LINE
  5
2BF
330
24
100
AcDbEntity
  8
B.Mask
  6
CONTINUOUS
100
AcDbLine
 10
5.8670703543307088
 20
-2.270922125984252
 30
0
 11
5.8658959055118105
 21
-2.2650178346456693
 31
0
  0
LINE
  5
2C0
330
24
100
AcDbEntity
  8
B.Mask
  6
CONTINUOUS
100
AcDbLine
 10
5.8658959055118105
 20
-2.2650178346456693
 30
0
 11
5.8658959055118105
 21
-2.2589979133858269
 31
0
  0
LINE
  5
2C1
330
24
100
AcDbEntity
  8
B.Mask
  6
CONTINUOUS
100
AcDbLine
 10
5.8658959055118105
 20
-2.2589979133858269
 30
0
 11
5.8670703543307088
 21
-2.2530936220472442
 31
0
  0
LINE
  5
2C2
330
24
100
AcDbEntity
  8
B.Mask
  6
CONTINUOUS
100
AcDbLine
 10
5.8670703543307088
 20
-2.2530936220472442
 30
0
 11
5.8693740551181097
 21
-2.2475319291338582
 31
0
  0
LINE
  5
2C3
330
24
100
AcDbEntity
  8
B.Mask
  6
CONTINUOUS
100
AcDbLine
 10
5.8693740551181097
 20
-2.2475319291338582
 30
0
 11
5.8727185826771651
 21
-2.2425264960629923
 31
0
  0
LINE
  5
2C4
330
24
100
AcDbEntity
  8
B.Mask
  6
CONTINUOUS
100
AcDbLine
 10
5.8727185826771651
 20
-2.2425264960629923
 30
0
 11
5.8769753149606299
 21
-2.2382697637795275
 31
0
  0
LINE
  5
2C5
330
24
100
AcDbEntity
  8
B.Mask
  6
CONTINUOUS
100
AcDbLine
 10
5.8769753149606299
 20
-2.2382697637795275
 30
0
 11
5.8819807480314958
 21
-2.2349252362204726
 31
0
  0
LINE
  5
2C6
330
24
100
AcDbEntity
  8
B.Mask
  6
CONTINUOUS
100
AcDbLine
 10
5.8819807480314958
 20
-2.2349252362204726
 30
0
 11
5.8875424409448813
 21
-2.2326215354330707
 31
0
  0
LINE
  5
2C7
330
24
100
AcDbEntity
  8
B.Mask
  6
CONTINUOUS
100
AcDbLine
 10
5.8875424409448813
 20
-2.2326215354330707
 30
0
 11
5.8934467322834641
 21
-2.2314470866141733
 31
0
  0
LINE
  5
2C8
330
24
100
AcDbEntity
  8
B.Mask
  6
CONTINUOUS
100
AcDbLine
 10
5.8934467322834641
 20
-2.2314470866141733
 30
0
 11
5.8994666535433069
 21
-2.2314470866141733
 31
0
  0
LINE
  5
2C9
330
24
100
AcDbEntity
  8
B.Mask
  6
CONTINUOUS
100
AcDbLine
 10
5.8994666535433069
 20
-2.2314470866141733
 30
0
 11
5.9053709448818896
 21
-2.2326215354330707
 31
0
  0
LINE
  5
2CA
330
24
100
AcDbEntity
  8
B.Mask
  6
CONTINUOUS
100
AcDbLine
 10
6.0053709448818893
 20
-2.2326215354330707
 30
0
 11
6.0109326377952756
 21
-2.2349252362204726
 31
0
  0
LINE
  5
2CB
330
24
100
AcDbEntity
  8
B.Mask
  6
CONTINUOUS
100
AcDbLine
 10
6.0109326377952756
 20
-2.2349252362204726
 30
0
 11
6.0159380708661416
 21
-2.2382697637795275
 31
0
  0
LINE
  5
2CC
330
24
100
AcDbEntity
  8
B.Mask
  6
CONTINUOUS
100
AcDbLine
 10
6.0159380708661416
 20
-2.2382697637795275
 30
0
 11
6.0201948031496064
 21
-2.2425264960629923
 31
0
  0
LINE
  5
2CD
330
24
100
AcDbEntity
  8
B.Mask
  6
CONTINUOUS
100
AcDbLine
 10
6.0201948031496064
 20
-2.2425264960629923
 30
0
 11
6.0235393307086609
 21
-2.2475319291338582
 31
0
  0
LINE
  5
2CE
330
24
100
AcDbEntity
  8
B.Mask
  6
CONTINUOUS
100
AcDbLine
 10
6.0235393307086609
 20
-2.2475319291338582
 30
0
 11
6.0258430314960627
 21
-2.2530936220472442
 31
0
  0
LINE
  5
2CF
330
24
100
AcDbEntity
  8
B.Mask
  6
CONTINUOUS
100
AcDbLine
 10
6.0258430314960627
 20
-2.2530936220472442
 30
0
 11
6.0270174803149601
 21
-2.2589979133858269
 31
0
  0
LINE
  5
2D0
330
24
100
AcDbEntity
  8
B.Mask
  6
CONTINUOUS
100
AcDbLine
 10
6.0270174803149601
 20
-2.2589979133858269
 30
0
 11
6.0270174803149601
 21
-2.2650178346456693
 31
0
  0
LINE
  5
2D1
330
24
100
AcDbEntity
  8
B.Mask
  6
CONTINUOUS
100
AcDbLine
 10
6.0270174803149601
 20
-2.2650178346456693
 30
0
 11
6.0258430314960627
 21
-2.270922125984252
 31
0
  0
LINE
  5
2D2
330
24
100
AcDbEntity
  8
B.Mask
  6
CONTINUOUS
100
AcDbLine
 10
6.0258430314960627
 20
-2.270922125984252
 30
0
 11
6.0235393307086609
 21
-2.276483818897638
 31
0
  0
LINE
  5
2D3
330
24
100
AcDbEntity
  8
B.Mask
  6
CONTINUOUS
100
AcDbLine
 10
6.0235393307086609
 20
-2.276483818897638
 30
0
 11
6.0201948031496064
 21
-2.2814892519685039
 31
0
  0
LINE
  5
2D4
330
24
100
AcDbEntity
  8
B.Mask
  6
CONTINUOUS
100
AcDbLine
 10
6.0201948031496064
 20
-2.2814892519685039
 30
0
 11
6.0159380708661416
 21
-2.2857459842519683
 31
0
  0
LINE
  5
2D5
330
24
100
AcDbEntity
  8
B.Mask
  6
CONTINUOUS
100
AcDbLine
 10
6.0159380708661416
 20
-2.2857459842519683
 30
0
 11
6.0109326377952756
 21
-2.2890905118110236
 31
0
  0
LINE
  5
2D6
330
24
100
AcDbEntity
  8
B.Mask
  6
CONTINUOUS
100
AcDbLine
 10
6.0109326377952756
 20
-2.2890905118110236
 30
0
 11
6.0053709448818893
 21
-2.291394212598425
 31
0
  0
LINE
  5
2D7
330
24
100
AcDbEntity
  8
B.Mask
  6
CONTINUOUS
100
AcDbLine
 10
6.0053709448818893
 20
-2.291394212598425
 30
0
 11
5.9994666535433065
 21
-2.2925686614173229
 31
0
  0
LINE
  5
2D8
330
24
100
AcDbEntity
  8
B.Mask
  6
CONTINUOUS
100
AcDbLine
 10
5.9994666535433065
 20
-2.2925686614173229
 30
0
 11
5.9934467322834646
 21
-2.2925686614173229
 31
0
  0
LINE
  5
2D9
330
24
100
AcDbEntity
  8
B.Mask
  6
CONTINUOUS
100
AcDbLine
 10
5.9934467322834646
 20
-2.2925686614173229
 30
0
 11
5.9875424409448819
 21
-2.291394212598425
 31
0
  0
LINE
  5
2DA
330
24
100
AcDbEntity
  8
B.Mask
  6
CONTINUOUS
100
AcDbLine
 10
5.9875424409448819
 20
-2.291394212598425
 30
0
 11
5.9819807480314955
 21
-2.2890905118110236
 31
0
  0
LINE
  5
2DB
330
24
100
AcDbEntity
  8
B.Mask
  6
CONTINUOUS
100
AcDbLine
 10
5.9819807480314955
 20
-2.2890905118110236
 30
0
 11
5.9769753149606295
 21
-2.2857459842519683
 31
0
  0
LINE
  5
2DC
330
24
100
AcDbEntity
  8
B.Mask
  6
CONTINUOUS
100
AcDbLine
 10
5.9769753149606295
 20
-2.2857459842519683
 30
0
 11
5.9727185826771656
 21
-2.2814892519685039
 31
0
  0
LINE
  5
2DD
330
24
100
AcDbEntity
  8
B.Mask
  6
CONTINUOUS
100
AcDbLine
 10
5.9727185826771656
 20
-2.2814892519685039
 30
0
 11
5.9693740551181103
 21
-2.276483818897638
 31
0
  0
LINE
  5
2DE
330
24
100
AcDbEntity
  8
B.Mask
  6
CONTINUOUS
100
AcDbLine
 10
5.9693740551181103
 20
-2.276483818897638
 30
0
 11
5.9670703543307084
 21
-2.270922125984252
 31
0
  0
LINE
  5
2DF
330
24
100
AcDbEntity
  8
B.Mask
  6
CONTINUOUS
100
AcDbLine
 10
5.9670703543307084
 20
-2.270922125984252
 30
0
 11
5.965895905511811
 21
-2.2650178346456693
 31
0
  0
LINE
  5
2E0
330
24
100
AcDbEntity
  8
B.Mask
  6
CONTINUOUS
100
AcDbLine
 10
5.965895905511811
 20
-2.2650178346456693
 30
0
 11
5.965895905511811
 21
-2.2589979133858269
 31
0
  0
LINE
  5
2E1
330
24
100
AcDbEntity
  8
B.Mask
  6
CONTINUOUS
100
AcDbLine
 10
5.965895905511811
 20
-2.2589979133858269
 30
0
 11
5.9670703543307084
 21
-2.2530936220472442
 31
0
  0
LINE
  5
2E2
330
24
100
AcDbEntity
  8
B.Mask
  6
CONTINUOUS
100
AcDbLine
 10
5.9670703543307084
 20
-2.2530936220472442
 30
0
 11
5.9693740551181103
 21
-2.2475319291338582
 31
0
  0
LINE
  5
2E3
330
24
100
AcDbEntity
  8
B.Mask
  6
CONTINUOUS
100
AcDbLine
 10
5.9693740551181103
 20
-2.2475319291338582
 30
0
 11
5.9727185826771656
 21
-2.2425264960629923
 31
0
  0
LINE
  5
2E4
330
24
100
AcDbEntity
  8
B.Mask
  6
CONTINUOUS
100
AcDbLine
 10
5.9727185826771656
 20
-2.2425264960629923
 30
0
 11
5.9769753149606295
 21
-2.2382697637795275
 31
0
  0
LINE
  5
2E5
330
24
100
AcDbEntity
  8
B.Mask
  6
CONTINUOUS
100
AcDbLine
 10
5.9769753149606295
 20
-2.2382697637795275
 30
0
 11
5.9819807480314955
 21
-2.2349252362204726
 31
0
  0
LINE
  5
2E6
330
24
100
AcDbEntity
  8
B.Mask
  6
CONTINUOUS
100
AcDbLine
 10
5.9819807480314955
 20
-2.2349252362204726
 30
0
 11
5.9875424409448819
 21
-2.2326215354330707
 31
0
  0
LINE
  5
2E7
330
24
100
AcDbEntity
  8
B.Mask
  6
CONTINUOUS
100
AcDbLine
 10
5.9875424409448819
 20
-2.2326215354330707
 30
0
 11
5.9934467322834646
 21
-2.2314470866141733
 31
0
  0
LINE
  5
2E8
330
24
100
AcDbEntity
  8
B.Mask
  6
CONTINUOUS
100
AcDbLine
 10
5.9934467322834646
 20
-2.2314470866141733
 30
0
 11
5.9994666535433065
 21
-2.2314470866141733
 31
0
  0
LINE
  5
2E9
330
24
100
AcDbEntity
  8
B.Mask
  6
CONTINUOUS
100
AcDbLine
 10
5.9994666535433065
 20
-2.2314470866141733
 30
0
 11
6.0053709448818893
 21
-2.2326215354330707
 31
0
  0
LINE
  5
2EA
330
24
100
AcDbEntity
  8
B.Mask
  6
CONTINUOUS
100
AcDbLine
 10
6.1053709448818898
 20
-2.2326215354330707
 30
0
 11
6.1109326377952753
 21
-2.2349252362204726
 31
0
  0
LINE
  5
2EB
330
24
100
AcDbEntity
  8
B.Mask
  6
CONTINUOUS
100
AcDbLine
 10
6.1109326377952753
 20
-2.2349252362204726
 30
0
 11
6.1159380708661413
 21
-2.2382697637795275
 31
0
  0
LINE
  5
2EC
330
24
100
AcDbEntity
  8
B.Mask
  6
CONTINUOUS
100
AcDbLine
 10
6.1159380708661413
 20
-2.2382697637795275
 30
0
 11
6.1201948031496061
 21
-2.2425264960629923
 31
0
  0
LINE
  5
2ED
330
24
100
AcDbEntity
  8
B.Mask
  6
CONTINUOUS
100
AcDbLine
 10
6.1201948031496061
 20
-2.2425264960629923
 30
0
 11
6.1235393307086614
 21
-2.2475319291338582
 31
0
  0
LINE
  5
2EE
330
24
100
AcDbEntity
  8
B.Mask
  6
CONTINUOUS
100
AcDbLine
 10
6.1235393307086614
 20
-2.2475319291338582
 30
0
 11
6.1258430314960632
 21
-2.2530936220472442
 31
0
  0
LINE
  5
2EF
330
24
100
AcDbEntity
  8
B.Mask
  6
CONTINUOUS
100
AcDbLine
 10
6.1258430314960632
 20
-2.2530936220472442
 30
0
 11
6.1270174803149606
 21
-2.2589979133858269
 31
0
  0
LINE
  5
2F0
330
24
100
AcDbEntity
  8
B.Mask
  6
CONTINUOUS
100
AcDbLine
 10
6.1270174803149606
 20
-2.2589979133858269
 30
0
 11
6.1270174803149606
 21
-2.2650178346456693
 31
0
  0
LINE
  5
2F1
330
24
100
AcDbEntity
  8
B.Mask
  6
CONTINUOUS
100
AcDbLine
 10
6.1270174803149606
 20
-2.2650178346456693
 30
0
 11
6.1258430314960632
 21
-2.270922125984252
 31
0
  0
LINE
  5
2F2
330
24
100
AcDbEntity
  8
B.Mask
  6
CONTINUOUS
100
AcDbLine
 10
6.1258430314960632
 20
-2.270922125984252
 30
0
 11
6.1235393307086614
 21
-2.276483818897638
 31
0
  0
LINE
  5
2F3
330
24
100
AcDbEntity
  8
B.Mask
  6
CONTINUOUS
100
AcDbLine
 10
6.1235393307086614
 20
-2.276483818897638
 30
0
 11
6.1201948031496061
 21
-2.2814892519685039
 31
0
  0
LINE
  5
2F4
330
24
100
AcDbEntity
  8
B.Mask
  6
CONTINUOUS
100
AcDbLine
 10
6.1201948031496061
 20
-2.2814892519685039
 30
0
 11
6.1159380708661413
 21
-2.2857459842519683
 31
0
  0
LINE
  5
2F5
330
24
100
AcDbEntity
  8
B.Mask
  6
CONTINUOUS
100
AcDbLine
 10
6.1159380708661413
 20
-2.2857459842519683
 30
0
 11
6.1109326377952753
 21
-2.2890905118110236
 31
0
  0
LINE
  5
2F6
330
24
100
AcDbEntity
  8
B.Mask
  6
CONTINUOUS
100
AcDbLine
 10
6.1109326377952753
 20
-2.2890905118110236
 30
0
 11
6.1053709448818898
 21
-2.291394212598425
 31
0
  0
LINE
  5
2F7
330
24
100
AcDbEntity
  8
B.Mask
  6
CONTINUOUS
100
AcDbLine
 10
6.1053709448818898
 20
-2.291394212598425
 30
0
 11
6.0994666535433071
 21
-2.2925686614173229
 31
0
  0
LINE
  5
2F8
330
24
100
AcDbEntity
  8
B.Mask
  6
CONTINUOUS
100
AcDbLine
 10
6.0994666535433071
 20
-2.2925686614173229
 30
0
 11
6.0934467322834642
 21
-2.2925686614173229
 31
0
  0
LINE
  5
2F9
330
24
100
AcDbEntity
  8
B.Mask
  6
CONTINUOUS
100
AcDbLine
 10
6.0934467322834642
 20
-2.2925686614173229
 30
0
 11
6.0875424409448815
 21
-2.291394212598425
 31
0
  0
LINE
  5
2FA
330
24
100
AcDbEntity
  8
B.Mask
  6
CONTINUOUS
100
AcDbLine
 10
6.0875424409448815
 20
-2.291394212598425
 30
0
 11
6.081980748031496
 21
-2.2890905118110236
 31
0
  0
LINE
  5
2FB
330
24
100
AcDbEntity
  8
B.Mask
  6
CONTINUOUS
100
AcDbLine
 10
6.081980748031496
 20
-2.2890905118110236
 30
0
 11
6.07697531496063
 21
-2.2857459842519683
 31
0
  0
LINE
  5
2FC
330
24
100
AcDbEntity
  8
B.Mask
  6
CONTINUOUS
100
AcDbLine
 10
6.07697531496063
 20
-2.2857459842519683
 30
0
 11
6.0727185826771652
 21
-2.2814892519685039
 31
0
  0
LINE
  5
2FD
330
24
100
AcDbEntity
  8
B.Mask
  6
CONTINUOUS
100
AcDbLine
 10
6.0727185826771652
 20
-2.2814892519685039
 30
0
 11
6.0693740551181099
 21
-2.276483818897638
 31
0
  0
LINE
  5
2FE
330
24
100
AcDbEntity
  8
B.Mask
  6
CONTINUOUS
100
AcDbLine
 10
6.0693740551181099
 20
-2.276483818897638
 30
0
 11
6.067070354330709
 21
-2.270922125984252
 31
0
  0
LINE
  5
2FF
330
24
100
AcDbEntity
  8
B.Mask
  6
CONTINUOUS
100
AcDbLine
 10
6.067070354330709
 20
-2.270922125984252
 30
0
 11
6.0658959055118107
 21
-2.2650178346456693
 31
0
  0
LINE
  5
300
330
24
100
AcDbEntity
  8
B.Mask
  6
CONTINUOUS
100
AcDbLine
 10
6.0658959055118107
 20
-2.2650178346456693
 30
0
 11
6.0658959055118107
 21
-2.2589979133858269
 31
0
  0
LINE
  5
301
330
24
100
AcDbEntity
  8
B.Mask
  6
CONTINUOUS
100
AcDbLine
 10
6.0658959055118107
 20
-2.2589979133858269
 30
0
 11
6.067070354330709
 21
-2.2530936220472442
 31
0
  0
LINE
  5
302
330
24
100
AcDbEntity
  8
B.Mask
  6
CONTINUOUS
100
AcDbLine
 10
6.067070354330709
 20
-2.2530936220472442
 30
0
 11
6.0693740551181099
 21
-2.2475319291338582
 31
0
  0
LINE
  5
303
330
24
100
AcDbEntity
  8
B.Mask
  6
CONTINUOUS
100
AcDbLine
 10
6.0693740551181099
 20
-2.2475319291338582
 30
0
 11
6.0727185826771652
 21
-2.2425264960629923
 31
0
  0
LINE
  5
304
330
24
100
AcDbEntity
  8
B.Mask
  6
CONTINUOUS
100
AcDbLine
 10
6.0727185826771652
 20
-2.2425264960629923
 30
0
 11
6.07697531496063
 21
-2.2382697637795275
 31
0
  0
LINE
  5
305
330
24
100
AcDbEntity
  8
B.Mask
  6
CONTINUOUS
100
AcDbLine
 10
6.07697531496063
 20
-2.2382697637795275
 30
0
 11
6.081980748031496
 21
-2.2349252362204726
 31
0
  0
LINE
  5
306
330
24
100
AcDbEntity
  8
B.Mask
  6
CONTINUOUS
100
AcDbLine
 10
6.081980748031496
 20
-2.2349252362204726
 30
0
 11
6.0875424409448815
 21
-2.2326215354330707
 31
0
  0
LINE
  5
307
330
24
100
AcDbEntity
  8
B.Mask
  6
CONTINUOUS
100
AcDbLine
 10
6.0875424409448815
 20
-2.2326215354330707
 30
0
 11
6.0934467322834642
 21
-2.2314470866141733
 31
0
  0
LINE
  5
308
330
24
100
AcDbEntity
  8
B.Mask
  6
CONTINUOUS
100
AcDbLine
 10
6.0934467322834642
 20
-2.2314470866141733
 30
0
 11
6.0994666535433071
 21
-2.2314470866141733
 31
0
  0
LINE
  5
309
330
24
100
AcDbEntity
  8
B.Mask
  6
CONTINUOUS
100
AcDbLine
 10
6.0994666535433071
 20
-2.2314470866141733
 30
0
 11
6.1053709448818898
 21
-2.2326215354330707
 31
0
  0
LINE
  5
30A
330
24
100
AcDbEntity
  8
B.Mask
  6
CONTINUOUS
100
AcDbLine
 10
6.2053709448818895
 20
-2.2326215354330707
 30
0
 11
6.2109326377952758
 21
-2.2349252362204726
 31
0
  0
LINE
  5
30B
330
24
100
AcDbEntity
  8
B.Mask
  6
CONTINUOUS
100
AcDbLine
 10
6.2109326377952758
 20
-2.2349252362204726
 30
0
 11
6.2159380708661418
 21
-2.2382697637795275
 31
0
  0
LINE
  5
30C
330
24
100
AcDbEntity
  8
B.Mask
  6
CONTINUOUS
100
AcDbLine
 10
6.2159380708661418
 20
-2.2382697637795275
 30
0
 11
6.2201948031496066
 21
-2.2425264960629923
 31
0
  0
LINE
  5
30D
330
24
100
AcDbEntity
  8
B.Mask
  6
CONTINUOUS
100
AcDbLine
 10
6.2201948031496066
 20
-2.2425264960629923
 30
0
 11
6.2235393307086611
 21
-2.2475319291338582
 31
0
  0
LINE
  5
30E
330
24
100
AcDbEntity
  8
B.Mask
  6
CONTINUOUS
100
AcDbLine
 10
6.2235393307086611
 20
-2.2475319291338582
 30
0
 11
6.2258430314960629
 21
-2.2530936220472442
 31
0
  0
LINE
  5
30F
330
24
100
AcDbEntity
  8
B.Mask
  6
CONTINUOUS
100
AcDbLine
 10
6.2258430314960629
 20
-2.2530936220472442
 30
0
 11
6.2270174803149603
 21
-2.2589979133858269
 31
0
  0
LINE
  5
310
330
24
100
AcDbEntity
  8
B.Mask
  6
CONTINUOUS
100
AcDbLine
 10
6.2270174803149603
 20
-2.2589979133858269
 30
0
 11
6.2270174803149603
 21
-2.2650178346456693
 31
0
  0
LINE
  5
311
330
24
100
AcDbEntity
  8
B.Mask
  6
CONTINUOUS
100
AcDbLine
 10
6.2270174803149603
 20
-2.2650178346456693
 30
0
 11
6.2258430314960629
 21
-2.270922125984252
 31
0
  0
LINE
  5
312
330
24
100
AcDbEntity
  8
B.Mask
  6
CONTINUOUS
100
AcDbLine
 10
6.2258430314960629
 20
-2.270922125984252
 30
0
 11
6.2235393307086611
 21
-2.276483818897638
 31
0
  0
LINE
  5
313
330
24
100
AcDbEntity
  8
B.Mask
  6
CONTINUOUS
100
AcDbLine
 10
6.2235393307086611
 20
-2.276483818897638
 30
0
 11
6.2201948031496066
 21
-2.2814892519685039
 31
0
  0
LINE
  5
314
330
24
100
AcDbEntity
  8
B.Mask
  6
CONTINUOUS
100
AcDbLine
 10
6.2201948031496066
 20
-2.2814892519685039
 30
0
 11
6.2159380708661418
 21
-2.2857459842519683
 31
0
  0
LINE
  5
315
330
24
100
AcDbEntity
  8
B.Mask
  6
CONTINUOUS
100
AcDbLine
 10
6.2159380708661418
 20
-2.2857459842519683
 30
0
 11
6.2109326377952758
 21
-2.2890905118110236
 31
0
  0
LINE
  5
316
330
24
100
AcDbEntity
  8
B.Mask
  6
CONTINUOUS
100
AcDbLine
 10
6.2109326377952758
 20
-2.2890905118110236
 30
0
 11
6.2053709448818895
 21
-2.291394212598425
 31
0
  0
LINE
  5
317
330
24
100
AcDbEntity
  8
B.Mask
  6
CONTINUOUS
100
AcDbLine
 10
6.2053709448818895
 20
-2.291394212598425
 30
0
 11
6.1994666535433067
 21
-2.2925686614173229
 31
0
  0
LINE
  5
318
330
24
100
AcDbEntity
  8
B.Mask
  6
CONTINUOUS
100
AcDbLine
 10
6.1994666535433067
 20
-2.2925686614173229
 30
0
 11
6.1934467322834648
 21
-2.2925686614173229
 31
0
  0
LINE
  5
319
330
24
100
AcDbEntity
  8
B.Mask
  6
CONTINUOUS
100
AcDbLine
 10
6.1934467322834648
 20
-2.2925686614173229
 30
0
 11
6.187542440944882
 21
-2.291394212598425
 31
0
  0
LINE
  5
31A
330
24
100
AcDbEntity
  8
B.Mask
  6
CONTINUOUS
100
AcDbLine
 10
6.187542440944882
 20
-2.291394212598425
 30
0
 11
6.1819807480314957
 21
-2.2890905118110236
 31
0
  0
LINE
  5
31B
330
24
100
AcDbEntity
  8
B.Mask
  6
CONTINUOUS
100
AcDbLine
 10
6.1819807480314957
 20
-2.2890905118110236
 30
0
 11
6.1769753149606297
 21
-2.2857459842519683
 31
0
  0
LINE
  5
31C
330
24
100
AcDbEntity
  8
B.Mask
  6
CONTINUOUS
100
AcDbLine
 10
6.1769753149606297
 20
-2.2857459842519683
 30
0
 11
6.1727185826771649
 21
-2.2814892519685039
 31
0
  0
LINE
  5
31D
330
24
100
AcDbEntity
  8
B.Mask
  6
CONTINUOUS
100
AcDbLine
 10
6.1727185826771649
 20
-2.2814892519685039
 30
0
 11
6.1693740551181104
 21
-2.276483818897638
 31
0
  0
LINE
  5
31E
330
24
100
AcDbEntity
  8
B.Mask
  6
CONTINUOUS
100
AcDbLine
 10
6.1693740551181104
 20
-2.276483818897638
 30
0
 11
6.1670703543307086
 21
-2.270922125984252
 31
0
  0
LINE
  5
31F
330
24
100
AcDbEntity
  8
B.Mask
  6
CONTINUOUS
100
AcDbLine
 10
6.1670703543307086
 20
-2.270922125984252
 30
0
 11
6.1658959055118112
 21
-2.2650178346456693
 31
0
  0
LINE
  5
320
330
24
100
AcDbEntity
  8
B.Mask
  6
CONTINUOUS
100
AcDbLine
 10
6.1658959055118112
 20
-2.2650178346456693
 30
0
 11
6.1658959055118112
 21
-2.2589979133858269
 31
0
  0
LINE
  5
321
330
24
100
AcDbEntity
  8
B.Mask
  6
CONTINUOUS
100
AcDbLine
 10
6.1658959055118112
 20
-2.2589979133858269
 30
0
 11
6.1670703543307086
 21
-2.2530936220472442
 31
0
  0
LINE
  5
322
330
24
100
AcDbEntity
  8
B.Mask
  6
CONTINUOUS
100
AcDbLine
 10
6.1670703543307086
 20
-2.2530936220472442
 30
0
 11
6.1693740551181104
 21
-2.2475319291338582
 31
0
  0
LINE
  5
323
330
24
100
AcDbEntity
  8
B.Mask
  6
CONTINUOUS
100
AcDbLine
 10
6.1693740551181104
 20
-2.2475319291338582
 30
0
 11
6.1727185826771649
 21
-2.2425264960629923
 31
0
  0
LINE
  5
324
330
24
100
AcDbEntity
  8
B.Mask
  6
CONTINUOUS
100
AcDbLine
 10
6.1727185826771649
 20
-2.2425264960629923
 30
0
 11
6.1769753149606297
 21
-2.2382697637795275
 31
0
  0
LINE
  5
325
330
24
100
AcDbEntity
  8
B.Mask
  6
CONTINUOUS
100
AcDbLine
 10
6.1769753149606297
 20
-2.2382697637795275
 30
0
 11
6.1819807480314957
 21
-2.2349252362204726
 31
0
  0
LINE
  5
326
330
24
100
AcDbEntity
  8
B.Mask
  6
CONTINUOUS
100
AcDbLine
 10
6.1819807480314957
 20
-2.2349252362204726
 30
0
 11
6.187542440944882
 21
-2.2326215354330707
 31
0
  0
LINE
  5
327
330
24
100
AcDbEntity
  8
B.Mask
  6
CONTINUOUS
100
AcDbLine
 10
6.187542440944882
 20
-2.2326215354330707
 30
0
 11
6.1934467322834648
 21
-2.2314470866141733
 31
0
  0
LINE
  5
328
330
24
100
AcDbEntity
  8
B.Mask
  6
CONTINUOUS
100
AcDbLine
 10
6.1934467322834648
 20
-2.2314470866141733
 30
0
 11
6.1994666535433067
 21
-2.2314470866141733
 31
0
  0
LINE
  5
329
330
24
100
AcDbEntity
  8
B.Mask
  6
CONTINUOUS
100
AcDbLine
 10
6.1994666535433067
 20
-2.2314470866141733
 30
0
 11
6.2053709448818895
 21
-2.2326215354330707
 31
0
  0
LINE
  5
32A
330
24
100
AcDbEntity
  8
B.Mask
  6
CONTINUOUS
100
AcDbLine
 10
6.30537094488189
 20
-2.2326215354330707
 30
0
 11
6.3109326377952755
 21
-2.2349252362204726
 31
0
  0
LINE
  5
32B
330
24
100
AcDbEntity
  8
B.Mask
  6
CONTINUOUS
100
AcDbLine
 10
6.3109326377952755
 20
-2.2349252362204726
 30
0
 11
6.3159380708661415
 21
-2.2382697637795275
 31
0
  0
LINE
  5
32C
330
24
100
AcDbEntity
  8
B.Mask
  6
CONTINUOUS
100
AcDbLine
 10
6.3159380708661415
 20
-2.2382697637795275
 30
0
 11
6.3201948031496062
 21
-2.2425264960629923
 31
0
  0
LINE
  5
32D
330
24
100
AcDbEntity
  8
B.Mask
  6
CONTINUOUS
100
AcDbLine
 10
6.3201948031496062
 20
-2.2425264960629923
 30
0
 11
6.3235393307086616
 21
-2.2475319291338582
 31
0
  0
LINE
  5
32E
330
24
100
AcDbEntity
  8
B.Mask
  6
CONTINUOUS
100
AcDbLine
 10
6.3235393307086616
 20
-2.2475319291338582
 30
0
 11
6.3258430314960625
 21
-2.2530936220472442
 31
0
  0
LINE
  5
32F
330
24
100
AcDbEntity
  8
B.Mask
  6
CONTINUOUS
100
AcDbLine
 10
6.3258430314960625
 20
-2.2530936220472442
 30
0
 11
6.3270174803149608
 21
-2.2589979133858269
 31
0
  0
LINE
  5
330
330
24
100
AcDbEntity
  8
B.Mask
  6
CONTINUOUS
100
AcDbLine
 10
6.3270174803149608
 20
-2.2589979133858269
 30
0
 11
6.3270174803149608
 21
-2.2650178346456693
 31
0
  0
LINE
  5
331
330
24
100
AcDbEntity
  8
B.Mask
  6
CONTINUOUS
100
AcDbLine
 10
6.3270174803149608
 20
-2.2650178346456693
 30
0
 11
6.3258430314960625
 21
-2.270922125984252
 31
0
  0
LINE
  5
332
330
24
100
AcDbEntity
  8
B.Mask
  6
CONTINUOUS
100
AcDbLine
 10
6.3258430314960625
 20
-2.270922125984252
 30
0
 11
6.3235393307086616
 21
-2.276483818897638
 31
0
  0
LINE
  5
333
330
24
100
AcDbEntity
  8
B.Mask
  6
CONTINUOUS
100
AcDbLine
 10
6.3235393307086616
 20
-2.276483818897638
 30
0
 11
6.3201948031496062
 21
-2.2814892519685039
 31
0
  0
LINE
  5
334
330
24
100
AcDbEntity
  8
B.Mask
  6
CONTINUOUS
100
AcDbLine
 10
6.3201948031496062
 20
-2.2814892519685039
 30
0
 11
6.3159380708661415
 21
-2.2857459842519683
 31
0
  0
LINE
  5
335
330
24
100
AcDbEntity
  8
B.Mask
  6
CONTINUOUS
100
AcDbLine
 10
6.3159380708661415
 20
-2.2857459842519683
 30
0
 11
6.3109326377952755
 21
-2.2890905118110236
 31
0
  0
LINE
  5
336
330
24
100
AcDbEntity
  8
B.Mask
  6
CONTINUOUS
100
AcDbLine
 10
6.3109326377952755
 20
-2.2890905118110236
 30
0
 11
6.30537094488189
 21
-2.291394212598425
 31
0
  0
LINE
  5
337
330
24
100
AcDbEntity
  8
B.Mask
  6
CONTINUOUS
100
AcDbLine
 10
6.30537094488189
 20
-2.291394212598425
 30
0
 11
6.2994666535433073
 21
-2.2925686614173229
 31
0
  0
LINE
  5
338
330
24
100
AcDbEntity
  8
B.Mask
  6
CONTINUOUS
100
AcDbLine
 10
6.2994666535433073
 20
-2.2925686614173229
 30
0
 11
6.2934467322834644
 21
-2.2925686614173229
 31
0
  0
LINE
  5
339
330
24
100
AcDbEntity
  8
B.Mask
  6
CONTINUOUS
100
AcDbLine
 10
6.2934467322834644
 20
-2.2925686614173229
 30
0
 11
6.2875424409448817
 21
-2.291394212598425
 31
0
  0
LINE
  5
33A
330
24
100
AcDbEntity
  8
B.Mask
  6
CONTINUOUS
100
AcDbLine
 10
6.2875424409448817
 20
-2.291394212598425
 30
0
 11
6.2819807480314962
 21
-2.2890905118110236
 31
0
  0
LINE
  5
33B
330
24
100
AcDbEntity
  8
B.Mask
  6
CONTINUOUS
100
AcDbLine
 10
6.2819807480314962
 20
-2.2890905118110236
 30
0
 11
6.2769753149606302
 21
-2.2857459842519683
 31
0
  0
LINE
  5
33C
330
24
100
AcDbEntity
  8
B.Mask
  6
CONTINUOUS
100
AcDbLine
 10
6.2769753149606302
 20
-2.2857459842519683
 30
0
 11
6.2727185826771654
 21
-2.2814892519685039
 31
0
  0
LINE
  5
33D
330
24
100
AcDbEntity
  8
B.Mask
  6
CONTINUOUS
100
AcDbLine
 10
6.2727185826771654
 20
-2.2814892519685039
 30
0
 11
6.2693740551181101
 21
-2.276483818897638
 31
0
  0
LINE
  5
33E
330
24
100
AcDbEntity
  8
B.Mask
  6
CONTINUOUS
100
AcDbLine
 10
6.2693740551181101
 20
-2.276483818897638
 30
0
 11
6.2670703543307082
 21
-2.270922125984252
 31
0
  0
LINE
  5
33F
330
24
100
AcDbEntity
  8
B.Mask
  6
CONTINUOUS
100
AcDbLine
 10
6.2670703543307082
 20
-2.270922125984252
 30
0
 11
6.2658959055118109
 21
-2.2650178346456693
 31
0
  0
LINE
  5
340
330
24
100
AcDbEntity
  8
B.Mask
  6
CONTINUOUS
100
AcDbLine
 10
6.2658959055118109
 20
-2.2650178346456693
 30
0
 11
6.2658959055118109
 21
-2.2589979133858269
 31
0
  0
LINE
  5
341
330
24
100
AcDbEntity
  8
B.Mask
  6
CONTINUOUS
100
AcDbLine
 10
6.2658959055118109
 20
-2.2589979133858269
 30
0
 11
6.2670703543307082
 21
-2.2530936220472442
 31
0
  0
LINE
  5
342
330
24
100
AcDbEntity
  8
B.Mask
  6
CONTINUOUS
100
AcDbLine
 10
6.2670703543307082
 20
-2.2530936220472442
 30
0
 11
6.2693740551181101
 21
-2.2475319291338582
 31
0
  0
LINE
  5
343
330
24
100
AcDbEntity
  8
B.Mask
  6
CONTINUOUS
100
AcDbLine
 10
6.2693740551181101
 20
-2.2475319291338582
 30
0
 11
6.2727185826771654
 21
-2.2425264960629923
 31
0
  0
LINE
  5
344
330
24
100
AcDbEntity
  8
B.Mask
  6
CONTINUOUS
100
AcDbLine
 10
6.2727185826771654
 20
-2.2425264960629923
 30
0
 11
6.2769753149606302
 21
-2.2382697637795275
 31
0
  0
LINE
  5
345
330
24
100
AcDbEntity
  8
B.Mask
  6
CONTINUOUS
100
AcDbLine
 10
6.2769753149606302
 20
-2.2382697637795275
 30
0
 11
6.2819807480314962
 21
-2.2349252362204726
 31
0
  0
LINE
  5
346
330
24
100
AcDbEntity
  8
B.Mask
  6
CONTINUOUS
100
AcDbLine
 10
6.2819807480314962
 20
-2.2349252362204726
 30
0
 11
6.2875424409448817
 21
-2.2326215354330707
 31
0
  0
LINE
  5
347
330
24
100
AcDbEntity
  8
B.Mask
  6
CONTINUOUS
100
AcDbLine
 10
6.2875424409448817
 20
-2.2326215354330707
 30
0
 11
6.2934467322834644
 21
-2.2314470866141733
 31
0
  0
LINE
  5
348
330
24
100
AcDbEntity
  8
B.Mask
  6
CONTINUOUS
100
AcDbLine
 10
6.2934467322834644
 20
-2.2314470866141733
 30
0
 11
6.2994666535433073
 21
-2.2314470866141733
 31
0
  0
LINE
  5
349
330
24
100
AcDbEntity
  8
B.Mask
  6
CONTINUOUS
100
AcDbLine
 10
6.2994666535433073
 20
-2.2314470866141733
 30
0
 11
6.30537094488189
 21
-2.2326215354330707
 31
0
  0
LINE
  5
34A
330
24
100
AcDbEntity
  8
B.Mask
  6
CONTINUOUS
100
AcDbLine
 10
6.4053709448818896
 20
-2.2326215354330707
 30
0
 11
6.4109326377952751
 21
-2.2349252362204726
 31
0
  0
LINE
  5
34B
330
24
100
AcDbEntity
  8
B.Mask
  6
CONTINUOUS
100
AcDbLine
 10
6.4109326377952751
 20
-2.2349252362204726
 30
0
 11
6.415938070866142
 21
-2.2382697637795275
 31
0
  0
LINE
  5
34C
330
24
100
AcDbEntity
  8
B.Mask
  6
CONTINUOUS
100
AcDbLine
 10
6.415938070866142
 20
-2.2382697637795275
 30
0
 11
6.4201948031496059
 21
-2.2425264960629923
 31
0
  0
LINE
  5
34D
330
24
100
AcDbEntity
  8
B.Mask
  6
CONTINUOUS
100
AcDbLine
 10
6.4201948031496059
 20
-2.2425264960629923
 30
0
 11
6.4235393307086612
 21
-2.2475319291338582
 31
0
  0
LINE
  5
34E
330
24
100
AcDbEntity
  8
B.Mask
  6
CONTINUOUS
100
AcDbLine
 10
6.4235393307086612
 20
-2.2475319291338582
 30
0
 11
6.4258430314960631
 21
-2.2530936220472442
 31
0
  0
LINE
  5
34F
330
24
100
AcDbEntity
  8
B.Mask
  6
CONTINUOUS
100
AcDbLine
 10
6.4258430314960631
 20
-2.2530936220472442
 30
0
 11
6.4270174803149605
 21
-2.2589979133858269
 31
0
  0
LINE
  5
350
330
24
100
AcDbEntity
  8
B.Mask
  6
CONTINUOUS
100
AcDbLine
 10
6.4270174803149605
 20
-2.2589979133858269
 30
0
 11
6.4270174803149605
 21
-2.2650178346456693
 31
0
  0
LINE
  5
351
330
24
100
AcDbEntity
  8
B.Mask
  6
CONTINUOUS
100
AcDbLine
 10
6.4270174803149605
 20
-2.2650178346456693
 30
0
 11
6.4258430314960631
 21
-2.270922125984252
 31
0
  0
LINE
  5
352
330
24
100
AcDbEntity
  8
B.Mask
  6
CONTINUOUS
100
AcDbLine
 10
6.4258430314960631
 20
-2.270922125984252
 30
0
 11
6.4235393307086612
 21
-2.276483818897638
 31
0
  0
LINE
  5
353
330
24
100
AcDbEntity
  8
B.Mask
  6
CONTINUOUS
100
AcDbLine
 10
6.4235393307086612
 20
-2.276483818897638
 30
0
 11
6.4201948031496059
 21
-2.2814892519685039
 31
0
  0
LINE
  5
354
330
24
100
AcDbEntity
  8
B.Mask
  6
CONTINUOUS
100
AcDbLine
 10
6.4201948031496059
 20
-2.2814892519685039
 30
0
 11
6.415938070866142
 21
-2.2857459842519683
 31
0
  0
LINE
  5
355
330
24
100
AcDbEntity
  8
B.Mask
  6
CONTINUOUS
100
AcDbLine
 10
6.415938070866142
 20
-2.2857459842519683
 30
0
 11
6.4109326377952751
 21
-2.2890905118110236
 31
0
  0
LINE
  5
356
330
24
100
AcDbEntity
  8
B.Mask
  6
CONTINUOUS
100
AcDbLine
 10
6.4109326377952751
 20
-2.2890905118110236
 30
0
 11
6.4053709448818896
 21
-2.291394212598425
 31
0
  0
LINE
  5
357
330
24
100
AcDbEntity
  8
B.Mask
  6
CONTINUOUS
100
AcDbLine
 10
6.4053709448818896
 20
-2.291394212598425
 30
0
 11
6.3994666535433069
 21
-2.2925686614173229
 31
0
  0
LINE
  5
358
330
24
100
AcDbEntity
  8
B.Mask
  6
CONTINUOUS
100
AcDbLine
 10
6.3994666535433069
 20
-2.2925686614173229
 30
0
 11
6.3934467322834641
 21
-2.2925686614173229
 31
0
  0
LINE
  5
359
330
24
100
AcDbEntity
  8
B.Mask
  6
CONTINUOUS
100
AcDbLine
 10
6.3934467322834641
 20
-2.2925686614173229
 30
0
 11
6.3875424409448813
 21
-2.291394212598425
 31
0
  0
LINE
  5
35A
330
24
100
AcDbEntity
  8
B.Mask
  6
CONTINUOUS
100
AcDbLine
 10
6.3875424409448813
 20
-2.291394212598425
 30
0
 11
6.3819807480314958
 21
-2.2890905118110236
 31
0
  0
LINE
  5
35B
330
24
100
AcDbEntity
  8
B.Mask
  6
CONTINUOUS
100
AcDbLine
 10
6.3819807480314958
 20
-2.2890905118110236
 30
0
 11
6.3769753149606299
 21
-2.2857459842519683
 31
0
  0
LINE
  5
35C
330
24
100
AcDbEntity
  8
B.Mask
  6
CONTINUOUS
100
AcDbLine
 10
6.3769753149606299
 20
-2.2857459842519683
 30
0
 11
6.3727185826771651
 21
-2.2814892519685039
 31
0
  0
LINE
  5
35D
330
24
100
AcDbEntity
  8
B.Mask
  6
CONTINUOUS
100
AcDbLine
 10
6.3727185826771651
 20
-2.2814892519685039
 30
0
 11
6.3693740551181097
 21
-2.276483818897638
 31
0
  0
LINE
  5
35E
330
24
100
AcDbEntity
  8
B.Mask
  6
CONTINUOUS
100
AcDbLine
 10
6.3693740551181097
 20
-2.276483818897638
 30
0
 11
6.3670703543307088
 21
-2.270922125984252
 31
0
  0
LINE
  5
35F
330
24
100
AcDbEntity
  8
B.Mask
  6
CONTINUOUS
100
AcDbLine
 10
6.3670703543307088
 20
-2.270922125984252
 30
0
 11
6.3658959055118105
 21
-2.2650178346456693
 31
0
  0
LINE
  5
360
330
24
100
AcDbEntity
  8
B.Mask
  6
CONTINUOUS
100
AcDbLine
 10
6.3658959055118105
 20
-2.2650178346456693
 30
0
 11
6.3658959055118105
 21
-2.2589979133858269
 31
0
  0
LINE
  5
361
330
24
100
AcDbEntity
  8
B.Mask
  6
CONTINUOUS
100
AcDbLine
 10
6.3658959055118105
 20
-2.2589979133858269
 30
0
 11
6.3670703543307088
 21
-2.2530936220472442
 31
0
  0
LINE
  5
362
330
24
100
AcDbEntity
  8
B.Mask
  6
CONTINUOUS
100
AcDbLine
 10
6.3670703543307088
 20
-2.2530936220472442
 30
0
 11
6.3693740551181097
 21
-2.2475319291338582
 31
0
  0
LINE
  5
363
330
24
100
AcDbEntity
  8
B.Mask
  6
CONTINUOUS
100
AcDbLine
 10
6.3693740551181097
 20
-2.2475319291338582
 30
0
 11
6.3727185826771651
 21
-2.2425264960629923
 31
0
  0
LINE
  5
364
330
24
100
AcDbEntity
  8
B.Mask
  6
CONTINUOUS
100
AcDbLine
 10
6.3727185826771651
 20
-2.2425264960629923
 30
0
 11
6.3769753149606299
 21
-2.2382697637795275
 31
0
  0
LINE
  5
365
330
24
100
AcDbEntity
  8
B.Mask
  6
CONTINUOUS
100
AcDbLine
 10
6.3769753149606299
 20
-2.2382697637795275
 30
0
 11
6.3819807480314958
 21
-2.2349252362204726
 31
0
  0
LINE
  5
366
330
24
100
AcDbEntity
  8
B.Mask
  6
CONTINUOUS
100
AcDbLine
 10
6.3819807480314958
 20
-2.2349252362204726
 30
0
 11
6.3875424409448813
 21
-2.2326215354330707
 31
0
  0
LINE
  5
367
330
24
100
AcDbEntity
  8
B.Mask
  6
CONTINUOUS
100
AcDbLine
 10
6.3875424409448813
 20
-2.2326215354330707
 30
0
 11
6.3934467322834641
 21
-2.2314470866141733
 31
0
  0
LINE
  5
368
330
24
100
AcDbEntity
  8
B.Mask
  6
CONTINUOUS
100
AcDbLine
 10
6.3934467322834641
 20
-2.2314470866141733
 30
0
 11
6.3994666535433069
 21
-2.2314470866141733
 31
0
  0
LINE
  5
369
330
24
100
AcDbEntity
  8
B.Mask
  6
CONTINUOUS
100
AcDbLine
 10
6.3994666535433069
 20
-2.2314470866141733
 30
0
 11
6.4053709448818896
 21
-2.2326215354330707
 31
0
  0
LINE
  5
36A
330
24
100
AcDbEntity
  8
B.Mask
  6
CONTINUOUS
100
AcDbLine
 10
6.5053709448818893
 20
-2.2326215354330707
 30
0
 11
6.5109326377952756
 21
-2.2349252362204726
 31
0
  0
LINE
  5
36B
330
24
100
AcDbEntity
  8
B.Mask
  6
CONTINUOUS
100
AcDbLine
 10
6.5109326377952756
 20
-2.2349252362204726
 30
0
 11
6.5159380708661416
 21
-2.2382697637795275
 31
0
  0
LINE
  5
36C
330
24
100
AcDbEntity
  8
B.Mask
  6
CONTINUOUS
100
AcDbLine
 10
6.5159380708661416
 20
-2.2382697637795275
 30
0
 11
6.5201948031496064
 21
-2.2425264960629923
 31
0
  0
LINE
  5
36D
330
24
100
AcDbEntity
  8
B.Mask
  6
CONTINUOUS
100
AcDbLine
 10
6.5201948031496064
 20
-2.2425264960629923
 30
0
 11
6.5235393307086609
 21
-2.2475319291338582
 31
0
  0
LINE
  5
36E
330
24
100
AcDbEntity
  8
B.Mask
  6
CONTINUOUS
100
AcDbLine
 10
6.5235393307086609
 20
-2.2475319291338582
 30
0
 11
6.5258430314960627
 21
-2.2530936220472442
 31
0
  0
LINE
  5
36F
330
24
100
AcDbEntity
  8
B.Mask
  6
CONTINUOUS
100
AcDbLine
 10
6.5258430314960627
 20
-2.2530936220472442
 30
0
 11
6.5270174803149601
 21
-2.2589979133858269
 31
0
  0
LINE
  5
370
330
24
100
AcDbEntity
  8
B.Mask
  6
CONTINUOUS
100
AcDbLine
 10
6.5270174803149601
 20
-2.2589979133858269
 30
0
 11
6.5270174803149601
 21
-2.2650178346456693
 31
0
  0
LINE
  5
371
330
24
100
AcDbEntity
  8
B.Mask
  6
CONTINUOUS
100
AcDbLine
 10
6.5270174803149601
 20
-2.2650178346456693
 30
0
 11
6.5258430314960627
 21
-2.270922125984252
 31
0
  0
LINE
  5
372
330
24
100
AcDbEntity
  8
B.Mask
  6
CONTINUOUS
100
AcDbLine
 10
6.5258430314960627
 20
-2.270922125984252
 30
0
 11
6.5235393307086609
 21
-2.276483818897638
 31
0
  0
LINE
  5
373
330
24
100
AcDbEntity
  8
B.Mask
  6
CONTINUOUS
100
AcDbLine
 10
6.5235393307086609
 20
-2.276483818897638
 30
0
 11
6.5201948031496064
 21
-2.2814892519685039
 31
0
  0
LINE
  5
374
330
24
100
AcDbEntity
  8
B.Mask
  6
CONTINUOUS
100
AcDbLine
 10
6.5201948031496064
 20
-2.2814892519685039
 30
0
 11
6.5159380708661416
 21
-2.2857459842519683
 31
0
  0
LINE
  5
375
330
24
100
AcDbEntity
  8
B.Mask
  6
CONTINUOUS
100
AcDbLine
 10
6.5159380708661416
 20
-2.2857459842519683
 30
0
 11
6.5109326377952756
 21
-2.2890905118110236
 31
0
  0
LINE
  5
376
330
24
100
AcDbEntity
  8
B.Mask
  6
CONTINUOUS
100
AcDbLine
 10
6.5109326377952756
 20
-2.2890905118110236
 30
0
 11
6.5053709448818893
 21
-2.291394212598425
 31
0
  0
LINE
  5
377
330
24
100
AcDbEntity
  8
B.Mask
  6
CONTINUOUS
100
AcDbLine
 10
6.5053709448818893
 20
-2.291394212598425
 30
0
 11
6.4994666535433065
 21
-2.2925686614173229
 31
0
  0
LINE
  5
378
330
24
100
AcDbEntity
  8
B.Mask
  6
CONTINUOUS
100
AcDbLine
 10
6.4994666535433065
 20
-2.2925686614173229
 30
0
 11
6.4934467322834646
 21
-2.2925686614173229
 31
0
  0
LINE
  5
379
330
24
100
AcDbEntity
  8
B.Mask
  6
CONTINUOUS
100
AcDbLine
 10
6.4934467322834646
 20
-2.2925686614173229
 30
0
 11
6.4875424409448819
 21
-2.291394212598425
 31
0
  0
LINE
  5
37A
330
24
100
AcDbEntity
  8
B.Mask
  6
CONTINUOUS
100
AcDbLine
 10
6.4875424409448819
 20
-2.291394212598425
 30
0
 11
6.4819807480314955
 21
-2.2890905118110236
 31
0
  0
LINE
  5
37B
330
24
100
AcDbEntity
  8
B.Mask
  6
CONTINUOUS
100
AcDbLine
 10
6.4819807480314955
 20
-2.2890905118110236
 30
0
 11
6.4769753149606295
 21
-2.2857459842519683
 31
0
  0
LINE
  5
37C
330
24
100
AcDbEntity
  8
B.Mask
  6
CONTINUOUS
100
AcDbLine
 10
6.4769753149606295
 20
-2.2857459842519683
 30
0
 11
6.4727185826771656
 21
-2.2814892519685039
 31
0
  0
LINE
  5
37D
330
24
100
AcDbEntity
  8
B.Mask
  6
CONTINUOUS
100
AcDbLine
 10
6.4727185826771656
 20
-2.2814892519685039
 30
0
 11
6.4693740551181103
 21
-2.276483818897638
 31
0
  0
LINE
  5
37E
330
24
100
AcDbEntity
  8
B.Mask
  6
CONTINUOUS
100
AcDbLine
 10
6.4693740551181103
 20
-2.276483818897638
 30
0
 11
6.4670703543307084
 21
-2.270922125984252
 31
0
  0
LINE
  5
37F
330
24
100
AcDbEntity
  8
B.Mask
  6
CONTINUOUS
100
AcDbLine
 10
6.4670703543307084
 20
-2.270922125984252
 30
0
 11
6.465895905511811
 21
-2.2650178346456693
 31
0
  0
LINE
  5
380
330
24
100
AcDbEntity
  8
B.Mask
  6
CONTINUOUS
100
AcDbLine
 10
6.465895905511811
 20
-2.2650178346456693
 30
0
 11
6.465895905511811
 21
-2.2589979133858269
 31
0
  0
LINE
  5
381
330
24
100
AcDbEntity
  8
B.Mask
  6
CONTINUOUS
100
AcDbLine
 10
6.465895905511811
 20
-2.2589979133858269
 30
0
 11
6.4670703543307084
 21
-2.2530936220472442
 31
0
  0
LINE
  5
382
330
24
100
AcDbEntity
  8
B.Mask
  6
CONTINUOUS
100
AcDbLine
 10
6.4670703543307084
 20
-2.2530936220472442
 30
0
 11
6.4693740551181103
 21
-2.2475319291338582
 31
0
  0
LINE
  5
383
330
24
100
AcDbEntity
  8
B.Mask
  6
CONTINUOUS
100
AcDbLine
 10
6.4693740551181103
 20
-2.2475319291338582
 30
0
 11
6.4727185826771656
 21
-2.2425264960629923
 31
0
  0
LINE
  5
384
330
24
100
AcDbEntity
  8
B.Mask
  6
CONTINUOUS
100
AcDbLine
 10
6.4727185826771656
 20
-2.2425264960629923
 30
0
 11
6.4769753149606295
 21
-2.2382697637795275
 31
0
  0
LINE
  5
385
330
24
100
AcDbEntity
  8
B.Mask
  6
CONTINUOUS
100
AcDbLine
 10
6.4769753149606295
 20
-2.2382697637795275
 30
0
 11
6.4819807480314955
 21
-2.2349252362204726
 31
0
  0
LINE
  5
386
330
24
100
AcDbEntity
  8
B.Mask
  6
CONTINUOUS
100
AcDbLine
 10
6.4819807480314955
 20
-2.2349252362204726
 30
0
 11
6.4875424409448819
 21
-2.2326215354330707
 31
0
  0
LINE
  5
387
330
24
100
AcDbEntity
  8
B.Mask
  6
CONTINUOUS
100
AcDbLine
 10
6.4875424409448819
 20
-2.2326215354330707
 30
0
 11
6.4934467322834646
 21
-2.2314470866141733
 31
0
  0
LINE
  5
388
330
24
100
AcDbEntity
  8
B.Mask
  6
CONTINUOUS
100
AcDbLine
 10
6.4934467322834646
 20
-2.2314470866141733
 30
0
 11
6.4994666535433065
 21
-2.2314470866141733
 31
0
  0
LINE
  5
389
330
24
100
AcDbEntity
  8
B.Mask
  6
CONTINUOUS
100
AcDbLine
 10
6.4994666535433065
 20
-2.2314470866141733
 30
0
 11
6.5053709448818893
 21
-2.2326215354330707
 31
0
  0
LINE
  5
38A
330
24
100
AcDbEntity
  8
B.Mask
  6
CONTINUOUS
100
AcDbLine
 10
6.6053709448818898
 20
-2.2326215354330707
 30
0
 11
6.6109326377952753
 21
-2.2349252362204726
 31
0
  0
LINE
  5
38B
330
24
100
AcDbEntity
  8
B.Mask
  6
CONTINUOUS
100
AcDbLine
 10
6.6109326377952753
 20
-2.2349252362204726
 30
0
 11
6.6159380708661413
 21
-2.2382697637795275
 31
0
  0
LINE
  5
38C
330
24
100
AcDbEntity
  8
B.Mask
  6
CONTINUOUS
100
AcDbLine
 10
6.6159380708661413
 20
-2.2382697637795275
 30
0
 11
6.6201948031496061
 21
-2.2425264960629923
 31
0
  0
LINE
  5
38D
330
24
100
AcDbEntity
  8
B.Mask
  6
CONTINUOUS
100
AcDbLine
 10
6.6201948031496061
 20
-2.2425264960629923
 30
0
 11
6.6235393307086614
 21
-2.2475319291338582
 31
0
  0
LINE
  5
38E
330
24
100
AcDbEntity
  8
B.Mask
  6
CONTINUOUS
100
AcDbLine
 10
6.6235393307086614
 20
-2.2475319291338582
 30
0
 11
6.6258430314960632
 21
-2.2530936220472442
 31
0
  0
LINE
  5
38F
330
24
100
AcDbEntity
  8
B.Mask
  6
CONTINUOUS
100
AcDbLine
 10
6.6258430314960632
 20
-2.2530936220472442
 30
0
 11
6.6270174803149606
 21
-2.2589979133858269
 31
0
  0
LINE
  5
390
330
24
100
AcDbEntity
  8
B.Mask
  6
CONTINUOUS
100
AcDbLine
 10
6.6270174803149606
 20
-2.2589979133858269
 30
0
 11
6.6270174803149606
 21
-2.2650178346456693
 31
0
  0
LINE
  5
391
330
24
100
AcDbEntity
  8
B.Mask
  6
CONTINUOUS
100
AcDbLine
 10
6.6270174803149606
 20
-2.2650178346456693
 30
0
 11
6.6258430314960632
 21
-2.270922125984252
 31
0
  0
LINE
  5
392
330
24
100
AcDbEntity
  8
B.Mask
  6
CONTINUOUS
100
AcDbLine
 10
6.6258430314960632
 20
-2.270922125984252
 30
0
 11
6.6235393307086614
 21
-2.276483818897638
 31
0
  0
LINE
  5
393
330
24
100
AcDbEntity
  8
B.Mask
  6
CONTINUOUS
100
AcDbLine
 10
6.6235393307086614
 20
-2.276483818897638
 30
0
 11
6.6201948031496061
 21
-2.2814892519685039
 31
0
  0
LINE
  5
394
330
24
100
AcDbEntity
  8
B.Mask
  6
CONTINUOUS
100
AcDbLine
 10
6.6201948031496061
 20
-2.2814892519685039
 30
0
 11
6.6159380708661413
 21
-2.2857459842519683
 31
0
  0
LINE
  5
395
330
24
100
AcDbEntity
  8
B.Mask
  6
CONTINUOUS
100
AcDbLine
 10
6.6159380708661413
 20
-2.2857459842519683
 30
0
 11
6.6109326377952753
 21
-2.2890905118110236
 31
0
  0
LINE
  5
396
330
24
100
AcDbEntity
  8
B.Mask
  6
CONTINUOUS
100
AcDbLine
 10
6.6109326377952753
 20
-2.2890905118110236
 30
0
 11
6.6053709448818898
 21
-2.291394212598425
 31
0
  0
LINE
  5
397
330
24
100
AcDbEntity
  8
B.Mask
  6
CONTINUOUS
100
AcDbLine
 10
6.6053709448818898
 20
-2.291394212598425
 30
0
 11
6.5994666535433071
 21
-2.2925686614173229
 31
0
  0
LINE
  5
398
330
24
100
AcDbEntity
  8
B.Mask
  6
CONTINUOUS
100
AcDbLine
 10
6.5994666535433071
 20
-2.2925686614173229
 30
0
 11
6.5934467322834642
 21
-2.2925686614173229
 31
0
  0
LINE
  5
399
330
24
100
AcDbEntity
  8
B.Mask
  6
CONTINUOUS
100
AcDbLine
 10
6.5934467322834642
 20
-2.2925686614173229
 30
0
 11
6.5875424409448815
 21
-2.291394212598425
 31
0
  0
LINE
  5
39A
330
24
100
AcDbEntity
  8
B.Mask
  6
CONTINUOUS
100
AcDbLine
 10
6.5875424409448815
 20
-2.291394212598425
 30
0
 11
6.581980748031496
 21
-2.2890905118110236
 31
0
  0
LINE
  5
39B
330
24
100
AcDbEntity
  8
B.Mask
  6
CONTINUOUS
100
AcDbLine
 10
6.581980748031496
 20
-2.2890905118110236
 30
0
 11
6.57697531496063
 21
-2.2857459842519683
 31
0
  0
LINE
  5
39C
330
24
100
AcDbEntity
  8
B.Mask
  6
CONTINUOUS
100
AcDbLine
 10
6.57697531496063
 20
-2.2857459842519683
 30
0
 11
6.5727185826771652
 21
-2.2814892519685039
 31
0
  0
LINE
  5
39D
330
24
100
AcDbEntity
  8
B.Mask
  6
CONTINUOUS
100
AcDbLine
 10
6.5727185826771652
 20
-2.2814892519685039
 30
0
 11
6.5693740551181099
 21
-2.276483818897638
 31
0
  0
LINE
  5
39E
330
24
100
AcDbEntity
  8
B.Mask
  6
CONTINUOUS
100
AcDbLine
 10
6.5693740551181099
 20
-2.276483818897638
 30
0
 11
6.5670703543307081
 21
-2.270922125984252
 31
0
  0
LINE
  5
39F
330
24
100
AcDbEntity
  8
B.Mask
  6
CONTINUOUS
100
AcDbLine
 10
6.5670703543307081
 20
-2.270922125984252
 30
0
 11
6.5658959055118107
 21
-2.2650178346456693
 31
0
  0
LINE
  5
3A0
330
24
100
AcDbEntity
  8
B.Mask
  6
CONTINUOUS
100
AcDbLine
 10
6.5658959055118107
 20
-2.2650178346456693
 30
0
 11
6.5658959055118107
 21
-2.2589979133858269
 31
0
  0
LINE
  5
3A1
330
24
100
AcDbEntity
  8
B.Mask
  6
CONTINUOUS
100
AcDbLine
 10
6.5658959055118107
 20
-2.2589979133858269
 30
0
 11
6.5670703543307081
 21
-2.2530936220472442
 31
0
  0
LINE
  5
3A2
330
24
100
AcDbEntity
  8
B.Mask
  6
CONTINUOUS
100
AcDbLine
 10
6.5670703543307081
 20
-2.2530936220472442
 30
0
 11
6.5693740551181099
 21
-2.2475319291338582
 31
0
  0
LINE
  5
3A3
330
24
100
AcDbEntity
  8
B.Mask
  6
CONTINUOUS
100
AcDbLine
 10
6.5693740551181099
 20
-2.2475319291338582
 30
0
 11
6.5727185826771652
 21
-2.2425264960629923
 31
0
  0
LINE
  5
3A4
330
24
100
AcDbEntity
  8
B.Mask
  6
CONTINUOUS
100
AcDbLine
 10
6.5727185826771652
 20
-2.2425264960629923
 30
0
 11
6.57697531496063
 21
-2.2382697637795275
 31
0
  0
LINE
  5
3A5
330
24
100
AcDbEntity
  8
B.Mask
  6
CONTINUOUS
100
AcDbLine
 10
6.57697531496063
 20
-2.2382697637795275
 30
0
 11
6.581980748031496
 21
-2.2349252362204726
 31
0
  0
LINE
  5
3A6
330
24
100
AcDbEntity
  8
B.Mask
  6
CONTINUOUS
100
AcDbLine
 10
6.581980748031496
 20
-2.2349252362204726
 30
0
 11
6.5875424409448815
 21
-2.2326215354330707
 31
0
  0
LINE
  5
3A7
330
24
100
AcDbEntity
  8
B.Mask
  6
CONTINUOUS
100
AcDbLine
 10
6.5875424409448815
 20
-2.2326215354330707
 30
0
 11
6.5934467322834642
 21
-2.2314470866141733
 31
0
  0
LINE
  5
3A8
330
24
100
AcDbEntity
  8
B.Mask
  6
CONTINUOUS
100
AcDbLine
 10
6.5934467322834642
 20
-2.2314470866141733
 30
0
 11
6.5994666535433071
 21
-2.2314470866141733
 31
0
  0
LINE
  5
3A9
330
24
100
AcDbEntity
  8
B.Mask
  6
CONTINUOUS
100
AcDbLine
 10
6.5994666535433071
 20
-2.2314470866141733
 30
0
 11
6.6053709448818898
 21
-2.2326215354330707
 31
0
  0
LINE
  5
3AA
330
24
100
AcDbEntity
  8
B.Mask
  6
CONTINUOUS
100
AcDbLine
 10
6.7053709448818895
 20
-2.2326215354330707
 30
0
 11
6.7109326377952758
 21
-2.2349252362204726
 31
0
  0
LINE
  5
3AB
330
24
100
AcDbEntity
  8
B.Mask
  6
CONTINUOUS
100
AcDbLine
 10
6.7109326377952758
 20
-2.2349252362204726
 30
0
 11
6.7159380708661418
 21
-2.2382697637795275
 31
0
  0
LINE
  5
3AC
330
24
100
AcDbEntity
  8
B.Mask
  6
CONTINUOUS
100
AcDbLine
 10
6.7159380708661418
 20
-2.2382697637795275
 30
0
 11
6.7201948031496057
 21
-2.2425264960629923
 31
0
  0
LINE
  5
3AD
330
24
100
AcDbEntity
  8
B.Mask
  6
CONTINUOUS
100
AcDbLine
 10
6.7201948031496057
 20
-2.2425264960629923
 30
0
 11
6.7235393307086611
 21
-2.2475319291338582
 31
0
  0
LINE
  5
3AE
330
24
100
AcDbEntity
  8
B.Mask
  6
CONTINUOUS
100
AcDbLine
 10
6.7235393307086611
 20
-2.2475319291338582
 30
0
 11
6.7258430314960629
 21
-2.2530936220472442
 31
0
  0
LINE
  5
3AF
330
24
100
AcDbEntity
  8
B.Mask
  6
CONTINUOUS
100
AcDbLine
 10
6.7258430314960629
 20
-2.2530936220472442
 30
0
 11
6.7270174803149603
 21
-2.2589979133858269
 31
0
  0
LINE
  5
3B0
330
24
100
AcDbEntity
  8
B.Mask
  6
CONTINUOUS
100
AcDbLine
 10
6.7270174803149603
 20
-2.2589979133858269
 30
0
 11
6.7270174803149603
 21
-2.2650178346456693
 31
0
  0
LINE
  5
3B1
330
24
100
AcDbEntity
  8
B.Mask
  6
CONTINUOUS
100
AcDbLine
 10
6.7270174803149603
 20
-2.2650178346456693
 30
0
 11
6.7258430314960629
 21
-2.270922125984252
 31
0
  0
LINE
  5
3B2
330
24
100
AcDbEntity
  8
B.Mask
  6
CONTINUOUS
100
AcDbLine
 10
6.7258430314960629
 20
-2.270922125984252
 30
0
 11
6.7235393307086611
 21
-2.276483818897638
 31
0
  0
LINE
  5
3B3
330
24
100
AcDbEntity
  8
B.Mask
  6
CONTINUOUS
100
AcDbLine
 10
6.7235393307086611
 20
-2.276483818897638
 30
0
 11
6.7201948031496057
 21
-2.2814892519685039
 31
0
  0
LINE
  5
3B4
330
24
100
AcDbEntity
  8
B.Mask
  6
CONTINUOUS
100
AcDbLine
 10
6.7201948031496057
 20
-2.2814892519685039
 30
0
 11
6.7159380708661418
 21
-2.2857459842519683
 31
0
  0
LINE
  5
3B5
330
24
100
AcDbEntity
  8
B.Mask
  6
CONTINUOUS
100
AcDbLine
 10
6.7159380708661418
 20
-2.2857459842519683
 30
0
 11
6.7109326377952758
 21
-2.2890905118110236
 31
0
  0
LINE
  5
3B6
330
24
100
AcDbEntity
  8
B.Mask
  6
CONTINUOUS
100
AcDbLine
 10
6.7109326377952758
 20
-2.2890905118110236
 30
0
 11
6.7053709448818895
 21
-2.291394212598425
 31
0
  0
LINE
  5
3B7
330
24
100
AcDbEntity
  8
B.Mask
  6
CONTINUOUS
100
AcDbLine
 10
6.7053709448818895
 20
-2.291394212598425
 30
0
 11
6.6994666535433067
 21
-2.2925686614173229
 31
0
  0
LINE
  5
3B8
330
24
100
AcDbEntity
  8
B.Mask
  6
CONTINUOUS
100
AcDbLine
 10
6.6994666535433067
 20
-2.2925686614173229
 30
0
 11
6.6934467322834648
 21
-2.2925686614173229
 31
0
  0
LINE
  5
3B9
330
24
100
AcDbEntity
  8
B.Mask
  6
CONTINUOUS
100
AcDbLine
 10
6.6934467322834648
 20
-2.2925686614173229
 30
0
 11
6.687542440944882
 21
-2.291394212598425
 31
0
  0
LINE
  5
3BA
330
24
100
AcDbEntity
  8
B.Mask
  6
CONTINUOUS
100
AcDbLine
 10
6.687542440944882
 20
-2.291394212598425
 30
0
 11
6.6819807480314957
 21
-2.2890905118110236
 31
0
  0
LINE
  5
3BB
330
24
100
AcDbEntity
  8
B.Mask
  6
CONTINUOUS
100
AcDbLine
 10
6.6819807480314957
 20
-2.2890905118110236
 30
0
 11
6.6769753149606297
 21
-2.2857459842519683
 31
0
  0
LINE
  5
3BC
330
24
100
AcDbEntity
  8
B.Mask
  6
CONTINUOUS
100
AcDbLine
 10
6.6769753149606297
 20
-2.2857459842519683
 30
0
 11
6.6727185826771649
 21
-2.2814892519685039
 31
0
  0
LINE
  5
3BD
330
24
100
AcDbEntity
  8
B.Mask
  6
CONTINUOUS
100
AcDbLine
 10
6.6727185826771649
 20
-2.2814892519685039
 30
0
 11
6.6693740551181104
 21
-2.276483818897638
 31
0
  0
LINE
  5
3BE
330
24
100
AcDbEntity
  8
B.Mask
  6
CONTINUOUS
100
AcDbLine
 10
6.6693740551181104
 20
-2.276483818897638
 30
0
 11
6.6670703543307086
 21
-2.270922125984252
 31
0
  0
LINE
  5
3BF
330
24
100
AcDbEntity
  8
B.Mask
  6
CONTINUOUS
100
AcDbLine
 10
6.6670703543307086
 20
-2.270922125984252
 30
0
 11
6.6658959055118112
 21
-2.2650178346456693
 31
0
  0
LINE
  5
3C0
330
24
100
AcDbEntity
  8
B.Mask
  6
CONTINUOUS
100
AcDbLine
 10
6.6658959055118112
 20
-2.2650178346456693
 30
0
 11
6.6658959055118112
 21
-2.2589979133858269
 31
0
  0
LINE
  5
3C1
330
24
100
AcDbEntity
  8
B.Mask
  6
CONTINUOUS
100
AcDbLine
 10
6.6658959055118112
 20
-2.2589979133858269
 30
0
 11
6.6670703543307086
 21
-2.2530936220472442
 31
0
  0
LINE
  5
3C2
330
24
100
AcDbEntity
  8
B.Mask
  6
CONTINUOUS
100
AcDbLine
 10
6.6670703543307086
 20
-2.2530936220472442
 30
0
 11
6.6693740551181104
 21
-2.2475319291338582
 31
0
  0
LINE
  5
3C3
330
24
100
AcDbEntity
  8
B.Mask
  6
CONTINUOUS
100
AcDbLine
 10
6.6693740551181104
 20
-2.2475319291338582
 30
0
 11
6.6727185826771649
 21
-2.2425264960629923
 31
0
  0
LINE
  5
3C4
330
24
100
AcDbEntity
  8
B.Mask
  6
CONTINUOUS
100
AcDbLine
 10
6.6727185826771649
 20
-2.2425264960629923
 30
0
 11
6.6769753149606297
 21
-2.2382697637795275
 31
0
  0
LINE
  5
3C5
330
24
100
AcDbEntity
  8
B.Mask
  6
CONTINUOUS
100
AcDbLine
 10
6.6769753149606297
 20
-2.2382697637795275
 30
0
 11
6.6819807480314957
 21
-2.2349252362204726
 31
0
  0
LINE
  5
3C6
330
24
100
AcDbEntity
  8
B.Mask
  6
CONTINUOUS
100
AcDbLine
 10
6.6819807480314957
 20
-2.2349252362204726
 30
0
 11
6.687542440944882
 21
-2.2326215354330707
 31
0
  0
LINE
  5
3C7
330
24
100
AcDbEntity
  8
B.Mask
  6
CONTINUOUS
100
AcDbLine
 10
6.687542440944882
 20
-2.2326215354330707
 30
0
 11
6.6934467322834648
 21
-2.2314470866141733
 31
0
  0
LINE
  5
3C8
330
24
100
AcDbEntity
  8
B.Mask
  6
CONTINUOUS
100
AcDbLine
 10
6.6934467322834648
 20
-2.2314470866141733
 30
0
 11
6.6994666535433067
 21
-2.2314470866141733
 31
0
  0
LINE
  5
3C9
330
24
100
AcDbEntity
  8
B.Mask
  6
CONTINUOUS
100
AcDbLine
 10
6.6994666535433067
 20
-2.2314470866141733
 30
0
 11
6.7053709448818895
 21
-2.2326215354330707
 31
0
  0
LINE
  5
3CA
330
24
100
AcDbEntity
  8
B.Mask
  6
CONTINUOUS
100
AcDbLine
 10
6.80537094488189
 20
-2.2326215354330707
 30
0
 11
6.8109326377952755
 21
-2.2349252362204726
 31
0
  0
LINE
  5
3CB
330
24
100
AcDbEntity
  8
B.Mask
  6
CONTINUOUS
100
AcDbLine
 10
6.8109326377952755
 20
-2.2349252362204726
 30
0
 11
6.8159380708661415
 21
-2.2382697637795275
 31
0
  0
LINE
  5
3CC
330
24
100
AcDbEntity
  8
B.Mask
  6
CONTINUOUS
100
AcDbLine
 10
6.8159380708661415
 20
-2.2382697637795275
 30
0
 11
6.8201948031496062
 21
-2.2425264960629923
 31
0
  0
LINE
  5
3CD
330
24
100
AcDbEntity
  8
B.Mask
  6
CONTINUOUS
100
AcDbLine
 10
6.8201948031496062
 20
-2.2425264960629923
 30
0
 11
6.8235393307086616
 21
-2.2475319291338582
 31
0
  0
LINE
  5
3CE
330
24
100
AcDbEntity
  8
B.Mask
  6
CONTINUOUS
100
AcDbLine
 10
6.8235393307086616
 20
-2.2475319291338582
 30
0
 11
6.8258430314960625
 21
-2.2530936220472442
 31
0
  0
LINE
  5
3CF
330
24
100
AcDbEntity
  8
B.Mask
  6
CONTINUOUS
100
AcDbLine
 10
6.8258430314960625
 20
-2.2530936220472442
 30
0
 11
6.8270174803149608
 21
-2.2589979133858269
 31
0
  0
LINE
  5
3D0
330
24
100
AcDbEntity
  8
B.Mask
  6
CONTINUOUS
100
AcDbLine
 10
6.8270174803149608
 20
-2.2589979133858269
 30
0
 11
6.8270174803149608
 21
-2.2650178346456693
 31
0
  0
LINE
  5
3D1
330
24
100
AcDbEntity
  8
B.Mask
  6
CONTINUOUS
100
AcDbLine
 10
6.8270174803149608
 20
-2.2650178346456693
 30
0
 11
6.8258430314960625
 21
-2.270922125984252
 31
0
  0
LINE
  5
3D2
330
24
100
AcDbEntity
  8
B.Mask
  6
CONTINUOUS
100
AcDbLine
 10
6.8258430314960625
 20
-2.270922125984252
 30
0
 11
6.8235393307086616
 21
-2.276483818897638
 31
0
  0
LINE
  5
3D3
330
24
100
AcDbEntity
  8
B.Mask
  6
CONTINUOUS
100
AcDbLine
 10
6.8235393307086616
 20
-2.276483818897638
 30
0
 11
6.8201948031496062
 21
-2.2814892519685039
 31
0
  0
LINE
  5
3D4
330
24
100
AcDbEntity
  8
B.Mask
  6
CONTINUOUS
100
AcDbLine
 10
6.8201948031496062
 20
-2.2814892519685039
 30
0
 11
6.8159380708661415
 21
-2.2857459842519683
 31
0
  0
LINE
  5
3D5
330
24
100
AcDbEntity
  8
B.Mask
  6
CONTINUOUS
100
AcDbLine
 10
6.8159380708661415
 20
-2.2857459842519683
 30
0
 11
6.8109326377952755
 21
-2.2890905118110236
 31
0
  0
LINE
  5
3D6
330
24
100
AcDbEntity
  8
B.Mask
  6
CONTINUOUS
100
AcDbLine
 10
6.8109326377952755
 20
-2.2890905118110236
 30
0
 11
6.80537094488189
 21
-2.291394212598425
 31
0
  0
LINE
  5
3D7
330
24
100
AcDbEntity
  8
B.Mask
  6
CONTINUOUS
100
AcDbLine
 10
6.80537094488189
 20
-2.291394212598425
 30
0
 11
6.7994666535433073
 21
-2.2925686614173229
 31
0
  0
LINE
  5
3D8
330
24
100
AcDbEntity
  8
B.Mask
  6
CONTINUOUS
100
AcDbLine
 10
6.7994666535433073
 20
-2.2925686614173229
 30
0
 11
6.7934467322834644
 21
-2.2925686614173229
 31
0
  0
LINE
  5
3D9
330
24
100
AcDbEntity
  8
B.Mask
  6
CONTINUOUS
100
AcDbLine
 10
6.7934467322834644
 20
-2.2925686614173229
 30
0
 11
6.7875424409448817
 21
-2.291394212598425
 31
0
  0
LINE
  5
3DA
330
24
100
AcDbEntity
  8
B.Mask
  6
CONTINUOUS
100
AcDbLine
 10
6.7875424409448817
 20
-2.291394212598425
 30
0
 11
6.7819807480314962
 21
-2.2890905118110236
 31
0
  0
LINE
  5
3DB
330
24
100
AcDbEntity
  8
B.Mask
  6
CONTINUOUS
100
AcDbLine
 10
6.7819807480314962
 20
-2.2890905118110236
 30
0
 11
6.7769753149606293
 21
-2.2857459842519683
 31
0
  0
LINE
  5
3DC
330
24
100
AcDbEntity
  8
B.Mask
  6
CONTINUOUS
100
AcDbLine
 10
6.7769753149606293
 20
-2.2857459842519683
 30
0
 11
6.7727185826771654
 21
-2.2814892519685039
 31
0
  0
LINE
  5
3DD
330
24
100
AcDbEntity
  8
B.Mask
  6
CONTINUOUS
100
AcDbLine
 10
6.7727185826771654
 20
-2.2814892519685039
 30
0
 11
6.7693740551181101
 21
-2.276483818897638
 31
0
  0
LINE
  5
3DE
330
24
100
AcDbEntity
  8
B.Mask
  6
CONTINUOUS
100
AcDbLine
 10
6.7693740551181101
 20
-2.276483818897638
 30
0
 11
6.7670703543307082
 21
-2.270922125984252
 31
0
  0
LINE
  5
3DF
330
24
100
AcDbEntity
  8
B.Mask
  6
CONTINUOUS
100
AcDbLine
 10
6.7670703543307082
 20
-2.270922125984252
 30
0
 11
6.7658959055118109
 21
-2.2650178346456693
 31
0
  0
LINE
  5
3E0
330
24
100
AcDbEntity
  8
B.Mask
  6
CONTINUOUS
100
AcDbLine
 10
6.7658959055118109
 20
-2.2650178346456693
 30
0
 11
6.7658959055118109
 21
-2.2589979133858269
 31
0
  0
LINE
  5
3E1
330
24
100
AcDbEntity
  8
B.Mask
  6
CONTINUOUS
100
AcDbLine
 10
6.7658959055118109
 20
-2.2589979133858269
 30
0
 11
6.7670703543307082
 21
-2.2530936220472442
 31
0
  0
LINE
  5
3E2
330
24
100
AcDbEntity
  8
B.Mask
  6
CONTINUOUS
100
AcDbLine
 10
6.7670703543307082
 20
-2.2530936220472442
 30
0
 11
6.7693740551181101
 21
-2.2475319291338582
 31
0
  0
LINE
  5
3E3
330
24
100
AcDbEntity
  8
B.Mask
  6
CONTINUOUS
100
AcDbLine
 10
6.7693740551181101
 20
-2.2475319291338582
 30
0
 11
6.7727185826771654
 21
-2.2425264960629923
 31
0
  0
LINE
  5
3E4
330
24
100
AcDbEntity
  8
B.Mask
  6
CONTINUOUS
100
AcDbLine
 10
6.7727185826771654
 20
-2.2425264960629923
 30
0
 11
6.7769753149606293
 21
-2.2382697637795275
 31
0
  0
LINE
  5
3E5
330
24
100
AcDbEntity
  8
B.Mask
  6
CONTINUOUS
100
AcDbLine
 10
6.7769753149606293
 20
-2.2382697637795275
 30
0
 11
6.7819807480314962
 21
-2.2349252362204726
 31
0
  0
LINE
  5
3E6
330
24
100
AcDbEntity
  8
B.Mask
  6
CONTINUOUS
100
AcDbLine
 10
6.7819807480314962
 20
-2.2349252362204726
 30
0
 11
6.7875424409448817
 21
-2.2326215354330707
 31
0
  0
LINE
  5
3E7
330
24
100
AcDbEntity
  8
B.Mask
  6
CONTINUOUS
100
AcDbLine
 10
6.7875424409448817
 20
-2.2326215354330707
 30
0
 11
6.7934467322834644
 21
-2.2314470866141733
 31
0
  0
LINE
  5
3E8
330
24
100
AcDbEntity
  8
B.Mask
  6
CONTINUOUS
100
AcDbLine
 10
6.7934467322834644
 20
-2.2314470866141733
 30
0
 11
6.7994666535433073
 21
-2.2314470866141733
 31
0
  0
LINE
  5
3E9
330
24
100
AcDbEntity
  8
B.Mask
  6
CONTINUOUS
100
AcDbLine
 10
6.7994666535433073
 20
-2.2314470866141733
 30
0
 11
6.80537094488189
 21
-2.2326215354330707
 31
0
  0
CIRCLE
  5
3EA
330
24
100
AcDbEntity
  8
B.Mask
100
AcDbCircle
 10
7.3280275590551183
 20
-4.1094645669291339
 30
0
 40
0.0059055118110236
  0
CIRCLE
  5
3EB
330
24
100
AcDbEntity
  8
B.Mask
100
AcDbCircle
 10
6.6811023622047241
 20
-4.2204724409448815
 30
0
 40
0.0059055118110236
  0
CIRCLE
  5
3EC
330
24
100
AcDbEntity
  8
B.Mask
100
AcDbCircle
 10
7.3280275590551183
 20
-4.0516732283464565
 30
0
 40
0.0059055118110236
  0
CIRCLE
  5
3ED
330
24
100
AcDbEntity
  8
B.Mask
100
AcDbCircle
 10
7.2637795275590546
 20
-4.0647874015748027
 30
0
 40
0.0059055118110236
  0
CIRCLE
  5
3EE
330
24
100
AcDbEntity
  8
B.Mask
100
AcDbCircle
 10
7.3655078740157478
 20
-4.1665157480314958
 30
0
 40
0.0059055118110236
  0
LINE
  5
3EF
330
24
100
AcDbEntity
  8
B.Mask
  6
CONTINUOUS
100
AcDbLine
 10
6.2598425196850389
 20
-3.6929133858267718
 30
0
 11
6.2992125984251963
 21
-3.6929133858267718
 31
0
  0
ARC
  5
3F0
330
24
100
AcDbEntity
  8
B.Mask
100
AcDbCircle
 10
6.2992125984251963
 20
-3.6614173228346454
 30
0
 40
0.031496062992126
100
AcDbArc
 50
-90.00000000
 51
90.00000000
  0
LINE
  5
3F1
330
24
100
AcDbEntity
  8
B.Mask
  6
CONTINUOUS
100
AcDbLine
 10
6.2992125984251963
 20
-3.6299212598425195
 30
0
 11
6.2598425196850389
 21
-3.6299212598425195
 31
0
  0
ARC
  5
3F2
330
24
100
AcDbEntity
  8
B.Mask
100
AcDbCircle
 10
6.2598425196850389
 20
-3.6614173228346454
 30
0
 40
0.031496062992126
100
AcDbArc
 50
90.00000000
 51
270.00000000
  0
CIRCLE
  5
3F3
330
24
100
AcDbEntity
  8
B.Mask
100
AcDbCircle
 10
4.5708658267716533
 20
-4.5748017322834649
 30
0
 40
0.0374015748031496
  0
CIRCLE
  5
3F4
330
24
100
AcDbEntity
  8
B.Mask
100
AcDbCircle
 10
4.5708664566929134
 20
-4.8740143307086612
 30
0
 40
0.0374015748031496
  0
CIRCLE
  5
3F5
330
24
100
AcDbEntity
  8
B.Mask
100
AcDbCircle
 10
4.877952755905512
 20
-4.724407401574803
 30
0
 40
0.0200787401574803
  0
CIRCLE
  5
3F6
330
24
100
AcDbEntity
  8
B.Mask
100
AcDbCircle
 10
4.8964566929133859
 20
-2.2620078740157479
 30
0
 40
0.0204724409448819
  0
CIRCLE
  5
3F7
330
24
100
AcDbEntity
  8
B.Mask
100
AcDbCircle
 10
4.9964566929133856
 20
-2.2620078740157479
 30
0
 40
0.0204724409448819
  0
CIRCLE
  5
3F8
330
24
100
AcDbEntity
  8
B.Mask
100
AcDbCircle
 10
5.0964566929133861
 20
-2.2620078740157479
 30
0
 40
0.0204724409448819
  0
CIRCLE
  5
3F9
330
24
100
AcDbEntity
  8
B.Mask
100
AcDbCircle
 10
5.1964566929133857
 20
-2.2620078740157479
 30
0
 40
0.0204724409448819
  0
CIRCLE
  5
3FA
330
24
100
AcDbEntity
  8
B.Mask
100
AcDbCircle
 10
5.2964566929133854
 20
-2.2620078740157479
 30
0
 40
0.0204724409448819
  0
CIRCLE
  5
3FB
330
24
100
AcDbEntity
  8
B.Mask
100
AcDbCircle
 10
5.3964566929133859
 20
-2.2620078740157479
 30
0
 40
0.0204724409448819
  0
CIRCLE
  5
3FC
330
24
100
AcDbEntity
  8
B.Mask
100
AcDbCircle
 10
5.4964566929133856
 20
-2.2620078740157479
 30
0
 40
0.0204724409448819
  0
CIRCLE
  5
3FD
330
24
100
AcDbEntity
  8
B.Mask
100
AcDbCircle
 10
5.5964566929133861
 20
-2.2620078740157479
 30
0
 40
0.0204724409448819
  0
CIRCLE
  5
3FE
330
24
100
AcDbEntity
  8
B.Mask
100
AcDbCircle
 10
5.6964566929133857
 20
-2.2620078740157479
 30
0
 40
0.0204724409448819
  0
CIRCLE
  5
3FF
330
24
100
AcDbEntity
  8
B.Mask
100
AcDbCircle
 10
5.7964566929133854
 20
-2.2620078740157479
 30
0
 40
0.0204724409448819
  0
CIRCLE
  5
400
330
24
100
AcDbEntity
  8
B.Mask
100
AcDbCircle
 10
5.8964566929133859
 20
-2.2620078740157479
 30
0
 40
0.0204724409448819
  0
CIRCLE
  5
401
330
24
100
AcDbEntity
  8
B.Mask
100
AcDbCircle
 10
5.9964566929133856
 20
-2.2620078740157479
 30
0
 40
0.0204724409448819
  0
CIRCLE
  5
402
330
24
100
AcDbEntity
  8
B.Mask
100
AcDbCircle
 10
6.0964566929133861
 20
-2.2620078740157479
 30
0
 40
0.0204724409448819
  0
CIRCLE
  5
403
330
24
100
AcDbEntity
  8
B.Mask
100
AcDbCircle
 10
6.1964566929133857
 20
-2.2620078740157479
 30
0
 40
0.0204724409448819
  0
CIRCLE
  5
404
330
24
100
AcDbEntity
  8
B.Mask
100
AcDbCircle
 10
6.2964566929133854
 20
-2.2620078740157479
 30
0
 40
0.0204724409448819
  0
CIRCLE
  5
405
330
24
100
AcDbEntity
  8
B.Mask
100
AcDbCircle
 10
6.3964566929133859
 20
-2.2620078740157479
 30
0
 40
0.0204724409448819
  0
CIRCLE
  5
406
330
24
100
AcDbEntity
  8
B.Mask
100
AcDbCircle
 10
6.4964566929133856
 20
-2.2620078740157479
 30
0
 40
0.0204724409448819
  0
CIRCLE
  5
407
330
24
100
AcDbEntity
  8
B.Mask
100
AcDbCircle
 10
6.5964566929133861
 20
-2.2620078740157479
 30
0
 40
0.0204724409448819
  0
CIRCLE
  5
408
330
24
100
AcDbEntity
  8
B.Mask
100
AcDbCircle
 10
6.6964566929133857
 20
-2.2620078740157479
 30
0
 40
0.0204724409448819
  0
CIRCLE
  5
409
330
24
100
AcDbEntity
  8
B.Mask
100
AcDbCircle
 10
6.7964566929133854
 20
-2.2620078740157479
 30
0
 40
0.0204724409448819
  0
CIRCLE
  5
40A
330
24
100
AcDbEntity
  8
B.Mask
100
AcDbCircle
 10
4.5708658267716533
 20
-3.3936993700787399
 30
0
 40
0.0374015748031496
  0
CIRCLE
  5
40B
330
24
100
AcDbEntity
  8
B.Mask
100
AcDbCircle
 10
4.5708664566929134
 20
-3.6929119685039371
 30
0
 40
0.0374015748031496
  0
CIRCLE
  5
40C
330
24
100
AcDbEntity
  8
B.Mask
100
AcDbCircle
 10
4.877952755905512
 20
-3.5433050393700785
 30
0
 40
0.0200787401574803
  0
LINE
  5
40D
330
24
100
AcDbEntity
  8
B.Mask
  6
CONTINUOUS
100
AcDbLine
 10
7.7145656692913382
 20
-3.9440944881889761
 30
0
 11
7.7460617322834642
 21
-3.9440944881889761
 31
0
  0
ARC
  5
40E
330
24
100
AcDbEntity
  8
B.Mask
100
AcDbCircle
 10
7.7460617322834642
 20
-3.9244094488188974
 30
0
 40
0.0196850393700787
100
AcDbArc
 50
-90.00000000
 51
90.00000000
  0
LINE
  5
40F
330
24
100
AcDbEntity
  8
B.Mask
  6
CONTINUOUS
100
AcDbLine
 10
7.7460617322834642
 20
-3.9047244094488187
 30
0
 11
7.7145656692913382
 21
-3.9047244094488187
 31
0
  0
ARC
  5
410
330
24
100
AcDbEntity
  8
B.Mask
100
AcDbCircle
 10
7.7145656692913382
 20
-3.9244094488188974
 30
0
 40
0.0196850393700787
100
AcDbArc
 50
90.00000000
 51
270.00000000
  0
LINE
  5
411
330
24
100
AcDbEntity
  8
B.Mask
  6
CONTINUOUS
100
AcDbLine
 10
7.5570853543307086
 20
-3.9440956299212599
 30
0
 11
7.5885814173228345
 21
-3.9440956299212599
 31
0
  0
ARC
  5
412
330
24
100
AcDbEntity
  8
B.Mask
100
AcDbCircle
 10
7.5885814173228345
 20
-3.9244105905511808
 30
0
 40
0.0196850393700787
100
AcDbArc
 50
-90.00000000
 51
90.00000000
  0
LINE
  5
413
330
24
100
AcDbEntity
  8
B.Mask
  6
CONTINUOUS
100
AcDbLine
 10
7.5885814173228345
 20
-3.9047255511811021
 30
0
 11
7.5570853543307086
 21
-3.9047255511811021
 31
0
  0
ARC
  5
414
330
24
100
AcDbEntity
  8
B.Mask
100
AcDbCircle
 10
7.5570853543307086
 20
-3.9244105905511808
 30
0
 40
0.0196850393700787
100
AcDbArc
 50
90.00000000
 51
270.00000000
  0
LINE
  5
415
330
24
100
AcDbEntity
  8
B.Mask
  6
CONTINUOUS
100
AcDbLine
 10
7.7106311811023618
 20
-4.2842520078740156
 30
0
 11
7.7421272440944877
 21
-4.2842520078740156
 31
0
  0
ARC
  5
416
330
24
100
AcDbEntity
  8
B.Mask
100
AcDbCircle
 10
7.7421272440944877
 20
-4.2645669685039369
 30
0
 40
0.0196850393700787
100
AcDbArc
 50
-90.00000000
 51
90.00000000
  0
LINE
  5
417
330
24
100
AcDbEntity
  8
B.Mask
  6
CONTINUOUS
100
AcDbLine
 10
7.7421272440944877
 20
-4.2448819291338582
 30
0
 11
7.7106311811023618
 21
-4.2448819291338582
 31
0
  0
ARC
  5
418
330
24
100
AcDbEntity
  8
B.Mask
100
AcDbCircle
 10
7.7106311811023618
 20
-4.2645669685039369
 30
0
 40
0.0196850393700787
100
AcDbArc
 50
90.00000000
 51
270.00000000
  0
LINE
  5
419
330
24
100
AcDbEntity
  8
B.Mask
  6
CONTINUOUS
100
AcDbLine
 10
7.5570878740157479
 20
-4.2842531102362207
 30
0
 11
7.5885839370078738
 21
-4.2842531102362207
 31
0
  0
ARC
  5
41A
330
24
100
AcDbEntity
  8
B.Mask
100
AcDbCircle
 10
7.5885839370078738
 20
-4.264568070866142
 30
0
 40
0.0196850393700787
100
AcDbArc
 50
-90.00000000
 51
90.00000000
  0
LINE
  5
41B
330
24
100
AcDbEntity
  8
B.Mask
  6
CONTINUOUS
100
AcDbLine
 10
7.5885839370078738
 20
-4.2448830314960633
 30
0
 11
7.5570878740157479
 21
-4.2448830314960633
 31
0
  0
ARC
  5
41C
330
24
100
AcDbEntity
  8
B.Mask
100
AcDbCircle
 10
7.5570878740157479
 20
-4.264568070866142
 30
0
 40
0.0196850393700787
100
AcDbArc
 50
90.00000000
 51
270.00000000
  0
CIRCLE
  5
41D
330
24
100
AcDbEntity
  8
B.Mask
100
AcDbCircle
 10
7.3280275590551183
 20
-4.1094645669291339
 30
0
 40
0.0059055118110236
  0
CIRCLE
  5
41E
330
24
100
AcDbEntity
  8
B.Mask
100
AcDbCircle
 10
6.6811023622047241
 20
-4.2204724409448815
 30
0
 40
0.0059055118110236
  0
CIRCLE
  5
41F
330
24
100
AcDbEntity
  8
B.Mask
100
AcDbCircle
 10
7.3280275590551183
 20
-4.0516732283464565
 30
0
 40
0.0059055118110236
  0
CIRCLE
  5
420
330
24
100
AcDbEntity
  8
B.Mask
100
AcDbCircle
 10
7.2637795275590546
 20
-4.0647874015748027
 30
0
 40
0.0059055118110236
  0
CIRCLE
  5
421
330
24
100
AcDbEntity
  8
B.Mask
100
AcDbCircle
 10
7.3655078740157478
 20
-4.1665157480314958
 30
0
 40
0.0059055118110236
  0
LINE
  5
422
330
24
100
AcDbEntity
  8
B.Mask
  6
CONTINUOUS
100
AcDbLine
 10
6.2637795275590546
 20
-3.6811023622047245
 30
0
 11
6.2952755905511806
 21
-3.6811023622047245
 31
0
  0
ARC
  5
423
330
24
100
AcDbEntity
  8
B.Mask
100
AcDbCircle
 10
6.2952755905511806
 20
-3.6614173228346454
 30
0
 40
0.0196850393700787
100
AcDbArc
 50
-90.00000000
 51
90.00000000
  0
LINE
  5
424
330
24
100
AcDbEntity
  8
B.Mask
  6
CONTINUOUS
100
AcDbLine
 10
6.2952755905511806
 20
-3.6417322834645667
 30
0
 11
6.2637795275590546
 21
-3.6417322834645667
 31
0
  0
ARC
  5
425
330
24
100
AcDbEntity
  8
B.Mask
100
AcDbCircle
 10
6.2637795275590546
 20
-3.6614173228346454
 30
0
 40
0.0196850393700787
100
AcDbArc
 50
90.00000000
 51
270.00000000
  0
CIRCLE
  5
426
330
24
100
AcDbEntity
  8
B.Mask
100
AcDbCircle
 10
4.5708658267716533
 20
-4.5748017322834649
 30
0
 40
0.0374015748031496
  0
CIRCLE
  5
427
330
24
100
AcDbEntity
  8
B.Mask
100
AcDbCircle
 10
4.5708664566929134
 20
-4.8740143307086612
 30
0
 40
0.0374015748031496
  0
CIRCLE
  5
428
330
24
100
AcDbEntity
  8
B.Mask
100
AcDbCircle
 10
4.877952755905512
 20
-4.724407401574803
 30
0
 40
0.0200787401574803
  0
CIRCLE
  5
429
330
24
100
AcDbEntity
  8
B.Mask
100
AcDbCircle
 10
4.8964566929133859
 20
-2.2620078740157479
 30
0
 40
0.0204724409448819
  0
CIRCLE
  5
42A
330
24
100
AcDbEntity
  8
B.Mask
100
AcDbCircle
 10
4.9964566929133856
 20
-2.2620078740157479
 30
0
 40
0.0204724409448819
  0
CIRCLE
  5
42B
330
24
100
AcDbEntity
  8
B.Mask
100
AcDbCircle
 10
5.0964566929133861
 20
-2.2620078740157479
 30
0
 40
0.0204724409448819
  0
CIRCLE
  5
42C
330
24
100
AcDbEntity
  8
B.Mask
100
AcDbCircle
 10
5.1964566929133857
 20
-2.2620078740157479
 30
0
 40
0.0204724409448819
  0
CIRCLE
  5
42D
330
24
100
AcDbEntity
  8
B.Mask
100
AcDbCircle
 10
5.2964566929133854
 20
-2.2620078740157479
 30
0
 40
0.0204724409448819
  0
CIRCLE
  5
42E
330
24
100
AcDbEntity
  8
B.Mask
100
AcDbCircle
 10
5.3964566929133859
 20
-2.2620078740157479
 30
0
 40
0.0204724409448819
  0
CIRCLE
  5
42F
330
24
100
AcDbEntity
  8
B.Mask
100
AcDbCircle
 10
5.4964566929133856
 20
-2.2620078740157479
 30
0
 40
0.0204724409448819
  0
CIRCLE
  5
430
330
24
100
AcDbEntity
  8
B.Mask
100
AcDbCircle
 10
5.5964566929133861
 20
-2.2620078740157479
 30
0
 40
0.0204724409448819
  0
CIRCLE
  5
431
330
24
100
AcDbEntity
  8
B.Mask
100
AcDbCircle
 10
5.6964566929133857
 20
-2.2620078740157479
 30
0
 40
0.0204724409448819
  0
CIRCLE
  5
432
330
24
100
AcDbEntity
  8
B.Mask
100
AcDbCircle
 10
5.7964566929133854
 20
-2.2620078740157479
 30
0
 40
0.0204724409448819
  0
CIRCLE
  5
433
330
24
100
AcDbEntity
  8
B.Mask
100
AcDbCircle
 10
5.8964566929133859
 20
-2.2620078740157479
 30
0
 40
0.0204724409448819
  0
CIRCLE
  5
434
330
24
100
AcDbEntity
  8
B.Mask
100
AcDbCircle
 10
5.9964566929133856
 20
-2.2620078740157479
 30
0
 40
0.0204724409448819
  0
CIRCLE
  5
435
330
24
100
AcDbEntity
  8
B.Mask
100
AcDbCircle
 10
6.0964566929133861
 20
-2.2620078740157479
 30
0
 40
0.0204724409448819
  0
CIRCLE
  5
436
330
24
100
AcDbEntity
  8
B.Mask
100
AcDbCircle
 10
6.1964566929133857
 20
-2.2620078740157479
 30
0
 40
0.0204724409448819
  0
CIRCLE
  5
437
330
24
100
AcDbEntity
  8
B.Mask
100
AcDbCircle
 10
6.2964566929133854
 20
-2.2620078740157479
 30
0
 40
0.0204724409448819
  0
CIRCLE
  5
438
330
24
100
AcDbEntity
  8
B.Mask
100
AcDbCircle
 10
6.3964566929133859
 20
-2.2620078740157479
 30
0
 40
0.0204724409448819
  0
CIRCLE
  5
439
330
24
100
AcDbEntity
  8
B.Mask
100
AcDbCircle
 10
6.4964566929133856
 20
-2.2620078740157479
 30
0
 40
0.0204724409448819
  0
CIRCLE
  5
43A
330
24
100
AcDbEntity
  8
B.Mask
100
AcDbCircle
 10
6.5964566929133861
 20
-2.2620078740157479
 30
0
 40
0.0204724409448819
  0
CIRCLE
  5
43B
330
24
100
AcDbEntity
  8
B.Mask
100
AcDbCircle
 10
6.6964566929133857
 20
-2.2620078740157479
 30
0
 40
0.0204724409448819
  0
CIRCLE
  5
43C
330
24
100
AcDbEntity
  8
B.Mask
100
AcDbCircle
 10
6.7964566929133854
 20
-2.2620078740157479
 30
0
 40
0.0204724409448819
  0
CIRCLE
  5
43D
330
24
100
AcDbEntity
  8
B.Mask
100
AcDbCircle
 10
4.5708658267716533
 20
-3.3936993700787399
 30
0
 40
0.0374015748031496
  0
CIRCLE
  5
43E
330
24
100
AcDbEntity
  8
B.Mask
100
AcDbCircle
 10
4.5708664566929134
 20
-3.6929119685039371
 30
0
 40
0.0374015748031496
  0
CIRCLE
  5
43F
330
24
100
AcDbEntity
  8
B.Mask
100
AcDbCircle
 10
4.877952755905512
 20
-3.5433050393700785
 30
0
 40
0.0200787401574803
  0
LINE
  5
440
330
24
100
AcDbEntity
  8
B.Mask
  6
CONTINUOUS
100
AcDbLine
 10
7.7145656692913382
 20
-3.9362204724409446
 30
0
 11
7.7460617322834642
 21
-3.9362204724409446
 31
0
  0
ARC
  5
441
330
24
100
AcDbEntity
  8
B.Mask
100
AcDbCircle
 10
7.7460617322834642
 20
-3.9244094488188974
 30
0
 40
0.0118110236220472
100
AcDbArc
 50
-90.00000000
 51
90.00000000
  0
LINE
  5
442
330
24
100
AcDbEntity
  8
B.Mask
  6
CONTINUOUS
100
AcDbLine
 10
7.7460617322834642
 20
-3.9125984251968502
 30
0
 11
7.7145656692913382
 21
-3.9125984251968502
 31
0
  0
ARC
  5
443
330
24
100
AcDbEntity
  8
B.Mask
100
AcDbCircle
 10
7.7145656692913382
 20
-3.9244094488188974
 30
0
 40
0.0118110236220472
100
AcDbArc
 50
90.00000000
 51
270.00000000
  0
LINE
  5
444
330
24
100
AcDbEntity
  8
B.Mask
  6
CONTINUOUS
100
AcDbLine
 10
7.5570853543307086
 20
-3.9362216141732285
 30
0
 11
7.5885814173228345
 21
-3.9362216141732285
 31
0
  0
ARC
  5
445
330
24
100
AcDbEntity
  8
B.Mask
100
AcDbCircle
 10
7.5885814173228345
 20
-3.9244105905511808
 30
0
 40
0.0118110236220472
100
AcDbArc
 50
-90.00000000
 51
90.00000000
  0
LINE
  5
446
330
24
100
AcDbEntity
  8
B.Mask
  6
CONTINUOUS
100
AcDbLine
 10
7.5885814173228345
 20
-3.9125995669291336
 30
0
 11
7.5570853543307086
 21
-3.9125995669291336
 31
0
  0
ARC
  5
447
330
24
100
AcDbEntity
  8
B.Mask
100
AcDbCircle
 10
7.5570853543307086
 20
-3.9244105905511808
 30
0
 40
0.0118110236220472
100
AcDbArc
 50
90.00000000
 51
270.00000000
  0
LINE
  5
448
330
24
100
AcDbEntity
  8
B.Mask
  6
CONTINUOUS
100
AcDbLine
 10
7.7106311811023618
 20
-4.2763779921259841
 30
0
 11
7.7421272440944877
 21
-4.2763779921259841
 31
0
  0
ARC
  5
449
330
24
100
AcDbEntity
  8
B.Mask
100
AcDbCircle
 10
7.7421272440944877
 20
-4.2645669685039369
 30
0
 40
0.0118110236220472
100
AcDbArc
 50
-90.00000000
 51
90.00000000
  0
LINE
  5
44A
330
24
100
AcDbEntity
  8
B.Mask
  6
CONTINUOUS
100
AcDbLine
 10
7.7421272440944877
 20
-4.2527559448818897
 30
0
 11
7.7106311811023618
 21
-4.2527559448818897
 31
0
  0
ARC
  5
44B
330
24
100
AcDbEntity
  8
B.Mask
100
AcDbCircle
 10
7.7106311811023618
 20
-4.2645669685039369
 30
0
 40
0.0118110236220472
100
AcDbArc
 50
90.00000000
 51
270.00000000
  0
LINE
  5
44C
330
24
100
AcDbEntity
  8
B.Mask
  6
CONTINUOUS
100
AcDbLine
 10
7.5570878740157479
 20
-4.2763790944881892
 30
0
 11
7.5885839370078738
 21
-4.2763790944881892
 31
0
  0
ARC
  5
44D
330
24
100
AcDbEntity
  8
B.Mask
100
AcDbCircle
 10
7.5885839370078738
 20
-4.264568070866142
 30
0
 40
0.0118110236220472
100
AcDbArc
 50
-90.00000000
 51
90.00000000
  0
LINE
  5
44E
330
24
100
AcDbEntity
  8
B.Mask
  6
CONTINUOUS
100
AcDbLine
 10
7.5885839370078738
 20
-4.2527570472440948
 30
0
 11
7.5570878740157479
 21
-4.2527570472440948
 31
0
  0
ARC
  5
44F
330
24
100
AcDbEntity
  8
B.Mask
100
AcDbCircle
 10
7.5570878740157479
 20
-4.264568070866142
 30
0
 40
0.0118110236220472
100
AcDbArc
 50
90.00000000
 51
270.00000000
  0
ENDSEC
  0
SECTION
  2
OBJECTS
  0
DICTIONARY
  5
2A
330
0
100
AcDbDictionary
281
1
  3
ACAD_GROUP
350
450
  3
ACAD_LAYOUT
350
2B
  3
ACAD_PLOTSTYLENAME
350
11
  0
DICTIONARY
  5
450
330
2A
100
AcDbDictionary
281
1
  0
ACDBDICTIONARYWDFLT
  5
11
330
2A
100
AcDbDictionary
281
1
  3
Normal
350
10
100
AcDbDictionaryWithDefault
340
10
  0
ACDBPLACEHOLDER
  5
10
330
11
  0
DICTIONARY
  5
2B
330
2A
100
AcDbDictionary
281
1
  3
Model
350
27
  3
Layout1
350
28
  3
Layout2
350
29
  0
LAYOUT
  5
27
330
2B
100
AcDbPlotSettings
  1

  2
none_device
  4
A3
  6

 40
0.0
 41
0.0
 42
0.0
 43
0.0
 44
420.0
 45
297.0
 46
0.0
 47
0.0
 48
0.0
 49
0.0
140
0.0
141
0.0
142
1.0
143
1.0
 70
1024
 72
1
 73
0
 74
5
  7

 75
16
 76
0
 77
2
 78
300
147
1.0
148
0.0
149
0.0
100
AcDbLayout
  1
Model
 70
1
 71
0
 10
0.0
 20
0.0
 11
420.0
 21
297.0
 12
0.0
 22
0.0
 32
0.0
 14
1e+20
 24
1e+20
 34
1e+20
 15
-1e+20
 25
-1e+20
 35
-1e+20
146
0.0
 13
0.0
 23
0.0
 33
0.0
 16
1.0
 26
0.0
 36
0.0
 17
0.0
 27
1.0
 37
0.0
 76
0
330
24
  0
LAYOUT
  5
28
330
2B
100
AcDbPlotSettings
  1

  2
none_device
  4
A3
  6

 40
0.0
 41
0.0
 42
0.0
 43
0.0
 44
420.0
 45
297.0
 46
0.0
 47
0.0
 48
0.0
 49
0.0
140
0.0
141
0.0
142
1.0
143
1.0
 70
0
 72
1
 73
0
 74
5
  7

 75
16
 76
0
 77
2
 78
300
147
1.0
148
0.0
149
0.0
100
AcDbLayout
  1
Layout1
 70
1
 71
1
 10
0.0
 20
0.0
 11
420.0
 21
297.0
 12
0.0
 22
0.0
 32
0.0
 14
1e+20
 24
1e+20
 34
1e+20
 15
-1e+20
 25
-1e+20
 35
-1e+20
146
0.0
 13
0.0
 23
0.0
 33
0.0
 16
1.0
 26
0.0
 36
0.0
 17
0.0
 27
1.0
 37
0.0
 76
0
330
25
  0
LAYOUT
  5
29
330
2B
100
AcDbPlotSettings
  1

  2
none_device
  4
A3
  6

 40
0.0
 41
0.0
 42
0.0
 43
0.0
 44
420.0
 45
297.0
 46
0.0
 47
0.0
 48
0.0
 49
0.0
140
0.0
141
0.0
142
1.0
143
1.0
 70
0
 72
1
 73
0
 74
5
  7

 75
16
 76
0
 77
2
 78
300
147
1.0
148
0.0
149
0.0
100
AcDbLayout
  1
Layout2
 70
1
 71
2
 10
0.0
 20
0.0
 11
420.0
 21
297.0
 12
0.0
 22
0.0
 32
0.0
 14
1e+20
 24
1e+20
 34
1e+20
 15
-1e+20
 25
-1e+20
 35
-1e+20
146
0.0
 13
0.0
 23
0.0
 33
0.0
 16
1.0
 26
0.0
 36
0.0
 17
0.0
 27
1.0
 37
0.0
 76
0
330
26
  0
ENDSEC
  0
EOF
