  0
SECTION
  2
HEADER
  9
$ACADVER
  1
AC1018
  9
$HANDSEED
  5
FFFFFFFF
  9
$ANGBASE
  50
0.0
  9
$ANGDIR
  70
1
  9
$MEASUREMENT
  70
0
  9
$INSUNITS
  70
1
  0
ENDSEC
  0
SECTION
  2
TABLES
  0
TABLE
  2
APPID
  5
1
330
0
100
AcDbSymbolTable
 70
1
  0
APPID
  5
2
330
1
100
AcDbSymbolTableRecord
100
AcDbRegAppTableRecord
  2
ACAD
 70
0
  0
ENDTAB
  0
TABLE
  2
LTYPE
  5
3
330
0
100
AcDbSymbolTable
 70
6
  0
LTYPE
  5
4
330
3
100
AcDbSymbolTableRecord
100
AcDbLinetypeTableRecord
  2
ByBlock
 70
0
  3

 72
65
 73
0
 40
0
  0
LTYPE
  5
5
330
3
100
AcDbSymbolTableRecord
100
AcDbLinetypeTableRecord
  2
ByLayer
 70
0
  3

 72
65
 73
0
 40
0
  0
LTYPE
  5
6
330
3
100
AcDbSymbolTableRecord
100
AcDbLinetypeTableRecord
  2
CONTINUOUS
 70
0
  3
Solid line
 72
65
 73
0
 40
0
  0
LTYPE
  5
7
330
3
100
AcDbSymbolTableRecord
100
AcDbLinetypeTableRecord
  2
DASHDOT
 70
0
  3
Dash Dot ____ _ ____ _
 72
65
 73
4
 40
2
 49
1.25
 74
0
 49
-0.25
 74
0
 49
0.25
 74
0
 49
-0.25
 74
0
  0
LTYPE
  5
8
330
3
100
AcDbSymbolTableRecord
100
AcDbLinetypeTableRecord
  2
DASHED
 70
0
  3
Dashed __ __ __ __ __
 72
65
 73
2
 40
0.75
 49
0.5
 74
0
 49
-0.25
 74
0
  0
LTYPE
  5
9
330
3
100
AcDbSymbolTableRecord
100
AcDbLinetypeTableRecord
  2
DOTTED
 70
0
  3
Dotted .  .  .  .
 72
65
 73
2
 40
0.2
 49
0.0
 74
0
 49
-0.2
 74
0
  0
ENDTAB
  0
TABLE
  2
STYLE
  5
A
330
0
100
AcDbSymbolTable
 70
4
  0
STYLE
  5
B
330
A
100
AcDbSymbolTableRecord
100
AcDbTextStyleTableRecord
  2
Flux
 70
0
 40
0
 41
1
 42
1
 50
0
 71
0
  3
isocp.shx
  0
STYLE
  5
C
330
A
100
AcDbSymbolTableRecord
100
AcDbTextStyleTableRecord
  2
FluxB
 70
0
 40
0
 41
1
 42
1
 50
0
 71
0
  3
isocp.shx
  0
STYLE
  5
D
330
A
100
AcDbSymbolTableRecord
100
AcDbTextStyleTableRecord
  2
FluxI
 70
0
 40
0
 41
1
 42
1
 50
15
 71
0
  3
isocp.shx
  0
STYLE
  5
E
330
A
100
AcDbSymbolTableRecord
100
AcDbTextStyleTableRecord
  2
FluxBI
 70
0
 40
0
 41
1
 42
1
 50
15
 71
0
  3
isocp.shx
  0
ENDTAB
  0
TABLE
  2
LAYER
  5
F
330
0
100
AcDbSymbolTable
 70
12
  0
LAYER
  5
12
330
F
100
AcDbSymbolTableRecord
100
AcDbLayerTableRecord
  2
0
 70
0
 62
7
  6
CONTINUOUS
390
10
  0
LAYER
  5
13
330
F
100
AcDbSymbolTableRecord
100
AcDbLayerTableRecord
  2
Edge.Cuts
 70
0
 62
254
420
13685453
  6
CONTINUOUS
390
10
  0
LAYER
  5
14
330
F
100
AcDbSymbolTableRecord
100
AcDbLayerTableRecord
  2
B.Cu
 70
0
 62
153
420
5078980
  6
CONTINUOUS
390
10
  0
LAYER
  5
15
330
F
100
AcDbSymbolTableRecord
100
AcDbLayerTableRecord
  2
B.Mask
 70
0
 62
4
420
196590
  6
CONTINUOUS
390
10
  0
LAYER
  5
16
330
F
100
AcDbSymbolTableRecord
100
AcDbLayerTableRecord
  2
B.Paste
 70
0
 62
132
420
49858
  6
CONTINUOUS
390
10
  0
LAYER
  5
17
330
F
100
AcDbSymbolTableRecord
100
AcDbLayerTableRecord
  2
B.Silkscreen
 70
0
 62
31
420
15250087
  6
CONTINUOUS
390
10
  0
LAYER
  5
18
330
F
100
AcDbSymbolTableRecord
100
AcDbLayerTableRecord
  2
F.Cu
 70
0
 62
13
420
13120564
  6
CONTINUOUS
390
10
  0
LAYER
  5
19
330
F
100
AcDbSymbolTableRecord
100
AcDbLayerTableRecord
  2
F.Mask
 70
0
 62
201
420
14181631
  6
CONTINUOUS
390
10
  0
LAYER
  5
1A
330
F
100
AcDbSymbolTableRecord
100
AcDbLayerTableRecord
  2
F.Paste
 70
0
 62
253
420
11837594
  6
CONTINUOUS
390
10
  0
LAYER
  5
1B
330
F
100
AcDbSymbolTableRecord
100
AcDbLayerTableRecord
  2
F.Silkscreen
 70
0
 62
41
420
15920545
  6
CONTINUOUS
390
10
  0
LAYER
  5
1C
330
F
100
AcDbSymbolTableRecord
100
AcDbLayerTableRecord
  2
In1.Cu
 70
0
 62
91
420
8374399
  6
CONTINUOUS
390
10
  0
LAYER
  5
1D
330
F
100
AcDbSymbolTableRecord
100
AcDbLayerTableRecord
  2
In2.Cu
 70
0
 62
33
420
13532460
  6
CONTINUOUS
390
10
  0
ENDTAB
  0
TABLE
  2
VPORT
  5
1E
330
0
100
AcDbSymbolTable
 70
0
  0
ENDTAB
  0
TABLE
  2
VIEW
  5
1F
330
0
100
AcDbSymbolTable
 70
0
  0
ENDTAB
  0
TABLE
  2
UCS
  5
20
330
0
100
AcDbSymbolTable
 70
0
  0
ENDTAB
  0
TABLE
  2
DIMSTYLE
  5
21
330
0
100
AcDbSymbolTable
 70
1
100
AcDbDimStyleTable
 71
0
  0
DIMSTYLE
105
22
330
21
100
AcDbSymbolTableRecord
100
AcDbDimStyleTableRecord
  2
Standard
 70
0
  0
ENDTAB
  0
TABLE
  2
BLOCK_RECORD
  5
23
330
0
100
AcDbSymbolTable
 70
3
  0
BLOCK_RECORD
  5
24
330
23
100
AcDbSymbolTableRecord
100
AcDbBlockTableRecord
  2
*Model_Space
340
27
 70
0
280
1
281
0
  0
BLOCK_RECORD
  5
25
330
23
100
AcDbSymbolTableRecord
100
AcDbBlockTableRecord
  2
*Paper_Space
340
28
 70
0
280
1
281
0
  0
BLOCK_RECORD
  5
26
330
23
100
AcDbSymbolTableRecord
100
AcDbBlockTableRecord
  2
*Paper_Space0
340
29
 70
0
280
1
281
0
  0
ENDTAB
  0
ENDSEC
  0
SECTION
  2
BLOCKS
  0
BLOCK
  5
2D
330
24
100
AcDbEntity
  8
0
100
AcDbBlockBegin
  2
*Model_Space
 70
0
 10
0.0
 20
0.0
 30
0.0
  3
*Model_Space
  1

  0
ENDBLK
  5
2C
330
24
100
AcDbEntity
  8
0
100
AcDbBlockEnd
  0
BLOCK
  5
2F
330
25
100
AcDbEntity
 67
1
  8
0
100
AcDbBlockBegin
  2
*Paper_Space
 70
0
 10
0.0
 20
0.0
 30
0.0
  3
*Paper_Space
  1

  0
ENDBLK
  5
2E
330
25
100
AcDbEntity
 67
1
  8
0
100
AcDbBlockEnd
  0
BLOCK
  5
31
330
26
100
AcDbEntity
 67
1
  8
0
100
AcDbBlockBegin
  2
*Paper_Space0
 70
0
 10
0.0
 20
0.0
 30
0.0
  3
*Paper_Space0
  1

  0
ENDBLK
  5
30
330
26
100
AcDbEntity
 67
1
  8
0
100
AcDbBlockEnd
  0
ENDSEC
  0
SECTION
  2
ENTITIES
  0
LINE
  5
32
330
24
100
AcDbEntity
  8
Edge.Cuts
  6
CONTINUOUS
100
AcDbLine
 10
3.8779527559055116
 20
-2.2440944881889764
 30
0
 11
3.8779586614173227
 21
-2.2431282283464564
 31
0
  0
LINE
  5
33
330
24
100
AcDbEntity
  8
Edge.Cuts
  6
CONTINUOUS
100
AcDbLine
 10
3.8779527559055116
 20
-6.0236220472440944
 30
0
 11
3.8779527559055116
 21
-2.2440944881889764
 31
0
  0
LINE
  5
34
330
24
100
AcDbEntity
  8
Edge.Cuts
  6
CONTINUOUS
100
AcDbLine
 10
3.8779586614173227
 20
-2.2431282283464564
 30
0
 11
3.8779764566929131
 21
-2.2421621259842519
 31
0
  0
LINE
  5
35
330
24
100
AcDbEntity
  8
Edge.Cuts
  6
CONTINUOUS
100
AcDbLine
 10
3.8779586614173227
 20
-6.0245883070866144
 30
0
 11
3.8779527559055116
 21
-6.0236220472440944
 31
0
  0
LINE
  5
36
330
24
100
AcDbEntity
  8
Edge.Cuts
  6
CONTINUOUS
100
AcDbLine
 10
3.8779764566929131
 20
-2.2421621259842519
 30
0
 11
3.8780061023622046
 21
-2.2411962992125982
 31
0
  0
LINE
  5
37
330
24
100
AcDbEntity
  8
Edge.Cuts
  6
CONTINUOUS
100
AcDbLine
 10
3.8779764566929131
 20
-6.0255544094488185
 30
0
 11
3.8779586614173227
 21
-6.0245883070866144
 31
0
  0
LINE
  5
38
330
24
100
AcDbEntity
  8
Edge.Cuts
  6
CONTINUOUS
100
AcDbLine
 10
3.8780061023622046
 20
-2.2411962992125982
 30
0
 11
3.878047598425197
 21
-2.2402309055118108
 31
0
  0
LINE
  5
39
330
24
100
AcDbEntity
  8
Edge.Cuts
  6
CONTINUOUS
100
AcDbLine
 10
3.8780061023622046
 20
-6.0265202362204722
 30
0
 11
3.8779764566929131
 21
-6.0255544094488185
 31
0
  0
LINE
  5
3A
330
24
100
AcDbEntity
  8
Edge.Cuts
  6
CONTINUOUS
100
AcDbLine
 10
3.878047598425197
 20
-2.2402309055118108
 30
0
 11
3.8781009055118107
 21
-2.2392661023622047
 31
0
  0
LINE
  5
3B
330
24
100
AcDbEntity
  8
Edge.Cuts
  6
CONTINUOUS
100
AcDbLine
 10
3.878047598425197
 20
-6.0274856299212596
 30
0
 11
3.8780061023622046
 21
-6.0265202362204722
 31
0
  0
LINE
  5
3C
330
24
100
AcDbEntity
  8
Edge.Cuts
  6
CONTINUOUS
100
AcDbLine
 10
3.8781009055118107
 20
-2.2392661023622047
 30
0
 11
3.8781661023622047
 21
-2.2383020078740157
 31
0
  0
LINE
  5
3D
330
24
100
AcDbEntity
  8
Edge.Cuts
  6
CONTINUOUS
100
AcDbLine
 10
3.8781009055118107
 20
-6.0284504330708657
 30
0
 11
3.878047598425197
 21
-6.0274856299212596
 31
0
  0
LINE
  5
3E
330
24
100
AcDbEntity
  8
Edge.Cuts
  6
CONTINUOUS
100
AcDbLine
 10
3.8781661023622047
 20
-2.2383020078740157
 30
0
 11
3.8782430708661417
 21
-2.2373387795275592
 31
0
  0
LINE
  5
3F
330
24
100
AcDbEntity
  8
Edge.Cuts
  6
CONTINUOUS
100
AcDbLine
 10
3.8781661023622047
 20
-6.0294145275590552
 30
0
 11
3.8781009055118107
 21
-6.0284504330708657
 31
0
  0
LINE
  5
40
330
24
100
AcDbEntity
  8
Edge.Cuts
  6
CONTINUOUS
100
AcDbLine
 10
3.8782430708661417
 20
-2.2373387795275592
 30
0
 11
3.8783318897637793
 21
-2.2363766141732282
 31
0
  0
LINE
  5
41
330
24
100
AcDbEntity
  8
Edge.Cuts
  6
CONTINUOUS
100
AcDbLine
 10
3.8782430708661417
 20
-6.0303777559055121
 30
0
 11
3.8781661023622047
 21
-6.0294145275590552
 31
0
  0
LINE
  5
42
330
24
100
AcDbEntity
  8
Edge.Cuts
  6
CONTINUOUS
100
AcDbLine
 10
3.8783318897637793
 20
-2.2363766141732282
 30
0
 11
3.8784325196850391
 21
-2.235415590551181
 31
0
  0
LINE
  5
43
330
24
100
AcDbEntity
  8
Edge.Cuts
  6
CONTINUOUS
100
AcDbLine
 10
3.8783318897637793
 20
-6.0313399212598426
 30
0
 11
3.8782430708661417
 21
-6.0303777559055121
 31
0
  0
LINE
  5
44
330
24
100
AcDbEntity
  8
Edge.Cuts
  6
CONTINUOUS
100
AcDbLine
 10
3.8784325196850391
 20
-2.235415590551181
 30
0
 11
3.8785448818897637
 21
-2.2344558661417322
 31
0
  0
LINE
  5
45
330
24
100
AcDbEntity
  8
Edge.Cuts
  6
CONTINUOUS
100
AcDbLine
 10
3.8784325196850391
 20
-6.0323009448818894
 30
0
 11
3.8783318897637793
 21
-6.0313399212598426
 31
0
  0
LINE
  5
46
330
24
100
AcDbEntity
  8
Edge.Cuts
  6
CONTINUOUS
100
AcDbLine
 10
3.8785448818897637
 20
-2.2344558661417322
 30
0
 11
3.87866905511811
 21
-2.2334975984251968
 31
0
  0
LINE
  5
47
330
24
100
AcDbEntity
  8
Edge.Cuts
  6
CONTINUOUS
100
AcDbLine
 10
3.8785448818897637
 20
-6.0332606692913382
 30
0
 11
3.8784325196850391
 21
-6.0323009448818894
 31
0
  0
LINE
  5
48
330
24
100
AcDbEntity
  8
Edge.Cuts
  6
CONTINUOUS
100
AcDbLine
 10
3.87866905511811
 20
-2.2334975984251968
 30
0
 11
3.8788049999999998
 21
-2.2325409055118111
 31
0
  0
LINE
  5
49
330
24
100
AcDbEntity
  8
Edge.Cuts
  6
CONTINUOUS
100
AcDbLine
 10
3.87866905511811
 20
-6.034218937007874
 30
0
 11
3.8785448818897637
 21
-6.0332606692913382
 31
0
  0
LINE
  5
4A
330
24
100
AcDbEntity
  8
Edge.Cuts
  6
CONTINUOUS
100
AcDbLine
 10
3.8788049999999998
 20
-2.2325409055118111
 30
0
 11
3.8789526377952757
 21
-2.2315859842519683
 31
0
  0
LINE
  5
4B
330
24
100
AcDbEntity
  8
Edge.Cuts
  6
CONTINUOUS
100
AcDbLine
 10
3.8788049999999998
 20
-6.0351756299212598
 30
0
 11
3.87866905511811
 21
-6.034218937007874
 31
0
  0
LINE
  5
4C
330
24
100
AcDbEntity
  8
Edge.Cuts
  6
CONTINUOUS
100
AcDbLine
 10
3.8789526377952757
 20
-2.2315859842519683
 30
0
 11
3.879111968503937
 21
-2.2306329133858269
 31
0
  0
LINE
  5
4D
330
24
100
AcDbEntity
  8
Edge.Cuts
  6
CONTINUOUS
100
AcDbLine
 10
3.8789526377952757
 20
-6.0361305511811025
 30
0
 11
3.8788049999999998
 21
-6.0351756299212598
 31
0
  0
LINE
  5
4E
330
24
100
AcDbEntity
  8
Edge.Cuts
  6
CONTINUOUS
100
AcDbLine
 10
3.879111968503937
 20
-2.2306329133858269
 30
0
 11
3.8792830314960627
 21
-2.2296818897637793
 31
0
  0
LINE
  5
4F
330
24
100
AcDbEntity
  8
Edge.Cuts
  6
CONTINUOUS
100
AcDbLine
 10
3.879111968503937
 20
-6.0370836220472439
 30
0
 11
3.8789526377952757
 21
-6.0361305511811025
 31
0
  0
LINE
  5
50
330
24
100
AcDbEntity
  8
Edge.Cuts
  6
CONTINUOUS
100
AcDbLine
 10
3.8792830314960627
 20
-2.2296818897637793
 30
0
 11
3.8794657086614173
 21
-2.2287330314960627
 31
0
  0
LINE
  5
51
330
24
100
AcDbEntity
  8
Edge.Cuts
  6
CONTINUOUS
100
AcDbLine
 10
3.8792830314960627
 20
-6.038034645669291
 30
0
 11
3.879111968503937
 21
-6.0370836220472439
 31
0
  0
LINE
  5
52
330
24
100
AcDbEntity
  8
Edge.Cuts
  6
CONTINUOUS
100
AcDbLine
 10
3.8794657086614173
 20
-2.2287330314960627
 30
0
 11
3.8796600393700786
 21
-2.2277864960629921
 31
0
  0
LINE
  5
53
330
24
100
AcDbEntity
  8
Edge.Cuts
  6
CONTINUOUS
100
AcDbLine
 10
3.8794657086614173
 20
-6.0389835039370077
 30
0
 11
3.8792830314960627
 21
-6.038034645669291
 31
0
  0
LINE
  5
54
330
24
100
AcDbEntity
  8
Edge.Cuts
  6
CONTINUOUS
100
AcDbLine
 10
3.8796600393700786
 20
-2.2277864960629921
 30
0
 11
3.8798659448818897
 21
-2.2268424409448819
 31
0
  0
LINE
  5
55
330
24
100
AcDbEntity
  8
Edge.Cuts
  6
CONTINUOUS
100
AcDbLine
 10
3.8796600393700786
 20
-6.0399300393700788
 30
0
 11
3.8794657086614173
 21
-6.0389835039370077
 31
0
  0
LINE
  5
56
330
24
100
AcDbEntity
  8
Edge.Cuts
  6
CONTINUOUS
100
AcDbLine
 10
3.8798659448818897
 20
-2.2268424409448819
 30
0
 11
3.8800834645669289
 21
-2.2259009448818898
 31
0
  0
LINE
  5
57
330
24
100
AcDbEntity
  8
Edge.Cuts
  6
CONTINUOUS
100
AcDbLine
 10
3.8798659448818897
 20
-6.0408740944881885
 30
0
 11
3.8796600393700786
 21
-6.0399300393700788
 31
0
  0
LINE
  5
58
330
24
100
AcDbEntity
  8
Edge.Cuts
  6
CONTINUOUS
100
AcDbLine
 10
3.8800834645669289
 20
-2.2259009448818898
 30
0
 11
3.8803124803149607
 21
-2.2249622047244095
 31
0
  0
LINE
  5
59
330
24
100
AcDbEntity
  8
Edge.Cuts
  6
CONTINUOUS
100
AcDbLine
 10
3.8800834645669289
 20
-6.041815590551181
 30
0
 11
3.8798659448818897
 21
-6.0408740944881885
 31
0
  0
LINE
  5
5A
330
24
100
AcDbEntity
  8
Edge.Cuts
  6
CONTINUOUS
100
AcDbLine
 10
3.8803124803149607
 20
-2.2249622047244095
 30
0
 11
3.880553031496063
 21
-2.2240263385826773
 31
0
  0
LINE
  5
5B
330
24
100
AcDbEntity
  8
Edge.Cuts
  6
CONTINUOUS
100
AcDbLine
 10
3.8803124803149607
 20
-6.0427543307086609
 30
0
 11
3.8800834645669289
 21
-6.041815590551181
 31
0
  0
LINE
  5
5C
330
24
100
AcDbEntity
  8
Edge.Cuts
  6
CONTINUOUS
100
AcDbLine
 10
3.880553031496063
 20
-2.2240263385826773
 30
0
 11
3.8808050000000001
 21
-2.2230934645669289
 31
0
  0
LINE
  5
5D
330
24
100
AcDbEntity
  8
Edge.Cuts
  6
CONTINUOUS
100
AcDbLine
 10
3.880553031496063
 20
-6.0436901968503935
 30
0
 11
3.8803124803149607
 21
-6.0427543307086609
 31
0
  0
LINE
  5
5E
330
24
100
AcDbEntity
  8
Edge.Cuts
  6
CONTINUOUS
100
AcDbLine
 10
3.8808050000000001
 20
-2.2230934645669289
 30
0
 11
3.8810684645669289
 21
-2.2221638188976378
 31
0
  0
LINE
  5
5F
330
24
100
AcDbEntity
  8
Edge.Cuts
  6
CONTINUOUS
100
AcDbLine
 10
3.8808050000000001
 20
-6.0446230708661419
 30
0
 11
3.880553031496063
 21
-6.0436901968503935
 31
0
  0
LINE
  5
60
330
24
100
AcDbEntity
  8
Edge.Cuts
  6
CONTINUOUS
100
AcDbLine
 10
3.8810684645669289
 20
-2.2221638188976378
 30
0
 11
3.8813432677165354
 21
-2.2212374409448818
 31
0
  0
LINE
  5
61
330
24
100
AcDbEntity
  8
Edge.Cuts
  6
CONTINUOUS
100
AcDbLine
 10
3.8810684645669289
 20
-6.0455527165354326
 30
0
 11
3.8808050000000001
 21
-6.0446230708661419
 31
0
  0
LINE
  5
62
330
24
100
AcDbEntity
  8
Edge.Cuts
  6
CONTINUOUS
100
AcDbLine
 10
3.8813432677165354
 20
-2.2212374409448818
 30
0
 11
3.8816294094488186
 21
-2.2203144881889765
 31
0
  0
LINE
  5
63
330
24
100
AcDbEntity
  8
Edge.Cuts
  6
CONTINUOUS
100
AcDbLine
 10
3.8813432677165354
 20
-6.0464790944881885
 30
0
 11
3.8810684645669289
 21
-6.0455527165354326
 31
0
  0
LINE
  5
64
330
24
100
AcDbEntity
  8
Edge.Cuts
  6
CONTINUOUS
100
AcDbLine
 10
3.8816294094488186
 20
-2.2203144881889765
 30
0
 11
3.8819268897637795
 21
-2.219395157480315
 31
0
  0
LINE
  5
65
330
24
100
AcDbEntity
  8
Edge.Cuts
  6
CONTINUOUS
100
AcDbLine
 10
3.8816294094488186
 20
-6.0474020472440939
 30
0
 11
3.8813432677165354
 21
-6.0464790944881885
 31
0
  0
LINE
  5
66
330
24
100
AcDbEntity
  8
Edge.Cuts
  6
CONTINUOUS
100
AcDbLine
 10
3.8819268897637795
 20
-2.219395157480315
 30
0
 11
3.8822356299212597
 21
-2.2184794881889762
 31
0
  0
LINE
  5
67
330
24
100
AcDbEntity
  8
Edge.Cuts
  6
CONTINUOUS
100
AcDbLine
 10
3.8819268897637795
 20
-6.0483213779527558
 30
0
 11
3.8816294094488186
 21
-6.0474020472440939
 31
0
  0
LINE
  5
68
330
24
100
AcDbEntity
  8
Edge.Cuts
  6
CONTINUOUS
100
AcDbLine
 10
3.8822356299212597
 20
-2.2184794881889762
 30
0
 11
3.8825555511811021
 21
-2.2175677165354331
 31
0
  0
LINE
  5
69
330
24
100
AcDbEntity
  8
Edge.Cuts
  6
CONTINUOUS
100
AcDbLine
 10
3.8822356299212597
 20
-6.0492370472440946
 30
0
 11
3.8819268897637795
 21
-6.0483213779527558
 31
0
  0
LINE
  5
6A
330
24
100
AcDbEntity
  8
Edge.Cuts
  6
CONTINUOUS
100
AcDbLine
 10
3.8825555511811021
 20
-2.2175677165354331
 30
0
 11
3.8828866929133858
 21
-2.2166599606299213
 31
0
  0
LINE
  5
6B
330
24
100
AcDbEntity
  8
Edge.Cuts
  6
CONTINUOUS
100
AcDbLine
 10
3.8825555511811021
 20
-6.0501488188976378
 30
0
 11
3.8822356299212597
 21
-6.0492370472440946
 31
0
  0
LINE
  5
6C
330
24
100
AcDbEntity
  8
Edge.Cuts
  6
CONTINUOUS
100
AcDbLine
 10
3.8828866929133858
 20
-2.2166599606299213
 30
0
 11
3.8832288976377951
 21
-2.2157562992125985
 31
0
  0
LINE
  5
6D
330
24
100
AcDbEntity
  8
Edge.Cuts
  6
CONTINUOUS
100
AcDbLine
 10
3.8828866929133858
 20
-6.0510565748031491
 30
0
 11
3.8825555511811021
 21
-6.0501488188976378
 31
0
  0
LINE
  5
6E
330
24
100
AcDbEntity
  8
Edge.Cuts
  6
CONTINUOUS
100
AcDbLine
 10
3.8832288976377951
 20
-2.2157562992125985
 30
0
 11
3.8835821653543308
 21
-2.214856929133858
 31
0
  0
LINE
  5
6F
330
24
100
AcDbEntity
  8
Edge.Cuts
  6
CONTINUOUS
100
AcDbLine
 10
3.8832288976377951
 20
-6.0519602362204727
 30
0
 11
3.8828866929133858
 21
-6.0510565748031491
 31
0
  0
LINE
  5
70
330
24
100
AcDbEntity
  8
Edge.Cuts
  6
CONTINUOUS
100
AcDbLine
 10
3.8835821653543308
 20
-2.214856929133858
 30
0
 11
3.8839464566929132
 21
-2.2139619291338581
 31
0
  0
LINE
  5
71
330
24
100
AcDbEntity
  8
Edge.Cuts
  6
CONTINUOUS
100
AcDbLine
 10
3.8835821653543308
 20
-6.0528596062992124
 30
0
 11
3.8832288976377951
 21
-6.0519602362204727
 31
0
  0
LINE
  5
72
330
24
100
AcDbEntity
  8
Edge.Cuts
  6
CONTINUOUS
100
AcDbLine
 10
3.8839464566929132
 20
-2.2139619291338581
 30
0
 11
3.8843217322834644
 21
-2.2130714960629922
 31
0
  0
LINE
  5
73
330
24
100
AcDbEntity
  8
Edge.Cuts
  6
CONTINUOUS
100
AcDbLine
 10
3.8839464566929132
 20
-6.0537546062992122
 30
0
 11
3.8835821653543308
 21
-6.0528596062992124
 31
0
  0
LINE
  5
74
330
24
100
AcDbEntity
  8
Edge.Cuts
  6
CONTINUOUS
100
AcDbLine
 10
3.8843217322834644
 20
-2.2130714960629922
 30
0
 11
3.8847078740157479
 21
-2.2121857086614174
 31
0
  0
LINE
  5
75
330
24
100
AcDbEntity
  8
Edge.Cuts
  6
CONTINUOUS
100
AcDbLine
 10
3.8843217322834644
 20
-6.0546450393700786
 30
0
 11
3.8839464566929132
 21
-6.0537546062992122
 31
0
  0
LINE
  5
76
330
24
100
AcDbEntity
  8
Edge.Cuts
  6
CONTINUOUS
100
AcDbLine
 10
3.8847078740157479
 20
-2.2121857086614174
 30
0
 11
3.8851048818897636
 21
-2.2113047637795273
 31
0
  0
LINE
  5
77
330
24
100
AcDbEntity
  8
Edge.Cuts
  6
CONTINUOUS
100
AcDbLine
 10
3.8847078740157479
 20
-6.055530826771653
 30
0
 11
3.8843217322834644
 21
-6.0546450393700786
 31
0
  0
LINE
  5
78
330
24
100
AcDbEntity
  8
Edge.Cuts
  6
CONTINUOUS
100
AcDbLine
 10
3.8851048818897636
 20
-2.2113047637795273
 30
0
 11
3.8855126377952756
 21
-2.2104287401574805
 31
0
  0
LINE
  5
79
330
24
100
AcDbEntity
  8
Edge.Cuts
  6
CONTINUOUS
100
AcDbLine
 10
3.8851048818897636
 20
-6.0564117716535435
 30
0
 11
3.8847078740157479
 21
-6.055530826771653
 31
0
  0
LINE
  5
7A
330
24
100
AcDbEntity
  8
Edge.Cuts
  6
CONTINUOUS
100
AcDbLine
 10
3.8855126377952756
 20
-2.2104287401574805
 30
0
 11
3.8859311417322835
 21
-2.2095577952755905
 31
0
  0
LINE
  5
7B
330
24
100
AcDbEntity
  8
Edge.Cuts
  6
CONTINUOUS
100
AcDbLine
 10
3.8855126377952756
 20
-6.0572877952755908
 30
0
 11
3.8851048818897636
 21
-6.0564117716535435
 31
0
  0
LINE
  5
7C
330
24
100
AcDbEntity
  8
Edge.Cuts
  6
CONTINUOUS
100
AcDbLine
 10
3.8859311417322835
 20
-2.2095577952755905
 30
0
 11
3.8863602755905511
 21
-2.2086920078740158
 31
0
  0
LINE
  5
7D
330
24
100
AcDbEntity
  8
Edge.Cuts
  6
CONTINUOUS
100
AcDbLine
 10
3.8859311417322835
 20
-6.0581587401574799
 30
0
 11
3.8855126377952756
 21
-6.0572877952755908
 31
0
  0
LINE
  5
7E
330
24
100
AcDbEntity
  8
Edge.Cuts
  6
CONTINUOUS
100
AcDbLine
 10
3.8863602755905511
 20
-2.2086920078740158
 30
0
 11
3.8868
 21
-2.2078316141732284
 31
0
  0
LINE
  5
7F
330
24
100
AcDbEntity
  8
Edge.Cuts
  6
CONTINUOUS
100
AcDbLine
 10
3.8863602755905511
 20
-6.0590245275590551
 30
0
 11
3.8859311417322835
 21
-6.0581587401574799
 31
0
  0
LINE
  5
80
330
24
100
AcDbEntity
  8
Edge.Cuts
  6
CONTINUOUS
100
AcDbLine
 10
3.8868
 20
-2.2078316141732284
 30
0
 11
3.8872502755905511
 21
-2.2069766535433071
 31
0
  0
LINE
  5
81
330
24
100
AcDbEntity
  8
Edge.Cuts
  6
CONTINUOUS
100
AcDbLine
 10
3.8868
 20
-6.059884921259842
 30
0
 11
3.8863602755905511
 21
-6.0590245275590551
 31
0
  0
LINE
  5
82
330
24
100
AcDbEntity
  8
Edge.Cuts
  6
CONTINUOUS
100
AcDbLine
 10
3.8872502755905511
 20
-2.2069766535433071
 30
0
 11
3.8877109842519686
 21
-2.2061272440944881
 31
0
  0
LINE
  5
83
330
24
100
AcDbEntity
  8
Edge.Cuts
  6
CONTINUOUS
100
AcDbLine
 10
3.8872502755905511
 20
-6.0607398818897638
 30
0
 11
3.8868
 21
-6.059884921259842
 31
0
  0
LINE
  5
84
330
24
100
AcDbEntity
  8
Edge.Cuts
  6
CONTINUOUS
100
AcDbLine
 10
3.8877109842519686
 20
-2.2061272440944881
 30
0
 11
3.8881821259842519
 21
-2.205283622047244
 31
0
  0
LINE
  5
85
330
24
100
AcDbEntity
  8
Edge.Cuts
  6
CONTINUOUS
100
AcDbLine
 10
3.8877109842519686
 20
-6.0615892913385823
 30
0
 11
3.8872502755905511
 21
-6.0607398818897638
 31
0
  0
LINE
  5
86
330
24
100
AcDbEntity
  8
Edge.Cuts
  6
CONTINUOUS
100
AcDbLine
 10
3.8881821259842519
 20
-2.205283622047244
 30
0
 11
3.8886635433070866
 21
-2.2044457874015748
 31
0
  0
LINE
  5
87
330
24
100
AcDbEntity
  8
Edge.Cuts
  6
CONTINUOUS
100
AcDbLine
 10
3.8881821259842519
 20
-6.0624329133858268
 30
0
 11
3.8877109842519686
 21
-6.0615892913385823
 31
0
  0
LINE
  5
88
330
24
100
AcDbEntity
  8
Edge.Cuts
  6
CONTINUOUS
100
AcDbLine
 10
3.8886635433070866
 20
-2.2044457874015748
 30
0
 11
3.8891551968503935
 21
-2.2036139763779525
 31
0
  0
LINE
  5
89
330
24
100
AcDbEntity
  8
Edge.Cuts
  6
CONTINUOUS
100
AcDbLine
 10
3.8886635433070866
 20
-6.0632707480314956
 30
0
 11
3.8881821259842519
 21
-6.0624329133858268
 31
0
  0
LINE
  5
8A
330
24
100
AcDbEntity
  8
Edge.Cuts
  6
CONTINUOUS
100
AcDbLine
 10
3.8891551968503935
 20
-2.2036139763779525
 30
0
 11
3.8896570472440946
 21
-2.2027882283464568
 31
0
  0
LINE
  5
8B
330
24
100
AcDbEntity
  8
Edge.Cuts
  6
CONTINUOUS
100
AcDbLine
 10
3.8891551968503935
 20
-6.0641025590551179
 30
0
 11
3.8886635433070866
 21
-6.0632707480314956
 31
0
  0
LINE
  5
8C
330
24
100
AcDbEntity
  8
Edge.Cuts
  6
CONTINUOUS
100
AcDbLine
 10
3.8896570472440946
 20
-2.2027882283464568
 30
0
 11
3.8901689763779528
 21
-2.2019687007874014
 31
0
  0
LINE
  5
8D
330
24
100
AcDbEntity
  8
Edge.Cuts
  6
CONTINUOUS
100
AcDbLine
 10
3.8896570472440946
 20
-6.064928307086614
 30
0
 11
3.8891551968503935
 21
-6.0641025590551179
 31
0
  0
LINE
  5
8E
330
24
100
AcDbEntity
  8
Edge.Cuts
  6
CONTINUOUS
100
AcDbLine
 10
3.8901689763779528
 20
-2.2019687007874014
 30
0
 11
3.8906909448818898
 21
-2.2011555118110238
 31
0
  0
LINE
  5
8F
330
24
100
AcDbEntity
  8
Edge.Cuts
  6
CONTINUOUS
100
AcDbLine
 10
3.8901689763779528
 20
-6.065747834645669
 30
0
 11
3.8896570472440946
 21
-6.064928307086614
 31
0
  0
LINE
  5
90
330
24
100
AcDbEntity
  8
Edge.Cuts
  6
CONTINUOUS
100
AcDbLine
 10
3.8906909448818898
 20
-2.2011555118110238
 30
0
 11
3.891222834645669
 21
-2.2003488188976377
 31
0
  0
LINE
  5
91
330
24
100
AcDbEntity
  8
Edge.Cuts
  6
CONTINUOUS
100
AcDbLine
 10
3.8906909448818898
 20
-6.0665610236220475
 30
0
 11
3.8901689763779528
 21
-6.065747834645669
 31
0
  0
LINE
  5
92
330
24
100
AcDbEntity
  8
Edge.Cuts
  6
CONTINUOUS
100
AcDbLine
 10
3.891222834645669
 20
-2.2003488188976377
 30
0
 11
3.8917646062992124
 21
-2.1995486614173227
 31
0
  0
LINE
  5
93
330
24
100
AcDbEntity
  8
Edge.Cuts
  6
CONTINUOUS
100
AcDbLine
 10
3.891222834645669
 20
-6.0673677165354327
 30
0
 11
3.8906909448818898
 21
-6.0665610236220475
 31
0
  0
LINE
  5
94
330
24
100
AcDbEntity
  8
Edge.Cuts
  6
CONTINUOUS
100
AcDbLine
 10
3.8917646062992124
 20
-2.1995486614173227
 30
0
 11
3.8923161417322834
 21
-2.1987552755905511
 31
0
  0
LINE
  5
95
330
24
100
AcDbEntity
  8
Edge.Cuts
  6
CONTINUOUS
100
AcDbLine
 10
3.8917646062992124
 20
-6.0681678740157476
 30
0
 11
3.891222834645669
 21
-6.0673677165354327
 31
0
  0
LINE
  5
96
330
24
100
AcDbEntity
  8
Edge.Cuts
  6
CONTINUOUS
100
AcDbLine
 10
3.8923161417322834
 20
-2.1987552755905511
 30
0
 11
3.8928773622047244
 21
-2.1979686614173226
 31
0
  0
LINE
  5
97
330
24
100
AcDbEntity
  8
Edge.Cuts
  6
CONTINUOUS
100
AcDbLine
 10
3.8923161417322834
 20
-6.0689612598425198
 30
0
 11
3.8917646062992124
 21
-6.0681678740157476
 31
0
  0
LINE
  5
98
330
24
100
AcDbEntity
  8
Edge.Cuts
  6
CONTINUOUS
100
AcDbLine
 10
3.8928773622047244
 20
-2.1979686614173226
 30
0
 11
3.8934481889763779
 21
-2.1971890157480316
 31
0
  0
LINE
  5
99
330
24
100
AcDbEntity
  8
Edge.Cuts
  6
CONTINUOUS
100
AcDbLine
 10
3.8928773622047244
 20
-6.0697478740157482
 30
0
 11
3.8923161417322834
 21
-6.0689612598425198
 31
0
  0
LINE
  5
9A
330
24
100
AcDbEntity
  8
Edge.Cuts
  6
CONTINUOUS
100
AcDbLine
 10
3.8934481889763779
 20
-2.1971890157480316
 30
0
 11
3.8940285826771652
 21
-2.1964164566929134
 31
0
  0
LINE
  5
9B
330
24
100
AcDbEntity
  8
Edge.Cuts
  6
CONTINUOUS
100
AcDbLine
 10
3.8934481889763779
 20
-6.0705275196850392
 30
0
 11
3.8928773622047244
 21
-6.0697478740157482
 31
0
  0
LINE
  5
9C
330
24
100
AcDbEntity
  8
Edge.Cuts
  6
CONTINUOUS
100
AcDbLine
 10
3.8940285826771652
 20
-2.1964164566929134
 30
0
 11
3.8946183858267718
 21
-2.195651062992126
 31
0
  0
LINE
  5
9D
330
24
100
AcDbEntity
  8
Edge.Cuts
  6
CONTINUOUS
100
AcDbLine
 10
3.8940285826771652
 20
-6.0713000787401574
 30
0
 11
3.8934481889763779
 21
-6.0705275196850392
 31
0
  0
LINE
  5
9E
330
24
100
AcDbEntity
  8
Edge.Cuts
  6
CONTINUOUS
100
AcDbLine
 10
3.8946183858267718
 20
-2.195651062992126
 30
0
 11
3.8952175196850392
 21
-2.1948929527559056
 31
0
  0
LINE
  5
9F
330
24
100
AcDbEntity
  8
Edge.Cuts
  6
CONTINUOUS
100
AcDbLine
 10
3.8946183858267718
 20
-6.0720654724409444
 30
0
 11
3.8940285826771652
 21
-6.0713000787401574
 31
0
  0
LINE
  5
A0
330
24
100
AcDbEntity
  8
Edge.Cuts
  6
CONTINUOUS
100
AcDbLine
 10
3.8952175196850392
 20
-2.1948929527559056
 30
0
 11
3.8958259448818895
 21
-2.194142244094488
 31
0
  0
LINE
  5
A1
330
24
100
AcDbEntity
  8
Edge.Cuts
  6
CONTINUOUS
100
AcDbLine
 10
3.8952175196850392
 20
-6.0728235826771648
 30
0
 11
3.8946183858267718
 21
-6.0720654724409444
 31
0
  0
LINE
  5
A2
330
24
100
AcDbEntity
  8
Edge.Cuts
  6
CONTINUOUS
100
AcDbLine
 10
3.8958259448818895
 20
-2.194142244094488
 30
0
 11
3.8964435039370078
 21
-2.1933990944881887
 31
0
  0
LINE
  5
A3
330
24
100
AcDbEntity
  8
Edge.Cuts
  6
CONTINUOUS
100
AcDbLine
 10
3.8958259448818895
 20
-6.0735742913385824
 30
0
 11
3.8952175196850392
 21
-6.0728235826771648
 31
0
  0
LINE
  5
A4
330
24
100
AcDbEntity
  8
Edge.Cuts
  6
CONTINUOUS
100
AcDbLine
 10
3.8964435039370078
 20
-2.1933990944881887
 30
0
 11
3.8970701574803148
 21
-2.1926635433070865
 31
0
  0
LINE
  5
A5
330
24
100
AcDbEntity
  8
Edge.Cuts
  6
CONTINUOUS
100
AcDbLine
 10
3.8964435039370078
 20
-6.0743174409448821
 30
0
 11
3.8958259448818895
 21
-6.0735742913385824
 31
0
  0
LINE
  5
A6
330
24
100
AcDbEntity
  8
Edge.Cuts
  6
CONTINUOUS
100
AcDbLine
 10
3.8970701574803148
 20
-2.1926635433070865
 30
0
 11
3.8977057874015748
 21
-2.1919357480314958
 31
0
  0
LINE
  5
A7
330
24
100
AcDbEntity
  8
Edge.Cuts
  6
CONTINUOUS
100
AcDbLine
 10
3.8970701574803148
 20
-6.0750529921259844
 30
0
 11
3.8964435039370078
 21
-6.0743174409448821
 31
0
  0
LINE
  5
A8
330
24
100
AcDbEntity
  8
Edge.Cuts
  6
CONTINUOUS
100
AcDbLine
 10
3.8977057874015748
 20
-2.1919357480314958
 30
0
 11
3.898350275590551
 21
-2.1912158267716535
 31
0
  0
LINE
  5
A9
330
24
100
AcDbEntity
  8
Edge.Cuts
  6
CONTINUOUS
100
AcDbLine
 10
3.8977057874015748
 20
-6.075780787401575
 30
0
 11
3.8970701574803148
 21
-6.0750529921259844
 31
0
  0
LINE
  5
AA
330
24
100
AcDbEntity
  8
Edge.Cuts
  6
CONTINUOUS
100
AcDbLine
 10
3.898350275590551
 20
-2.1912158267716535
 30
0
 11
3.8990035826771652
 21
-2.1905038582677165
 31
0
  0
LINE
  5
AB
330
24
100
AcDbEntity
  8
Edge.Cuts
  6
CONTINUOUS
100
AcDbLine
 10
3.898350275590551
 20
-6.0765007086614169
 30
0
 11
3.8977057874015748
 21
-6.075780787401575
 31
0
  0
LINE
  5
AC
330
24
100
AcDbEntity
  8
Edge.Cuts
  6
CONTINUOUS
100
AcDbLine
 10
3.8990035826771652
 20
-2.1905038582677165
 30
0
 11
3.8996655511811023
 21
-2.1897999606299212
 31
0
  0
LINE
  5
AD
330
24
100
AcDbEntity
  8
Edge.Cuts
  6
CONTINUOUS
100
AcDbLine
 10
3.8990035826771652
 20
-6.0772126771653543
 30
0
 11
3.898350275590551
 21
-6.0765007086614169
 31
0
  0
LINE
  5
AE
330
24
100
AcDbEntity
  8
Edge.Cuts
  6
CONTINUOUS
100
AcDbLine
 10
3.8996655511811023
 20
-2.1897999606299212
 30
0
 11
3.9003361417322835
 21
-2.1891042519685038
 31
0
  0
LINE
  5
AF
330
24
100
AcDbEntity
  8
Edge.Cuts
  6
CONTINUOUS
100
AcDbLine
 10
3.8996655511811023
 20
-6.0779165748031492
 30
0
 11
3.8990035826771652
 21
-6.0772126771653543
 31
0
  0
LINE
  5
B0
330
24
100
AcDbEntity
  8
Edge.Cuts
  6
CONTINUOUS
100
AcDbLine
 10
3.9003361417322835
 20
-2.1891042519685038
 30
0
 11
3.9010151968503934
 21
-2.1884167716535434
 31
0
  0
LINE
  5
B1
330
24
100
AcDbEntity
  8
Edge.Cuts
  6
CONTINUOUS
100
AcDbLine
 10
3.9003361417322835
 20
-6.0786122834645671
 30
0
 11
3.8996655511811023
 21
-6.0779165748031492
 31
0
  0
LINE
  5
B2
330
24
100
AcDbEntity
  8
Edge.Cuts
  6
CONTINUOUS
100
AcDbLine
 10
3.9010151968503934
 20
-2.1884167716535434
 30
0
 11
3.9017026377952755
 21
-2.187737716535433
 31
0
  0
LINE
  5
B3
330
24
100
AcDbEntity
  8
Edge.Cuts
  6
CONTINUOUS
100
AcDbLine
 10
3.9010151968503934
 20
-6.0792997637795274
 30
0
 11
3.9003361417322835
 21
-6.0786122834645671
 31
0
  0
LINE
  5
B4
330
24
100
AcDbEntity
  8
Edge.Cuts
  6
CONTINUOUS
100
AcDbLine
 10
3.9017026377952755
 20
-2.187737716535433
 30
0
 11
3.9023983464566929
 21
-2.1870671653543305
 31
0
  0
LINE
  5
B5
330
24
100
AcDbEntity
  8
Edge.Cuts
  6
CONTINUOUS
100
AcDbLine
 10
3.9017026377952755
 20
-6.0799788188976374
 30
0
 11
3.9010151968503934
 21
-6.0792997637795274
 31
0
  0
LINE
  5
B6
330
24
100
AcDbEntity
  8
Edge.Cuts
  6
CONTINUOUS
100
AcDbLine
 10
3.9023983464566929
 20
-2.1870671653543305
 30
0
 11
3.903102283464567
 21
-2.1864051574803147
 31
0
  0
LINE
  5
B7
330
24
100
AcDbEntity
  8
Edge.Cuts
  6
CONTINUOUS
100
AcDbLine
 10
3.9023983464566929
 20
-6.0806493700787403
 30
0
 11
3.9017026377952755
 21
-6.0799788188976374
 31
0
  0
LINE
  5
B8
330
24
100
AcDbEntity
  8
Edge.Cuts
  6
CONTINUOUS
100
AcDbLine
 10
3.903102283464567
 20
-2.1864051574803147
 30
0
 11
3.903814251968504
 21
-2.1857518897637793
 31
0
  0
LINE
  5
B9
330
24
100
AcDbEntity
  8
Edge.Cuts
  6
CONTINUOUS
100
AcDbLine
 10
3.903102283464567
 20
-6.0813113779527557
 30
0
 11
3.9023983464566929
 21
-6.0806493700787403
 31
0
  0
LINE
  5
BA
330
24
100
AcDbEntity
  8
Edge.Cuts
  6
CONTINUOUS
100
AcDbLine
 10
3.903814251968504
 20
-2.1857518897637793
 30
0
 11
3.9045341732283463
 21
-2.1851073622047243
 31
0
  0
LINE
  5
BB
330
24
100
AcDbEntity
  8
Edge.Cuts
  6
CONTINUOUS
100
AcDbLine
 10
3.903814251968504
 20
-6.0819646456692915
 30
0
 11
3.903102283464567
 21
-6.0813113779527557
 31
0
  0
LINE
  5
BC
330
24
100
AcDbEntity
  8
Edge.Cuts
  6
CONTINUOUS
100
AcDbLine
 10
3.9045341732283463
 20
-2.1851073622047243
 30
0
 11
3.9052619685039369
 21
-2.1844717322834644
 31
0
  0
LINE
  5
BD
330
24
100
AcDbEntity
  8
Edge.Cuts
  6
CONTINUOUS
100
AcDbLine
 10
3.9045341732283463
 20
-6.082609173228346
 30
0
 11
3.903814251968504
 21
-6.0819646456692915
 31
0
  0
LINE
  5
BE
330
24
100
AcDbEntity
  8
Edge.Cuts
  6
CONTINUOUS
100
AcDbLine
 10
3.9052619685039369
 20
-2.1844717322834644
 30
0
 11
3.9059974803149604
 21
-2.1838450787401573
 31
0
  0
LINE
  5
BF
330
24
100
AcDbEntity
  8
Edge.Cuts
  6
CONTINUOUS
100
AcDbLine
 10
3.9052619685039369
 20
-6.083244803149606
 30
0
 11
3.9045341732283463
 21
-6.082609173228346
 31
0
  0
LINE
  5
C0
330
24
100
AcDbEntity
  8
Edge.Cuts
  6
CONTINUOUS
100
AcDbLine
 10
3.9059974803149604
 20
-2.1838450787401573
 30
0
 11
3.9067406692913385
 21
-2.1832275196850395
 31
0
  0
LINE
  5
C1
330
24
100
AcDbEntity
  8
Edge.Cuts
  6
CONTINUOUS
100
AcDbLine
 10
3.9059974803149604
 20
-6.0838714566929131
 30
0
 11
3.9052619685039369
 21
-6.083244803149606
 31
0
  0
LINE
  5
C2
330
24
100
AcDbEntity
  8
Edge.Cuts
  6
CONTINUOUS
100
AcDbLine
 10
3.9067406692913385
 20
-2.1832275196850395
 30
0
 11
3.907491377952756
 21
-2.1826191338582674
 31
0
  0
LINE
  5
C3
330
24
100
AcDbEntity
  8
Edge.Cuts
  6
CONTINUOUS
100
AcDbLine
 10
3.9067406692913385
 20
-6.0844890157480309
 30
0
 11
3.9059974803149604
 21
-6.0838714566929131
 31
0
  0
LINE
  5
C4
330
24
100
AcDbEntity
  8
Edge.Cuts
  6
CONTINUOUS
100
AcDbLine
 10
3.907491377952756
 20
-2.1826191338582674
 30
0
 11
3.9082494488188977
 21
-2.1820199606299213
 31
0
  0
LINE
  5
C5
330
24
100
AcDbEntity
  8
Edge.Cuts
  6
CONTINUOUS
100
AcDbLine
 10
3.907491377952756
 20
-6.0850974015748029
 30
0
 11
3.9067406692913385
 21
-6.0844890157480309
 31
0
  0
LINE
  5
C6
330
24
100
AcDbEntity
  8
Edge.Cuts
  6
CONTINUOUS
100
AcDbLine
 10
3.9082494488188977
 20
-2.1820199606299213
 30
0
 11
3.9090148425196851
 21
-2.1814301574803148
 31
0
  0
LINE
  5
C7
330
24
100
AcDbEntity
  8
Edge.Cuts
  6
CONTINUOUS
100
AcDbLine
 10
3.9082494488188977
 20
-6.0856965748031495
 30
0
 11
3.907491377952756
 21
-6.0850974015748029
 31
0
  0
LINE
  5
C8
330
24
100
AcDbEntity
  8
Edge.Cuts
  6
CONTINUOUS
100
AcDbLine
 10
3.9090148425196851
 20
-2.1814301574803148
 30
0
 11
3.9097874409448816
 21
-2.1808498031496062
 31
0
  0
LINE
  5
C9
330
24
100
AcDbEntity
  8
Edge.Cuts
  6
CONTINUOUS
100
AcDbLine
 10
3.9090148425196851
 20
-6.0862863779527556
 30
0
 11
3.9082494488188977
 21
-6.0856965748031495
 31
0
  0
LINE
  5
CA
330
24
100
AcDbEntity
  8
Edge.Cuts
  6
CONTINUOUS
100
AcDbLine
 10
3.9097874409448816
 20
-2.1808498031496062
 30
0
 11
3.9105670866141731
 21
-2.1802789763779526
 31
0
  0
LINE
  5
CB
330
24
100
AcDbEntity
  8
Edge.Cuts
  6
CONTINUOUS
100
AcDbLine
 10
3.9097874409448816
 20
-6.0868667322834646
 30
0
 11
3.9090148425196851
 21
-6.0862863779527556
 31
0
  0
LINE
  5
CC
330
24
100
AcDbEntity
  8
Edge.Cuts
  6
CONTINUOUS
100
AcDbLine
 10
3.9105670866141731
 20
-2.1802789763779526
 30
0
 11
3.9113536614173228
 21
-2.1797177165354329
 31
0
  0
LINE
  5
CD
330
24
100
AcDbEntity
  8
Edge.Cuts
  6
CONTINUOUS
100
AcDbLine
 10
3.9105670866141731
 20
-6.0874375590551182
 30
0
 11
3.9097874409448816
 21
-6.0868667322834646
 31
0
  0
LINE
  5
CE
330
24
100
AcDbEntity
  8
Edge.Cuts
  6
CONTINUOUS
100
AcDbLine
 10
3.9113536614173228
 20
-2.1797177165354329
 30
0
 11
3.9121470866141732
 21
-2.1791661811023624
 31
0
  0
LINE
  5
CF
330
24
100
AcDbEntity
  8
Edge.Cuts
  6
CONTINUOUS
100
AcDbLine
 10
3.9113536614173228
 20
-6.0879988188976375
 30
0
 11
3.9105670866141731
 21
-6.0874375590551182
 31
0
  0
LINE
  5
D0
330
24
100
AcDbEntity
  8
Edge.Cuts
  6
CONTINUOUS
100
AcDbLine
 10
3.9121470866141732
 20
-2.1791661811023624
 30
0
 11
3.9129472047244094
 21
-2.1786244488188977
 31
0
  0
LINE
  5
D1
330
24
100
AcDbEntity
  8
Edge.Cuts
  6
CONTINUOUS
100
AcDbLine
 10
3.9121470866141732
 20
-6.0885503543307085
 30
0
 11
3.9113536614173228
 21
-6.0879988188976375
 31
0
  0
LINE
  5
D2
330
24
100
AcDbEntity
  8
Edge.Cuts
  6
CONTINUOUS
100
AcDbLine
 10
3.9129472047244094
 20
-2.1786244488188977
 30
0
 11
3.9137539370078738
 21
-2.1780925590551181
 31
0
  0
LINE
  5
D3
330
24
100
AcDbEntity
  8
Edge.Cuts
  6
CONTINUOUS
100
AcDbLine
 10
3.9129472047244094
 20
-6.0890920866141727
 30
0
 11
3.9121470866141732
 21
-6.0885503543307085
 31
0
  0
LINE
  5
D4
330
24
100
AcDbEntity
  8
Edge.Cuts
  6
CONTINUOUS
100
AcDbLine
 10
3.9137539370078738
 20
-2.1780925590551181
 30
0
 11
3.9145670866141731
 21
-2.1775705905511811
 31
0
  0
LINE
  5
D5
330
24
100
AcDbEntity
  8
Edge.Cuts
  6
CONTINUOUS
100
AcDbLine
 10
3.9137539370078738
 20
-6.0896239763779523
 30
0
 11
3.9129472047244094
 21
-6.0890920866141727
 31
0
  0
LINE
  5
D6
330
24
100
AcDbEntity
  8
Edge.Cuts
  6
CONTINUOUS
100
AcDbLine
 10
3.9145670866141731
 20
-2.1775705905511811
 30
0
 11
3.9153866141732281
 21
-2.1770586614173228
 31
0
  0
LINE
  5
D7
330
24
100
AcDbEntity
  8
Edge.Cuts
  6
CONTINUOUS
100
AcDbLine
 10
3.9145670866141731
 20
-6.0901459448818898
 30
0
 11
3.9137539370078738
 21
-6.0896239763779523
 31
0
  0
LINE
  5
D8
330
24
100
AcDbEntity
  8
Edge.Cuts
  6
CONTINUOUS
100
AcDbLine
 10
3.9153866141732281
 20
-2.1770586614173228
 30
0
 11
3.9162123622047242
 21
-2.1765568110236222
 31
0
  0
LINE
  5
D9
330
24
100
AcDbEntity
  8
Edge.Cuts
  6
CONTINUOUS
100
AcDbLine
 10
3.9153866141732281
 20
-6.090657874015748
 30
0
 11
3.9145670866141731
 21
-6.0901459448818898
 31
0
  0
LINE
  5
DA
330
24
100
AcDbEntity
  8
Edge.Cuts
  6
CONTINUOUS
100
AcDbLine
 10
3.9162123622047242
 20
-2.1765568110236222
 30
0
 11
3.9170442125984253
 21
-2.1760651181102362
 31
0
  0
LINE
  5
DB
330
24
100
AcDbEntity
  8
Edge.Cuts
  6
CONTINUOUS
100
AcDbLine
 10
3.9162123622047242
 20
-6.0911597244094491
 30
0
 11
3.9153866141732281
 21
-6.090657874015748
 31
0
  0
LINE
  5
DC
330
24
100
AcDbEntity
  8
Edge.Cuts
  6
CONTINUOUS
100
AcDbLine
 10
3.9170442125984253
 20
-2.1760651181102362
 30
0
 11
3.9178820078740157
 21
-2.1755837007874015
 31
0
  0
LINE
  5
DD
330
24
100
AcDbEntity
  8
Edge.Cuts
  6
CONTINUOUS
100
AcDbLine
 10
3.9170442125984253
 20
-6.0916514173228347
 30
0
 11
3.9162123622047242
 21
-6.0911597244094491
 31
0
  0
LINE
  5
DE
330
24
100
AcDbEntity
  8
Edge.Cuts
  6
CONTINUOUS
100
AcDbLine
 10
3.9178820078740157
 20
-2.1755837007874015
 30
0
 11
3.9187256692913386
 21
-2.1751125984251969
 31
0
  0
LINE
  5
DF
330
24
100
AcDbEntity
  8
Edge.Cuts
  6
CONTINUOUS
100
AcDbLine
 10
3.9178820078740157
 20
-6.0921328346456693
 30
0
 11
3.9170442125984253
 21
-6.0916514173228347
 31
0
  0
LINE
  5
E0
330
24
100
AcDbEntity
  8
Edge.Cuts
  6
CONTINUOUS
100
AcDbLine
 10
3.9187256692913386
 20
-2.1751125984251969
 30
0
 11
3.9195750393700788
 21
-2.1746518503937007
 31
0
  0
LINE
  5
E1
330
24
100
AcDbEntity
  8
Edge.Cuts
  6
CONTINUOUS
100
AcDbLine
 10
3.9187256692913386
 20
-6.0926039370078735
 30
0
 11
3.9178820078740157
 21
-6.0921328346456693
 31
0
  0
LINE
  5
E2
330
24
100
AcDbEntity
  8
Edge.Cuts
  6
CONTINUOUS
100
AcDbLine
 10
3.9195750393700788
 20
-2.1746518503937007
 30
0
 11
3.9204300000000001
 21
-2.1742016141732283
 31
0
  0
LINE
  5
E3
330
24
100
AcDbEntity
  8
Edge.Cuts
  6
CONTINUOUS
100
AcDbLine
 10
3.9195750393700788
 20
-6.0930646850393702
 30
0
 11
3.9187256692913386
 21
-6.0926039370078735
 31
0
  0
LINE
  5
E4
330
24
100
AcDbEntity
  8
Edge.Cuts
  6
CONTINUOUS
100
AcDbLine
 10
3.9204300000000001
 20
-2.1742016141732283
 30
0
 11
3.9212904330708662
 21
-2.1737618503937006
 31
0
  0
LINE
  5
E5
330
24
100
AcDbEntity
  8
Edge.Cuts
  6
CONTINUOUS
100
AcDbLine
 10
3.9204300000000001
 20
-6.0935149212598425
 30
0
 11
3.9195750393700788
 21
-6.0930646850393702
 31
0
  0
LINE
  5
E6
330
24
100
AcDbEntity
  8
Edge.Cuts
  6
CONTINUOUS
100
AcDbLine
 10
3.9212904330708662
 20
-2.1737618503937006
 30
0
 11
3.9221561811023622
 21
-2.173332716535433
 31
0
  0
LINE
  5
E7
330
24
100
AcDbEntity
  8
Edge.Cuts
  6
CONTINUOUS
100
AcDbLine
 10
3.9212904330708662
 20
-6.0939546850393702
 30
0
 11
3.9204300000000001
 21
-6.0935149212598425
 31
0
  0
LINE
  5
E8
330
24
100
AcDbEntity
  8
Edge.Cuts
  6
CONTINUOUS
100
AcDbLine
 10
3.9221561811023622
 20
-2.173332716535433
 30
0
 11
3.9230271259842517
 21
-2.1729142125984251
 31
0
  0
LINE
  5
E9
330
24
100
AcDbEntity
  8
Edge.Cuts
  6
CONTINUOUS
100
AcDbLine
 10
3.9221561811023622
 20
-6.0943838188976374
 30
0
 11
3.9212904330708662
 21
-6.0939546850393702
 31
0
  0
LINE
  5
EA
330
24
100
AcDbEntity
  8
Edge.Cuts
  6
CONTINUOUS
100
AcDbLine
 10
3.9230271259842517
 20
-2.1729142125984251
 30
0
 11
3.923903149606299
 21
-2.1725064566929135
 31
0
  0
LINE
  5
EB
330
24
100
AcDbEntity
  8
Edge.Cuts
  6
CONTINUOUS
100
AcDbLine
 10
3.9230271259842517
 20
-6.0948023228346457
 30
0
 11
3.9221561811023622
 21
-6.0943838188976374
 31
0
  0
LINE
  5
EC
330
24
100
AcDbEntity
  8
Edge.Cuts
  6
CONTINUOUS
100
AcDbLine
 10
3.923903149606299
 20
-2.1725064566929135
 30
0
 11
3.9247841338582674
 21
-2.1721094488188974
 31
0
  0
LINE
  5
ED
330
24
100
AcDbEntity
  8
Edge.Cuts
  6
CONTINUOUS
100
AcDbLine
 10
3.923903149606299
 20
-6.0952100787401573
 30
0
 11
3.9230271259842517
 21
-6.0948023228346457
 31
0
  0
LINE
  5
EE
330
24
100
AcDbEntity
  8
Edge.Cuts
  6
CONTINUOUS
100
AcDbLine
 10
3.9247841338582674
 20
-2.1721094488188974
 30
0
 11
3.9256698818897635
 21
-2.171723307086614
 31
0
  0
LINE
  5
EF
330
24
100
AcDbEntity
  8
Edge.Cuts
  6
CONTINUOUS
100
AcDbLine
 10
3.9247841338582674
 20
-6.0956070866141729
 30
0
 11
3.923903149606299
 21
-6.0952100787401573
 31
0
  0
LINE
  5
F0
330
24
100
AcDbEntity
  8
Edge.Cuts
  6
CONTINUOUS
100
AcDbLine
 10
3.9256698818897635
 20
-2.171723307086614
 30
0
 11
3.9265603543307086
 21
-2.1713480708661419
 31
0
  0
LINE
  5
F1
330
24
100
AcDbEntity
  8
Edge.Cuts
  6
CONTINUOUS
100
AcDbLine
 10
3.9256698818897635
 20
-6.0959932283464564
 30
0
 11
3.9247841338582674
 21
-6.0956070866141729
 31
0
  0
LINE
  5
F2
330
24
100
AcDbEntity
  8
Edge.Cuts
  6
CONTINUOUS
100
AcDbLine
 10
3.9265603543307086
 20
-2.1713480708661419
 30
0
 11
3.9274553149606297
 21
-2.1709837795275591
 31
0
  0
LINE
  5
F3
330
24
100
AcDbEntity
  8
Edge.Cuts
  6
CONTINUOUS
100
AcDbLine
 10
3.9265603543307086
 20
-6.0963684645669289
 30
0
 11
3.9256698818897635
 21
-6.0959932283464564
 31
0
  0
LINE
  5
F4
330
24
100
AcDbEntity
  8
Edge.Cuts
  6
CONTINUOUS
100
AcDbLine
 10
3.9274553149606297
 20
-2.1709837795275591
 30
0
 11
3.9283546850393698
 21
-2.1706304724409446
 31
0
  0
LINE
  5
F5
330
24
100
AcDbEntity
  8
Edge.Cuts
  6
CONTINUOUS
100
AcDbLine
 10
3.9274553149606297
 20
-6.0967327559055118
 30
0
 11
3.9265603543307086
 21
-6.0963684645669289
 31
0
  0
LINE
  5
F6
330
24
100
AcDbEntity
  8
Edge.Cuts
  6
CONTINUOUS
100
AcDbLine
 10
3.9283546850393698
 20
-2.1706304724409446
 30
0
 11
3.929258346456693
 21
-2.1702882677165354
 31
0
  0
LINE
  5
F7
330
24
100
AcDbEntity
  8
Edge.Cuts
  6
CONTINUOUS
100
AcDbLine
 10
3.9283546850393698
 20
-6.0970860629921262
 30
0
 11
3.9274553149606297
 21
-6.0967327559055118
 31
0
  0
LINE
  5
F8
330
24
100
AcDbEntity
  8
Edge.Cuts
  6
CONTINUOUS
100
AcDbLine
 10
3.929258346456693
 20
-2.1702882677165354
 30
0
 11
3.9301661417322835
 21
-2.1699571653543308
 31
0
  0
LINE
  5
F9
330
24
100
AcDbEntity
  8
Edge.Cuts
  6
CONTINUOUS
100
AcDbLine
 10
3.929258346456693
 20
-6.097428267716535
 30
0
 11
3.9283546850393698
 21
-6.0970860629921262
 31
0
  0
LINE
  5
FA
330
24
100
AcDbEntity
  8
Edge.Cuts
  6
CONTINUOUS
100
AcDbLine
 10
3.9301661417322835
 20
-2.1699571653543308
 30
0
 11
3.9310779133858267
 21
-2.1696372047244092
 31
0
  0
LINE
  5
FB
330
24
100
AcDbEntity
  8
Edge.Cuts
  6
CONTINUOUS
100
AcDbLine
 10
3.9301661417322835
 20
-6.09775937007874
 30
0
 11
3.929258346456693
 21
-6.097428267716535
 31
0
  0
LINE
  5
FC
330
24
100
AcDbEntity
  8
Edge.Cuts
  6
CONTINUOUS
100
AcDbLine
 10
3.9310779133858267
 20
-2.1696372047244092
 30
0
 11
3.9319935433070867
 21
-2.1693285039370078
 31
0
  0
LINE
  5
FD
330
24
100
AcDbEntity
  8
Edge.Cuts
  6
CONTINUOUS
100
AcDbLine
 10
3.9310779133858267
 20
-6.0980793307086616
 30
0
 11
3.9301661417322835
 21
-6.09775937007874
 31
0
  0
LINE
  5
FE
330
24
100
AcDbEntity
  8
Edge.Cuts
  6
CONTINUOUS
100
AcDbLine
 10
3.9319935433070867
 20
-2.1693285039370078
 30
0
 11
3.9329129133858265
 21
-2.1690310236220474
 31
0
  0
LINE
  5
FF
330
24
100
AcDbEntity
  8
Edge.Cuts
  6
CONTINUOUS
100
AcDbLine
 10
3.9319935433070867
 20
-6.0983880314960626
 30
0
 11
3.9310779133858267
 21
-6.0980793307086616
 31
0
  0
LINE
  5
100
330
24
100
AcDbEntity
  8
Edge.Cuts
  6
CONTINUOUS
100
AcDbLine
 10
3.9329129133858265
 20
-2.1690310236220474
 30
0
 11
3.9338358267716536
 21
-2.1687448425196849
 31
0
  0
LINE
  5
101
330
24
100
AcDbEntity
  8
Edge.Cuts
  6
CONTINUOUS
100
AcDbLine
 10
3.9329129133858265
 20
-6.0986855118110235
 30
0
 11
3.9319935433070867
 21
-6.0983880314960626
 31
0
  0
LINE
  5
102
330
24
100
AcDbEntity
  8
Edge.Cuts
  6
CONTINUOUS
100
AcDbLine
 10
3.9338358267716536
 20
-2.1687448425196849
 30
0
 11
3.9347622047244095
 21
-2.1684700393700789
 31
0
  0
LINE
  5
103
330
24
100
AcDbEntity
  8
Edge.Cuts
  6
CONTINUOUS
100
AcDbLine
 10
3.9338358267716536
 20
-6.0989716929133859
 30
0
 11
3.9329129133858265
 21
-6.0986855118110235
 31
0
  0
LINE
  5
104
330
24
100
AcDbEntity
  8
Edge.Cuts
  6
CONTINUOUS
100
AcDbLine
 10
3.9347622047244095
 20
-2.1684700393700789
 30
0
 11
3.9356918897637794
 21
-2.1682066141732284
 31
0
  0
LINE
  5
105
330
24
100
AcDbEntity
  8
Edge.Cuts
  6
CONTINUOUS
100
AcDbLine
 10
3.9347622047244095
 20
-6.0992464960629924
 30
0
 11
3.9338358267716536
 21
-6.0989716929133859
 31
0
  0
LINE
  5
106
330
24
100
AcDbEntity
  8
Edge.Cuts
  6
CONTINUOUS
100
AcDbLine
 10
3.9356918897637794
 20
-2.1682066141732284
 30
0
 11
3.9366247244094486
 21
-2.1679546062992125
 31
0
  0
LINE
  5
107
330
24
100
AcDbEntity
  8
Edge.Cuts
  6
CONTINUOUS
100
AcDbLine
 10
3.9356918897637794
 20
-6.099509921259842
 30
0
 11
3.9347622047244095
 21
-6.0992464960629924
 31
0
  0
LINE
  5
108
330
24
100
AcDbEntity
  8
Edge.Cuts
  6
CONTINUOUS
100
AcDbLine
 10
3.9366247244094486
 20
-2.1679546062992125
 30
0
 11
3.9375605905511808
 21
-2.1677140551181102
 31
0
  0
LINE
  5
109
330
24
100
AcDbEntity
  8
Edge.Cuts
  6
CONTINUOUS
100
AcDbLine
 10
3.9366247244094486
 20
-6.0997619291338578
 30
0
 11
3.9356918897637794
 21
-6.099509921259842
 31
0
  0
LINE
  5
10A
330
24
100
AcDbEntity
  8
Edge.Cuts
  6
CONTINUOUS
100
AcDbLine
 10
3.9375605905511808
 20
-2.1677140551181102
 30
0
 11
3.9384993307086615
 21
-2.1674850393700789
 31
0
  0
LINE
  5
10B
330
24
100
AcDbEntity
  8
Edge.Cuts
  6
CONTINUOUS
100
AcDbLine
 10
3.9375605905511808
 20
-6.1000024803149602
 30
0
 11
3.9366247244094486
 21
-6.0997619291338578
 31
0
  0
LINE
  5
10C
330
24
100
AcDbEntity
  8
Edge.Cuts
  6
CONTINUOUS
100
AcDbLine
 10
3.9384993307086615
 20
-2.1674850393700789
 30
0
 11
3.9394408267716536
 21
-2.167267559055118
 31
0
  0
LINE
  5
10D
330
24
100
AcDbEntity
  8
Edge.Cuts
  6
CONTINUOUS
100
AcDbLine
 10
3.9384993307086615
 20
-6.1002314960629924
 30
0
 11
3.9375605905511808
 21
-6.1000024803149602
 31
0
  0
LINE
  5
10E
330
24
100
AcDbEntity
  8
Edge.Cuts
  6
CONTINUOUS
100
AcDbLine
 10
3.9394408267716536
 20
-2.167267559055118
 30
0
 11
3.9403849212598425
 21
-2.1670616141732282
 31
0
  0
LINE
  5
10F
330
24
100
AcDbEntity
  8
Edge.Cuts
  6
CONTINUOUS
100
AcDbLine
 10
3.9394408267716536
 20
-6.1004489763779528
 30
0
 11
3.9384993307086615
 21
-6.1002314960629924
 31
0
  0
LINE
  5
110
330
24
100
AcDbEntity
  8
Edge.Cuts
  6
CONTINUOUS
100
AcDbLine
 10
3.9403849212598425
 20
-2.1670616141732282
 30
0
 11
3.9413314566929132
 21
-2.1668672834645668
 31
0
  0
LINE
  5
111
330
24
100
AcDbEntity
  8
Edge.Cuts
  6
CONTINUOUS
100
AcDbLine
 10
3.9403849212598425
 20
-6.1006549212598422
 30
0
 11
3.9394408267716536
 21
-6.1004489763779528
 31
0
  0
LINE
  5
112
330
24
100
AcDbEntity
  8
Edge.Cuts
  6
CONTINUOUS
100
AcDbLine
 10
3.9413314566929132
 20
-2.1668672834645668
 30
0
 11
3.9422803149606298
 21
-2.1666846062992127
 31
0
  0
LINE
  5
113
330
24
100
AcDbEntity
  8
Edge.Cuts
  6
CONTINUOUS
100
AcDbLine
 10
3.9413314566929132
 20
-6.100849251968504
 30
0
 11
3.9403849212598425
 21
-6.1006549212598422
 31
0
  0
LINE
  5
114
330
24
100
AcDbEntity
  8
Edge.Cuts
  6
CONTINUOUS
100
AcDbLine
 10
3.9422803149606298
 20
-2.1666846062992127
 30
0
 11
3.9432313385826769
 21
-2.1665135826771653
 31
0
  0
LINE
  5
115
330
24
100
AcDbEntity
  8
Edge.Cuts
  6
CONTINUOUS
100
AcDbLine
 10
3.9422803149606298
 20
-6.1010319291338577
 30
0
 11
3.9413314566929132
 21
-6.100849251968504
 31
0
  0
LINE
  5
116
330
24
100
AcDbEntity
  8
Edge.Cuts
  6
CONTINUOUS
100
AcDbLine
 10
3.9432313385826769
 20
-2.1665135826771653
 30
0
 11
3.94418437007874
 21
-2.1663542125984252
 31
0
  0
LINE
  5
117
330
24
100
AcDbEntity
  8
Edge.Cuts
  6
CONTINUOUS
100
AcDbLine
 10
3.9432313385826769
 20
-6.1012029527559051
 30
0
 11
3.9422803149606298
 21
-6.1010319291338577
 31
0
  0
LINE
  5
118
330
24
100
AcDbEntity
  8
Edge.Cuts
  6
CONTINUOUS
100
AcDbLine
 10
3.94418437007874
 20
-2.1663542125984252
 30
0
 11
3.9451393307086615
 21
-2.1662065748031494
 31
0
  0
LINE
  5
119
330
24
100
AcDbEntity
  8
Edge.Cuts
  6
CONTINUOUS
100
AcDbLine
 10
3.94418437007874
 20
-6.1013623228346452
 30
0
 11
3.9432313385826769
 21
-6.1012029527559051
 31
0
  0
LINE
  5
11A
330
24
100
AcDbEntity
  8
Edge.Cuts
  6
CONTINUOUS
100
AcDbLine
 10
3.9451393307086615
 20
-2.1662065748031494
 30
0
 11
3.9460959842519685
 21
-2.1660706692913387
 31
0
  0
LINE
  5
11B
330
24
100
AcDbEntity
  8
Edge.Cuts
  6
CONTINUOUS
100
AcDbLine
 10
3.9451393307086615
 20
-6.1015099606299215
 30
0
 11
3.94418437007874
 21
-6.1013623228346452
 31
0
  0
LINE
  5
11C
330
24
100
AcDbEntity
  8
Edge.Cuts
  6
CONTINUOUS
100
AcDbLine
 10
3.9460959842519685
 20
-2.1660706692913387
 30
0
 11
3.9470542519685039
 21
-2.1659464960629919
 31
0
  0
LINE
  5
11D
330
24
100
AcDbEntity
  8
Edge.Cuts
  6
CONTINUOUS
100
AcDbLine
 10
3.9460959842519685
 20
-6.1016458661417321
 30
0
 11
3.9451393307086615
 21
-6.1015099606299215
 31
0
  0
LINE
  5
11E
330
24
100
AcDbEntity
  8
Edge.Cuts
  6
CONTINUOUS
100
AcDbLine
 10
3.9470542519685039
 20
-2.1659464960629919
 30
0
 11
3.9480139763779527
 21
-2.1658340944881891
 31
0
  0
LINE
  5
11F
330
24
100
AcDbEntity
  8
Edge.Cuts
  6
CONTINUOUS
100
AcDbLine
 10
3.9470542519685039
 20
-6.1017700393700789
 30
0
 11
3.9460959842519685
 21
-6.1016458661417321
 31
0
  0
LINE
  5
120
330
24
100
AcDbEntity
  8
Edge.Cuts
  6
CONTINUOUS
100
AcDbLine
 10
3.9480139763779527
 20
-2.1658340944881891
 30
0
 11
3.9489749999999999
 21
-2.165733503937008
 31
0
  0
LINE
  5
121
330
24
100
AcDbEntity
  8
Edge.Cuts
  6
CONTINUOUS
100
AcDbLine
 10
3.9480139763779527
 20
-6.1018824409448822
 30
0
 11
3.9470542519685039
 21
-6.1017700393700789
 31
0
  0
LINE
  5
122
330
24
100
AcDbEntity
  8
Edge.Cuts
  6
CONTINUOUS
100
AcDbLine
 10
3.9489749999999999
 20
-2.165733503937008
 30
0
 11
3.9499372047244092
 21
-2.16564468503937
 31
0
  0
LINE
  5
123
330
24
100
AcDbEntity
  8
Edge.Cuts
  6
CONTINUOUS
100
AcDbLine
 10
3.9489749999999999
 20
-6.1019830314960632
 30
0
 11
3.9480139763779527
 21
-6.1018824409448822
 31
0
  0
LINE
  5
124
330
24
100
AcDbEntity
  8
Edge.Cuts
  6
CONTINUOUS
100
AcDbLine
 10
3.9499372047244092
 20
-2.16564468503937
 30
0
 11
3.9509003937007874
 21
-2.1655676771653543
 31
0
  0
LINE
  5
125
330
24
100
AcDbEntity
  8
Edge.Cuts
  6
CONTINUOUS
100
AcDbLine
 10
3.9499372047244092
 20
-6.1020718503937008
 30
0
 11
3.9489749999999999
 21
-6.1019830314960632
 31
0
  0
LINE
  5
126
330
24
100
AcDbEntity
  8
Edge.Cuts
  6
CONTINUOUS
100
AcDbLine
 10
3.9509003937007874
 20
-2.1655676771653543
 30
0
 11
3.9518644881889764
 21
-2.1655025196850395
 31
0
  0
LINE
  5
127
330
24
100
AcDbEntity
  8
Edge.Cuts
  6
CONTINUOUS
100
AcDbLine
 10
3.9509003937007874
 20
-6.1021488582677161
 30
0
 11
3.9499372047244092
 21
-6.1020718503937008
 31
0
  0
LINE
  5
128
330
24
100
AcDbEntity
  8
Edge.Cuts
  6
CONTINUOUS
100
AcDbLine
 10
3.9518644881889764
 20
-2.1655025196850395
 30
0
 11
3.9528292913385825
 21
-2.1654491732283465
 31
0
  0
LINE
  5
129
330
24
100
AcDbEntity
  8
Edge.Cuts
  6
CONTINUOUS
100
AcDbLine
 10
3.9518644881889764
 20
-6.1022140157480314
 30
0
 11
3.9509003937007874
 21
-6.1021488582677161
 31
0
  0
LINE
  5
12A
330
24
100
AcDbEntity
  8
Edge.Cuts
  6
CONTINUOUS
100
AcDbLine
 10
3.9528292913385825
 20
-2.1654491732283465
 30
0
 11
3.9537946850393699
 21
-2.1654076771653541
 31
0
  0
LINE
  5
12B
330
24
100
AcDbEntity
  8
Edge.Cuts
  6
CONTINUOUS
100
AcDbLine
 10
3.9528292913385825
 20
-6.1022673622047243
 30
0
 11
3.9518644881889764
 21
-6.1022140157480314
 31
0
  0
LINE
  5
12C
330
24
100
AcDbEntity
  8
Edge.Cuts
  6
CONTINUOUS
100
AcDbLine
 10
3.9537946850393699
 20
-2.1654076771653541
 30
0
 11
3.9547605118110236
 21
-2.1653780314960631
 31
0
  0
LINE
  5
12D
330
24
100
AcDbEntity
  8
Edge.Cuts
  6
CONTINUOUS
100
AcDbLine
 10
3.9537946850393699
 20
-6.1023088582677163
 30
0
 11
3.9528292913385825
 21
-6.1022673622047243
 31
0
  0
LINE
  5
12E
330
24
100
AcDbEntity
  8
Edge.Cuts
  6
CONTINUOUS
100
AcDbLine
 10
3.9547605118110236
 20
-2.1653780314960631
 30
0
 11
3.9557266141732281
 21
-2.165360275590551
 31
0
  0
LINE
  5
12F
330
24
100
AcDbEntity
  8
Edge.Cuts
  6
CONTINUOUS
100
AcDbLine
 10
3.9547605118110236
 20
-6.1023385039370082
 30
0
 11
3.9537946850393699
 21
-6.1023088582677163
 31
0
  0
LINE
  5
130
330
24
100
AcDbEntity
  8
Edge.Cuts
  6
CONTINUOUS
100
AcDbLine
 10
3.9557266141732281
 20
-2.165360275590551
 30
0
 11
3.9566929133858268
 21
-2.1653543307086616
 31
0
  0
LINE
  5
131
330
24
100
AcDbEntity
  8
Edge.Cuts
  6
CONTINUOUS
100
AcDbLine
 10
3.9557266141732281
 20
-6.1023562598425194
 30
0
 11
3.9547605118110236
 21
-6.1023385039370082
 31
0
  0
LINE
  5
132
330
24
100
AcDbEntity
  8
Edge.Cuts
  6
CONTINUOUS
100
AcDbLine
 10
3.9566929133858268
 20
-2.1653543307086616
 30
0
 11
7.7362204724409445
 21
-2.1653543307086616
 31
0
  0
LINE
  5
133
330
24
100
AcDbEntity
  8
Edge.Cuts
  6
CONTINUOUS
100
AcDbLine
 10
3.9566929133858268
 20
-6.1023622047244093
 30
0
 11
3.9557266141732281
 21
-6.1023562598425194
 31
0
  0
LINE
  5
134
330
24
100
AcDbEntity
  8
Edge.Cuts
  6
CONTINUOUS
100
AcDbLine
 10
7.7362204724409445
 20
-2.1653543307086616
 30
0
 11
7.7371867322834644
 21
-2.165360275590551
 31
0
  0
LINE
  5
135
330
24
100
AcDbEntity
  8
Edge.Cuts
  6
CONTINUOUS
100
AcDbLine
 10
7.7362204724409445
 20
-6.1023622047244093
 30
0
 11
3.9566929133858268
 21
-6.1023622047244093
 31
0
  0
LINE
  5
136
330
24
100
AcDbEntity
  8
Edge.Cuts
  6
CONTINUOUS
100
AcDbLine
 10
7.7371867322834644
 20
-2.165360275590551
 30
0
 11
7.7381528346456694
 21
-2.1653780314960631
 31
0
  0
LINE
  5
137
330
24
100
AcDbEntity
  8
Edge.Cuts
  6
CONTINUOUS
100
AcDbLine
 10
7.7371867322834644
 20
-6.1023562598425194
 30
0
 11
7.7362204724409445
 21
-6.1023622047244093
 31
0
  0
LINE
  5
138
330
24
100
AcDbEntity
  8
Edge.Cuts
  6
CONTINUOUS
100
AcDbLine
 10
7.7381528346456694
 20
-2.1653780314960631
 30
0
 11
7.7391186614173231
 21
-2.1654076771653541
 31
0
  0
LINE
  5
139
330
24
100
AcDbEntity
  8
Edge.Cuts
  6
CONTINUOUS
100
AcDbLine
 10
7.7381528346456694
 20
-6.1023385039370082
 30
0
 11
7.7371867322834644
 21
-6.1023562598425194
 31
0
  0
LINE
  5
13A
330
24
100
AcDbEntity
  8
Edge.Cuts
  6
CONTINUOUS
100
AcDbLine
 10
7.7391186614173231
 20
-2.1654076771653541
 30
0
 11
7.7400840551181105
 21
-2.1654491732283465
 31
0
  0
LINE
  5
13B
330
24
100
AcDbEntity
  8
Edge.Cuts
  6
CONTINUOUS
100
AcDbLine
 10
7.7391186614173231
 20
-6.1023088582677163
 30
0
 11
7.7381528346456694
 21
-6.1023385039370082
 31
0
  0
LINE
  5
13C
330
24
100
AcDbEntity
  8
Edge.Cuts
  6
CONTINUOUS
100
AcDbLine
 10
7.7400840551181105
 20
-2.1654491732283465
 30
0
 11
7.7410488582677166
 21
-2.1655025196850395
 31
0
  0
LINE
  5
13D
330
24
100
AcDbEntity
  8
Edge.Cuts
  6
CONTINUOUS
100
AcDbLine
 10
7.7400840551181105
 20
-6.1022673622047243
 30
0
 11
7.7391186614173231
 21
-6.1023088582677163
 31
0
  0
LINE
  5
13E
330
24
100
AcDbEntity
  8
Edge.Cuts
  6
CONTINUOUS
100
AcDbLine
 10
7.7410488582677166
 20
-2.1655025196850395
 30
0
 11
7.7420129527559052
 21
-2.1655676771653543
 31
0
  0
LINE
  5
13F
330
24
100
AcDbEntity
  8
Edge.Cuts
  6
CONTINUOUS
100
AcDbLine
 10
7.7410488582677166
 20
-6.1022140157480314
 30
0
 11
7.7400840551181105
 21
-6.1022673622047243
 31
0
  0
LINE
  5
140
330
24
100
AcDbEntity
  8
Edge.Cuts
  6
CONTINUOUS
100
AcDbLine
 10
7.7420129527559052
 20
-2.1655676771653543
 30
0
 11
7.7429761417322833
 21
-2.16564468503937
 31
0
  0
LINE
  5
141
330
24
100
AcDbEntity
  8
Edge.Cuts
  6
CONTINUOUS
100
AcDbLine
 10
7.7420129527559052
 20
-6.1021488582677161
 30
0
 11
7.7410488582677166
 21
-6.1022140157480314
 31
0
  0
LINE
  5
142
330
24
100
AcDbEntity
  8
Edge.Cuts
  6
CONTINUOUS
100
AcDbLine
 10
7.7429761417322833
 20
-2.16564468503937
 30
0
 11
7.7439383464566927
 21
-2.165733503937008
 31
0
  0
LINE
  5
143
330
24
100
AcDbEntity
  8
Edge.Cuts
  6
CONTINUOUS
100
AcDbLine
 10
7.7429761417322833
 20
-6.1020718503937008
 30
0
 11
7.7420129527559052
 21
-6.1021488582677161
 31
0
  0
LINE
  5
144
330
24
100
AcDbEntity
  8
Edge.Cuts
  6
CONTINUOUS
100
AcDbLine
 10
7.7439383464566927
 20
-2.165733503937008
 30
0
 11
7.7448993700787403
 21
-2.1658340944881891
 31
0
  0
LINE
  5
145
330
24
100
AcDbEntity
  8
Edge.Cuts
  6
CONTINUOUS
100
AcDbLine
 10
7.7439383464566927
 20
-6.1019830314960632
 30
0
 11
7.7429761417322833
 21
-6.1020718503937008
 31
0
  0
LINE
  5
146
330
24
100
AcDbEntity
  8
Edge.Cuts
  6
CONTINUOUS
100
AcDbLine
 10
7.7448993700787403
 20
-2.1658340944881891
 30
0
 11
7.7458590944881891
 21
-2.1659464960629919
 31
0
  0
LINE
  5
147
330
24
100
AcDbEntity
  8
Edge.Cuts
  6
CONTINUOUS
100
AcDbLine
 10
7.7448993700787403
 20
-6.1018824409448822
 30
0
 11
7.7439383464566927
 21
-6.1019830314960632
 31
0
  0
LINE
  5
148
330
24
100
AcDbEntity
  8
Edge.Cuts
  6
CONTINUOUS
100
AcDbLine
 10
7.7458590944881891
 20
-2.1659464960629919
 30
0
 11
7.7468173622047241
 21
-2.1660706692913387
 31
0
  0
LINE
  5
149
330
24
100
AcDbEntity
  8
Edge.Cuts
  6
CONTINUOUS
100
AcDbLine
 10
7.7458590944881891
 20
-6.1017700393700789
 30
0
 11
7.7448993700787403
 21
-6.1018824409448822
 31
0
  0
LINE
  5
14A
330
24
100
AcDbEntity
  8
Edge.Cuts
  6
CONTINUOUS
100
AcDbLine
 10
7.7468173622047241
 20
-2.1660706692913387
 30
0
 11
7.747774015748031
 21
-2.1662065748031494
 31
0
  0
LINE
  5
14B
330
24
100
AcDbEntity
  8
Edge.Cuts
  6
CONTINUOUS
100
AcDbLine
 10
7.7468173622047241
 20
-6.1016458661417321
 30
0
 11
7.7458590944881891
 21
-6.1017700393700789
 31
0
  0
LINE
  5
14C
330
24
100
AcDbEntity
  8
Edge.Cuts
  6
CONTINUOUS
100
AcDbLine
 10
7.747774015748031
 20
-2.1662065748031494
 30
0
 11
7.7487289763779525
 21
-2.1663542125984252
 31
0
  0
LINE
  5
14D
330
24
100
AcDbEntity
  8
Edge.Cuts
  6
CONTINUOUS
100
AcDbLine
 10
7.747774015748031
 20
-6.1015099606299215
 30
0
 11
7.7468173622047241
 21
-6.1016458661417321
 31
0
  0
LINE
  5
14E
330
24
100
AcDbEntity
  8
Edge.Cuts
  6
CONTINUOUS
100
AcDbLine
 10
7.7487289763779525
 20
-2.1663542125984252
 30
0
 11
7.7496820078740152
 21
-2.1665135826771653
 31
0
  0
LINE
  5
14F
330
24
100
AcDbEntity
  8
Edge.Cuts
  6
CONTINUOUS
100
AcDbLine
 10
7.7487289763779525
 20
-6.1013623228346452
 30
0
 11
7.747774015748031
 21
-6.1015099606299215
 31
0
  0
LINE
  5
150
330
24
100
AcDbEntity
  8
Edge.Cuts
  6
CONTINUOUS
100
AcDbLine
 10
7.7496820078740152
 20
-2.1665135826771653
 30
0
 11
7.7506330314960632
 21
-2.1666846062992127
 31
0
  0
LINE
  5
151
330
24
100
AcDbEntity
  8
Edge.Cuts
  6
CONTINUOUS
100
AcDbLine
 10
7.7496820078740152
 20
-6.1012029527559051
 30
0
 11
7.7487289763779525
 21
-6.1013623228346452
 31
0
  0
LINE
  5
152
330
24
100
AcDbEntity
  8
Edge.Cuts
  6
CONTINUOUS
100
AcDbLine
 10
7.7506330314960632
 20
-2.1666846062992127
 30
0
 11
7.7515818897637789
 21
-2.1668672834645668
 31
0
  0
LINE
  5
153
330
24
100
AcDbEntity
  8
Edge.Cuts
  6
CONTINUOUS
100
AcDbLine
 10
7.7506330314960632
 20
-6.1010319291338577
 30
0
 11
7.7496820078740152
 21
-6.1012029527559051
 31
0
  0
LINE
  5
154
330
24
100
AcDbEntity
  8
Edge.Cuts
  6
CONTINUOUS
100
AcDbLine
 10
7.7515818897637789
 20
-2.1668672834645668
 30
0
 11
7.75252842519685
 21
-2.1670616141732282
 31
0
  0
LINE
  5
155
330
24
100
AcDbEntity
  8
Edge.Cuts
  6
CONTINUOUS
100
AcDbLine
 10
7.7515818897637789
 20
-6.100849251968504
 30
0
 11
7.7506330314960632
 21
-6.1010319291338577
 31
0
  0
LINE
  5
156
330
24
100
AcDbEntity
  8
Edge.Cuts
  6
CONTINUOUS
100
AcDbLine
 10
7.75252842519685
 20
-2.1670616141732282
 30
0
 11
7.7534725196850394
 21
-2.167267559055118
 31
0
  0
LINE
  5
157
330
24
100
AcDbEntity
  8
Edge.Cuts
  6
CONTINUOUS
100
AcDbLine
 10
7.75252842519685
 20
-6.1006549212598422
 30
0
 11
7.7515818897637789
 21
-6.100849251968504
 31
0
  0
LINE
  5
158
330
24
100
AcDbEntity
  8
Edge.Cuts
  6
CONTINUOUS
100
AcDbLine
 10
7.7534725196850394
 20
-2.167267559055118
 30
0
 11
7.754414015748031
 21
-2.1674850393700789
 31
0
  0
LINE
  5
159
330
24
100
AcDbEntity
  8
Edge.Cuts
  6
CONTINUOUS
100
AcDbLine
 10
7.7534725196850394
 20
-6.1004489763779528
 30
0
 11
7.75252842519685
 21
-6.1006549212598422
 31
0
  0
LINE
  5
15A
330
24
100
AcDbEntity
  8
Edge.Cuts
  6
CONTINUOUS
100
AcDbLine
 10
7.754414015748031
 20
-2.1674850393700789
 30
0
 11
7.7553527559055118
 21
-2.1677140551181102
 31
0
  0
LINE
  5
15B
330
24
100
AcDbEntity
  8
Edge.Cuts
  6
CONTINUOUS
100
AcDbLine
 10
7.754414015748031
 20
-6.1002314960629924
 30
0
 11
7.7534725196850394
 21
-6.1004489763779528
 31
0
  0
LINE
  5
15C
330
24
100
AcDbEntity
  8
Edge.Cuts
  6
CONTINUOUS
100
AcDbLine
 10
7.7553527559055118
 20
-2.1677140551181102
 30
0
 11
7.7562886220472436
 21
-2.1679546062992125
 31
0
  0
LINE
  5
15D
330
24
100
AcDbEntity
  8
Edge.Cuts
  6
CONTINUOUS
100
AcDbLine
 10
7.7553527559055118
 20
-6.1000024803149602
 30
0
 11
7.754414015748031
 21
-6.1002314960629924
 31
0
  0
LINE
  5
15E
330
24
100
AcDbEntity
  8
Edge.Cuts
  6
CONTINUOUS
100
AcDbLine
 10
7.7562886220472436
 20
-2.1679546062992125
 30
0
 11
7.7572214566929132
 21
-2.1682066141732284
 31
0
  0
LINE
  5
15F
330
24
100
AcDbEntity
  8
Edge.Cuts
  6
CONTINUOUS
100
AcDbLine
 10
7.7562886220472436
 20
-6.0997619291338578
 30
0
 11
7.7553527559055118
 21
-6.1000024803149602
 31
0
  0
LINE
  5
160
330
24
100
AcDbEntity
  8
Edge.Cuts
  6
CONTINUOUS
100
AcDbLine
 10
7.7572214566929132
 20
-2.1682066141732284
 30
0
 11
7.7581511417322835
 21
-2.1684700393700789
 31
0
  0
LINE
  5
161
330
24
100
AcDbEntity
  8
Edge.Cuts
  6
CONTINUOUS
100
AcDbLine
 10
7.7572214566929132
 20
-6.099509921259842
 30
0
 11
7.7562886220472436
 21
-6.0997619291338578
 31
0
  0
LINE
  5
162
330
24
100
AcDbEntity
  8
Edge.Cuts
  6
CONTINUOUS
100
AcDbLine
 10
7.7581511417322835
 20
-2.1684700393700789
 30
0
 11
7.7590775196850394
 21
-2.1687448425196849
 31
0
  0
LINE
  5
163
330
24
100
AcDbEntity
  8
Edge.Cuts
  6
CONTINUOUS
100
AcDbLine
 10
7.7581511417322835
 20
-6.0992464960629924
 30
0
 11
7.7572214566929132
 21
-6.099509921259842
 31
0
  0
LINE
  5
164
330
24
100
AcDbEntity
  8
Edge.Cuts
  6
CONTINUOUS
100
AcDbLine
 10
7.7590775196850394
 20
-2.1687448425196849
 30
0
 11
7.7600004330708661
 21
-2.1690310236220474
 31
0
  0
LINE
  5
165
330
24
100
AcDbEntity
  8
Edge.Cuts
  6
CONTINUOUS
100
AcDbLine
 10
7.7590775196850394
 20
-6.0989716929133859
 30
0
 11
7.7581511417322835
 21
-6.0992464960629924
 31
0
  0
LINE
  5
166
330
24
100
AcDbEntity
  8
Edge.Cuts
  6
CONTINUOUS
100
AcDbLine
 10
7.7600004330708661
 20
-2.1690310236220474
 30
0
 11
7.7609198031496058
 21
-2.1693285039370078
 31
0
  0
LINE
  5
167
330
24
100
AcDbEntity
  8
Edge.Cuts
  6
CONTINUOUS
100
AcDbLine
 10
7.7600004330708661
 20
-6.0986855118110235
 30
0
 11
7.7590775196850394
 21
-6.0989716929133859
 31
0
  0
LINE
  5
168
330
24
100
AcDbEntity
  8
Edge.Cuts
  6
CONTINUOUS
100
AcDbLine
 10
7.7609198031496058
 20
-2.1693285039370078
 30
0
 11
7.7618354330708659
 21
-2.1696372047244092
 31
0
  0
LINE
  5
169
330
24
100
AcDbEntity
  8
Edge.Cuts
  6
CONTINUOUS
100
AcDbLine
 10
7.7609198031496058
 20
-6.0983880314960626
 30
0
 11
7.7600004330708661
 21
-6.0986855118110235
 31
0
  0
LINE
  5
16A
330
24
100
AcDbEntity
  8
Edge.Cuts
  6
CONTINUOUS
100
AcDbLine
 10
7.7618354330708659
 20
-2.1696372047244092
 30
0
 11
7.762747204724409
 21
-2.1699571653543308
 31
0
  0
LINE
  5
16B
330
24
100
AcDbEntity
  8
Edge.Cuts
  6
CONTINUOUS
100
AcDbLine
 10
7.7618354330708659
 20
-6.0980793307086616
 30
0
 11
7.7609198031496058
 21
-6.0983880314960626
 31
0
  0
LINE
  5
16C
330
24
100
AcDbEntity
  8
Edge.Cuts
  6
CONTINUOUS
100
AcDbLine
 10
7.762747204724409
 20
-2.1699571653543308
 30
0
 11
7.763655
 21
-2.1702882677165354
 31
0
  0
LINE
  5
16D
330
24
100
AcDbEntity
  8
Edge.Cuts
  6
CONTINUOUS
100
AcDbLine
 10
7.762747204724409
 20
-6.09775937007874
 30
0
 11
7.7618354330708659
 21
-6.0980793307086616
 31
0
  0
LINE
  5
16E
330
24
100
AcDbEntity
  8
Edge.Cuts
  6
CONTINUOUS
100
AcDbLine
 10
7.763655
 20
-2.1702882677165354
 30
0
 11
7.7645586614173228
 21
-2.1706304724409446
 31
0
  0
LINE
  5
16F
330
24
100
AcDbEntity
  8
Edge.Cuts
  6
CONTINUOUS
100
AcDbLine
 10
7.763655
 20
-6.097428267716535
 30
0
 11
7.762747204724409
 21
-6.09775937007874
 31
0
  0
LINE
  5
170
330
24
100
AcDbEntity
  8
Edge.Cuts
  6
CONTINUOUS
100
AcDbLine
 10
7.7645586614173228
 20
-2.1706304724409446
 30
0
 11
7.7654580314960624
 21
-2.1709837795275591
 31
0
  0
LINE
  5
171
330
24
100
AcDbEntity
  8
Edge.Cuts
  6
CONTINUOUS
100
AcDbLine
 10
7.7645586614173228
 20
-6.0970860629921262
 30
0
 11
7.763655
 21
-6.097428267716535
 31
0
  0
LINE
  5
172
330
24
100
AcDbEntity
  8
Edge.Cuts
  6
CONTINUOUS
100
AcDbLine
 10
7.7654580314960624
 20
-2.1709837795275591
 30
0
 11
7.7663529921259844
 21
-2.1713480708661419
 31
0
  0
LINE
  5
173
330
24
100
AcDbEntity
  8
Edge.Cuts
  6
CONTINUOUS
100
AcDbLine
 10
7.7654580314960624
 20
-6.0967327559055118
 30
0
 11
7.7645586614173228
 21
-6.0970860629921262
 31
0
  0
LINE
  5
174
330
24
100
AcDbEntity
  8
Edge.Cuts
  6
CONTINUOUS
100
AcDbLine
 10
7.7663529921259844
 20
-2.1713480708661419
 30
0
 11
7.7672434645669286
 21
-2.171723307086614
 31
0
  0
LINE
  5
175
330
24
100
AcDbEntity
  8
Edge.Cuts
  6
CONTINUOUS
100
AcDbLine
 10
7.7663529921259844
 20
-6.0963684645669289
 30
0
 11
7.7654580314960624
 21
-6.0967327559055118
 31
0
  0
LINE
  5
176
330
24
100
AcDbEntity
  8
Edge.Cuts
  6
CONTINUOUS
100
AcDbLine
 10
7.7672434645669286
 20
-2.171723307086614
 30
0
 11
7.7681292125984251
 21
-2.1721094488188974
 31
0
  0
LINE
  5
177
330
24
100
AcDbEntity
  8
Edge.Cuts
  6
CONTINUOUS
100
AcDbLine
 10
7.7672434645669286
 20
-6.0959932283464564
 30
0
 11
7.7663529921259844
 21
-6.0963684645669289
 31
0
  0
LINE
  5
178
330
24
100
AcDbEntity
  8
Edge.Cuts
  6
CONTINUOUS
100
AcDbLine
 10
7.7681292125984251
 20
-2.1721094488188974
 30
0
 11
7.7690101968503935
 21
-2.1725064566929135
 31
0
  0
LINE
  5
179
330
24
100
AcDbEntity
  8
Edge.Cuts
  6
CONTINUOUS
100
AcDbLine
 10
7.7681292125984251
 20
-6.0956070866141729
 30
0
 11
7.7672434645669286
 21
-6.0959932283464564
 31
0
  0
LINE
  5
17A
330
24
100
AcDbEntity
  8
Edge.Cuts
  6
CONTINUOUS
100
AcDbLine
 10
7.7690101968503935
 20
-2.1725064566929135
 30
0
 11
7.7698862204724408
 21
-2.1729142125984251
 31
0
  0
LINE
  5
17B
330
24
100
AcDbEntity
  8
Edge.Cuts
  6
CONTINUOUS
100
AcDbLine
 10
7.7690101968503935
 20
-6.0952100787401573
 30
0
 11
7.7681292125984251
 21
-6.0956070866141729
 31
0
  0
LINE
  5
17C
330
24
100
AcDbEntity
  8
Edge.Cuts
  6
CONTINUOUS
100
AcDbLine
 10
7.7698862204724408
 20
-2.1729142125984251
 30
0
 11
7.7707571653543308
 21
-2.173332716535433
 31
0
  0
LINE
  5
17D
330
24
100
AcDbEntity
  8
Edge.Cuts
  6
CONTINUOUS
100
AcDbLine
 10
7.7698862204724408
 20
-6.0948023228346457
 30
0
 11
7.7690101968503935
 21
-6.0952100787401573
 31
0
  0
LINE
  5
17E
330
24
100
AcDbEntity
  8
Edge.Cuts
  6
CONTINUOUS
100
AcDbLine
 10
7.7707571653543308
 20
-2.173332716535433
 30
0
 11
7.7716229133858263
 21
-2.1737618503937006
 31
0
  0
LINE
  5
17F
330
24
100
AcDbEntity
  8
Edge.Cuts
  6
CONTINUOUS
100
AcDbLine
 10
7.7707571653543308
 20
-6.0943838188976374
 30
0
 11
7.7698862204724408
 21
-6.0948023228346457
 31
0
  0
LINE
  5
180
330
24
100
AcDbEntity
  8
Edge.Cuts
  6
CONTINUOUS
100
AcDbLine
 10
7.7716229133858263
 20
-2.1737618503937006
 30
0
 11
7.7724833464566929
 21
-2.1742016141732283
 31
0
  0
LINE
  5
181
330
24
100
AcDbEntity
  8
Edge.Cuts
  6
CONTINUOUS
100
AcDbLine
 10
7.7716229133858263
 20
-6.0939546850393702
 30
0
 11
7.7707571653543308
 21
-6.0943838188976374
 31
0
  0
LINE
  5
182
330
24
100
AcDbEntity
  8
Edge.Cuts
  6
CONTINUOUS
100
AcDbLine
 10
7.7724833464566929
 20
-2.1742016141732283
 30
0
 11
7.7733383070866138
 21
-2.1746518503937007
 31
0
  0
LINE
  5
183
330
24
100
AcDbEntity
  8
Edge.Cuts
  6
CONTINUOUS
100
AcDbLine
 10
7.7724833464566929
 20
-6.0935149212598425
 30
0
 11
7.7716229133858263
 21
-6.0939546850393702
 31
0
  0
LINE
  5
184
330
24
100
AcDbEntity
  8
Edge.Cuts
  6
CONTINUOUS
100
AcDbLine
 10
7.7733383070866138
 20
-2.1746518503937007
 30
0
 11
7.7741876771653544
 21
-2.1751125984251969
 31
0
  0
LINE
  5
185
330
24
100
AcDbEntity
  8
Edge.Cuts
  6
CONTINUOUS
100
AcDbLine
 10
7.7733383070866138
 20
-6.0930646850393702
 30
0
 11
7.7724833464566929
 21
-6.0935149212598425
 31
0
  0
LINE
  5
186
330
24
100
AcDbEntity
  8
Edge.Cuts
  6
CONTINUOUS
100
AcDbLine
 10
7.7741876771653544
 20
-2.1751125984251969
 30
0
 11
7.7750313385826768
 21
-2.1755837007874015
 31
0
  0
LINE
  5
187
330
24
100
AcDbEntity
  8
Edge.Cuts
  6
CONTINUOUS
100
AcDbLine
 10
7.7741876771653544
 20
-6.0926039370078735
 30
0
 11
7.7733383070866138
 21
-6.0930646850393702
 31
0
  0
LINE
  5
188
330
24
100
AcDbEntity
  8
Edge.Cuts
  6
CONTINUOUS
100
AcDbLine
 10
7.7750313385826768
 20
-2.1755837007874015
 30
0
 11
7.7758691338582677
 21
-2.1760651181102362
 31
0
  0
LINE
  5
189
330
24
100
AcDbEntity
  8
Edge.Cuts
  6
CONTINUOUS
100
AcDbLine
 10
7.7750313385826768
 20
-6.0921328346456693
 30
0
 11
7.7741876771653544
 21
-6.0926039370078735
 31
0
  0
LINE
  5
18A
330
24
100
AcDbEntity
  8
Edge.Cuts
  6
CONTINUOUS
100
AcDbLine
 10
7.7758691338582677
 20
-2.1760651181102362
 30
0
 11
7.7767009842519688
 21
-2.1765568110236222
 31
0
  0
LINE
  5
18B
330
24
100
AcDbEntity
  8
Edge.Cuts
  6
CONTINUOUS
100
AcDbLine
 10
7.7758691338582677
 20
-6.0916514173228347
 30
0
 11
7.7750313385826768
 21
-6.0921328346456693
 31
0
  0
LINE
  5
18C
330
24
100
AcDbEntity
  8
Edge.Cuts
  6
CONTINUOUS
100
AcDbLine
 10
7.7767009842519688
 20
-2.1765568110236222
 30
0
 11
7.777526732283464
 21
-2.1770586614173228
 31
0
  0
LINE
  5
18D
330
24
100
AcDbEntity
  8
Edge.Cuts
  6
CONTINUOUS
100
AcDbLine
 10
7.7767009842519688
 20
-6.0911597244094491
 30
0
 11
7.7758691338582677
 21
-6.0916514173228347
 31
0
  0
LINE
  5
18E
330
24
100
AcDbEntity
  8
Edge.Cuts
  6
CONTINUOUS
100
AcDbLine
 10
7.777526732283464
 20
-2.1770586614173228
 30
0
 11
7.7783462598425199
 21
-2.1775705905511811
 31
0
  0
LINE
  5
18F
330
24
100
AcDbEntity
  8
Edge.Cuts
  6
CONTINUOUS
100
AcDbLine
 10
7.777526732283464
 20
-6.090657874015748
 30
0
 11
7.7767009842519688
 21
-6.0911597244094491
 31
0
  0
LINE
  5
190
330
24
100
AcDbEntity
  8
Edge.Cuts
  6
CONTINUOUS
100
AcDbLine
 10
7.7783462598425199
 20
-2.1775705905511811
 30
0
 11
7.7791594488188975
 21
-2.1780925590551181
 31
0
  0
LINE
  5
191
330
24
100
AcDbEntity
  8
Edge.Cuts
  6
CONTINUOUS
100
AcDbLine
 10
7.7783462598425199
 20
-6.0901459448818898
 30
0
 11
7.777526732283464
 21
-6.090657874015748
 31
0
  0
LINE
  5
192
330
24
100
AcDbEntity
  8
Edge.Cuts
  6
CONTINUOUS
100
AcDbLine
 10
7.7791594488188975
 20
-2.1780925590551181
 30
0
 11
7.7799661417322836
 21
-2.1786244488188977
 31
0
  0
LINE
  5
193
330
24
100
AcDbEntity
  8
Edge.Cuts
  6
CONTINUOUS
100
AcDbLine
 10
7.7791594488188975
 20
-6.0896239763779523
 30
0
 11
7.7783462598425199
 21
-6.0901459448818898
 31
0
  0
LINE
  5
194
330
24
100
AcDbEntity
  8
Edge.Cuts
  6
CONTINUOUS
100
AcDbLine
 10
7.7799661417322836
 20
-2.1786244488188977
 30
0
 11
7.7807662598425198
 21
-2.1791661811023624
 31
0
  0
LINE
  5
195
330
24
100
AcDbEntity
  8
Edge.Cuts
  6
CONTINUOUS
100
AcDbLine
 10
7.7799661417322836
 20
-6.0890920866141727
 30
0
 11
7.7791594488188975
 21
-6.0896239763779523
 31
0
  0
LINE
  5
196
330
24
100
AcDbEntity
  8
Edge.Cuts
  6
CONTINUOUS
100
AcDbLine
 10
7.7807662598425198
 20
-2.1791661811023624
 30
0
 11
7.7815596850393698
 21
-2.1797177165354329
 31
0
  0
LINE
  5
197
330
24
100
AcDbEntity
  8
Edge.Cuts
  6
CONTINUOUS
100
AcDbLine
 10
7.7807662598425198
 20
-6.0885503543307085
 30
0
 11
7.7799661417322836
 21
-6.0890920866141727
 31
0
  0
LINE
  5
198
330
24
100
AcDbEntity
  8
Edge.Cuts
  6
CONTINUOUS
100
AcDbLine
 10
7.7815596850393698
 20
-2.1797177165354329
 30
0
 11
7.7823462598425195
 21
-2.1802789763779526
 31
0
  0
LINE
  5
199
330
24
100
AcDbEntity
  8
Edge.Cuts
  6
CONTINUOUS
100
AcDbLine
 10
7.7815596850393698
 20
-6.0879988188976375
 30
0
 11
7.7807662598425198
 21
-6.0885503543307085
 31
0
  0
LINE
  5
19A
330
24
100
AcDbEntity
  8
Edge.Cuts
  6
CONTINUOUS
100
AcDbLine
 10
7.7823462598425195
 20
-2.1802789763779526
 30
0
 11
7.7831259055118105
 21
-2.1808498031496062
 31
0
  0
LINE
  5
19B
330
24
100
AcDbEntity
  8
Edge.Cuts
  6
CONTINUOUS
100
AcDbLine
 10
7.7823462598425195
 20
-6.0874375590551182
 30
0
 11
7.7815596850393698
 21
-6.0879988188976375
 31
0
  0
LINE
  5
19C
330
24
100
AcDbEntity
  8
Edge.Cuts
  6
CONTINUOUS
100
AcDbLine
 10
7.7831259055118105
 20
-2.1808498031496062
 30
0
 11
7.7838985039370074
 21
-2.1814301574803148
 31
0
  0
LINE
  5
19D
330
24
100
AcDbEntity
  8
Edge.Cuts
  6
CONTINUOUS
100
AcDbLine
 10
7.7831259055118105
 20
-6.0868667322834646
 30
0
 11
7.7823462598425195
 21
-6.0874375590551182
 31
0
  0
LINE
  5
19E
330
24
100
AcDbEntity
  8
Edge.Cuts
  6
CONTINUOUS
100
AcDbLine
 10
7.7838985039370074
 20
-2.1814301574803148
 30
0
 11
7.7846638976377953
 21
-2.1820199606299213
 31
0
  0
LINE
  5
19F
330
24
100
AcDbEntity
  8
Edge.Cuts
  6
CONTINUOUS
100
AcDbLine
 10
7.7838985039370074
 20
-6.0862863779527556
 30
0
 11
7.7831259055118105
 21
-6.0868667322834646
 31
0
  0
LINE
  5
1A0
330
24
100
AcDbEntity
  8
Edge.Cuts
  6
CONTINUOUS
100
AcDbLine
 10
7.7846638976377953
 20
-2.1820199606299213
 30
0
 11
7.7854220078740157
 21
-2.1826191338582674
 31
0
  0
LINE
  5
1A1
330
24
100
AcDbEntity
  8
Edge.Cuts
  6
CONTINUOUS
100
AcDbLine
 10
7.7846638976377953
 20
-6.0856965748031495
 30
0
 11
7.7838985039370074
 21
-6.0862863779527556
 31
0
  0
LINE
  5
1A2
330
24
100
AcDbEntity
  8
Edge.Cuts
  6
CONTINUOUS
100
AcDbLine
 10
7.7854220078740157
 20
-2.1826191338582674
 30
0
 11
7.7861726771653545
 21
-2.1832275196850395
 31
0
  0
LINE
  5
1A3
330
24
100
AcDbEntity
  8
Edge.Cuts
  6
CONTINUOUS
100
AcDbLine
 10
7.7854220078740157
 20
-6.0850974015748029
 30
0
 11
7.7846638976377953
 21
-6.0856965748031495
 31
0
  0
LINE
  5
1A4
330
24
100
AcDbEntity
  8
Edge.Cuts
  6
CONTINUOUS
100
AcDbLine
 10
7.7861726771653545
 20
-2.1832275196850395
 30
0
 11
7.7869158661417321
 21
-2.1838450787401573
 31
0
  0
LINE
  5
1A5
330
24
100
AcDbEntity
  8
Edge.Cuts
  6
CONTINUOUS
100
AcDbLine
 10
7.7861726771653545
 20
-6.0844890157480309
 30
0
 11
7.7854220078740157
 21
-6.0850974015748029
 31
0
  0
LINE
  5
1A6
330
24
100
AcDbEntity
  8
Edge.Cuts
  6
CONTINUOUS
100
AcDbLine
 10
7.7869158661417321
 20
-2.1838450787401573
 30
0
 11
7.7876513779527556
 21
-2.1844717322834644
 31
0
  0
LINE
  5
1A7
330
24
100
AcDbEntity
  8
Edge.Cuts
  6
CONTINUOUS
100
AcDbLine
 10
7.7869158661417321
 20
-6.0838714566929131
 30
0
 11
7.7861726771653545
 21
-6.0844890157480309
 31
0
  0
LINE
  5
1A8
330
24
100
AcDbEntity
  8
Edge.Cuts
  6
CONTINUOUS
100
AcDbLine
 10
7.7876513779527556
 20
-2.1844717322834644
 30
0
 11
7.7883791732283463
 21
-2.1851073622047243
 31
0
  0
LINE
  5
1A9
330
24
100
AcDbEntity
  8
Edge.Cuts
  6
CONTINUOUS
100
AcDbLine
 10
7.7876513779527556
 20
-6.083244803149606
 30
0
 11
7.7869158661417321
 21
-6.0838714566929131
 31
0
  0
LINE
  5
1AA
330
24
100
AcDbEntity
  8
Edge.Cuts
  6
CONTINUOUS
100
AcDbLine
 10
7.7883791732283463
 20
-2.1851073622047243
 30
0
 11
7.789099094488189
 21
-2.1857518897637793
 31
0
  0
LINE
  5
1AB
330
24
100
AcDbEntity
  8
Edge.Cuts
  6
CONTINUOUS
100
AcDbLine
 10
7.7883791732283463
 20
-6.082609173228346
 30
0
 11
7.7876513779527556
 21
-6.083244803149606
 31
0
  0
LINE
  5
1AC
330
24
100
AcDbEntity
  8
Edge.Cuts
  6
CONTINUOUS
100
AcDbLine
 10
7.789099094488189
 20
-2.1857518897637793
 30
0
 11
7.7898111023622043
 21
-2.1864051574803147
 31
0
  0
LINE
  5
1AD
330
24
100
AcDbEntity
  8
Edge.Cuts
  6
CONTINUOUS
100
AcDbLine
 10
7.789099094488189
 20
-6.0819646456692915
 30
0
 11
7.7883791732283463
 21
-6.082609173228346
 31
0
  0
LINE
  5
1AE
330
24
100
AcDbEntity
  8
Edge.Cuts
  6
CONTINUOUS
100
AcDbLine
 10
7.7898111023622043
 20
-2.1864051574803147
 30
0
 11
7.7905150000000001
 21
-2.1870671653543305
 31
0
  0
LINE
  5
1AF
330
24
100
AcDbEntity
  8
Edge.Cuts
  6
CONTINUOUS
100
AcDbLine
 10
7.7898111023622043
 20
-6.0813113779527557
 30
0
 11
7.789099094488189
 21
-6.0819646456692915
 31
0
  0
LINE
  5
1B0
330
24
100
AcDbEntity
  8
Edge.Cuts
  6
CONTINUOUS
100
AcDbLine
 10
7.7905150000000001
 20
-2.1870671653543305
 30
0
 11
7.7912107086614171
 21
-2.187737716535433
 31
0
  0
LINE
  5
1B1
330
24
100
AcDbEntity
  8
Edge.Cuts
  6
CONTINUOUS
100
AcDbLine
 10
7.7905150000000001
 20
-6.0806493700787403
 30
0
 11
7.7898111023622043
 21
-6.0813113779527557
 31
0
  0
LINE
  5
1B2
330
24
100
AcDbEntity
  8
Edge.Cuts
  6
CONTINUOUS
100
AcDbLine
 10
7.7912107086614171
 20
-2.187737716535433
 30
0
 11
7.7918981496062987
 21
-2.1884167716535434
 31
0
  0
LINE
  5
1B3
330
24
100
AcDbEntity
  8
Edge.Cuts
  6
CONTINUOUS
100
AcDbLine
 10
7.7912107086614171
 20
-6.0799788188976374
 30
0
 11
7.7905150000000001
 21
-6.0806493700787403
 31
0
  0
LINE
  5
1B4
330
24
100
AcDbEntity
  8
Edge.Cuts
  6
CONTINUOUS
100
AcDbLine
 10
7.7918981496062987
 20
-2.1884167716535434
 30
0
 11
7.7925772047244095
 21
-2.1891042519685038
 31
0
  0
LINE
  5
1B5
330
24
100
AcDbEntity
  8
Edge.Cuts
  6
CONTINUOUS
100
AcDbLine
 10
7.7918981496062987
 20
-6.0792997637795274
 30
0
 11
7.7912107086614171
 21
-6.0799788188976374
 31
0
  0
LINE
  5
1B6
330
24
100
AcDbEntity
  8
Edge.Cuts
  6
CONTINUOUS
100
AcDbLine
 10
7.7925772047244095
 20
-2.1891042519685038
 30
0
 11
7.7932477952755903
 21
-2.1897999606299212
 31
0
  0
LINE
  5
1B7
330
24
100
AcDbEntity
  8
Edge.Cuts
  6
CONTINUOUS
100
AcDbLine
 10
7.7925772047244095
 20
-6.0786122834645671
 30
0
 11
7.7918981496062987
 21
-6.0792997637795274
 31
0
  0
LINE
  5
1B8
330
24
100
AcDbEntity
  8
Edge.Cuts
  6
CONTINUOUS
100
AcDbLine
 10
7.7932477952755903
 20
-2.1897999606299212
 30
0
 11
7.7939097637795278
 21
-2.1905038582677165
 31
0
  0
LINE
  5
1B9
330
24
100
AcDbEntity
  8
Edge.Cuts
  6
CONTINUOUS
100
AcDbLine
 10
7.7932477952755903
 20
-6.0779165748031492
 30
0
 11
7.7925772047244095
 21
-6.0786122834645671
 31
0
  0
LINE
  5
1BA
330
24
100
AcDbEntity
  8
Edge.Cuts
  6
CONTINUOUS
100
AcDbLine
 10
7.7939097637795278
 20
-2.1905038582677165
 30
0
 11
7.7945630708661415
 21
-2.1912158267716535
 31
0
  0
LINE
  5
1BB
330
24
100
AcDbEntity
  8
Edge.Cuts
  6
CONTINUOUS
100
AcDbLine
 10
7.7939097637795278
 20
-6.0772126771653543
 30
0
 11
7.7932477952755903
 21
-6.0779165748031492
 31
0
  0
LINE
  5
1BC
330
24
100
AcDbEntity
  8
Edge.Cuts
  6
CONTINUOUS
100
AcDbLine
 10
7.7945630708661415
 20
-2.1912158267716535
 30
0
 11
7.7952075590551182
 21
-2.1919357480314958
 31
0
  0
LINE
  5
1BD
330
24
100
AcDbEntity
  8
Edge.Cuts
  6
CONTINUOUS
100
AcDbLine
 10
7.7945630708661415
 20
-6.0765007086614169
 30
0
 11
7.7939097637795278
 21
-6.0772126771653543
 31
0
  0
LINE
  5
1BE
330
24
100
AcDbEntity
  8
Edge.Cuts
  6
CONTINUOUS
100
AcDbLine
 10
7.7952075590551182
 20
-2.1919357480314958
 30
0
 11
7.7958431889763782
 21
-2.1926635433070865
 31
0
  0
LINE
  5
1BF
330
24
100
AcDbEntity
  8
Edge.Cuts
  6
CONTINUOUS
100
AcDbLine
 10
7.7952075590551182
 20
-6.075780787401575
 30
0
 11
7.7945630708661415
 21
-6.0765007086614169
 31
0
  0
LINE
  5
1C0
330
24
100
AcDbEntity
  8
Edge.Cuts
  6
CONTINUOUS
100
AcDbLine
 10
7.7958431889763782
 20
-2.1926635433070865
 30
0
 11
7.7964698425196852
 21
-2.1933990944881887
 31
0
  0
LINE
  5
1C1
330
24
100
AcDbEntity
  8
Edge.Cuts
  6
CONTINUOUS
100
AcDbLine
 10
7.7958431889763782
 20
-6.0750529921259844
 30
0
 11
7.7952075590551182
 21
-6.075780787401575
 31
0
  0
LINE
  5
1C2
330
24
100
AcDbEntity
  8
Edge.Cuts
  6
CONTINUOUS
100
AcDbLine
 10
7.7964698425196852
 20
-2.1933990944881887
 30
0
 11
7.7970874015748031
 21
-2.194142244094488
 31
0
  0
LINE
  5
1C3
330
24
100
AcDbEntity
  8
Edge.Cuts
  6
CONTINUOUS
100
AcDbLine
 10
7.7964698425196852
 20
-6.0743174409448821
 30
0
 11
7.7958431889763782
 21
-6.0750529921259844
 31
0
  0
LINE
  5
1C4
330
24
100
AcDbEntity
  8
Edge.Cuts
  6
CONTINUOUS
100
AcDbLine
 10
7.7970874015748031
 20
-2.194142244094488
 30
0
 11
7.797695826771653
 21
-2.1948929527559056
 31
0
  0
LINE
  5
1C5
330
24
100
AcDbEntity
  8
Edge.Cuts
  6
CONTINUOUS
100
AcDbLine
 10
7.7970874015748031
 20
-6.0735742913385824
 30
0
 11
7.7964698425196852
 21
-6.0743174409448821
 31
0
  0
LINE
  5
1C6
330
24
100
AcDbEntity
  8
Edge.Cuts
  6
CONTINUOUS
100
AcDbLine
 10
7.797695826771653
 20
-2.1948929527559056
 30
0
 11
7.7982949606299208
 21
-2.195651062992126
 31
0
  0
LINE
  5
1C7
330
24
100
AcDbEntity
  8
Edge.Cuts
  6
CONTINUOUS
100
AcDbLine
 10
7.797695826771653
 20
-6.0728235826771648
 30
0
 11
7.7970874015748031
 21
-6.0735742913385824
 31
0
  0
LINE
  5
1C8
330
24
100
AcDbEntity
  8
Edge.Cuts
  6
CONTINUOUS
100
AcDbLine
 10
7.7982949606299208
 20
-2.195651062992126
 30
0
 11
7.7988847637795278
 21
-2.1964164566929134
 31
0
  0
LINE
  5
1C9
330
24
100
AcDbEntity
  8
Edge.Cuts
  6
CONTINUOUS
100
AcDbLine
 10
7.7982949606299208
 20
-6.0720654724409444
 30
0
 11
7.797695826771653
 21
-6.0728235826771648
 31
0
  0
LINE
  5
1CA
330
24
100
AcDbEntity
  8
Edge.Cuts
  6
CONTINUOUS
100
AcDbLine
 10
7.7988847637795278
 20
-2.1964164566929134
 30
0
 11
7.7994651574803147
 21
-2.1971890157480316
 31
0
  0
LINE
  5
1CB
330
24
100
AcDbEntity
  8
Edge.Cuts
  6
CONTINUOUS
100
AcDbLine
 10
7.7988847637795278
 20
-6.0713000787401574
 30
0
 11
7.7982949606299208
 21
-6.0720654724409444
 31
0
  0
LINE
  5
1CC
330
24
100
AcDbEntity
  8
Edge.Cuts
  6
CONTINUOUS
100
AcDbLine
 10
7.7994651574803147
 20
-2.1971890157480316
 30
0
 11
7.8000359842519682
 21
-2.1979686614173226
 31
0
  0
LINE
  5
1CD
330
24
100
AcDbEntity
  8
Edge.Cuts
  6
CONTINUOUS
100
AcDbLine
 10
7.7994651574803147
 20
-6.0705275196850392
 30
0
 11
7.7988847637795278
 21
-6.0713000787401574
 31
0
  0
LINE
  5
1CE
330
24
100
AcDbEntity
  8
Edge.Cuts
  6
CONTINUOUS
100
AcDbLine
 10
7.8000359842519682
 20
-2.1979686614173226
 30
0
 11
7.8005972047244097
 21
-2.1987552755905511
 31
0
  0
LINE
  5
1CF
330
24
100
AcDbEntity
  8
Edge.Cuts
  6
CONTINUOUS
100
AcDbLine
 10
7.8000359842519682
 20
-6.0697478740157482
 30
0
 11
7.7994651574803147
 21
-6.0705275196850392
 31
0
  0
LINE
  5
1D0
330
24
100
AcDbEntity
  8
Edge.Cuts
  6
CONTINUOUS
100
AcDbLine
 10
7.8005972047244097
 20
-2.1987552755905511
 30
0
 11
7.8011487401574797
 21
-2.1995486614173227
 31
0
  0
LINE
  5
1D1
330
24
100
AcDbEntity
  8
Edge.Cuts
  6
CONTINUOUS
100
AcDbLine
 10
7.8005972047244097
 20
-6.0689612598425198
 30
0
 11
7.8000359842519682
 21
-6.0697478740157482
 31
0
  0
LINE
  5
1D2
330
24
100
AcDbEntity
  8
Edge.Cuts
  6
CONTINUOUS
100
AcDbLine
 10
7.8011487401574797
 20
-2.1995486614173227
 30
0
 11
7.8016905118110236
 21
-2.2003488188976377
 31
0
  0
LINE
  5
1D3
330
24
100
AcDbEntity
  8
Edge.Cuts
  6
CONTINUOUS
100
AcDbLine
 10
7.8011487401574797
 20
-6.0681678740157476
 30
0
 11
7.8005972047244097
 21
-6.0689612598425198
 31
0
  0
LINE
  5
1D4
330
24
100
AcDbEntity
  8
Edge.Cuts
  6
CONTINUOUS
100
AcDbLine
 10
7.8016905118110236
 20
-2.2003488188976377
 30
0
 11
7.8022224015748032
 21
-2.2011555118110238
 31
0
  0
LINE
  5
1D5
330
24
100
AcDbEntity
  8
Edge.Cuts
  6
CONTINUOUS
100
AcDbLine
 10
7.8016905118110236
 20
-6.0673677165354327
 30
0
 11
7.8011487401574797
 21
-6.0681678740157476
 31
0
  0
LINE
  5
1D6
330
24
100
AcDbEntity
  8
Edge.Cuts
  6
CONTINUOUS
100
AcDbLine
 10
7.8022224015748032
 20
-2.2011555118110238
 30
0
 11
7.8027443700787398
 21
-2.2019687007874014
 31
0
  0
LINE
  5
1D7
330
24
100
AcDbEntity
  8
Edge.Cuts
  6
CONTINUOUS
100
AcDbLine
 10
7.8022224015748032
 20
-6.0665610236220475
 30
0
 11
7.8016905118110236
 21
-6.0673677165354327
 31
0
  0
LINE
  5
1D8
330
24
100
AcDbEntity
  8
Edge.Cuts
  6
CONTINUOUS
100
AcDbLine
 10
7.8027443700787398
 20
-2.2019687007874014
 30
0
 11
7.803256299212598
 21
-2.2027882283464568
 31
0
  0
LINE
  5
1D9
330
24
100
AcDbEntity
  8
Edge.Cuts
  6
CONTINUOUS
100
AcDbLine
 10
7.8027443700787398
 20
-6.065747834645669
 30
0
 11
7.8022224015748032
 21
-6.0665610236220475
 31
0
  0
LINE
  5
1DA
330
24
100
AcDbEntity
  8
Edge.Cuts
  6
CONTINUOUS
100
AcDbLine
 10
7.803256299212598
 20
-2.2027882283464568
 30
0
 11
7.8037581496062991
 21
-2.2036139763779525
 31
0
  0
LINE
  5
1DB
330
24
100
AcDbEntity
  8
Edge.Cuts
  6
CONTINUOUS
100
AcDbLine
 10
7.803256299212598
 20
-6.064928307086614
 30
0
 11
7.8027443700787398
 21
-6.065747834645669
 31
0
  0
LINE
  5
1DC
330
24
100
AcDbEntity
  8
Edge.Cuts
  6
CONTINUOUS
100
AcDbLine
 10
7.8037581496062991
 20
-2.2036139763779525
 30
0
 11
7.8042498031496059
 21
-2.2044457874015748
 31
0
  0
LINE
  5
1DD
330
24
100
AcDbEntity
  8
Edge.Cuts
  6
CONTINUOUS
100
AcDbLine
 10
7.8037581496062991
 20
-6.0641025590551179
 30
0
 11
7.803256299212598
 21
-6.064928307086614
 31
0
  0
LINE
  5
1DE
330
24
100
AcDbEntity
  8
Edge.Cuts
  6
CONTINUOUS
100
AcDbLine
 10
7.8042498031496059
 20
-2.2044457874015748
 30
0
 11
7.8047312598425194
 21
-2.205283622047244
 31
0
  0
LINE
  5
1DF
330
24
100
AcDbEntity
  8
Edge.Cuts
  6
CONTINUOUS
100
AcDbLine
 10
7.8042498031496059
 20
-6.0632707480314956
 30
0
 11
7.8037581496062991
 21
-6.0641025590551179
 31
0
  0
LINE
  5
1E0
330
24
100
AcDbEntity
  8
Edge.Cuts
  6
CONTINUOUS
100
AcDbLine
 10
7.8047312598425194
 20
-2.205283622047244
 30
0
 11
7.8052023622047244
 21
-2.2061272440944881
 31
0
  0
LINE
  5
1E1
330
24
100
AcDbEntity
  8
Edge.Cuts
  6
CONTINUOUS
100
AcDbLine
 10
7.8047312598425194
 20
-6.0624329133858268
 30
0
 11
7.8042498031496059
 21
-6.0632707480314956
 31
0
  0
LINE
  5
1E2
330
24
100
AcDbEntity
  8
Edge.Cuts
  6
CONTINUOUS
100
AcDbLine
 10
7.8052023622047244
 20
-2.2061272440944881
 30
0
 11
7.8056630708661414
 21
-2.2069766535433071
 31
0
  0
LINE
  5
1E3
330
24
100
AcDbEntity
  8
Edge.Cuts
  6
CONTINUOUS
100
AcDbLine
 10
7.8052023622047244
 20
-6.0615892913385823
 30
0
 11
7.8047312598425194
 21
-6.0624329133858268
 31
0
  0
LINE
  5
1E4
330
24
100
AcDbEntity
  8
Edge.Cuts
  6
CONTINUOUS
100
AcDbLine
 10
7.8056630708661414
 20
-2.2069766535433071
 30
0
 11
7.8061133464566925
 21
-2.2078316141732284
 31
0
  0
LINE
  5
1E5
330
24
100
AcDbEntity
  8
Edge.Cuts
  6
CONTINUOUS
100
AcDbLine
 10
7.8056630708661414
 20
-6.0607398818897638
 30
0
 11
7.8052023622047244
 21
-6.0615892913385823
 31
0
  0
LINE
  5
1E6
330
24
100
AcDbEntity
  8
Edge.Cuts
  6
CONTINUOUS
100
AcDbLine
 10
7.8061133464566925
 20
-2.2078316141732284
 30
0
 11
7.8065530708661415
 21
-2.2086920078740158
 31
0
  0
LINE
  5
1E7
330
24
100
AcDbEntity
  8
Edge.Cuts
  6
CONTINUOUS
100
AcDbLine
 10
7.8061133464566925
 20
-6.059884921259842
 30
0
 11
7.8056630708661414
 21
-6.0607398818897638
 31
0
  0
LINE
  5
1E8
330
24
100
AcDbEntity
  8
Edge.Cuts
  6
CONTINUOUS
100
AcDbLine
 10
7.8065530708661415
 20
-2.2086920078740158
 30
0
 11
7.8069822047244095
 21
-2.2095577952755905
 31
0
  0
LINE
  5
1E9
330
24
100
AcDbEntity
  8
Edge.Cuts
  6
CONTINUOUS
100
AcDbLine
 10
7.8065530708661415
 20
-6.0590245275590551
 30
0
 11
7.8061133464566925
 21
-6.059884921259842
 31
0
  0
LINE
  5
1EA
330
24
100
AcDbEntity
  8
Edge.Cuts
  6
CONTINUOUS
100
AcDbLine
 10
7.8069822047244095
 20
-2.2095577952755905
 30
0
 11
7.807400708661417
 21
-2.2104287401574805
 31
0
  0
LINE
  5
1EB
330
24
100
AcDbEntity
  8
Edge.Cuts
  6
CONTINUOUS
100
AcDbLine
 10
7.8069822047244095
 20
-6.0581587401574799
 30
0
 11
7.8065530708661415
 21
-6.0590245275590551
 31
0
  0
LINE
  5
1EC
330
24
100
AcDbEntity
  8
Edge.Cuts
  6
CONTINUOUS
100
AcDbLine
 10
7.807400708661417
 20
-2.2104287401574805
 30
0
 11
7.8078085039370073
 21
-2.2113047637795273
 31
0
  0
LINE
  5
1ED
330
24
100
AcDbEntity
  8
Edge.Cuts
  6
CONTINUOUS
100
AcDbLine
 10
7.807400708661417
 20
-6.0572877952755908
 30
0
 11
7.8069822047244095
 21
-6.0581587401574799
 31
0
  0
LINE
  5
1EE
330
24
100
AcDbEntity
  8
Edge.Cuts
  6
CONTINUOUS
100
AcDbLine
 10
7.8078085039370073
 20
-2.2113047637795273
 30
0
 11
7.8082054724409451
 21
-2.2121857086614174
 31
0
  0
LINE
  5
1EF
330
24
100
AcDbEntity
  8
Edge.Cuts
  6
CONTINUOUS
100
AcDbLine
 10
7.8078085039370073
 20
-6.0564117716535435
 30
0
 11
7.807400708661417
 21
-6.0572877952755908
 31
0
  0
LINE
  5
1F0
330
24
100
AcDbEntity
  8
Edge.Cuts
  6
CONTINUOUS
100
AcDbLine
 10
7.8082054724409451
 20
-2.2121857086614174
 30
0
 11
7.8085916141732286
 21
-2.2130714960629922
 31
0
  0
LINE
  5
1F1
330
24
100
AcDbEntity
  8
Edge.Cuts
  6
CONTINUOUS
100
AcDbLine
 10
7.8082054724409451
 20
-6.055530826771653
 30
0
 11
7.8078085039370073
 21
-6.0564117716535435
 31
0
  0
LINE
  5
1F2
330
24
100
AcDbEntity
  8
Edge.Cuts
  6
CONTINUOUS
100
AcDbLine
 10
7.8085916141732286
 20
-2.2130714960629922
 30
0
 11
7.808966889763779
 21
-2.2139619291338581
 31
0
  0
LINE
  5
1F3
330
24
100
AcDbEntity
  8
Edge.Cuts
  6
CONTINUOUS
100
AcDbLine
 10
7.8085916141732286
 20
-6.0546450393700786
 30
0
 11
7.8082054724409451
 21
-6.055530826771653
 31
0
  0
LINE
  5
1F4
330
24
100
AcDbEntity
  8
Edge.Cuts
  6
CONTINUOUS
100
AcDbLine
 10
7.808966889763779
 20
-2.2139619291338581
 30
0
 11
7.8093311811023618
 21
-2.214856929133858
 31
0
  0
LINE
  5
1F5
330
24
100
AcDbEntity
  8
Edge.Cuts
  6
CONTINUOUS
100
AcDbLine
 10
7.808966889763779
 20
-6.0537546062992122
 30
0
 11
7.8085916141732286
 21
-6.0546450393700786
 31
0
  0
LINE
  5
1F6
330
24
100
AcDbEntity
  8
Edge.Cuts
  6
CONTINUOUS
100
AcDbLine
 10
7.8093311811023618
 20
-2.214856929133858
 30
0
 11
7.8096844488188975
 21
-2.2157562992125985
 31
0
  0
LINE
  5
1F7
330
24
100
AcDbEntity
  8
Edge.Cuts
  6
CONTINUOUS
100
AcDbLine
 10
7.8093311811023618
 20
-6.0528596062992124
 30
0
 11
7.808966889763779
 21
-6.0537546062992122
 31
0
  0
LINE
  5
1F8
330
24
100
AcDbEntity
  8
Edge.Cuts
  6
CONTINUOUS
100
AcDbLine
 10
7.8096844488188975
 20
-2.2157562992125985
 30
0
 11
7.8100266929133859
 21
-2.2166599606299213
 31
0
  0
LINE
  5
1F9
330
24
100
AcDbEntity
  8
Edge.Cuts
  6
CONTINUOUS
100
AcDbLine
 10
7.8096844488188975
 20
-6.0519602362204727
 30
0
 11
7.8093311811023618
 21
-6.0528596062992124
 31
0
  0
LINE
  5
1FA
330
24
100
AcDbEntity
  8
Edge.Cuts
  6
CONTINUOUS
100
AcDbLine
 10
7.8100266929133859
 20
-2.2166599606299213
 30
0
 11
7.81035779527559
 21
-2.2175677165354331
 31
0
  0
LINE
  5
1FB
330
24
100
AcDbEntity
  8
Edge.Cuts
  6
CONTINUOUS
100
AcDbLine
 10
7.8100266929133859
 20
-6.0510565748031491
 30
0
 11
7.8096844488188975
 21
-6.0519602362204727
 31
0
  0
LINE
  5
1FC
330
24
100
AcDbEntity
  8
Edge.Cuts
  6
CONTINUOUS
100
AcDbLine
 10
7.81035779527559
 20
-2.2175677165354331
 30
0
 11
7.8106777165354329
 21
-2.2184794881889762
 31
0
  0
LINE
  5
1FD
330
24
100
AcDbEntity
  8
Edge.Cuts
  6
CONTINUOUS
100
AcDbLine
 10
7.81035779527559
 20
-6.0501488188976378
 30
0
 11
7.8100266929133859
 21
-6.0510565748031491
 31
0
  0
LINE
  5
1FE
330
24
100
AcDbEntity
  8
Edge.Cuts
  6
CONTINUOUS
100
AcDbLine
 10
7.8106777165354329
 20
-2.2184794881889762
 30
0
 11
7.8109864566929135
 21
-2.219395157480315
 31
0
  0
LINE
  5
1FF
330
24
100
AcDbEntity
  8
Edge.Cuts
  6
CONTINUOUS
100
AcDbLine
 10
7.8106777165354329
 20
-6.0492370472440946
 30
0
 11
7.81035779527559
 21
-6.0501488188976378
 31
0
  0
LINE
  5
200
330
24
100
AcDbEntity
  8
Edge.Cuts
  6
CONTINUOUS
100
AcDbLine
 10
7.8109864566929135
 20
-2.219395157480315
 30
0
 11
7.8112839370078735
 21
-2.2203144881889765
 31
0
  0
LINE
  5
201
330
24
100
AcDbEntity
  8
Edge.Cuts
  6
CONTINUOUS
100
AcDbLine
 10
7.8109864566929135
 20
-6.0483213779527558
 30
0
 11
7.8106777165354329
 21
-6.0492370472440946
 31
0
  0
LINE
  5
202
330
24
100
AcDbEntity
  8
Edge.Cuts
  6
CONTINUOUS
100
AcDbLine
 10
7.8112839370078735
 20
-2.2203144881889765
 30
0
 11
7.8115700787401572
 21
-2.2212374409448818
 31
0
  0
LINE
  5
203
330
24
100
AcDbEntity
  8
Edge.Cuts
  6
CONTINUOUS
100
AcDbLine
 10
7.8112839370078735
 20
-6.0474020472440939
 30
0
 11
7.8109864566929135
 21
-6.0483213779527558
 31
0
  0
LINE
  5
204
330
24
100
AcDbEntity
  8
Edge.Cuts
  6
CONTINUOUS
100
AcDbLine
 10
7.8115700787401572
 20
-2.2212374409448818
 30
0
 11
7.8118449212598424
 21
-2.2221638188976378
 31
0
  0
LINE
  5
205
330
24
100
AcDbEntity
  8
Edge.Cuts
  6
CONTINUOUS
100
AcDbLine
 10
7.8115700787401572
 20
-6.0464790944881885
 30
0
 11
7.8112839370078735
 21
-6.0474020472440939
 31
0
  0
LINE
  5
206
330
24
100
AcDbEntity
  8
Edge.Cuts
  6
CONTINUOUS
100
AcDbLine
 10
7.8118449212598424
 20
-2.2221638188976378
 30
0
 11
7.8121083464566929
 21
-2.2230934645669289
 31
0
  0
LINE
  5
207
330
24
100
AcDbEntity
  8
Edge.Cuts
  6
CONTINUOUS
100
AcDbLine
 10
7.8118449212598424
 20
-6.0455527165354326
 30
0
 11
7.8115700787401572
 21
-6.0464790944881885
 31
0
  0
LINE
  5
208
330
24
100
AcDbEntity
  8
Edge.Cuts
  6
CONTINUOUS
100
AcDbLine
 10
7.8121083464566929
 20
-2.2230934645669289
 30
0
 11
7.81236031496063
 21
-2.2240263385826773
 31
0
  0
LINE
  5
209
330
24
100
AcDbEntity
  8
Edge.Cuts
  6
CONTINUOUS
100
AcDbLine
 10
7.8121083464566929
 20
-6.0446230708661419
 30
0
 11
7.8118449212598424
 21
-6.0455527165354326
 31
0
  0
LINE
  5
20A
330
24
100
AcDbEntity
  8
Edge.Cuts
  6
CONTINUOUS
100
AcDbLine
 10
7.81236031496063
 20
-2.2240263385826773
 30
0
 11
7.8126008661417323
 21
-2.2249622047244095
 31
0
  0
LINE
  5
20B
330
24
100
AcDbEntity
  8
Edge.Cuts
  6
CONTINUOUS
100
AcDbLine
 10
7.81236031496063
 20
-6.0436901968503935
 30
0
 11
7.8121083464566929
 21
-6.0446230708661419
 31
0
  0
LINE
  5
20C
330
24
100
AcDbEntity
  8
Edge.Cuts
  6
CONTINUOUS
100
AcDbLine
 10
7.8126008661417323
 20
-2.2249622047244095
 30
0
 11
7.8128298818897637
 21
-2.2259009448818898
 31
0
  0
LINE
  5
20D
330
24
100
AcDbEntity
  8
Edge.Cuts
  6
CONTINUOUS
100
AcDbLine
 10
7.8126008661417323
 20
-6.0427543307086609
 30
0
 11
7.81236031496063
 21
-6.0436901968503935
 31
0
  0
LINE
  5
20E
330
24
100
AcDbEntity
  8
Edge.Cuts
  6
CONTINUOUS
100
AcDbLine
 10
7.8128298818897637
 20
-2.2259009448818898
 30
0
 11
7.8130474015748028
 21
-2.2268424409448819
 31
0
  0
LINE
  5
20F
330
24
100
AcDbEntity
  8
Edge.Cuts
  6
CONTINUOUS
100
AcDbLine
 10
7.8128298818897637
 20
-6.041815590551181
 30
0
 11
7.8126008661417323
 21
-6.0427543307086609
 31
0
  0
LINE
  5
210
330
24
100
AcDbEntity
  8
Edge.Cuts
  6
CONTINUOUS
100
AcDbLine
 10
7.8130474015748028
 20
-2.2268424409448819
 30
0
 11
7.8132533070866144
 21
-2.2277864960629921
 31
0
  0
LINE
  5
211
330
24
100
AcDbEntity
  8
Edge.Cuts
  6
CONTINUOUS
100
AcDbLine
 10
7.8130474015748028
 20
-6.0408740944881885
 30
0
 11
7.8128298818897637
 21
-6.041815590551181
 31
0
  0
LINE
  5
212
330
24
100
AcDbEntity
  8
Edge.Cuts
  6
CONTINUOUS
100
AcDbLine
 10
7.8132533070866144
 20
-2.2277864960629921
 30
0
 11
7.8134476377952753
 21
-2.2287330314960627
 31
0
  0
LINE
  5
213
330
24
100
AcDbEntity
  8
Edge.Cuts
  6
CONTINUOUS
100
AcDbLine
 10
7.8132533070866144
 20
-6.0399300393700788
 30
0
 11
7.8130474015748028
 21
-6.0408740944881885
 31
0
  0
LINE
  5
214
330
24
100
AcDbEntity
  8
Edge.Cuts
  6
CONTINUOUS
100
AcDbLine
 10
7.8134476377952753
 20
-2.2287330314960627
 30
0
 11
7.8136303543307086
 21
-2.2296818897637793
 31
0
  0
LINE
  5
215
330
24
100
AcDbEntity
  8
Edge.Cuts
  6
CONTINUOUS
100
AcDbLine
 10
7.8134476377952753
 20
-6.0389835039370077
 30
0
 11
7.8132533070866144
 21
-6.0399300393700788
 31
0
  0
LINE
  5
216
330
24
100
AcDbEntity
  8
Edge.Cuts
  6
CONTINUOUS
100
AcDbLine
 10
7.8136303543307086
 20
-2.2296818897637793
 30
0
 11
7.813801377952756
 21
-2.2306329133858269
 31
0
  0
LINE
  5
217
330
24
100
AcDbEntity
  8
Edge.Cuts
  6
CONTINUOUS
100
AcDbLine
 10
7.8136303543307086
 20
-6.038034645669291
 30
0
 11
7.8134476377952753
 21
-6.0389835039370077
 31
0
  0
LINE
  5
218
330
24
100
AcDbEntity
  8
Edge.Cuts
  6
CONTINUOUS
100
AcDbLine
 10
7.813801377952756
 20
-2.2306329133858269
 30
0
 11
7.8139607086614173
 21
-2.2315859842519683
 31
0
  0
LINE
  5
219
330
24
100
AcDbEntity
  8
Edge.Cuts
  6
CONTINUOUS
100
AcDbLine
 10
7.813801377952756
 20
-6.0370836220472439
 30
0
 11
7.8136303543307086
 21
-6.038034645669291
 31
0
  0
LINE
  5
21A
330
24
100
AcDbEntity
  8
Edge.Cuts
  6
CONTINUOUS
100
AcDbLine
 10
7.8139607086614173
 20
-2.2315859842519683
 30
0
 11
7.8141083858267715
 21
-2.2325409055118111
 31
0
  0
LINE
  5
21B
330
24
100
AcDbEntity
  8
Edge.Cuts
  6
CONTINUOUS
100
AcDbLine
 10
7.8139607086614173
 20
-6.0361305511811025
 30
0
 11
7.813801377952756
 21
-6.0370836220472439
 31
0
  0
LINE
  5
21C
330
24
100
AcDbEntity
  8
Edge.Cuts
  6
CONTINUOUS
100
AcDbLine
 10
7.8141083858267715
 20
-2.2325409055118111
 30
0
 11
7.8142442913385821
 21
-2.2334975984251968
 31
0
  0
LINE
  5
21D
330
24
100
AcDbEntity
  8
Edge.Cuts
  6
CONTINUOUS
100
AcDbLine
 10
7.8141083858267715
 20
-6.0351756299212598
 30
0
 11
7.8139607086614173
 21
-6.0361305511811025
 31
0
  0
LINE
  5
21E
330
24
100
AcDbEntity
  8
Edge.Cuts
  6
CONTINUOUS
100
AcDbLine
 10
7.8142442913385821
 20
-2.2334975984251968
 30
0
 11
7.8143684645669289
 21
-2.2344558661417322
 31
0
  0
LINE
  5
21F
330
24
100
AcDbEntity
  8
Edge.Cuts
  6
CONTINUOUS
100
AcDbLine
 10
7.8142442913385821
 20
-6.034218937007874
 30
0
 11
7.8141083858267715
 21
-6.0351756299212598
 31
0
  0
LINE
  5
220
330
24
100
AcDbEntity
  8
Edge.Cuts
  6
CONTINUOUS
100
AcDbLine
 10
7.8143684645669289
 20
-2.2344558661417322
 30
0
 11
7.8144808267716535
 21
-2.235415590551181
 31
0
  0
LINE
  5
221
330
24
100
AcDbEntity
  8
Edge.Cuts
  6
CONTINUOUS
100
AcDbLine
 10
7.8143684645669289
 20
-6.0332606692913382
 30
0
 11
7.8142442913385821
 21
-6.034218937007874
 31
0
  0
LINE
  5
222
330
24
100
AcDbEntity
  8
Edge.Cuts
  6
CONTINUOUS
100
AcDbLine
 10
7.8144808267716535
 20
-2.235415590551181
 30
0
 11
7.8145814566929133
 21
-2.2363766141732282
 31
0
  0
LINE
  5
223
330
24
100
AcDbEntity
  8
Edge.Cuts
  6
CONTINUOUS
100
AcDbLine
 10
7.8144808267716535
 20
-6.0323009448818894
 30
0
 11
7.8143684645669289
 21
-6.0332606692913382
 31
0
  0
LINE
  5
224
330
24
100
AcDbEntity
  8
Edge.Cuts
  6
CONTINUOUS
100
AcDbLine
 10
7.8145814566929133
 20
-2.2363766141732282
 30
0
 11
7.8146702755905508
 21
-2.2373387795275592
 31
0
  0
LINE
  5
225
330
24
100
AcDbEntity
  8
Edge.Cuts
  6
CONTINUOUS
100
AcDbLine
 10
7.8145814566929133
 20
-6.0313399212598426
 30
0
 11
7.8144808267716535
 21
-6.0323009448818894
 31
0
  0
LINE
  5
226
330
24
100
AcDbEntity
  8
Edge.Cuts
  6
CONTINUOUS
100
AcDbLine
 10
7.8146702755905508
 20
-2.2373387795275592
 30
0
 11
7.8147472440944883
 21
-2.2383020078740157
 31
0
  0
LINE
  5
227
330
24
100
AcDbEntity
  8
Edge.Cuts
  6
CONTINUOUS
100
AcDbLine
 10
7.8146702755905508
 20
-6.0303777559055121
 30
0
 11
7.8145814566929133
 21
-6.0313399212598426
 31
0
  0
LINE
  5
228
330
24
100
AcDbEntity
  8
Edge.Cuts
  6
CONTINUOUS
100
AcDbLine
 10
7.8147472440944883
 20
-2.2383020078740157
 30
0
 11
7.8148124409448814
 21
-2.2392661023622047
 31
0
  0
LINE
  5
229
330
24
100
AcDbEntity
  8
Edge.Cuts
  6
CONTINUOUS
100
AcDbLine
 10
7.8147472440944883
 20
-6.0294145275590552
 30
0
 11
7.8146702755905508
 21
-6.0303777559055121
 31
0
  0
LINE
  5
22A
330
24
100
AcDbEntity
  8
Edge.Cuts
  6
CONTINUOUS
100
AcDbLine
 10
7.8148124409448814
 20
-2.2392661023622047
 30
0
 11
7.8148657480314956
 21
-2.2402309055118108
 31
0
  0
LINE
  5
22B
330
24
100
AcDbEntity
  8
Edge.Cuts
  6
CONTINUOUS
100
AcDbLine
 10
7.8148124409448814
 20
-6.0284504330708657
 30
0
 11
7.8147472440944883
 21
-6.0294145275590552
 31
0
  0
LINE
  5
22C
330
24
100
AcDbEntity
  8
Edge.Cuts
  6
CONTINUOUS
100
AcDbLine
 10
7.8148657480314956
 20
-2.2402309055118108
 30
0
 11
7.8149072440944884
 21
-2.2411962992125982
 31
0
  0
LINE
  5
22D
330
24
100
AcDbEntity
  8
Edge.Cuts
  6
CONTINUOUS
100
AcDbLine
 10
7.8148657480314956
 20
-6.0274856299212596
 30
0
 11
7.8148124409448814
 21
-6.0284504330708657
 31
0
  0
LINE
  5
22E
330
24
100
AcDbEntity
  8
Edge.Cuts
  6
CONTINUOUS
100
AcDbLine
 10
7.8149072440944884
 20
-2.2411962992125982
 30
0
 11
7.8149368897637794
 21
-2.2421621259842519
 31
0
  0
LINE
  5
22F
330
24
100
AcDbEntity
  8
Edge.Cuts
  6
CONTINUOUS
100
AcDbLine
 10
7.8149072440944884
 20
-6.0265202362204722
 30
0
 11
7.8148657480314956
 21
-6.0274856299212596
 31
0
  0
LINE
  5
230
330
24
100
AcDbEntity
  8
Edge.Cuts
  6
CONTINUOUS
100
AcDbLine
 10
7.8149368897637794
 20
-2.2421621259842519
 30
0
 11
7.8149546850393703
 21
-2.2431282283464564
 31
0
  0
LINE
  5
231
330
24
100
AcDbEntity
  8
Edge.Cuts
  6
CONTINUOUS
100
AcDbLine
 10
7.8149368897637794
 20
-6.0255544094488185
 30
0
 11
7.8149072440944884
 21
-6.0265202362204722
 31
0
  0
LINE
  5
232
330
24
100
AcDbEntity
  8
Edge.Cuts
  6
CONTINUOUS
100
AcDbLine
 10
7.8149546850393703
 20
-2.2431282283464564
 30
0
 11
7.8149606299212593
 21
-2.2440944881889764
 31
0
  0
LINE
  5
233
330
24
100
AcDbEntity
  8
Edge.Cuts
  6
CONTINUOUS
100
AcDbLine
 10
7.8149546850393703
 20
-6.0245883070866144
 30
0
 11
7.8149368897637794
 21
-6.0255544094488185
 31
0
  0
LINE
  5
234
330
24
100
AcDbEntity
  8
Edge.Cuts
  6
CONTINUOUS
100
AcDbLine
 10
7.8149606299212593
 20
-2.2440944881889764
 30
0
 11
7.8149606299212593
 21
-6.0236220472440944
 31
0
  0
LINE
  5
235
330
24
100
AcDbEntity
  8
Edge.Cuts
  6
CONTINUOUS
100
AcDbLine
 10
7.8149606299212593
 20
-6.0236220472440944
 30
0
 11
7.8149546850393703
 21
-6.0245883070866144
 31
0
  0
CIRCLE
  5
236
330
24
100
AcDbEntity
  8
Edge.Cuts
100
AcDbCircle
 10
7.3280275590551183
 20
-4.1094645669291339
 30
0
 40
0.0059055118110236
  0
CIRCLE
  5
237
330
24
100
AcDbEntity
  8
Edge.Cuts
100
AcDbCircle
 10
6.6811023622047241
 20
-4.2204724409448815
 30
0
 40
0.0059055118110236
  0
CIRCLE
  5
238
330
24
100
AcDbEntity
  8
Edge.Cuts
100
AcDbCircle
 10
7.3280275590551183
 20
-4.0516732283464565
 30
0
 40
0.0059055118110236
  0
CIRCLE
  5
239
330
24
100
AcDbEntity
  8
Edge.Cuts
100
AcDbCircle
 10
7.2637795275590546
 20
-4.0647874015748027
 30
0
 40
0.0059055118110236
  0
CIRCLE
  5
23A
330
24
100
AcDbEntity
  8
Edge.Cuts
100
AcDbCircle
 10
7.3655078740157478
 20
-4.1665157480314958
 30
0
 40
0.0059055118110236
  0
LINE
  5
23B
330
24
100
AcDbEntity
  8
Edge.Cuts
  6
CONTINUOUS
100
AcDbLine
 10
6.2637795275590546
 20
-3.6811023622047245
 30
0
 11
6.2952755905511806
 21
-3.6811023622047245
 31
0
  0
ARC
  5
23C
330
24
100
AcDbEntity
  8
Edge.Cuts
100
AcDbCircle
 10
6.2952755905511806
 20
-3.6614173228346454
 30
0
 40
0.0196850393700787
100
AcDbArc
 50
-90.00000000
 51
90.00000000
  0
LINE
  5
23D
330
24
100
AcDbEntity
  8
Edge.Cuts
  6
CONTINUOUS
100
AcDbLine
 10
6.2952755905511806
 20
-3.6417322834645667
 30
0
 11
6.2637795275590546
 21
-3.6417322834645667
 31
0
  0
ARC
  5
23E
330
24
100
AcDbEntity
  8
Edge.Cuts
100
AcDbCircle
 10
6.2637795275590546
 20
-3.6614173228346454
 30
0
 40
0.0196850393700787
100
AcDbArc
 50
90.00000000
 51
270.00000000
  0
CIRCLE
  5
23F
330
24
100
AcDbEntity
  8
Edge.Cuts
100
AcDbCircle
 10
4.5708658267716533
 20
-4.5748017322834649
 30
0
 40
0.0374015748031496
  0
CIRCLE
  5
240
330
24
100
AcDbEntity
  8
Edge.Cuts
100
AcDbCircle
 10
4.5708664566929134
 20
-4.8740143307086612
 30
0
 40
0.0374015748031496
  0
CIRCLE
  5
241
330
24
100
AcDbEntity
  8
Edge.Cuts
100
AcDbCircle
 10
4.877952755905512
 20
-4.724407401574803
 30
0
 40
0.0200787401574803
  0
CIRCLE
  5
242
330
24
100
AcDbEntity
  8
Edge.Cuts
100
AcDbCircle
 10
4.8964566929133859
 20
-2.2620078740157479
 30
0
 40
0.0204724409448819
  0
CIRCLE
  5
243
330
24
100
AcDbEntity
  8
Edge.Cuts
100
AcDbCircle
 10
4.9964566929133856
 20
-2.2620078740157479
 30
0
 40
0.0204724409448819
  0
CIRCLE
  5
244
330
24
100
AcDbEntity
  8
Edge.Cuts
100
AcDbCircle
 10
5.0964566929133861
 20
-2.2620078740157479
 30
0
 40
0.0204724409448819
  0
CIRCLE
  5
245
330
24
100
AcDbEntity
  8
Edge.Cuts
100
AcDbCircle
 10
5.1964566929133857
 20
-2.2620078740157479
 30
0
 40
0.0204724409448819
  0
CIRCLE
  5
246
330
24
100
AcDbEntity
  8
Edge.Cuts
100
AcDbCircle
 10
5.2964566929133854
 20
-2.2620078740157479
 30
0
 40
0.0204724409448819
  0
CIRCLE
  5
247
330
24
100
AcDbEntity
  8
Edge.Cuts
100
AcDbCircle
 10
5.3964566929133859
 20
-2.2620078740157479
 30
0
 40
0.0204724409448819
  0
CIRCLE
  5
248
330
24
100
AcDbEntity
  8
Edge.Cuts
100
AcDbCircle
 10
5.4964566929133856
 20
-2.2620078740157479
 30
0
 40
0.0204724409448819
  0
CIRCLE
  5
249
330
24
100
AcDbEntity
  8
Edge.Cuts
100
AcDbCircle
 10
5.5964566929133861
 20
-2.2620078740157479
 30
0
 40
0.0204724409448819
  0
CIRCLE
  5
24A
330
24
100
AcDbEntity
  8
Edge.Cuts
100
AcDbCircle
 10
5.6964566929133857
 20
-2.2620078740157479
 30
0
 40
0.0204724409448819
  0
CIRCLE
  5
24B
330
24
100
AcDbEntity
  8
Edge.Cuts
100
AcDbCircle
 10
5.7964566929133854
 20
-2.2620078740157479
 30
0
 40
0.0204724409448819
  0
CIRCLE
  5
24C
330
24
100
AcDbEntity
  8
Edge.Cuts
100
AcDbCircle
 10
5.8964566929133859
 20
-2.2620078740157479
 30
0
 40
0.0204724409448819
  0
CIRCLE
  5
24D
330
24
100
AcDbEntity
  8
Edge.Cuts
100
AcDbCircle
 10
5.9964566929133856
 20
-2.2620078740157479
 30
0
 40
0.0204724409448819
  0
CIRCLE
  5
24E
330
24
100
AcDbEntity
  8
Edge.Cuts
100
AcDbCircle
 10
6.0964566929133861
 20
-2.2620078740157479
 30
0
 40
0.0204724409448819
  0
CIRCLE
  5
24F
330
24
100
AcDbEntity
  8
Edge.Cuts
100
AcDbCircle
 10
6.1964566929133857
 20
-2.2620078740157479
 30
0
 40
0.0204724409448819
  0
CIRCLE
  5
250
330
24
100
AcDbEntity
  8
Edge.Cuts
100
AcDbCircle
 10
6.2964566929133854
 20
-2.2620078740157479
 30
0
 40
0.0204724409448819
  0
CIRCLE
  5
251
330
24
100
AcDbEntity
  8
Edge.Cuts
100
AcDbCircle
 10
6.3964566929133859
 20
-2.2620078740157479
 30
0
 40
0.0204724409448819
  0
CIRCLE
  5
252
330
24
100
AcDbEntity
  8
Edge.Cuts
100
AcDbCircle
 10
6.4964566929133856
 20
-2.2620078740157479
 30
0
 40
0.0204724409448819
  0
CIRCLE
  5
253
330
24
100
AcDbEntity
  8
Edge.Cuts
100
AcDbCircle
 10
6.5964566929133861
 20
-2.2620078740157479
 30
0
 40
0.0204724409448819
  0
CIRCLE
  5
254
330
24
100
AcDbEntity
  8
Edge.Cuts
100
AcDbCircle
 10
6.6964566929133857
 20
-2.2620078740157479
 30
0
 40
0.0204724409448819
  0
CIRCLE
  5
255
330
24
100
AcDbEntity
  8
Edge.Cuts
100
AcDbCircle
 10
6.7964566929133854
 20
-2.2620078740157479
 30
0
 40
0.0204724409448819
  0
CIRCLE
  5
256
330
24
100
AcDbEntity
  8
Edge.Cuts
100
AcDbCircle
 10
4.5708658267716533
 20
-3.3936993700787399
 30
0
 40
0.0374015748031496
  0
CIRCLE
  5
257
330
24
100
AcDbEntity
  8
Edge.Cuts
100
AcDbCircle
 10
4.5708664566929134
 20
-3.6929119685039371
 30
0
 40
0.0374015748031496
  0
CIRCLE
  5
258
330
24
100
AcDbEntity
  8
Edge.Cuts
100
AcDbCircle
 10
4.877952755905512
 20
-3.5433050393700785
 30
0
 40
0.0200787401574803
  0
LINE
  5
259
330
24
100
AcDbEntity
  8
Edge.Cuts
  6
CONTINUOUS
100
AcDbLine
 10
7.7145656692913382
 20
-3.9362204724409446
 30
0
 11
7.7460617322834642
 21
-3.9362204724409446
 31
0
  0
ARC
  5
25A
330
24
100
AcDbEntity
  8
Edge.Cuts
100
AcDbCircle
 10
7.7460617322834642
 20
-3.9244094488188974
 30
0
 40
0.0118110236220472
100
AcDbArc
 50
-90.00000000
 51
90.00000000
  0
LINE
  5
25B
330
24
100
AcDbEntity
  8
Edge.Cuts
  6
CONTINUOUS
100
AcDbLine
 10
7.7460617322834642
 20
-3.9125984251968502
 30
0
 11
7.7145656692913382
 21
-3.9125984251968502
 31
0
  0
ARC
  5
25C
330
24
100
AcDbEntity
  8
Edge.Cuts
100
AcDbCircle
 10
7.7145656692913382
 20
-3.9244094488188974
 30
0
 40
0.0118110236220472
100
AcDbArc
 50
90.00000000
 51
270.00000000
  0
LINE
  5
25D
330
24
100
AcDbEntity
  8
Edge.Cuts
  6
CONTINUOUS
100
AcDbLine
 10
7.5570853543307086
 20
-3.9362216141732285
 30
0
 11
7.5885814173228345
 21
-3.9362216141732285
 31
0
  0
ARC
  5
25E
330
24
100
AcDbEntity
  8
Edge.Cuts
100
AcDbCircle
 10
7.5885814173228345
 20
-3.9244105905511808
 30
0
 40
0.0118110236220472
100
AcDbArc
 50
-90.00000000
 51
90.00000000
  0
LINE
  5
25F
330
24
100
AcDbEntity
  8
Edge.Cuts
  6
CONTINUOUS
100
AcDbLine
 10
7.5885814173228345
 20
-3.9125995669291336
 30
0
 11
7.5570853543307086
 21
-3.9125995669291336
 31
0
  0
ARC
  5
260
330
24
100
AcDbEntity
  8
Edge.Cuts
100
AcDbCircle
 10
7.5570853543307086
 20
-3.9244105905511808
 30
0
 40
0.0118110236220472
100
AcDbArc
 50
90.00000000
 51
270.00000000
  0
LINE
  5
261
330
24
100
AcDbEntity
  8
Edge.Cuts
  6
CONTINUOUS
100
AcDbLine
 10
7.7106311811023618
 20
-4.2763779921259841
 30
0
 11
7.7421272440944877
 21
-4.2763779921259841
 31
0
  0
ARC
  5
262
330
24
100
AcDbEntity
  8
Edge.Cuts
100
AcDbCircle
 10
7.7421272440944877
 20
-4.2645669685039369
 30
0
 40
0.0118110236220472
100
AcDbArc
 50
-90.00000000
 51
90.00000000
  0
LINE
  5
263
330
24
100
AcDbEntity
  8
Edge.Cuts
  6
CONTINUOUS
100
AcDbLine
 10
7.7421272440944877
 20
-4.2527559448818897
 30
0
 11
7.7106311811023618
 21
-4.2527559448818897
 31
0
  0
ARC
  5
264
330
24
100
AcDbEntity
  8
Edge.Cuts
100
AcDbCircle
 10
7.7106311811023618
 20
-4.2645669685039369
 30
0
 40
0.0118110236220472
100
AcDbArc
 50
90.00000000
 51
270.00000000
  0
LINE
  5
265
330
24
100
AcDbEntity
  8
Edge.Cuts
  6
CONTINUOUS
100
AcDbLine
 10
7.5570878740157479
 20
-4.2763790944881892
 30
0
 11
7.5885839370078738
 21
-4.2763790944881892
 31
0
  0
ARC
  5
266
330
24
100
AcDbEntity
  8
Edge.Cuts
100
AcDbCircle
 10
7.5885839370078738
 20
-4.264568070866142
 30
0
 40
0.0118110236220472
100
AcDbArc
 50
-90.00000000
 51
90.00000000
  0
LINE
  5
267
330
24
100
AcDbEntity
  8
Edge.Cuts
  6
CONTINUOUS
100
AcDbLine
 10
7.5885839370078738
 20
-4.2527570472440948
 30
0
 11
7.5570878740157479
 21
-4.2527570472440948
 31
0
  0
ARC
  5
268
330
24
100
AcDbEntity
  8
Edge.Cuts
100
AcDbCircle
 10
7.5570878740157479
 20
-4.264568070866142
 30
0
 40
0.0118110236220472
100
AcDbArc
 50
90.00000000
 51
270.00000000
  0
ENDSEC
  0
SECTION
  2
OBJECTS
  0
DICTIONARY
  5
2A
330
0
100
AcDbDictionary
281
1
  3
ACAD_GROUP
350
269
  3
ACAD_LAYOUT
350
2B
  3
ACAD_PLOTSTYLENAME
350
11
  0
DICTIONARY
  5
269
330
2A
100
AcDbDictionary
281
1
  0
ACDBDICTIONARYWDFLT
  5
11
330
2A
100
AcDbDictionary
281
1
  3
Normal
350
10
100
AcDbDictionaryWithDefault
340
10
  0
ACDBPLACEHOLDER
  5
10
330
11
  0
DICTIONARY
  5
2B
330
2A
100
AcDbDictionary
281
1
  3
Model
350
27
  3
Layout1
350
28
  3
Layout2
350
29
  0
LAYOUT
  5
27
330
2B
100
AcDbPlotSettings
  1

  2
none_device
  4
A3
  6

 40
0.0
 41
0.0
 42
0.0
 43
0.0
 44
420.0
 45
297.0
 46
0.0
 47
0.0
 48
0.0
 49
0.0
140
0.0
141
0.0
142
1.0
143
1.0
 70
1024
 72
1
 73
0
 74
5
  7

 75
16
 76
0
 77
2
 78
300
147
1.0
148
0.0
149
0.0
100
AcDbLayout
  1
Model
 70
1
 71
0
 10
0.0
 20
0.0
 11
420.0
 21
297.0
 12
0.0
 22
0.0
 32
0.0
 14
1e+20
 24
1e+20
 34
1e+20
 15
-1e+20
 25
-1e+20
 35
-1e+20
146
0.0
 13
0.0
 23
0.0
 33
0.0
 16
1.0
 26
0.0
 36
0.0
 17
0.0
 27
1.0
 37
0.0
 76
0
330
24
  0
LAYOUT
  5
28
330
2B
100
AcDbPlotSettings
  1

  2
none_device
  4
A3
  6

 40
0.0
 41
0.0
 42
0.0
 43
0.0
 44
420.0
 45
297.0
 46
0.0
 47
0.0
 48
0.0
 49
0.0
140
0.0
141
0.0
142
1.0
143
1.0
 70
0
 72
1
 73
0
 74
5
  7

 75
16
 76
0
 77
2
 78
300
147
1.0
148
0.0
149
0.0
100
AcDbLayout
  1
Layout1
 70
1
 71
1
 10
0.0
 20
0.0
 11
420.0
 21
297.0
 12
0.0
 22
0.0
 32
0.0
 14
1e+20
 24
1e+20
 34
1e+20
 15
-1e+20
 25
-1e+20
 35
-1e+20
146
0.0
 13
0.0
 23
0.0
 33
0.0
 16
1.0
 26
0.0
 36
0.0
 17
0.0
 27
1.0
 37
0.0
 76
0
330
25
  0
LAYOUT
  5
29
330
2B
100
AcDbPlotSettings
  1

  2
none_device
  4
A3
  6

 40
0.0
 41
0.0
 42
0.0
 43
0.0
 44
420.0
 45
297.0
 46
0.0
 47
0.0
 48
0.0
 49
0.0
140
0.0
141
0.0
142
1.0
143
1.0
 70
0
 72
1
 73
0
 74
5
  7

 75
16
 76
0
 77
2
 78
300
147
1.0
148
0.0
149
0.0
100
AcDbLayout
  1
Layout2
 70
1
 71
2
 10
0.0
 20
0.0
 11
420.0
 21
297.0
 12
0.0
 22
0.0
 32
0.0
 14
1e+20
 24
1e+20
 34
1e+20
 15
-1e+20
 25
-1e+20
 35
-1e+20
146
0.0
 13
0.0
 23
0.0
 33
0.0
 16
1.0
 26
0.0
 36
0.0
 17
0.0
 27
1.0
 37
0.0
 76
0
330
26
  0
ENDSEC
  0
EOF
