  0
SECTION
  2
HEADER
  9
$ACADVER
  1
AC1018
  9
$HANDSEED
  5
FFFFFFFF
  9
$ANGBASE
  50
0.0
  9
$ANGDIR
  70
1
  9
$MEASUREMENT
  70
0
  9
$INSUNITS
  70
1
  0
ENDSEC
  0
SECTION
  2
TABLES
  0
TABLE
  2
APPID
  5
1
330
0
100
AcDbSymbolTable
 70
1
  0
APPID
  5
2
330
1
100
AcDbSymbolTableRecord
100
AcDbRegAppTableRecord
  2
ACAD
 70
0
  0
ENDTAB
  0
TABLE
  2
LTYPE
  5
3
330
0
100
AcDbSymbolTable
 70
6
  0
LTYPE
  5
4
330
3
100
AcDbSymbolTableRecord
100
AcDbLinetypeTableRecord
  2
ByBlock
 70
0
  3

 72
65
 73
0
 40
0
  0
LTYPE
  5
5
330
3
100
AcDbSymbolTableRecord
100
AcDbLinetypeTableRecord
  2
ByLayer
 70
0
  3

 72
65
 73
0
 40
0
  0
LTYPE
  5
6
330
3
100
AcDbSymbolTableRecord
100
AcDbLinetypeTableRecord
  2
CONTINUOUS
 70
0
  3
Solid line
 72
65
 73
0
 40
0
  0
LTYPE
  5
7
330
3
100
AcDbSymbolTableRecord
100
AcDbLinetypeTableRecord
  2
DASHDOT
 70
0
  3
Dash Dot ____ _ ____ _
 72
65
 73
4
 40
2
 49
1.25
 74
0
 49
-0.25
 74
0
 49
0.25
 74
0
 49
-0.25
 74
0
  0
LTYPE
  5
8
330
3
100
AcDbSymbolTableRecord
100
AcDbLinetypeTableRecord
  2
DASHED
 70
0
  3
Dashed __ __ __ __ __
 72
65
 73
2
 40
0.75
 49
0.5
 74
0
 49
-0.25
 74
0
  0
LTYPE
  5
9
330
3
100
AcDbSymbolTableRecord
100
AcDbLinetypeTableRecord
  2
DOTTED
 70
0
  3
Dotted .  .  .  .
 72
65
 73
2
 40
0.2
 49
0.0
 74
0
 49
-0.2
 74
0
  0
ENDTAB
  0
TABLE
  2
STYLE
  5
A
330
0
100
AcDbSymbolTable
 70
4
  0
STYLE
  5
B
330
A
100
AcDbSymbolTableRecord
100
AcDbTextStyleTableRecord
  2
Flux
 70
0
 40
0
 41
1
 42
1
 50
0
 71
0
  3
isocp.shx
  0
STYLE
  5
C
330
A
100
AcDbSymbolTableRecord
100
AcDbTextStyleTableRecord
  2
FluxB
 70
0
 40
0
 41
1
 42
1
 50
0
 71
0
  3
isocp.shx
  0
STYLE
  5
D
330
A
100
AcDbSymbolTableRecord
100
AcDbTextStyleTableRecord
  2
FluxI
 70
0
 40
0
 41
1
 42
1
 50
15
 71
0
  3
isocp.shx
  0
STYLE
  5
E
330
A
100
AcDbSymbolTableRecord
100
AcDbTextStyleTableRecord
  2
FluxBI
 70
0
 40
0
 41
1
 42
1
 50
15
 71
0
  3
isocp.shx
  0
ENDTAB
  0
TABLE
  2
LAYER
  5
F
330
0
100
AcDbSymbolTable
 70
12
  0
LAYER
  5
12
330
F
100
AcDbSymbolTableRecord
100
AcDbLayerTableRecord
  2
0
 70
0
 62
7
  6
CONTINUOUS
390
10
  0
LAYER
  5
13
330
F
100
AcDbSymbolTableRecord
100
AcDbLayerTableRecord
  2
Edge.Cuts
 70
0
 62
254
420
13685453
  6
CONTINUOUS
390
10
  0
LAYER
  5
14
330
F
100
AcDbSymbolTableRecord
100
AcDbLayerTableRecord
  2
B.Cu
 70
0
 62
153
420
5078980
  6
CONTINUOUS
390
10
  0
LAYER
  5
15
330
F
100
AcDbSymbolTableRecord
100
AcDbLayerTableRecord
  2
B.Mask
 70
0
 62
4
420
196590
  6
CONTINUOUS
390
10
  0
LAYER
  5
16
330
F
100
AcDbSymbolTableRecord
100
AcDbLayerTableRecord
  2
B.Paste
 70
0
 62
132
420
49858
  6
CONTINUOUS
390
10
  0
LAYER
  5
17
330
F
100
AcDbSymbolTableRecord
100
AcDbLayerTableRecord
  2
B.Silkscreen
 70
0
 62
31
420
15250087
  6
CONTINUOUS
390
10
  0
LAYER
  5
18
330
F
100
AcDbSymbolTableRecord
100
AcDbLayerTableRecord
  2
F.Cu
 70
0
 62
13
420
13120564
  6
CONTINUOUS
390
10
  0
LAYER
  5
19
330
F
100
AcDbSymbolTableRecord
100
AcDbLayerTableRecord
  2
F.Mask
 70
0
 62
201
420
14181631
  6
CONTINUOUS
390
10
  0
LAYER
  5
1A
330
F
100
AcDbSymbolTableRecord
100
AcDbLayerTableRecord
  2
F.Paste
 70
0
 62
253
420
11837594
  6
CONTINUOUS
390
10
  0
LAYER
  5
1B
330
F
100
AcDbSymbolTableRecord
100
AcDbLayerTableRecord
  2
F.Silkscreen
 70
0
 62
41
420
15920545
  6
CONTINUOUS
390
10
  0
LAYER
  5
1C
330
F
100
AcDbSymbolTableRecord
100
AcDbLayerTableRecord
  2
In1.Cu
 70
0
 62
91
420
8374399
  6
CONTINUOUS
390
10
  0
LAYER
  5
1D
330
F
100
AcDbSymbolTableRecord
100
AcDbLayerTableRecord
  2
In2.Cu
 70
0
 62
33
420
13532460
  6
CONTINUOUS
390
10
  0
ENDTAB
  0
TABLE
  2
VPORT
  5
1E
330
0
100
AcDbSymbolTable
 70
0
  0
ENDTAB
  0
TABLE
  2
VIEW
  5
1F
330
0
100
AcDbSymbolTable
 70
0
  0
ENDTAB
  0
TABLE
  2
UCS
  5
20
330
0
100
AcDbSymbolTable
 70
0
  0
ENDTAB
  0
TABLE
  2
DIMSTYLE
  5
21
330
0
100
AcDbSymbolTable
 70
1
100
AcDbDimStyleTable
 71
0
  0
DIMSTYLE
105
22
330
21
100
AcDbSymbolTableRecord
100
AcDbDimStyleTableRecord
  2
Standard
 70
0
  0
ENDTAB
  0
TABLE
  2
BLOCK_RECORD
  5
23
330
0
100
AcDbSymbolTable
 70
3
  0
BLOCK_RECORD
  5
24
330
23
100
AcDbSymbolTableRecord
100
AcDbBlockTableRecord
  2
*Model_Space
340
27
 70
0
280
1
281
0
  0
BLOCK_RECORD
  5
25
330
23
100
AcDbSymbolTableRecord
100
AcDbBlockTableRecord
  2
*Paper_Space
340
28
 70
0
280
1
281
0
  0
BLOCK_RECORD
  5
26
330
23
100
AcDbSymbolTableRecord
100
AcDbBlockTableRecord
  2
*Paper_Space0
340
29
 70
0
280
1
281
0
  0
ENDTAB
  0
ENDSEC
  0
SECTION
  2
BLOCKS
  0
BLOCK
  5
2D
330
24
100
AcDbEntity
  8
0
100
AcDbBlockBegin
  2
*Model_Space
 70
0
 10
0.0
 20
0.0
 30
0.0
  3
*Model_Space
  1

  0
ENDBLK
  5
2C
330
24
100
AcDbEntity
  8
0
100
AcDbBlockEnd
  0
BLOCK
  5
2F
330
25
100
AcDbEntity
 67
1
  8
0
100
AcDbBlockBegin
  2
*Paper_Space
 70
0
 10
0.0
 20
0.0
 30
0.0
  3
*Paper_Space
  1

  0
ENDBLK
  5
2E
330
25
100
AcDbEntity
 67
1
  8
0
100
AcDbBlockEnd
  0
BLOCK
  5
31
330
26
100
AcDbEntity
 67
1
  8
0
100
AcDbBlockBegin
  2
*Paper_Space0
 70
0
 10
0.0
 20
0.0
 30
0.0
  3
*Paper_Space0
  1

  0
ENDBLK
  5
30
330
26
100
AcDbEntity
 67
1
  8
0
100
AcDbBlockEnd
  0
ENDSEC
  0
SECTION
  2
ENTITIES
  0
CIRCLE
  5
32
330
24
100
AcDbEntity
  8
B.Silkscreen
100
AcDbCircle
 10
7.3280275590551183
 20
-4.1094645669291339
 30
0
 40
0.0059055118110236
  0
CIRCLE
  5
33
330
24
100
AcDbEntity
  8
B.Silkscreen
100
AcDbCircle
 10
6.6811023622047241
 20
-4.2204724409448815
 30
0
 40
0.0059055118110236
  0
CIRCLE
  5
34
330
24
100
AcDbEntity
  8
B.Silkscreen
100
AcDbCircle
 10
7.3280275590551183
 20
-4.0516732283464565
 30
0
 40
0.0059055118110236
  0
CIRCLE
  5
35
330
24
100
AcDbEntity
  8
B.Silkscreen
100
AcDbCircle
 10
7.2637795275590546
 20
-4.0647874015748027
 30
0
 40
0.0059055118110236
  0
CIRCLE
  5
36
330
24
100
AcDbEntity
  8
B.Silkscreen
100
AcDbCircle
 10
7.3655078740157478
 20
-4.1665157480314958
 30
0
 40
0.0059055118110236
  0
LINE
  5
37
330
24
100
AcDbEntity
  8
B.Silkscreen
  6
CONTINUOUS
100
AcDbLine
 10
6.2637795275590546
 20
-3.6811023622047245
 30
0
 11
6.2952755905511806
 21
-3.6811023622047245
 31
0
  0
ARC
  5
38
330
24
100
AcDbEntity
  8
B.Silkscreen
100
AcDbCircle
 10
6.2952755905511806
 20
-3.6614173228346454
 30
0
 40
0.0196850393700787
100
AcDbArc
 50
-90.00000000
 51
90.00000000
  0
LINE
  5
39
330
24
100
AcDbEntity
  8
B.Silkscreen
  6
CONTINUOUS
100
AcDbLine
 10
6.2952755905511806
 20
-3.6417322834645667
 30
0
 11
6.2637795275590546
 21
-3.6417322834645667
 31
0
  0
ARC
  5
3A
330
24
100
AcDbEntity
  8
B.Silkscreen
100
AcDbCircle
 10
6.2637795275590546
 20
-3.6614173228346454
 30
0
 40
0.0196850393700787
100
AcDbArc
 50
90.00000000
 51
270.00000000
  0
CIRCLE
  5
3B
330
24
100
AcDbEntity
  8
B.Silkscreen
100
AcDbCircle
 10
4.5708658267716533
 20
-4.5748017322834649
 30
0
 40
0.0374015748031496
  0
CIRCLE
  5
3C
330
24
100
AcDbEntity
  8
B.Silkscreen
100
AcDbCircle
 10
4.5708664566929134
 20
-4.8740143307086612
 30
0
 40
0.0374015748031496
  0
CIRCLE
  5
3D
330
24
100
AcDbEntity
  8
B.Silkscreen
100
AcDbCircle
 10
4.877952755905512
 20
-4.724407401574803
 30
0
 40
0.0200787401574803
  0
CIRCLE
  5
3E
330
24
100
AcDbEntity
  8
B.Silkscreen
100
AcDbCircle
 10
4.8964566929133859
 20
-2.2620078740157479
 30
0
 40
0.0204724409448819
  0
CIRCLE
  5
3F
330
24
100
AcDbEntity
  8
B.Silkscreen
100
AcDbCircle
 10
4.9964566929133856
 20
-2.2620078740157479
 30
0
 40
0.0204724409448819
  0
CIRCLE
  5
40
330
24
100
AcDbEntity
  8
B.Silkscreen
100
AcDbCircle
 10
5.0964566929133861
 20
-2.2620078740157479
 30
0
 40
0.0204724409448819
  0
CIRCLE
  5
41
330
24
100
AcDbEntity
  8
B.Silkscreen
100
AcDbCircle
 10
5.1964566929133857
 20
-2.2620078740157479
 30
0
 40
0.0204724409448819
  0
CIRCLE
  5
42
330
24
100
AcDbEntity
  8
B.Silkscreen
100
AcDbCircle
 10
5.2964566929133854
 20
-2.2620078740157479
 30
0
 40
0.0204724409448819
  0
CIRCLE
  5
43
330
24
100
AcDbEntity
  8
B.Silkscreen
100
AcDbCircle
 10
5.3964566929133859
 20
-2.2620078740157479
 30
0
 40
0.0204724409448819
  0
CIRCLE
  5
44
330
24
100
AcDbEntity
  8
B.Silkscreen
100
AcDbCircle
 10
5.4964566929133856
 20
-2.2620078740157479
 30
0
 40
0.0204724409448819
  0
CIRCLE
  5
45
330
24
100
AcDbEntity
  8
B.Silkscreen
100
AcDbCircle
 10
5.5964566929133861
 20
-2.2620078740157479
 30
0
 40
0.0204724409448819
  0
CIRCLE
  5
46
330
24
100
AcDbEntity
  8
B.Silkscreen
100
AcDbCircle
 10
5.6964566929133857
 20
-2.2620078740157479
 30
0
 40
0.0204724409448819
  0
CIRCLE
  5
47
330
24
100
AcDbEntity
  8
B.Silkscreen
100
AcDbCircle
 10
5.7964566929133854
 20
-2.2620078740157479
 30
0
 40
0.0204724409448819
  0
CIRCLE
  5
48
330
24
100
AcDbEntity
  8
B.Silkscreen
100
AcDbCircle
 10
5.8964566929133859
 20
-2.2620078740157479
 30
0
 40
0.0204724409448819
  0
CIRCLE
  5
49
330
24
100
AcDbEntity
  8
B.Silkscreen
100
AcDbCircle
 10
5.9964566929133856
 20
-2.2620078740157479
 30
0
 40
0.0204724409448819
  0
CIRCLE
  5
4A
330
24
100
AcDbEntity
  8
B.Silkscreen
100
AcDbCircle
 10
6.0964566929133861
 20
-2.2620078740157479
 30
0
 40
0.0204724409448819
  0
CIRCLE
  5
4B
330
24
100
AcDbEntity
  8
B.Silkscreen
100
AcDbCircle
 10
6.1964566929133857
 20
-2.2620078740157479
 30
0
 40
0.0204724409448819
  0
CIRCLE
  5
4C
330
24
100
AcDbEntity
  8
B.Silkscreen
100
AcDbCircle
 10
6.2964566929133854
 20
-2.2620078740157479
 30
0
 40
0.0204724409448819
  0
CIRCLE
  5
4D
330
24
100
AcDbEntity
  8
B.Silkscreen
100
AcDbCircle
 10
6.3964566929133859
 20
-2.2620078740157479
 30
0
 40
0.0204724409448819
  0
CIRCLE
  5
4E
330
24
100
AcDbEntity
  8
B.Silkscreen
100
AcDbCircle
 10
6.4964566929133856
 20
-2.2620078740157479
 30
0
 40
0.0204724409448819
  0
CIRCLE
  5
4F
330
24
100
AcDbEntity
  8
B.Silkscreen
100
AcDbCircle
 10
6.5964566929133861
 20
-2.2620078740157479
 30
0
 40
0.0204724409448819
  0
CIRCLE
  5
50
330
24
100
AcDbEntity
  8
B.Silkscreen
100
AcDbCircle
 10
6.6964566929133857
 20
-2.2620078740157479
 30
0
 40
0.0204724409448819
  0
CIRCLE
  5
51
330
24
100
AcDbEntity
  8
B.Silkscreen
100
AcDbCircle
 10
6.7964566929133854
 20
-2.2620078740157479
 30
0
 40
0.0204724409448819
  0
CIRCLE
  5
52
330
24
100
AcDbEntity
  8
B.Silkscreen
100
AcDbCircle
 10
4.5708658267716533
 20
-3.3936993700787399
 30
0
 40
0.0374015748031496
  0
CIRCLE
  5
53
330
24
100
AcDbEntity
  8
B.Silkscreen
100
AcDbCircle
 10
4.5708664566929134
 20
-3.6929119685039371
 30
0
 40
0.0374015748031496
  0
CIRCLE
  5
54
330
24
100
AcDbEntity
  8
B.Silkscreen
100
AcDbCircle
 10
4.877952755905512
 20
-3.5433050393700785
 30
0
 40
0.0200787401574803
  0
LINE
  5
55
330
24
100
AcDbEntity
  8
B.Silkscreen
  6
CONTINUOUS
100
AcDbLine
 10
7.7145656692913382
 20
-3.9362204724409446
 30
0
 11
7.7460617322834642
 21
-3.9362204724409446
 31
0
  0
ARC
  5
56
330
24
100
AcDbEntity
  8
B.Silkscreen
100
AcDbCircle
 10
7.7460617322834642
 20
-3.9244094488188974
 30
0
 40
0.0118110236220472
100
AcDbArc
 50
-90.00000000
 51
90.00000000
  0
LINE
  5
57
330
24
100
AcDbEntity
  8
B.Silkscreen
  6
CONTINUOUS
100
AcDbLine
 10
7.7460617322834642
 20
-3.9125984251968502
 30
0
 11
7.7145656692913382
 21
-3.9125984251968502
 31
0
  0
ARC
  5
58
330
24
100
AcDbEntity
  8
B.Silkscreen
100
AcDbCircle
 10
7.7145656692913382
 20
-3.9244094488188974
 30
0
 40
0.0118110236220472
100
AcDbArc
 50
90.00000000
 51
270.00000000
  0
LINE
  5
59
330
24
100
AcDbEntity
  8
B.Silkscreen
  6
CONTINUOUS
100
AcDbLine
 10
7.5570853543307086
 20
-3.9362216141732285
 30
0
 11
7.5885814173228345
 21
-3.9362216141732285
 31
0
  0
ARC
  5
5A
330
24
100
AcDbEntity
  8
B.Silkscreen
100
AcDbCircle
 10
7.5885814173228345
 20
-3.9244105905511808
 30
0
 40
0.0118110236220472
100
AcDbArc
 50
-90.00000000
 51
90.00000000
  0
LINE
  5
5B
330
24
100
AcDbEntity
  8
B.Silkscreen
  6
CONTINUOUS
100
AcDbLine
 10
7.5885814173228345
 20
-3.9125995669291336
 30
0
 11
7.5570853543307086
 21
-3.9125995669291336
 31
0
  0
ARC
  5
5C
330
24
100
AcDbEntity
  8
B.Silkscreen
100
AcDbCircle
 10
7.5570853543307086
 20
-3.9244105905511808
 30
0
 40
0.0118110236220472
100
AcDbArc
 50
90.00000000
 51
270.00000000
  0
LINE
  5
5D
330
24
100
AcDbEntity
  8
B.Silkscreen
  6
CONTINUOUS
100
AcDbLine
 10
7.7106311811023618
 20
-4.2763779921259841
 30
0
 11
7.7421272440944877
 21
-4.2763779921259841
 31
0
  0
ARC
  5
5E
330
24
100
AcDbEntity
  8
B.Silkscreen
100
AcDbCircle
 10
7.7421272440944877
 20
-4.2645669685039369
 30
0
 40
0.0118110236220472
100
AcDbArc
 50
-90.00000000
 51
90.00000000
  0
LINE
  5
5F
330
24
100
AcDbEntity
  8
B.Silkscreen
  6
CONTINUOUS
100
AcDbLine
 10
7.7421272440944877
 20
-4.2527559448818897
 30
0
 11
7.7106311811023618
 21
-4.2527559448818897
 31
0
  0
ARC
  5
60
330
24
100
AcDbEntity
  8
B.Silkscreen
100
AcDbCircle
 10
7.7106311811023618
 20
-4.2645669685039369
 30
0
 40
0.0118110236220472
100
AcDbArc
 50
90.00000000
 51
270.00000000
  0
LINE
  5
61
330
24
100
AcDbEntity
  8
B.Silkscreen
  6
CONTINUOUS
100
AcDbLine
 10
7.5570878740157479
 20
-4.2763790944881892
 30
0
 11
7.5885839370078738
 21
-4.2763790944881892
 31
0
  0
ARC
  5
62
330
24
100
AcDbEntity
  8
B.Silkscreen
100
AcDbCircle
 10
7.5885839370078738
 20
-4.264568070866142
 30
0
 40
0.0118110236220472
100
AcDbArc
 50
-90.00000000
 51
90.00000000
  0
LINE
  5
63
330
24
100
AcDbEntity
  8
B.Silkscreen
  6
CONTINUOUS
100
AcDbLine
 10
7.5885839370078738
 20
-4.2527570472440948
 30
0
 11
7.5570878740157479
 21
-4.2527570472440948
 31
0
  0
ARC
  5
64
330
24
100
AcDbEntity
  8
B.Silkscreen
100
AcDbCircle
 10
7.5570878740157479
 20
-4.264568070866142
 30
0
 40
0.0118110236220472
100
AcDbArc
 50
90.00000000
 51
270.00000000
  0
ENDSEC
  0
SECTION
  2
OBJECTS
  0
DICTIONARY
  5
2A
330
0
100
AcDbDictionary
281
1
  3
ACAD_GROUP
350
65
  3
ACAD_LAYOUT
350
2B
  3
ACAD_PLOTSTYLENAME
350
11
  0
DICTIONARY
  5
65
330
2A
100
AcDbDictionary
281
1
  0
ACDBDICTIONARYWDFLT
  5
11
330
2A
100
AcDbDictionary
281
1
  3
Normal
350
10
100
AcDbDictionaryWithDefault
340
10
  0
ACDBPLACEHOLDER
  5
10
330
11
  0
DICTIONARY
  5
2B
330
2A
100
AcDbDictionary
281
1
  3
Model
350
27
  3
Layout1
350
28
  3
Layout2
350
29
  0
LAYOUT
  5
27
330
2B
100
AcDbPlotSettings
  1

  2
none_device
  4
A3
  6

 40
0.0
 41
0.0
 42
0.0
 43
0.0
 44
420.0
 45
297.0
 46
0.0
 47
0.0
 48
0.0
 49
0.0
140
0.0
141
0.0
142
1.0
143
1.0
 70
1024
 72
1
 73
0
 74
5
  7

 75
16
 76
0
 77
2
 78
300
147
1.0
148
0.0
149
0.0
100
AcDbLayout
  1
Model
 70
1
 71
0
 10
0.0
 20
0.0
 11
420.0
 21
297.0
 12
0.0
 22
0.0
 32
0.0
 14
1e+20
 24
1e+20
 34
1e+20
 15
-1e+20
 25
-1e+20
 35
-1e+20
146
0.0
 13
0.0
 23
0.0
 33
0.0
 16
1.0
 26
0.0
 36
0.0
 17
0.0
 27
1.0
 37
0.0
 76
0
330
24
  0
LAYOUT
  5
28
330
2B
100
AcDbPlotSettings
  1

  2
none_device
  4
A3
  6

 40
0.0
 41
0.0
 42
0.0
 43
0.0
 44
420.0
 45
297.0
 46
0.0
 47
0.0
 48
0.0
 49
0.0
140
0.0
141
0.0
142
1.0
143
1.0
 70
0
 72
1
 73
0
 74
5
  7

 75
16
 76
0
 77
2
 78
300
147
1.0
148
0.0
149
0.0
100
AcDbLayout
  1
Layout1
 70
1
 71
1
 10
0.0
 20
0.0
 11
420.0
 21
297.0
 12
0.0
 22
0.0
 32
0.0
 14
1e+20
 24
1e+20
 34
1e+20
 15
-1e+20
 25
-1e+20
 35
-1e+20
146
0.0
 13
0.0
 23
0.0
 33
0.0
 16
1.0
 26
0.0
 36
0.0
 17
0.0
 27
1.0
 37
0.0
 76
0
330
25
  0
LAYOUT
  5
29
330
2B
100
AcDbPlotSettings
  1

  2
none_device
  4
A3
  6

 40
0.0
 41
0.0
 42
0.0
 43
0.0
 44
420.0
 45
297.0
 46
0.0
 47
0.0
 48
0.0
 49
0.0
140
0.0
141
0.0
142
1.0
143
1.0
 70
0
 72
1
 73
0
 74
5
  7

 75
16
 76
0
 77
2
 78
300
147
1.0
148
0.0
149
0.0
100
AcDbLayout
  1
Layout2
 70
1
 71
2
 10
0.0
 20
0.0
 11
420.0
 21
297.0
 12
0.0
 22
0.0
 32
0.0
 14
1e+20
 24
1e+20
 34
1e+20
 15
-1e+20
 25
-1e+20
 35
-1e+20
146
0.0
 13
0.0
 23
0.0
 33
0.0
 16
1.0
 26
0.0
 36
0.0
 17
0.0
 27
1.0
 37
0.0
 76
0
330
26
  0
ENDSEC
  0
EOF
